<?xml version="1.0" encoding="UTF-8"?>
<!-- Do not edit this file with editors other than draw.io -->
<!DOCTYPE svg PUBLIC "-//W3C//DTD SVG 1.1//EN" "http://www.w3.org/Graphics/SVG/1.1/DTD/svg11.dtd">
<svg xmlns="http://www.w3.org/2000/svg" style="background: transparent; background-color: transparent; color-scheme: light dark;" xmlns:xlink="http://www.w3.org/1999/xlink" version="1.1" width="800px" height="484px" viewBox="-0.5 -0.5 800 484" content="&lt;mxfile host=&quot;Electron&quot; agent=&quot;Mozilla/5.0 (X11; Linux x86_64) AppleWebKit/537.36 (KHTML, like Gecko) draw.io/28.2.5 Chrome/138.0.7204.251 Electron/37.6.1 Safari/537.36&quot; version=&quot;28.2.5&quot; scale=&quot;1&quot; border=&quot;0&quot;&gt;&#10;  &lt;diagram name=&quot;Page-1&quot; id=&quot;fghI17fqqE7mxw0dcEuo&quot;&gt;&#10;    &lt;mxGraphModel dx=&quot;1360&quot; dy=&quot;843&quot; grid=&quot;1&quot; gridSize=&quot;10&quot; guides=&quot;1&quot; tooltips=&quot;1&quot; connect=&quot;1&quot; arrows=&quot;1&quot; fold=&quot;1&quot; page=&quot;1&quot; pageScale=&quot;1&quot; pageWidth=&quot;850&quot; pageHeight=&quot;1100&quot; math=&quot;0&quot; shadow=&quot;0&quot;&gt;&#10;      &lt;root&gt;&#10;        &lt;mxCell id=&quot;0&quot; /&gt;&#10;        &lt;mxCell id=&quot;1&quot; parent=&quot;0&quot; /&gt;&#10;        &lt;mxCell id=&quot;39FdgqspXQ8CtRbUQ8u1-2&quot; value=&quot;&quot; style=&quot;shape=image;verticalLabelPosition=bottom;labelBackgroundColor=default;verticalAlign=top;aspect=fixed;imageAspect=0;editableCssRules=.*;image=data:image/svg+xml,PHN2ZyB4bWxuczp4bGluaz0iaHR0cDovL3d3dy53My5vcmcvMTk5OS94bGluayIgeG1sbnM9Imh0dHA6Ly93d3cudzMub3JnLzIwMDAvc3ZnIiByb2xlPSJpbWciIHZpZXdCb3g9IjAgMCA1MjAgNzI3Ljg0MjEwMjA1MDc4MTIiIGhlaWdodD0iNzI3Ljg0MjEwMjA1MDc4MTIiIHdpZHRoPSI1MjAiPjxwYXRoIGZpbGw9IiNlNmU2ZTYiIHRyYW5zZm9ybT0idHJhbnNsYXRlKC0xNjEuNTEzNzggLTc4KSIgZD0iTTY3Ni41MTM3OCwyNjloLTI2YTUuMDA1NzMsNS4wMDU3MywwLDAsMS01LTVWMjM4YTUuMDA1NzMsNS4wMDU3MywwLDAsMSw1LTVoMjZhNS4wMDU3Myw1LjAwNTczLDAsMCwxLDUsNXYyNkE1LjAwNTczLDUuMDA1NzMsMCwwLDEsNjc2LjUxMzc4LDI2OVptLTI2LTM0YTMuMDAzMjgsMy4wMDMyOCwwLDAsMC0zLDN2MjZhMy4wMDMyOCwzLjAwMzI4LDAsMCwwLDMsM2gyNmEzLjAwMzI4LDMuMDAzMjgsMCwwLDAsMy0zVjIzOGEzLjAwMzI4LDMuMDAzMjgsMCwwLDAtMy0zWiIvPjxwYXRoIGZpbGw9IiNlNmU2ZTYiIHRyYW5zZm9ybT0idHJhbnNsYXRlKC0xNjEuNTEzNzggLTc4KSIgZD0iTTM3My41MTM3OCwxMTRoLTI2YTUuMDA1NzMsNS4wMDU3MywwLDAsMS01LTVWODNhNS4wMDU3Myw1LjAwNTczLDAsMCwxLDUtNWgyNmE1LjAwNTczLDUuMDA1NzMsMCwwLDEsNSw1djI2QTUuMDA1NzMsNS4wMDU3MywwLDAsMSwzNzMuNTEzNzgsMTE0Wm0tMjYtMzRhMy4wMDMyOCwzLjAwMzI4LDAsMCwwLTMsM3YyNmEzLjAwMzI4LDMuMDAzMjgsMCwwLDAsMywzaDI2YTMuMDAzMjgsMy4wMDMyOCwwLDAsMCwzLTNWODNhMy4wMDMyOCwzLjAwMzI4LDAsMCwwLTMtM1oiLz48cGF0aCBmaWxsPSIjZTZlNmU2IiB0cmFuc2Zvcm09InRyYW5zbGF0ZSgtMTYxLjUxMzc4IC03OCkiIGQ9Ik02NjAuNTEzNzgsMjU2aC0yNmE1LjAwNTczLDUuMDA1NzMsMCwwLDEtNS01VjIyNWE1LjAwNTczLDUuMDA1NzMsMCwwLDEsNS01aDI2YTUuMDA1NzMsNS4wMDU3MywwLDAsMSw1LDV2MjZBNS4wMDU3Myw1LjAwNTczLDAsMCwxLDY2MC41MTM3OCwyNTZabS0yNi0zNGEzLjAwMzI4LDMuMDAzMjgsMCwwLDAtMywzdjI2YTMuMDAzMjgsMy4wMDMyOCwwLDAsMCwzLDNoMjZhMy4wMDMyOCwzLjAwMzI4LDAsMCwwLDMtM1YyMjVhMy4wMDMyOCwzLjAwMzI4LDAsMCwwLTMtM1oiLz48cGF0aCBmaWxsPSIjZTZlNmU2IiB0cmFuc2Zvcm09InRyYW5zbGF0ZSgtMTYxLjUxMzc4IC03OCkiIGQ9Ik0yMDguNTEzNzgsNDczaC0yNmE1LjAwNTczLDUuMDA1NzMsMCwwLDEtNS01VjQ0MmE1LjAwNTczLDUuMDA1NzMsMCwwLDEsNS01aDI2YTUuMDA1NzMsNS4wMDU3MywwLDAsMSw1LDV2MjZBNS4wMDU3Myw1LjAwNTczLDAsMCwxLDIwOC41MTM3OCw0NzNabS0yNi0zNGEzLjAwMzI4LDMuMDAzMjgsMCwwLDAtMywzdjI2YTMuMDAzMjgsMy4wMDMyOCwwLDAsMCwzLDNoMjZhMy4wMDMyOCwzLjAwMzI4LDAsMCwwLDMtM1Y0NDJhMy4wMDMyOCwzLjAwMzI4LDAsMCwwLTMtM1oiLz48cGF0aCBmaWxsPSIjZTZlNmU2IiB0cmFuc2Zvcm09InRyYW5zbGF0ZSgtMTYxLjUxMzc4IC03OCkiIGQ9Ik0xOTIuNTEzNzgsNDYwaC0yNmE1LjAwNTczLDUuMDA1NzMsMCwwLDEtNS01VjQyOWE1LjAwNTczLDUuMDA1NzMsMCwwLDEsNS01aDI2YTUuMDA1NzMsNS4wMDU3MywwLDAsMSw1LDV2MjZBNS4wMDU3Myw1LjAwNTczLDAsMCwxLDE5Mi41MTM3OCw0NjBabS0yNi0zNGEzLjAwMzI4LDMuMDAzMjgsMCwwLDAtMywzdjI2YTMuMDAzMjgsMy4wMDMyOCwwLDAsMCwzLDNoMjZhMy4wMDMyOCwzLjAwMzI4LDAsMCwwLDMtM1Y0MjlhMy4wMDMyOCwzLjAwMzI4LDAsMCwwLTMtM1oiLz48cGF0aCBmaWxsPSIjM2YzZDU2IiB0cmFuc2Zvcm09InRyYW5zbGF0ZSgtMTYxLjUxMzc4IC03OCkiIGQ9Ik0yNTMuOTQzMTMsMTY0LjAzODU5SDQ5NC41NTg2MmE1MS4xNTAwOCw1MS4xNTAwOCwwLDAsMSw0OS44OTc3NywzOS45MDA2Mkw2NjYuMDM0NjQsNzQzLjIwNjQ4YTQxLjM0MDQ2LDQxLjM0MDQ2LDAsMCwxLTM4LjI5MzgzLDUwLjM4MjMyTDM4MC4zODY0OCw4MDUuNzc1OTRBNTQuNjE0OTEsNTQuNjE0OTEsMCwwLDEsMzIzLjk1Niw3NjAuOTQ4NDhsLTY4Ljk2NjU5LTM4MS4yNjgtNS4xMzA4MiwxLjQ2Ni0xMy4xOTYxMy03Mi4yNjQ1Niw1LjI4MTQ2LTEuMzIwMzdMMjIyLjY5MjkzLDIwMS4xMzZhMzEuNDkyNzgsMzEuNDkyNzgsMCwwLDEsMzEuMjUwMi0zNy4wOTczOFoiLz48cGF0aCBmaWxsPSIjZmZmIiB0cmFuc2Zvcm09InRyYW5zbGF0ZSgtMTYxLjUxMzc4IC03OCkiIGQ9Ik00NjIuODgyLDE3NS42NjM3OGgyOC4wODcwN2EzNS4zNDg2MywzNS4zNDg2MywwLDAsMSwzNC41MzYxNiwyNy44MTM0OEw2NDIuMjAzNjQsNzM4LjM0NDc4YTIxLjkwMzI0LDIxLjkwMzI0LDAsMCwxLTE5Ljk2NzQsMjYuNTI1MzlsLTI0Ni41NTQxNywxNi4xNTlhMjguMzY2ODQsMjguMzY2ODQsMCwwLDEtMjkuNzcyNzQtMjMuMjc3NDZMMjQ2LjMyOTgzLDIwNC45MTRhMjQuODQ1NzksMjQuODQ1NzksMCwwLDEsMjQuNDUyMjgtMjkuMjUwMTdoMjYuNjQ1YTExLjcyNTg1LDExLjcyNTg1LDAsMCwxLDExLjMyMjY3LDguNjc3NDJoMGExMC4zNTE4NCwxMC4zNTE4NCwwLDAsMCw5Ljk5NTkxLDcuNjYwNjNINDQ1LjIzODgzYTE3LjY5NTIyLDE3LjY5NTIyLDAsMCwwLDE3LjY0MzEtMTYuMzM4MDZaIi8+PHBvbHlnb24gZmlsbD0iIzA1N2EyYyIgcG9pbnRzPSIxMDQgMTg4LjYwNiAzNzEuNDc2IDE4OC42MDYgMzk5Ljk3MSAzMTcgMTI5IDMyMiAxMDQgMTg4LjYwNiIvPjxwb2x5Z29uIGZpbGw9IiMwNTdhMmMiIHBvaW50cz0iMzU4IDQzMS43NTQgNDIwLjk3MSA0MzEuNzU0IDQyMi45NzEgNDQzLjgwOSAzNjAgNDQzLjgwOSAzNTggNDMxLjc1NCIvPjxyZWN0IGZpbGw9IiMyZjJlNDEiIHRyYW5zZm9ybT0idHJhbnNsYXRlKC0xNzAuOTc5MyAtNjguNjQxODUpIHJvdGF0ZSgtMS4yMTMxNCkiIGhlaWdodD0iMS4yNTcwOCIgd2lkdGg9IjI2Ny4xMjQ1MyIgeT0iNDUxLjA4Mzc5IiB4PSIzMDMuNjY3NCIvPjxyZWN0IGZpbGw9IiMwNTdhMmMiIHRyYW5zZm9ybT0idHJhbnNsYXRlKC0xNzIuNjg4MzMgLTY3LjY0NDA3KSByb3RhdGUoLTEuMzIyOTkpIiBoZWlnaHQ9IjEuMjU3MTQiIHdpZHRoPSIyNzIuMTY0MzciIHk9IjQ4OC40NzI4NyIgeD0iMzA2LjgwMjk4Ii8+PHBvbHlnb24gZmlsbD0iIzA1N2EyYyIgcG9pbnRzPSIzODQgNTYwLjc1NCA0NDYuOTcxIDU2MC43NTQgNDQ4Ljk3MSA1NzIuODA5IDM4NiA1NzIuODA5IDM4NCA1NjAuNzU0Ii8+PHJlY3QgZmlsbD0iIzJmMmU0MSIgdHJhbnNmb3JtPSJ0cmFuc2xhdGUoLTE3My43MDQ2MiAtNjguMDYyNDcpIHJvdGF0ZSgtMS4yMTMxNCkiIGhlaWdodD0iMS4yNTcwOCIgd2lkdGg9IjI2Ny4xMjQ1MyIgeT0iNTgwLjA4Mzc5IiB4PSIzMjkuNjY3NCIvPjxyZWN0IGZpbGw9IiMwNTdhMmMiIHRyYW5zZm9ybT0idHJhbnNsYXRlKC0xNzUuNjU5ODEgLTY3LjAwOTM4KSByb3RhdGUoLTEuMzIyOTkpIiBoZWlnaHQ9IjEuMjU3MTQiIHdpZHRoPSIyNzIuMTY0MzciIHk9IjYxNy40NzI4NyIgeD0iMzMyLjgwMjk4Ii8+PC9zdmc+;&quot; parent=&quot;1&quot; vertex=&quot;1&quot;&gt;&#10;          &lt;mxGeometry x=&quot;600&quot; y=&quot;210&quot; width=&quot;110&quot; height=&quot;154&quot; as=&quot;geometry&quot; /&gt;&#10;        &lt;/mxCell&gt;&#10;        &lt;mxCell id=&quot;39FdgqspXQ8CtRbUQ8u1-1&quot; value=&quot;&quot; style=&quot;shape=image;verticalLabelPosition=bottom;labelBackgroundColor=default;verticalAlign=top;aspect=fixed;imageAspect=0;editableCssRules=.*;image=data:image/svg+xml,PHN2ZyB4bWxuczp4bGluaz0iaHR0cDovL3d3dy53My5vcmcvMTk5OS94bGluayIgeG1sbnM9Imh0dHA6Ly93d3cudzMub3JnLzIwMDAvc3ZnIiByb2xlPSJpbWciIHZpZXdCb3g9Ii0wLjA4Mjg4NTc0MjE4NzUgMC4wMDIwMTQxNjAxNTYyNSA4MDAuMTU1NzYxNzE4NzUgNDg0LjEwNzQ1MjM5MjU3ODEiIGhlaWdodD0iNDg0LjEwNzQ1MjM5MjU3ODEiIHdpZHRoPSI4MDAuMTU1NzYxNzE4NzUiPjxnIHRyYW5zZm9ybT0idHJhbnNsYXRlKC02NjcuNDMxIC00MDkuMzA5KSI+PHBhdGggZmlsbD0iI2VkOWRhMCIgdHJhbnNmb3JtPSJ0cmFuc2xhdGUoMjU1LjAyIDIxOS4yMTgpIiBkPSJNNjc0LjQ5LDU1My45OTR2MTAuNDg4bC0xNi4yMS0uOTUzLjIyNi04LjYzOFoiLz48cGF0aCBmaWxsPSIjMDkwODE0IiB0cmFuc2Zvcm09InRyYW5zbGF0ZSgyNS40MjggNzMuMTIzKSIgZD0iTTkwOC44NSw3MjguNjk1Yy0uOTU0LDUuNzIxLjk1NCw1LjcyMS0xNC4zLDcuNjI4Uzg4My4xLDcyNS44MzQsODgzLjEsNzI1LjgzNGE4MC4xMjQsODAuMTI0LDAsMCwxLDMuODE0LTE3LjE2M2MyLjg2MS03LjYyOCwxOC4xMTcsMS45MDcsMTguMTE3LDEuOTA3UzkwOS44LDcyMi45NzQsOTA4Ljg1LDcyOC42OTVaIi8+PHBhdGggZmlsbD0iI2VkOWRhMCIgdHJhbnNmb3JtPSJ0cmFuc2xhdGUoMTc3LjEzNSAyMTguNTk4KSIgZD0iTTY1OC4yOCw1NTMuOTk0djEwLjQ4OGwxNi4yMDktLjk1My0uMjI2LTguNjM4WiIvPjxwYXRoIGZpbGw9IiMwOTA4MTQiIHRyYW5zZm9ybT0idHJhbnNsYXRlKC01Mi4xNTkgNzIuNTAzKSIgZD0iTTg4Mi44MDYsNzI4LjY5NWMuOTUzLDUuNzIxLS45NTQsNS43MjEsMTQuMyw3LjYyOHMxMS40NDItMTAuNDg4LDExLjQ0Mi0xMC40ODhhODAuMTM0LDgwLjEzNCwwLDAsMC0zLjgxNC0xNy4xNjNjLTIuODYtNy42MjgtMTguMTE2LDEuOTA3LTE4LjExNiwxLjkwN1M4ODEuODUzLDcyMi45NzQsODgyLjgwNiw3MjguNjk1WiIvPjxwYXRoIGZpbGw9IiM5ZjYxNmEiIHRyYW5zZm9ybT0idHJhbnNsYXRlKDEyNDYuNTM5IDUzNy4wNjUpIiBkPSJNMjYuNDc5LDBIMFYxNC42MDVIMjkuM1oiLz48ZyB0cmFuc2Zvcm09InRyYW5zbGF0ZSgxMjM0LjQ1MiA4NTAuODk0KSI+PHJlY3QgZmlsbD0iIzlmNjE2YSIgdHJhbnNmb3JtPSJ0cmFuc2xhdGUoMzYuMzk5KSIgaGVpZ2h0PSIyNi40ODQiIHdpZHRoPSIxOC42NjciLz48cGF0aCBmaWxsPSIjMmYyZTQzIiB0cmFuc2Zvcm09InRyYW5zbGF0ZSgtNDg2LjUxNyAtNTQ5LjcwMSkiIGQ9Ik01MDQuNzQsNTkyLjIxNmM4LjE5MywwLDIwLjE1NS0uODU2LDIwLjI0NS0uODY1LDMuMi4yODUsMTkuMTc1LDEuNTQyLDE5Ljk2OS0yLjExM2ExNS43LDE1LjcsMCwwLDAtLjUtNy4zNWMtMS41NDItMTUuMjctMi4xMTMtMTUuNDQ4LTIuNDUyLTE1LjU0Ny0uNTQzLS4xNi0yLjEzLjYtNC43MDcsMi4yNTVsLS4xNi4xMDYtLjAzNS4xODhjLS4wNDUuMjMyLTEuMTgxLDUuODM5LTYuNiw0Ljk4OC0zLjcwOC0uNTg4LTQuOTExLTEuNDA4LTUuMjk1LTEuODFhMi4yODEsMi4yODEsMCwwLDAsLjk4LS44MiwyLjg2OCwyLjg2OCwwLDAsMCwuMi0yLjM4OSwzNy43OTEsMzcuNzkxLDAsMCwwLTIuODcxLTYuNDQ1bC0uMjQtLjQyOEw1MDIuMDY4LDU3Ni4zbC0xMy4xLDMuNzQ1YTMuMzU0LDMuMzU0LDAsMCwwLTIuMTg0LDEuOTM1aDBhMy4zOCwzLjM4LDAsMCwwLC44NTYsMy44MTZjMi4zOCwyLjEzOSw3LjExNCw1LjgsMTIuMDc1LDYuMjU4LDEuMzE5LjEzMSwzLjA2Ni4xNjksNS4wMjguMTY5aDBaIi8+PC9nPjxnIHRyYW5zZm9ybT0idHJhbnNsYXRlKDExODIuNTM1IDg1MC44OTQpIj48cmVjdCBmaWxsPSIjOWY2MTZhIiB0cmFuc2Zvcm09InRyYW5zbGF0ZSgzNi4zOTkpIiBoZWlnaHQ9IjI2LjQ4NCIgd2lkdGg9IjE4LjY2NyIvPjxwYXRoIGZpbGw9IiMyZjJlNDMiIHRyYW5zZm9ybT0idHJhbnNsYXRlKC00ODYuNTE3IC01NDkuNzAxKSIgZD0iTTUwNC43NCw1OTIuMjE2YzguMTkzLDAsMjAuMTU1LS44NTYsMjAuMjQ1LS44NjUsMy4yLjI4NSwxOS4xNzUsMS41NDIsMTkuOTY5LTIuMTEzYTE1LjcsMTUuNywwLDAsMC0uNS03LjM1Yy0xLjU0Mi0xNS4yNy0yLjExMy0xNS40NDgtMi40NTItMTUuNTQ3LS41NDMtLjE2LTIuMTMuNi00LjcwNywyLjI1NWwtLjE2LjEwNi0uMDM1LjE4OGMtLjA0NS4yMzItMS4xODEsNS44MzktNi42LDQuOTg4LTMuNzA4LS41ODgtNC45MTEtMS40MDgtNS4yOTUtMS44MWEyLjI4MSwyLjI4MSwwLDAsMCwuOTgtLjgyLDIuODY4LDIuODY4LDAsMCwwLC4yLTIuMzg5LDM3Ljc5MSwzNy43OTEsMCwwLDAtMi44NzEtNi40NDVsLS4yNC0uNDI4TDUwMi4wNjgsNTc2LjNsLTEzLjEsMy43NDVhMy4zNTQsMy4zNTQsMCwwLDAtMi4xODQsMS45MzVoMGEzLjM4LDMuMzgsMCwwLDAsLjg1NiwzLjgxNmMyLjM4LDIuMTM5LDcuMTE0LDUuOCwxMi4wNzUsNi4yNTgsMS4zMTkuMTMxLDMuMDY2LjE2OSw1LjAyOC4xNjloMFoiLz48L2c+PGVsbGlwc2UgZmlsbD0iI2YyZjJmMiIgdHJhbnNmb3JtPSJ0cmFuc2xhdGUoODg0LjE5IDgwOS4wMjUpIiByeT0iMzUuMTk0IiByeD0iMTUwLjgzNCIgY3k9IjM1LjE5NCIgY3g9IjE1MC44MzQiLz48cGF0aCBmaWxsPSIjNmM2M2ZmIiB0cmFuc2Zvcm09InRyYW5zbGF0ZSg3MTEuNjIgLTk3LjQ2KSIgZD0iTTIwMi43MjgsNjAwLjk0OEgxNTAuNTA5VjU4NS4xYzE2LjUtMTEuNDgzLDMxLjEyMS0xMC40ODUsNTAuMzU0LjkzM1oiLz48cGF0aCBmaWxsPSIjMmYyZTQxIiB0cmFuc2Zvcm09InRyYW5zbGF0ZSg2ODguMTYxIDEzLjA4NykiIGQ9Ik0yMjYuNTY3LDc2Ni4zMTRhNC4yMTYsNC4yMTYsMCwwLDEtNC4xLTMuMjg1TDE5NC4xMzUsNjM5LjQ0MWExLjM1OSwxLjM1OSwwLDAsMC0xLjM2NS0xLjA5NWgtLjAwN2ExLjM1OSwxLjM1OSwwLDAsMC0xLjM2MiwxLjEwOEwxNjUuMzgxLDc2Mi4yMWE0LjIxNiw0LjIxNiwwLDAsMS00LjEwNSwzLjMyNmgtMTIuNGE0LjIsNC4yLDAsMCwxLTQuMTg5LTQuNDQ0TDE1My45MjQsNjA1LjVsMy43MTUtMS4xaC4wN2w3Mi45NzMuNjM4LDE1LjU0MiwxNTUuNDE3YTQuMTk0LDQuMTk0LDAsMCwxLTMuODM4LDQuNTg5TDIyNi45LDc2Ni4zUTIyNi43MzQsNzY2LjMxNSwyMjYuNTY3LDc2Ni4zMTRaIi8+PHBhdGggZmlsbD0iI2VkOWRhMCIgdHJhbnNmb3JtPSJ0cmFuc2xhdGUoODcyLjI1NyA0NzEuNzQxKSIgZD0iTTIuMzc4LjQ1NmwyMC4zLTEuMTg3LDIsMTUuNzkySDBaIi8+PHBhdGggZmlsbD0iIzNmM2Q1NiIgdHJhbnNmb3JtPSJ0cmFuc2xhdGUoNjk1Ljc1NyAtOTUuMjc2KSIgZD0iTTE3NC44MDcsNzMwLjkyNmEzOS41MjUsMzkuNTI1LDAsMCwxLTExLjg2OC0xLjY3LDI2LjIsMjYuMiwwLDAsMS0xNS44ODgtMTMuNCw0LjIsNC4yLDAsMCwxLS4zMTItMy4xMjdjMi41MjYtOC42MjEsMTQuNzMyLTUzLjQzMSw2Ljk0NC04OS4wNTRhMzcuNzUxLDM3Ljc1MSwwLDAsMSw1LjM2Ny0yOS4wMTNBMzcuMjc4LDM3LjI3OCwwLDAsMSwxODMuMjI1LDU3OC40aDBjMS4yOTItLjI1MiwyLjU5LS40NTksMy44Ni0uNjE1YTM3LjE0MywzNy4xNDMsMCwwLDEsMzAuMDgsOS45LDM4LjA2NCwzOC4wNjQsMCwwLDEsMTEuOTUsMzAuMTc1TDIyMy4xMyw3MTMuOWE0LjE1OCw0LjE1OCwwLDAsMS0yLjIzNiwzLjQ1M0MyMTQsNzIwLjk2NSwxOTMuMjkzLDczMC45MjYsMTc0LjgwNyw3MzAuOTI2WiIvPjxwYXRoIGZpbGw9IiMwNTdhMmMiIHRyYW5zZm9ybT0idHJhbnNsYXRlKDY3OC45MzQgLTkyLjgzOSkiIGQ9Ik0xOTAuMDU0LDcyMi43MjJhNC4yLDQuMiwwLDAsMS0xLjY4LS4zNTVMMTQ0LjkyLDcwMy40YTQuMTY4LDQuMTY4LDAsMCwxLTIuMzgxLTQuOTIxbDI4Ljc2Ny0xMDguNjY5YTE1LjcyNywxNS43MjcsMCwwLDEsMTkuNTI3LTExLjFsMTEuNSwzLjI4My04LjEsMTM2Ljc3NWE0LjIwOCw0LjIwOCwwLDAsMS0yLDMuMzI4LDQuMTYyLDQuMTYyLDAsMCwxLTIuMTgyLjYyNFoiLz48cGF0aCBmaWxsPSIjMDU3YTJjIiB0cmFuc2Zvcm09InRyYW5zbGF0ZSg3MzMuNjQzIC05Mi44NDIpIiBkPSJNMjE1Ljc2Nyw2OTguNDgxbC0xLjkxMi03LjIwOC0yLjc2OS0xMC40ODEtMS4zMzQtNS4wMjYtMi43NjktMTAuNDUzTDE4Nyw1ODkuODEyYTE1LjcxLDE1LjcxLDAsMCwwLTE5LjUyNi0xMS4xTDE1NS45NzcsNTgybDUuNyw5Ni4yLjU4OCwxMC4wNDMuMzczLDYuMzMxdi4wMDlsLjYsOS45ODcuODQsMTQuMmE0LjE4Nyw0LjE4NywwLDAsMCw1Ljg2NSwzLjZMMjEzLjM4OSw3MDMuNGE0LjE2NCw0LjE2NCwwLDAsMCwyLjM3OC00LjkyM1oiLz48ZWxsaXBzZSBmaWxsPSIjZWQ5ZGEwIiB0cmFuc2Zvcm09InRyYW5zbGF0ZSg4NjEuNjkzIDQyOS4yNzIpIiByeT0iMjIuOTAyIiByeD0iMjIuOTAzIiBjeT0iMjIuOTAyIiBjeD0iMjIuOTAzIi8+PHBhdGggZmlsbD0iI2NjYyIgdHJhbnNmb3JtPSJ0cmFuc2xhdGUoODE0LjMwNCAyMDEuMjExKSIgZD0iTTEyOS4wODgsMzgxLjcxNyw4MS42LDM5NC4xOTFsLS41ODgtMTAuMDQxLDQ1LjMxLTEyLjg5MVoiLz48cGF0aCBmaWxsPSIjY2NjIiB0cmFuc2Zvcm09InRyYW5zbGF0ZSg4MTUuMDcyIDIxMy42MTQpIiBkPSJNMTMyLjQyMSwzODQuODIxLDgxLjgsMzk4LjExOWwtLjYtOS45OXYtLjAxbDQ4LjQ1My0xMy43ODFaIi8+PHBhdGggZmlsbD0iIzJmMmU0MSIgdHJhbnNmb3JtPSJ0cmFuc2xhdGUoNzA4LjU3NiAtMTQ3LjA1NSkiIGQ9Ik0yMDEuODksNTgyLjM3MWEyOC4xMiwyOC4xMiwwLDAsMC0zMC44MjEtMTcuMzI5bDcuMjIxLDUuODM1Yy04Ljk3Mi4zLTE4LjQxNi0uMzQtMjQuODIyLDUuOTQ5LDIuMDM5LS4wNTYsNC43MTIsNC4zMDUsNi43NTIsNC4yNDlhMTAuNywxMC43LDAsMCwwLTguOTU0LDYuMTc2LDE3LjU5MiwxNy41OTIsMCwwLDAtMS4wMzksMTEuMTg3LDEzMCwxMzAsMCwwLDAsOC4wNDQsMTUuOTgyYy0uMjY2LTkuMTEsMTcuNjctMzAuODQxLDI2LjQyOC0yOC41NzJhMjQuMDM1LDI0LjAzNSwwLDAsMC0xMS4xLDguNDI1LDMyLjU1LDMyLjU1LDAsMCwxLDE5LjMtMy4xNTgsMTMuNjU4LDEzLjY1OCwwLDAsMCw0LjYuMjU3LDUuNjE4LDUuNjE4LDAsMCwwLDMuMzMxLTguOTc5WiIvPjxwYXRoIGZpbGw9IiNjY2MiIHRyYW5zZm9ybT0idHJhbnNsYXRlKDc2MC4yMzIgMjAxLjc4OCkiIGQ9Ik0xMTQuNzQ4LDM4NS43MzZsLS41ODgsOS44NTRMNjcuNTgyLDM4MS43MTlsMi43My0xMC4zMTdaIi8+PHBhdGggZmlsbD0iI2NjYyIgdHJhbnNmb3JtPSJ0cmFuc2xhdGUoNzU2Ljk3MyAyMTQuMDc3KSIgZD0iTTExNy4wMzYsMzg5Ljc5M2wtNDcuNTI4LTE1LjM0TDY2Ljc3MywzODQuOGw0OS42ODUsMTQuOFoiLz48cGF0aCBmaWxsPSIjZWQ5ZGEwIiB0cmFuc2Zvcm09InRyYW5zbGF0ZSg2NzMuNTY5IC01OS41NDUpIiBkPSJNMTUzLjc0MSw2NzMuNzIxYTEwLjAxNywxMC4wMTcsMCwwLDAsNi41NjgtMTMuODg1bDIyLjM0NC03MC4xNDUtMTUuODQ0LTMuMzE4LTIwLjQ4NSw2OC43NzJhMTAuMDcxLDEwLjA3MSwwLDAsMCw3LjQxOCwxOC41NzZaIi8+PHBhdGggZmlsbD0iIzNmM2Q1NiIgdHJhbnNmb3JtPSJ0cmFuc2xhdGUoNjg4LjgxNiAtODQuNTEzKSIgZD0iTTE2OC4wMjgsNTgwLjE3M2gwYzQuNTUuNDY0LDcuMTA5LDUuNTgsNS45NzcsMTEuOTQ5bC01LjQyOCwzMC41NjVjLS40MDcsMi4yOTEtMi4yOTMsNC4xMDUtMy44NiwzLjcxNGwtMTguMzYxLTQuNTg5Yy0xLjQxMy0uMzUzLTEuOTMzLTIuMzYxLTEuMTMzLTQuMzY5bDExLjAyMy0yNy42NTFBMTMuMzA2LDEzLjMwNiwwLDAsMSwxNjguMDI4LDU4MC4xNzNaIi8+PHBhdGggZmlsbD0iI2VkOWRhMCIgdHJhbnNmb3JtPSJ0cmFuc2xhdGUoNzE4LjY2NSAtNTQuNSkiIGQ9Ik0xNjMuMSw2MzMuNzUyYTkuODI2LDkuODI2LDAsMCwxLDEuNTE3LjNsMzUuMS0zMC4xTDE5Ny42NzIsNTkyLjlsMTYuMjY1LTUuMjc1LDUuNTMzLDE5LjJhNy40Niw3LjQ2LDAsMCwxLTMuMTc5LDguMzdsLTQ0LjQ1OCwyOC4xMzNhOS43ODgsOS43ODgsMCwxLDEtOC43MjktOS41NzVaIi8+PHBhdGggZmlsbD0iIzNmM2Q1NiIgdHJhbnNmb3JtPSJ0cmFuc2xhdGUoNzUwLjQwNiAtODIuNzE2KSIgZD0iTTE2OC4wNzMsNTgwLjloMGM0Ljg2LTEuMzYsOS43MTYsMi4zMzksMTEuMzQzLDguNjRsNy44MDgsMzAuMjRjLjU4NSwyLjI2Ny0uNTUyLDQuNjc2LTIuMzI3LDQuOTMxTDE2NC4xLDYyNy43Yy0xLjYuMjMtMy4wMTEtMS40MTEtMy4wNjktMy41NzNsLS44MDgtMjkuNzU4YTEzLjA5LDEzLjA5LDAsMCwxLDcuODU0LTEzLjQ3M1oiLz48cGF0aCBmaWxsPSIjYTA2MTZhIiB0cmFuc2Zvcm09InRyYW5zbGF0ZSgxMDQxLjUzNyAtMTcuMzg3KSIgZD0iTTI0My43NzMsNzQzLjQ4N2ExMi4wMzYsMTIuMDM2LDAsMCwxLTIuMzExLTE4LjMwOWwtOS4wNDMtMTI4LjMzOSwyNi4wNTEsMi41MjcuNzE2LDEyNS42ODNhMTIuMSwxMi4xLDAsMCwxLTE1LjQxMiwxOC40MzlaIi8+PHBhdGggZmlsbD0iIzNmM2Q1NiIgdHJhbnNmb3JtPSJ0cmFuc2xhdGUoMTA0My4wNDcgLTI1LjM0NCkiIGQ9Ik0yMzYuODA2LDY0Ny45MmE1LjAyLDUuMDIsMCwwLDEtMi4wODItMy44MWwtMS45MDktMzQuNTlhMTMuODksMTMuODksMCwwLDEsMjcuMjc1LTQuNGw4LjM4NSwzMC45MjZhNS4wNDcsNS4wNDcsMCwwLDEtMy41NDcsNi4xODVMMjQxLjA3Nyw2NDguN2E1LjAyMyw1LjAyMywwLDAsMS00LjI3MS0uNzc4WiIvPjxwYXRoIGZpbGw9IiMwNTdhMmMiIHRyYW5zZm9ybT0idHJhbnNsYXRlKDcwNS42NDQgLTE1My42ODkpIiBkPSJNMTc4Ljg2NSw1NjNoMGEyOS44MzIsMjkuODMyLDAsMCwxLDI5LjgxNSwyOC45bDUuNjE5LDBhMS44NjUsMS44NjUsMCwwLDEsMS44NjUsMS44NjV2Ny40NmExLjg2NSwxLjg2NSwwLDAsMS0xLjg2NSwxLjg2NUgxNTAuODlhMS44NjUsMS44NjUsMCwwLDEtMS44NjUtMS44NjV2LTguMzkyQTI5LjgzOSwyOS44MzksMCwwLDEsMTc4Ljg2NSw1NjNaIi8+PHBhdGggZmlsbD0iIzJmMmU0MSIgdHJhbnNmb3JtPSJ0cmFuc2xhdGUoOTg5LjgxNSA3My45MDYpIiBkPSJNMjQ0Ljk4OCw3ODMuMjg3bC0xNS4xMi0uNzIxYTUuMDM5LDUuMDM5LDAsMCwxLTQuOC01Yy0zLjk4Ni02MS41MjYtOS41MDctMTI3LjUtMS4wNTUtMTUyLjk4NWE1LjA0Miw1LjA0MiwwLDAsMSw1Ljc2Ni01LjAyNWw2MC40ODksOC43ODFhNS4wMTIsNS4wMTIsMCwwLDEsNC4zMTcsNC45NTFjNy43MjMsMzAuMTc3LDguMDcyLDg0LjksNy43OCwxNDEuNzU3YTUuMDQyLDUuMDQyLDAsMCwxLTUuMDQxLDUuMDhoLTE2LjNhNS4wMTgsNS4wMTgsMCwwLDEtNC45OC00LjI1OGwtMTAuNTMyLTgwLjA0NGEzLjkyMSwzLjkyMSwwLDAsMC03Ljc2Ny4xNDRsLTcuNTA5LDgyLjg4NGE1LjA2MSw1LjA2MSwwLDAsMS01LjAwNiw0LjQ0M1EyNDUuMTA4LDc4My4yOTQsMjQ0Ljk4OCw3ODMuMjg3WiIvPjxwYXRoIGZpbGw9IiMzZjNkNTYiIHRyYW5zZm9ybT0idHJhbnNsYXRlKDk5Mi4wMzkgLTM5LjY0NCkiIGQ9Ik0yNTMuNDEsNzQ2Ljg0NmE3Ni4xLDc2LjEsMCwwLDAtMjguNzY5LTkuODU0LDQuOTQ5LDQuOTQ5LDAsMCwxLTMuNDIxLTEuODc1LDUuMDE2LDUuMDE2LDAsMCwxLTEuMDQzLTMuODFMMjM0LjY3MSw2MjMuN2EzNy4yMTYsMzcuMjE2LDAsMCwxLDIxLjY5My0yOS4wOCwzNi4xOTMsMzYuMTkzLDAsMCwxLDM1LjE3MywyLjc1N3EuNzQ1LjUsMS40NjIsMS4wMTJhMzcuMTY5LDM3LjE2OSwwLDAsMSwxNC4xNTcsMzguNzMzYy04Ljg4OCwzNi4zNTktMTEuOTQxLDk1Ljk2OC0xMi40NjMsMTA3LjU0OGE1LDUsMCwwLDEtMy4yNjksNC40ODcsNTAuNTA2LDUwLjUwNiwwLDAsMS0xNy4wNTgsMy4wMzdBNDIuNzE0LDQyLjcxNCwwLDAsMSwyNTMuNDEsNzQ2Ljg0NloiLz48ZWxsaXBzZSBmaWxsPSIjYTA2MTZhIiB0cmFuc2Zvcm09InRyYW5zbGF0ZSgxMjMwLjA1NiA0ODUuMzM4KSIgcnk9IjI3LjUxNiIgcng9IjI3LjUxNiIgY3k9IjI3LjUxNiIgY3g9IjI3LjUxNiIvPjxwYXRoIGZpbGw9IiMyZjJlNDEiIHRyYW5zZm9ybT0idHJhbnNsYXRlKDEwMDMuMDIgLTEwMi41KSIgZD0iTTI3NC4wMjIsNjM3LjExOWE4Ljg4OCw4Ljg4OCwwLDAsMS0xNS4zMzUtNC45MzcsOSw5LDAsMCwxLC4wMTEtMS43NDMsNDAuNCw0MC40LDAsMCwwLDEuOC05LjgwNyw1LjE0Myw1LjE0MywwLDAsMC0uOTQxLTIuNDA3Yy00LjA5MS01LjQ3OC0xMy42OTMsMi40NS0xNy41NTMtMi41MDktMi4zNjctMy4wNC40MTUtNy44MjgtMS40LTExLjIyNi0yLjQtNC40ODUtOS41LTIuMjczLTEzLjk1Mi00LjcyOS00Ljk1NS0yLjczMy00LjY1OS0xMC4zMzUtMS40LTE0Ljk1OWEyMy41MywyMy41MywwLDAsMSwxNy44MzktOS4wODIsNDcuODU0LDQ3Ljg1NCwwLDAsMSwyMC4xNTcsMy45MzNBNDAuMjgzLDQwLjI4MywwLDAsMSwyODIuMyw1OTIuODZhMzIuMjQsMzIuMjQsMCwwLDEsMy4yNTksMjcuNDVBNTEuNzQzLDUxLjc0MywwLDAsMSwyNzQuMDIyLDYzNy4xMTlaIi8+PHBhdGggZmlsbD0iIzA1N2EyYyIgdHJhbnNmb3JtPSJ0cmFuc2xhdGUoOTgxLjIzNyAtNDEuOTk3KSIgZD0iTTMxNy41OTUsNjAzLjM2OGMtLjQ4Mi0yLjI2My00LjYxNi01LjM1NS0xMC41MzEtNy44NzZhNjUuMTMsNjUuMTMsMCwwLDAtNTguODE2LDUuMDQxLDIuNzc4LDIuNzc4LDAsMCwwLTIuNTY2LDIuMTg1bC0xOS45LDg4TDIyMy4yLDcwMi4xNzlsLTEuNzE0LDcuNTg1TDIxOC45LDcyMS4xOTFsLTEuMzc4LDYuMTA2QTIuODEsMi44MSwwLDAsMCwyMjAsNzMwLjcxNGw4NS45MTYsNy40MTZjLjA3OCwwLC4xNjguMDExLjI0Ni4wMTFhMi44LDIuOCwwLDAsMCwyLjc3OC0yLjYyMWwuODE4LTEyLjQ0Ny44NzQtMTMuMzA5LjM4MS01Ljc3Ljg2My0xMy4yNzYsNS43MjUtODcuMnYtLjA3OFoiLz48cGF0aCBmaWxsPSIjYTA2MTZhIiB0cmFuc2Zvcm09InRyYW5zbGF0ZSg5MjkuOTQgLTM0LjcwMikiIGQ9Ik0yMjcuOTE5LDYwMS42MTNhMTEuNzY2LDExLjc2NiwwLDAsMSwuMjY4LDEuODM4bDQ4LjEyNiwyNy43NjMsMTEuNy02LjczNEwzMDAuNDgsNjQwLjhsLTI1LjAyNSwxNy44MzYtNTQuOS00My4zMTRhMTEuNzU4LDExLjc1OCwwLDEsMSw3LjM2Ny0xMy43MTRaIi8+PHBhdGggZmlsbD0iIzNmM2Q1NiIgdHJhbnNmb3JtPSJ0cmFuc2xhdGUoOTg4LjY1MyAtMzEuNzc4KSIgZD0iTTIxOS4zMTgsNjI1LjkyN2E1LjAyMSw1LjAyMSwwLDAsMSwxLjQ0OS00LjA5M2wyNC40OTQtMjQuNWExMy44OSwxMy44OSwwLDAsMSwyMS40NzQsMTcuMzgzTDI0OS4yOTIsNjQxLjZhNS4wNDcsNS4wNDcsMCwwLDEtNi45NzMsMS40ODRsLTIwLjczMS0xMy40NTNhNS4wMjIsNS4wMjIsMCwwLDEtMi4yNy0zLjdaIi8+PHBhdGggZmlsbD0iI2NjYyIgdHJhbnNmb3JtPSJ0cmFuc2xhdGUoMTA2MS45MzkgMjYyLjI5NikiIGQ9Ik0yMzEuMTc0LDM4Ni40MjVsLS44NiwxMy4yNzgtODcuODI1LTEuODE1LDIuNTg5LTExLjQ2M1oiLz48cGF0aCBmaWxsPSIjY2NjIiB0cmFuc2Zvcm09InRyYW5zbGF0ZSgxMDU4LjQ5NyAyNzcuNTU0KSIgZD0iTTIzMy4zNzYsMzkwLjIxM2wtLjg3NSwxMy4zMDgtOTAuODY3LTEuODgsMi41ODktMTEuNDI4WiIvPjxwYXRoIGZpbGw9IiMwNTdhMmMiIHRyYW5zZm9ybT0idHJhbnNsYXRlKDk5Mi45NDMgLTExMy41NjkpIiBkPSJNMjY1LjE2Nyw1NzIuOTU5aDBhMzUuODQyLDM1Ljg0MiwwLDAsMC0zNS44MjEsMzQuNzI2bC02Ljc1MSwwYTIuMjQxLDIuMjQxLDAsMCwwLTIuMjQsMi4yNDF2OC45NjJhMi4yNDEsMi4yNDEsMCwwLDAsMi4yNCwyLjI0MWg3Ni4xODFhMi4yNCwyLjI0LDAsMCwwLDIuMjQxLTIuMjRWNjA4LjgwOWEzNS44NSwzNS44NSwwLDAsMC0zNS44NS0zNS44NVoiLz48cGF0aCBmaWxsPSIjZmY2NTg0IiB0cmFuc2Zvcm09InRyYW5zbGF0ZSgxMTExLjkzNyAxMTAuMTQ3KSIgZD0iTTM0Ny45NCw3MTMuOTYyaC03LjY4NGMtLjA0OS0uOTMtMTAuMzY1LTI1LjEzOS0xMC4zNjUtMjUuMTM5bC02LjIzNi0xNS4wODMtNC4xMjItMTAuMDU2TDMxMy4zLDY0OC42bC03LjEzOS0xNy4zNDZhMy41NjIsMy41NjIsMCwwLDAtNi45MzgsMEwyOTIuMDgyLDY0OC42bC02LjIzNiwxNS4wODMtNC4xMjIsMTAuMDU2LTYuMjM2LDE1LjA4M3MtMTAuMzE2LDI0LjIwOC0xMC4zNjUsMjUuMTM5aC03LjY4NGE3LjU0Miw3LjU0MiwwLDEsMCwwLDE1LjA4M2g5MC41YTcuNTQyLDcuNTQyLDAsMSwwLDAtMTUuMDgzWiIvPjxwYXRoIGZpbGw9IiNmMmYyZjIiIHRyYW5zZm9ybT0idHJhbnNsYXRlKDEyMTYuODMzIDM1MC40NCkiIGQ9Ik0yMTQuNjMxLDQyMy4zOTJIMTgwLjk0NWw2LjIzNC0xNS4wODNIMjA4LjRaIi8+PHBhdGggZmlsbD0iI2YyZjJmMiIgdHJhbnNmb3JtPSJ0cmFuc2xhdGUoMTIwOC41MzYgMzcwLjU3OSkiIGQ9Ik0yMzMuMjg2LDQyOC4zOTJoLTU0LjRsNi4yMzQtMTUuMDgzaDQxLjkzMloiLz48ZyB0cmFuc2Zvcm09InRyYW5zbGF0ZSg2NjcuNDMxIDc2Ny43MjQpIj48cGF0aCBmaWxsPSIjZmY2NTg0IiB0cmFuc2Zvcm09InRyYW5zbGF0ZSgtMjQ2Ljg5OCAtNjQ5LjUpIiBkPSJNMzU1LDc2MC4xMTFoLTIuOTc4Yy4yNzMtLjY0My0xMi45Ni0zNC40OS0xMi45Ni0zNC40OWwtNy45NDQtMTkuMzU3LTUuMzMtMTIuOTcyLTcuOTQ0LTE5LjM1Ny04LjY0Ni0yMC45NjZhNC41NTcsNC41NTcsMCwwLDAtOC44NSwwTDI5MS43LDY3My45MzVsLTcuOTQ0LDE5LjM1Ny01LjM4MSwxMi45NzItNy45NDIsMTkuMzU3cy0xMy4xODMsMzMuODQ4LTEyLjkxMSwzNC40OWgtMy4wNzlhNy41NDIsNy41NDIsMCwxLDAsMCwxNS4wODNIMzU1YTcuNTQyLDcuNTQyLDAsMSwwLDAtMTUuMDgzWiIvPjxwYXRoIGZpbGw9IiNmMmYyZjIiIHRyYW5zZm9ybT0idHJhbnNsYXRlKC0xNDEuMjc1IC00MDUuNzMyKSIgZD0iTTIyMC4xNTcsNDQ5LjUyNkgxNzguMTI1bDcuOTQ0LTE5LjM1N2gyNi4xNDRaIi8+PHBhdGggZmlsbD0iI2YyZjJmMiIgdHJhbnNmb3JtPSJ0cmFuc2xhdGUoLTE1MS45NDkgLTM3OS44MzQpIiBkPSJNMjQ0LjEsNDU1Ljk1NkgxNzUuNDc1bDcuOTQ0LTE5LjM1N0gyMzYuMTZaIi8+PC9nPjwvZz48L3N2Zz4=;&quot; parent=&quot;1&quot; vertex=&quot;1&quot;&gt;&#10;          &lt;mxGeometry x=&quot;190&quot; y=&quot;160&quot; width=&quot;800&quot; height=&quot;484&quot; as=&quot;geometry&quot; /&gt;&#10;        &lt;/mxCell&gt;&#10;      &lt;/root&gt;&#10;    &lt;/mxGraphModel&gt;&#10;  &lt;/diagram&gt;&#10;&lt;/mxfile&gt;&#10;"><defs/><g><g data-cell-id="0"><g data-cell-id="1"><g data-cell-id="39FdgqspXQ8CtRbUQ8u1-2"><g><g><svg width="110" height="154" viewBox="0 0 520 727.8421020507812" role="img" xmlns="http://www.w3.org/2000/svg" xmlns:xlink="http://www.w3.org/1999/xlink" x="410" y="50" style="font-family: initial;"><path d="M676.51378,269h-26a5.00573,5.00573,0,0,1-5-5V238a5.00573,5.00573,0,0,1,5-5h26a5.00573,5.00573,0,0,1,5,5v26A5.00573,5.00573,0,0,1,676.51378,269Zm-26-34a3.00328,3.00328,0,0,0-3,3v26a3.00328,3.00328,0,0,0,3,3h26a3.00328,3.00328,0,0,0,3-3V238a3.00328,3.00328,0,0,0-3-3Z" transform="translate(-161.51378 -78)" fill="#e6e6e6"/><path d="M373.51378,114h-26a5.00573,5.00573,0,0,1-5-5V83a5.00573,5.00573,0,0,1,5-5h26a5.00573,5.00573,0,0,1,5,5v26A5.00573,5.00573,0,0,1,373.51378,114Zm-26-34a3.00328,3.00328,0,0,0-3,3v26a3.00328,3.00328,0,0,0,3,3h26a3.00328,3.00328,0,0,0,3-3V83a3.00328,3.00328,0,0,0-3-3Z" transform="translate(-161.51378 -78)" fill="#e6e6e6"/><path d="M660.51378,256h-26a5.00573,5.00573,0,0,1-5-5V225a5.00573,5.00573,0,0,1,5-5h26a5.00573,5.00573,0,0,1,5,5v26A5.00573,5.00573,0,0,1,660.51378,256Zm-26-34a3.00328,3.00328,0,0,0-3,3v26a3.00328,3.00328,0,0,0,3,3h26a3.00328,3.00328,0,0,0,3-3V225a3.00328,3.00328,0,0,0-3-3Z" transform="translate(-161.51378 -78)" fill="#e6e6e6"/><path d="M208.51378,473h-26a5.00573,5.00573,0,0,1-5-5V442a5.00573,5.00573,0,0,1,5-5h26a5.00573,5.00573,0,0,1,5,5v26A5.00573,5.00573,0,0,1,208.51378,473Zm-26-34a3.00328,3.00328,0,0,0-3,3v26a3.00328,3.00328,0,0,0,3,3h26a3.00328,3.00328,0,0,0,3-3V442a3.00328,3.00328,0,0,0-3-3Z" transform="translate(-161.51378 -78)" fill="#e6e6e6"/><path d="M192.51378,460h-26a5.00573,5.00573,0,0,1-5-5V429a5.00573,5.00573,0,0,1,5-5h26a5.00573,5.00573,0,0,1,5,5v26A5.00573,5.00573,0,0,1,192.51378,460Zm-26-34a3.00328,3.00328,0,0,0-3,3v26a3.00328,3.00328,0,0,0,3,3h26a3.00328,3.00328,0,0,0,3-3V429a3.00328,3.00328,0,0,0-3-3Z" transform="translate(-161.51378 -78)" fill="#e6e6e6"/><path d="M253.94313,164.03859H494.55862a51.15008,51.15008,0,0,1,49.89777,39.90062L666.03464,743.20648a41.34046,41.34046,0,0,1-38.29383,50.38232L380.38648,805.77594A54.61491,54.61491,0,0,1,323.956,760.94848l-68.96659-381.268-5.13082,1.466-13.19613-72.26456,5.28146-1.32037L222.69293,201.136a31.49278,31.49278,0,0,1,31.2502-37.09738Z" transform="translate(-161.51378 -78)" fill="#3f3d56"/><path d="M462.882,175.66378h28.08707a35.34863,35.34863,0,0,1,34.53616,27.81348L642.20364,738.34478a21.90324,21.90324,0,0,1-19.9674,26.52539l-246.55417,16.159a28.36684,28.36684,0,0,1-29.77274-23.27746L246.32983,204.914a24.84579,24.84579,0,0,1,24.45228-29.25017h26.645a11.72585,11.72585,0,0,1,11.32267,8.67742h0a10.35184,10.35184,0,0,0,9.99591,7.66063H445.23883a17.69522,17.69522,0,0,0,17.6431-16.33806Z" transform="translate(-161.51378 -78)" fill="#fff"/><polygon points="104 188.606 371.476 188.606 399.971 317 129 322 104 188.606" fill="#057a2c"/><polygon points="358 431.754 420.971 431.754 422.971 443.809 360 443.809 358 431.754" fill="#057a2c"/><rect x="303.6674" y="451.08379" width="267.12453" height="1.25708" transform="translate(-170.9793 -68.64185) rotate(-1.21314)" fill="#2f2e41"/><rect x="306.80298" y="488.47287" width="272.16437" height="1.25714" transform="translate(-172.68833 -67.64407) rotate(-1.32299)" fill="#057a2c"/><polygon points="384 560.754 446.971 560.754 448.971 572.809 386 572.809 384 560.754" fill="#057a2c"/><rect x="329.6674" y="580.08379" width="267.12453" height="1.25708" transform="translate(-173.70462 -68.06247) rotate(-1.21314)" fill="#2f2e41"/><rect x="332.80298" y="617.47287" width="272.16437" height="1.25714" transform="translate(-175.65981 -67.00938) rotate(-1.32299)" fill="#057a2c"/></svg></g></g></g><g data-cell-id="39FdgqspXQ8CtRbUQ8u1-1"><g><g><svg width="800" height="484" viewBox="-0.0828857421875 0.00201416015625 800.15576171875 484.1074523925781" role="img" xmlns="http://www.w3.org/2000/svg" xmlns:xlink="http://www.w3.org/1999/xlink" x="0" y="0" style="font-family: initial;"><g transform="translate(-667.431 -409.309)"><path d="M674.49,553.994v10.488l-16.21-.953.226-8.638Z" transform="translate(255.02 219.218)" fill="#ed9da0"/><path d="M908.85,728.695c-.954,5.721.954,5.721-14.3,7.628S883.1,725.834,883.1,725.834a80.124,80.124,0,0,1,3.814-17.163c2.861-7.628,18.117,1.907,18.117,1.907S909.8,722.974,908.85,728.695Z" transform="translate(25.428 73.123)" fill="#090814"/><path d="M658.28,553.994v10.488l16.209-.953-.226-8.638Z" transform="translate(177.135 218.598)" fill="#ed9da0"/><path d="M882.806,728.695c.953,5.721-.954,5.721,14.3,7.628s11.442-10.488,11.442-10.488a80.134,80.134,0,0,0-3.814-17.163c-2.86-7.628-18.116,1.907-18.116,1.907S881.853,722.974,882.806,728.695Z" transform="translate(-52.159 72.503)" fill="#090814"/><path d="M26.479,0H0V14.605H29.3Z" transform="translate(1246.539 537.065)" fill="#9f616a"/><g transform="translate(1234.452 850.894)"><rect width="18.667" height="26.484" transform="translate(36.399)" fill="#9f616a"/><path d="M504.74,592.216c8.193,0,20.155-.856,20.245-.865,3.2.285,19.175,1.542,19.969-2.113a15.7,15.7,0,0,0-.5-7.35c-1.542-15.27-2.113-15.448-2.452-15.547-.543-.16-2.13.6-4.707,2.255l-.16.106-.035.188c-.045.232-1.181,5.839-6.6,4.988-3.708-.588-4.911-1.408-5.295-1.81a2.281,2.281,0,0,0,.98-.82,2.868,2.868,0,0,0,.2-2.389,37.791,37.791,0,0,0-2.871-6.445l-.24-.428L502.068,576.3l-13.1,3.745a3.354,3.354,0,0,0-2.184,1.935h0a3.38,3.38,0,0,0,.856,3.816c2.38,2.139,7.114,5.8,12.075,6.258,1.319.131,3.066.169,5.028.169h0Z" transform="translate(-486.517 -549.701)" fill="#2f2e43"/></g><g transform="translate(1182.535 850.894)"><rect width="18.667" height="26.484" transform="translate(36.399)" fill="#9f616a"/><path d="M504.74,592.216c8.193,0,20.155-.856,20.245-.865,3.2.285,19.175,1.542,19.969-2.113a15.7,15.7,0,0,0-.5-7.35c-1.542-15.27-2.113-15.448-2.452-15.547-.543-.16-2.13.6-4.707,2.255l-.16.106-.035.188c-.045.232-1.181,5.839-6.6,4.988-3.708-.588-4.911-1.408-5.295-1.81a2.281,2.281,0,0,0,.98-.82,2.868,2.868,0,0,0,.2-2.389,37.791,37.791,0,0,0-2.871-6.445l-.24-.428L502.068,576.3l-13.1,3.745a3.354,3.354,0,0,0-2.184,1.935h0a3.38,3.38,0,0,0,.856,3.816c2.38,2.139,7.114,5.8,12.075,6.258,1.319.131,3.066.169,5.028.169h0Z" transform="translate(-486.517 -549.701)" fill="#2f2e43"/></g><ellipse cx="150.834" cy="35.194" rx="150.834" ry="35.194" transform="translate(884.19 809.025)" fill="#f2f2f2"/><path d="M202.728,600.948H150.509V585.1c16.5-11.483,31.121-10.485,50.354.933Z" transform="translate(711.62 -97.46)" fill="#6c63ff"/><path d="M226.567,766.314a4.216,4.216,0,0,1-4.1-3.285L194.135,639.441a1.359,1.359,0,0,0-1.365-1.095h-.007a1.359,1.359,0,0,0-1.362,1.108L165.381,762.21a4.216,4.216,0,0,1-4.105,3.326h-12.4a4.2,4.2,0,0,1-4.189-4.444L153.924,605.5l3.715-1.1h.07l72.973.638,15.542,155.417a4.194,4.194,0,0,1-3.838,4.589L226.9,766.3Q226.734,766.315,226.567,766.314Z" transform="translate(688.161 13.087)" fill="#2f2e41"/><path d="M2.378.456l20.3-1.187,2,15.792H0Z" transform="translate(872.257 471.741)" fill="#ed9da0"/><path d="M174.807,730.926a39.525,39.525,0,0,1-11.868-1.67,26.2,26.2,0,0,1-15.888-13.4,4.2,4.2,0,0,1-.312-3.127c2.526-8.621,14.732-53.431,6.944-89.054a37.751,37.751,0,0,1,5.367-29.013A37.278,37.278,0,0,1,183.225,578.4h0c1.292-.252,2.59-.459,3.86-.615a37.143,37.143,0,0,1,30.08,9.9,38.064,38.064,0,0,1,11.95,30.175L223.13,713.9a4.158,4.158,0,0,1-2.236,3.453C214,720.965,193.293,730.926,174.807,730.926Z" transform="translate(695.757 -95.276)" fill="#3f3d56"/><path d="M190.054,722.722a4.2,4.2,0,0,1-1.68-.355L144.92,703.4a4.168,4.168,0,0,1-2.381-4.921l28.767-108.669a15.727,15.727,0,0,1,19.527-11.1l11.5,3.283-8.1,136.775a4.208,4.208,0,0,1-2,3.328,4.162,4.162,0,0,1-2.182.624Z" transform="translate(678.934 -92.839)" fill="#057a2c"/><path d="M215.767,698.481l-1.912-7.208-2.769-10.481-1.334-5.026-2.769-10.453L187,589.812a15.71,15.71,0,0,0-19.526-11.1L155.977,582l5.7,96.2.588,10.043.373,6.331v.009l.6,9.987.84,14.2a4.187,4.187,0,0,0,5.865,3.6L213.389,703.4a4.164,4.164,0,0,0,2.378-4.923Z" transform="translate(733.643 -92.842)" fill="#057a2c"/><ellipse cx="22.903" cy="22.902" rx="22.903" ry="22.902" transform="translate(861.693 429.272)" fill="#ed9da0"/><path d="M129.088,381.717,81.6,394.191l-.588-10.041,45.31-12.891Z" transform="translate(814.304 201.211)" fill="#ccc"/><path d="M132.421,384.821,81.8,398.119l-.6-9.99v-.01l48.453-13.781Z" transform="translate(815.072 213.614)" fill="#ccc"/><path d="M201.89,582.371a28.12,28.12,0,0,0-30.821-17.329l7.221,5.835c-8.972.3-18.416-.34-24.822,5.949,2.039-.056,4.712,4.305,6.752,4.249a10.7,10.7,0,0,0-8.954,6.176,17.592,17.592,0,0,0-1.039,11.187,130,130,0,0,0,8.044,15.982c-.266-9.11,17.67-30.841,26.428-28.572a24.035,24.035,0,0,0-11.1,8.425,32.55,32.55,0,0,1,19.3-3.158,13.658,13.658,0,0,0,4.6.257,5.618,5.618,0,0,0,3.331-8.979Z" transform="translate(708.576 -147.055)" fill="#2f2e41"/><path d="M114.748,385.736l-.588,9.854L67.582,381.719l2.73-10.317Z" transform="translate(760.232 201.788)" fill="#ccc"/><path d="M117.036,389.793l-47.528-15.34L66.773,384.8l49.685,14.8Z" transform="translate(756.973 214.077)" fill="#ccc"/><path d="M153.741,673.721a10.017,10.017,0,0,0,6.568-13.885l22.344-70.145-15.844-3.318-20.485,68.772a10.071,10.071,0,0,0,7.418,18.576Z" transform="translate(673.569 -59.545)" fill="#ed9da0"/><path d="M168.028,580.173h0c4.55.464,7.109,5.58,5.977,11.949l-5.428,30.565c-.407,2.291-2.293,4.105-3.86,3.714l-18.361-4.589c-1.413-.353-1.933-2.361-1.133-4.369l11.023-27.651A13.306,13.306,0,0,1,168.028,580.173Z" transform="translate(688.816 -84.513)" fill="#3f3d56"/><path d="M163.1,633.752a9.826,9.826,0,0,1,1.517.3l35.1-30.1L197.672,592.9l16.265-5.275,5.533,19.2a7.46,7.46,0,0,1-3.179,8.37l-44.458,28.133a9.788,9.788,0,1,1-8.729-9.575Z" transform="translate(718.665 -54.5)" fill="#ed9da0"/><path d="M168.073,580.9h0c4.86-1.36,9.716,2.339,11.343,8.64l7.808,30.24c.585,2.267-.552,4.676-2.327,4.931L164.1,627.7c-1.6.23-3.011-1.411-3.069-3.573l-.808-29.758a13.09,13.09,0,0,1,7.854-13.473Z" transform="translate(750.406 -82.716)" fill="#3f3d56"/><path d="M243.773,743.487a12.036,12.036,0,0,1-2.311-18.309l-9.043-128.339,26.051,2.527.716,125.683a12.1,12.1,0,0,1-15.412,18.439Z" transform="translate(1041.537 -17.387)" fill="#a0616a"/><path d="M236.806,647.92a5.02,5.02,0,0,1-2.082-3.81l-1.909-34.59a13.89,13.89,0,0,1,27.275-4.4l8.385,30.926a5.047,5.047,0,0,1-3.547,6.185L241.077,648.7a5.023,5.023,0,0,1-4.271-.778Z" transform="translate(1043.047 -25.344)" fill="#3f3d56"/><path d="M178.865,563h0a29.832,29.832,0,0,1,29.815,28.9l5.619,0a1.865,1.865,0,0,1,1.865,1.865v7.46a1.865,1.865,0,0,1-1.865,1.865H150.89a1.865,1.865,0,0,1-1.865-1.865v-8.392A29.839,29.839,0,0,1,178.865,563Z" transform="translate(705.644 -153.689)" fill="#057a2c"/><path d="M244.988,783.287l-15.12-.721a5.039,5.039,0,0,1-4.8-5c-3.986-61.526-9.507-127.5-1.055-152.985a5.042,5.042,0,0,1,5.766-5.025l60.489,8.781a5.012,5.012,0,0,1,4.317,4.951c7.723,30.177,8.072,84.9,7.78,141.757a5.042,5.042,0,0,1-5.041,5.08h-16.3a5.018,5.018,0,0,1-4.98-4.258l-10.532-80.044a3.921,3.921,0,0,0-7.767.144l-7.509,82.884a5.061,5.061,0,0,1-5.006,4.443Q245.108,783.294,244.988,783.287Z" transform="translate(989.815 73.906)" fill="#2f2e41"/><path d="M253.41,746.846a76.1,76.1,0,0,0-28.769-9.854,4.949,4.949,0,0,1-3.421-1.875,5.016,5.016,0,0,1-1.043-3.81L234.671,623.7a37.216,37.216,0,0,1,21.693-29.08,36.193,36.193,0,0,1,35.173,2.757q.745.5,1.462,1.012a37.169,37.169,0,0,1,14.157,38.733c-8.888,36.359-11.941,95.968-12.463,107.548a5,5,0,0,1-3.269,4.487,50.506,50.506,0,0,1-17.058,3.037A42.714,42.714,0,0,1,253.41,746.846Z" transform="translate(992.039 -39.644)" fill="#3f3d56"/><ellipse cx="27.516" cy="27.516" rx="27.516" ry="27.516" transform="translate(1230.056 485.338)" fill="#a0616a"/><path d="M274.022,637.119a8.888,8.888,0,0,1-15.335-4.937,9,9,0,0,1,.011-1.743,40.4,40.4,0,0,0,1.8-9.807,5.143,5.143,0,0,0-.941-2.407c-4.091-5.478-13.693,2.45-17.553-2.509-2.367-3.04.415-7.828-1.4-11.226-2.4-4.485-9.5-2.273-13.952-4.729-4.955-2.733-4.659-10.335-1.4-14.959a23.53,23.53,0,0,1,17.839-9.082,47.854,47.854,0,0,1,20.157,3.933A40.283,40.283,0,0,1,282.3,592.86a32.24,32.24,0,0,1,3.259,27.45A51.743,51.743,0,0,1,274.022,637.119Z" transform="translate(1003.02 -102.5)" fill="#2f2e41"/><path d="M317.595,603.368c-.482-2.263-4.616-5.355-10.531-7.876a65.13,65.13,0,0,0-58.816,5.041,2.778,2.778,0,0,0-2.566,2.185l-19.9,88L223.2,702.179l-1.714,7.585L218.9,721.191l-1.378,6.106A2.81,2.81,0,0,0,220,730.714l85.916,7.416c.078,0,.168.011.246.011a2.8,2.8,0,0,0,2.778-2.621l.818-12.447.874-13.309.381-5.77.863-13.276,5.725-87.2v-.078Z" transform="translate(981.237 -41.997)" fill="#057a2c"/><path d="M227.919,601.613a11.766,11.766,0,0,1,.268,1.838l48.126,27.763,11.7-6.734L300.48,640.8l-25.025,17.836-54.9-43.314a11.758,11.758,0,1,1,7.367-13.714Z" transform="translate(929.94 -34.702)" fill="#a0616a"/><path d="M219.318,625.927a5.021,5.021,0,0,1,1.449-4.093l24.494-24.5a13.89,13.89,0,0,1,21.474,17.383L249.292,641.6a5.047,5.047,0,0,1-6.973,1.484l-20.731-13.453a5.022,5.022,0,0,1-2.27-3.7Z" transform="translate(988.653 -31.778)" fill="#3f3d56"/><path d="M231.174,386.425l-.86,13.278-87.825-1.815,2.589-11.463Z" transform="translate(1061.939 262.296)" fill="#ccc"/><path d="M233.376,390.213l-.875,13.308-90.867-1.88,2.589-11.428Z" transform="translate(1058.497 277.554)" fill="#ccc"/><path d="M265.167,572.959h0a35.842,35.842,0,0,0-35.821,34.726l-6.751,0a2.241,2.241,0,0,0-2.24,2.241v8.962a2.241,2.241,0,0,0,2.24,2.241h76.181a2.24,2.24,0,0,0,2.241-2.24V608.809a35.85,35.85,0,0,0-35.85-35.85Z" transform="translate(992.943 -113.569)" fill="#057a2c"/><path d="M347.94,713.962h-7.684c-.049-.93-10.365-25.139-10.365-25.139l-6.236-15.083-4.122-10.056L313.3,648.6l-7.139-17.346a3.562,3.562,0,0,0-6.938,0L292.082,648.6l-6.236,15.083-4.122,10.056-6.236,15.083s-10.316,24.208-10.365,25.139h-7.684a7.542,7.542,0,1,0,0,15.083h90.5a7.542,7.542,0,1,0,0-15.083Z" transform="translate(1111.937 110.147)" fill="#ff6584"/><path d="M214.631,423.392H180.945l6.234-15.083H208.4Z" transform="translate(1216.833 350.44)" fill="#f2f2f2"/><path d="M233.286,428.392h-54.4l6.234-15.083h41.932Z" transform="translate(1208.536 370.579)" fill="#f2f2f2"/><g transform="translate(667.431 767.724)"><path d="M355,760.111h-2.978c.273-.643-12.96-34.49-12.96-34.49l-7.944-19.357-5.33-12.972-7.944-19.357-8.646-20.966a4.557,4.557,0,0,0-8.85,0L291.7,673.935l-7.944,19.357-5.381,12.972-7.942,19.357s-13.183,33.848-12.911,34.49h-3.079a7.542,7.542,0,1,0,0,15.083H355a7.542,7.542,0,1,0,0-15.083Z" transform="translate(-246.898 -649.5)" fill="#ff6584"/><path d="M220.157,449.526H178.125l7.944-19.357h26.144Z" transform="translate(-141.275 -405.732)" fill="#f2f2f2"/><path d="M244.1,455.956H175.475l7.944-19.357H236.16Z" transform="translate(-151.949 -379.834)" fill="#f2f2f2"/></g></g></svg></g></g></g></g></g></g></svg>