<svg width="29" height="28" viewBox="0 0 29 28" fill="none" xmlns="http://www.w3.org/2000/svg">
<path d="M20.3739 20.0093H7.64024V22.5105H20.3739V20.0093Z" fill="white"/>
<path d="M20.3739 15.007H7.64024V17.5082H20.3739V15.007Z" fill="white"/>
<path d="M27.3782 7.40072L14.6446 0.168019C14.2502 -0.0560064 13.764 -0.0560064 13.3695 0.168019L0.635843 7.40072C0.242442 7.62421 0 8.03685 0 8.48329V26.2623C0 26.9529 0.57024 27.5128 1.27338 27.5128H5.09348V26.2622V25.0116V23.761V18.7587V13.7564C5.09348 13.0657 5.66371 12.5058 6.36686 12.5058H21.6473C22.3506 12.5058 22.9207 13.0657 22.9207 13.7564V18.7587V23.7611V25.0117V26.2623V27.5128H26.7408C27.4441 27.5128 28.0141 26.9529 28.0141 26.2623V8.48329C28.0141 8.03685 27.7718 7.62421 27.3782 7.40072Z" fill="white"/>
<path d="M7.64024 25.0117V26.2623V27.5129H20.3739V26.2623V25.0117H7.64024Z" fill="white"/>
</svg>
