<svg width="56" height="47" viewBox="0 0 56 47" fill="none" xmlns="http://www.w3.org/2000/svg">
<path d="M52 0H4C2.93913 0 1.92172 0.396223 1.17157 1.10151C0.421427 1.80679 0 2.76336 0 3.76078V35.7274C0 36.7248 0.421427 37.6814 1.17157 38.3866C1.92172 39.0919 2.93913 39.4881 4 39.4881H32V45.1293C32.001 45.4695 32.1001 45.803 32.2867 46.0944C32.4734 46.3858 32.7406 46.6242 33.06 46.784C33.3727 46.935 33.7223 47.0058 34.0734 46.9893C34.4245 46.9728 34.7648 46.8696 35.06 46.69L40 43.625L44.9 46.69C45.2008 46.8763 45.5495 46.9827 45.9093 46.9981C46.2691 47.0134 46.6266 46.9372 46.9442 46.7773C47.2617 46.6174 47.5274 46.3799 47.7132 46.0899C47.8991 45.7998 47.9981 45.4679 48 45.1293V39.4881H52C53.0609 39.4881 54.0783 39.0919 54.8284 38.3866C55.5786 37.6814 56 36.7248 56 35.7274V3.76078C56 2.76336 55.5786 1.80679 54.8284 1.10151C54.0783 0.396223 53.0609 0 52 0ZM41.18 31.8538C39.917 32.0924 38.6059 31.9426 37.4405 31.4264C36.2751 30.9102 35.3174 30.055 34.709 28.9874C34.1005 27.9198 33.8738 26.6965 34.0621 25.4983C34.2505 24.3001 34.8441 23.1908 35.755 22.3343C36.6659 21.4779 37.8459 20.9198 39.1202 20.7427C40.3946 20.5656 41.6958 20.7788 42.8313 21.3508C43.9669 21.9229 44.8764 22.8233 45.4254 23.919C45.9745 25.0147 46.1339 26.2474 45.88 27.4349C45.647 28.5249 45.0765 29.5259 44.2403 30.3121C43.4041 31.0983 42.3394 31.6347 41.18 31.8538ZM44 41.613L41.1 39.7326C40.7734 39.5304 40.391 39.4226 40 39.4226C39.609 39.4226 39.2266 39.5304 38.9 39.7326L36 41.613V34.9376C37.2617 35.4553 38.6234 35.7225 40 35.7225C41.3766 35.7225 42.7383 35.4553 44 34.9376V41.613ZM52 35.7274H48V31.9666C48.8781 30.8822 49.4911 29.6291 49.7953 28.2965C50.0995 26.9639 50.0875 25.5847 49.76 24.257C49.2233 21.9956 47.8174 20.0001 45.812 18.6534C43.8065 17.3068 41.3428 16.7038 38.8935 16.9602C36.4442 17.2165 34.1818 18.3142 32.5405 20.0426C30.8992 21.771 29.9945 24.0084 30 26.3254C29.9897 28.3613 30.6926 30.3437 32 31.9666V35.7274H4V3.76078H52V35.7274Z" fill="#065197"/>
<path d="M10 13.1628H46C46.5304 13.1628 47.0391 12.9646 47.4142 12.612C47.7893 12.2594 48 11.7811 48 11.2824C48 10.7837 47.7893 10.3054 47.4142 9.95273C47.0391 9.60009 46.5304 9.40198 46 9.40198H10C9.46957 9.40198 8.96086 9.60009 8.58579 9.95273C8.21071 10.3054 8 10.7837 8 11.2824C8 11.7811 8.21071 12.2594 8.58579 12.612C8.96086 12.9646 9.46957 13.1628 10 13.1628Z" fill="#065197"/>
<path d="M10 20.6842H26C26.5304 20.6842 27.0391 20.4861 27.4142 20.1335C27.7893 19.7808 28 19.3026 28 18.8038C28 18.3051 27.7893 17.8269 27.4142 17.4742C27.0391 17.1216 26.5304 16.9235 26 16.9235H10C9.46957 16.9235 8.96086 17.1216 8.58579 17.4742C8.21071 17.8269 8 18.3051 8 18.8038C8 19.3026 8.21071 19.7808 8.58579 20.1335C8.96086 20.4861 9.46957 20.6842 10 20.6842Z" fill="#065197"/>
<path d="M10 28.2058H26C26.5304 28.2058 27.0391 28.0077 27.4142 27.6551C27.7893 27.3025 28 26.8242 28 26.3255C28 25.8267 27.7893 25.3485 27.4142 24.9958C27.0391 24.6432 26.5304 24.4451 26 24.4451H10C9.46957 24.4451 8.96086 24.6432 8.58579 24.9958C8.21071 25.3485 8 25.8267 8 26.3255C8 26.8242 8.21071 27.3025 8.58579 27.6551C8.96086 28.0077 9.46957 28.2058 10 28.2058Z" fill="#065197"/>
</svg>
