<svg width="27" height="27" viewBox="0 0 27 27" fill="none" xmlns="http://www.w3.org/2000/svg">
<path d="M1.57727 0.0180608C1.05152 0.139971 0 0.66825 0 2.61882V26.0256H3.73872V2.61882C3.73872 0.0180607 1.86936 0.0180608 1.86936 0.0180608C1.86936 0.0180608 1.75253 -0.022576 1.57727 0.0180608ZM24.0096 0.0180608C23.4838 0.139971 22.4323 0.66825 22.4323 2.61882V26.0256H26.1711V2.61882C26.1711 0.0180607 24.3017 0.0180608 24.3017 0.0180608C24.3017 0.0180608 24.1849 -0.022576 24.0096 0.0180608ZM5.60808 5.21958V23.4249H20.563V5.21958H5.60808ZM8.87946 7.82033H17.2916C17.2916 7.82033 18.6936 7.82033 18.6936 9.12071C18.6936 10.4211 17.2916 10.4211 17.2916 10.4211H8.87946C8.87946 10.4211 7.47744 10.4211 7.47744 9.12071C7.47744 7.82033 8.87946 7.82033 8.87946 7.82033ZM8.87946 13.0219H17.2916C17.2916 13.0219 18.6936 13.0219 18.6936 14.3222C18.6936 15.6226 17.2916 15.6226 17.2916 15.6226H8.87946C8.87946 15.6226 7.47744 15.6226 7.47744 14.3222C7.47744 13.0219 8.87946 13.0219 8.87946 13.0219ZM8.87946 18.2234H17.2916C17.2916 18.2234 18.6936 18.2234 18.6936 19.5237C18.6936 20.8241 17.2916 20.8241 17.2916 20.8241H8.87946C8.87946 20.8241 7.47744 20.8241 7.47744 19.5237C7.47744 18.2234 8.87946 18.2234 8.87946 18.2234Z" fill="white"/>
</svg>
