<svg width="76" height="72" viewBox="0 0 76 72" fill="none" xmlns="http://www.w3.org/2000/svg">
<path d="M38 8.53869V1.67784M38 63.4255V70.2863M17.7113 16.8205L12.5745 11.9691M58.8053 55.6315L63.942 60.4828M8.94233 35.9821H1.67791M67.0577 35.9821H74.3222M58.8072 16.8205L63.9438 11.9691M17.713 55.6315L12.5763 60.4828M38 53.1342C27.97 53.1342 19.839 45.4548 19.839 35.9821C19.839 26.5092 27.97 18.83 38 18.83C48.03 18.83 56.1611 26.5092 56.1611 35.9821C56.1611 45.4548 48.03 53.1342 38 53.1342Z" stroke="white" stroke-width="3.326" stroke-linecap="round" stroke-linejoin="round"/>
<path d="M44.0537 33.4909H38V24.8836L31.9463 37.4643H38V46.0716L44.0537 33.4909Z" fill="white"/>
</svg>
