<svg width="29" height="28" viewBox="0 0 29 28" fill="none" xmlns="http://www.w3.org/2000/svg">
<path d="M19.3333 0C15.627 0 12.6875 2.40911 12.6875 7V7.72917C11.7572 7.2825 10.7133 7 9.66667 7C6.12128 7 3.02083 9.40911 3.02083 14V16.3333C3.02083 18.6667 6.64583 18.6667 6.64583 16.3333V14C6.64583 11.7461 8.29646 10.5 9.66667 10.5C11.0369 10.5 12.6875 11.8238 12.6875 14V19.8333C13.5838 18.9679 15.4654 19.0154 16.3125 19.8333V14V7C16.3125 4.74609 18.0436 3.5 19.3333 3.5C20.784 3.5 22.3542 4.82382 22.3542 7V11.6667C22.3542 14 25.9792 14 25.9792 11.6667V7C25.9792 2.56991 22.9592 0 19.3333 0ZM4.83333 22.1667C3.54308 22.1667 1.22698 24.5 0 24.5V28C1.29819 28 3.68644 25.6667 4.83333 25.6667C6.05191 25.6667 8.37641 28 9.66667 28C10.8158 28 13.273 25.6667 14.5 25.6667C15.7186 25.6667 18.1775 28 19.3333 28C20.5519 28 23.0198 25.6667 24.1667 25.6667C25.3136 25.6667 27.7814 28 29 28V24.5C27.9965 24.5 25.4569 22.0975 24.1667 22.1667C23.0108 22.1667 20.6256 24.5 19.3333 24.5C18.2581 24.5 15.7186 22.1667 14.5 22.1667C13.2814 22.1667 10.7443 24.5 9.66667 24.5C8.51754 24.5 6.12359 22.1667 4.83333 22.1667Z" fill="white"/>
</svg>
