<svg width="14" height="18" viewBox="0 0 14 18" fill="none" xmlns="http://www.w3.org/2000/svg">
<path d="M11.5329 1.96364H10.0286V1.47272C10.0286 0.660634 9.35382 0 8.52433 0H4.51285C3.68335 0 3.00856 0.660634 3.00856 1.47272V1.96364H1.50429C0.674796 1.96364 0 2.62428 0 3.43637V4.41817C0 4.68936 0.224622 4.90909 0.501442 4.90909H12.5358C12.8126 4.90909 13.0372 4.68936 13.0372 4.41817V3.43637C13.0372 2.62428 12.3624 1.96364 11.5329 1.96364ZM9.02574 1.96364H4.01144V1.47272C4.01144 1.20204 4.23639 0.981806 4.51288 0.981806H8.52433C8.80082 0.981806 9.02577 1.20204 9.02577 1.47272V1.96364H9.02574Z" fill="white"/>
<path d="M0.0512695 6.04749V16.0791C0.0512695 17.1383 0.848602 18 1.82873 18H11.3085C12.2886 18 13.086 17.1383 13.086 16.0791V6.04749H0.0512695ZM4.95475 15.5422L4.32176 15.5864C2.90713 15.6857 1.95865 14.0354 2.66812 12.7089L2.83377 12.3988C2.59242 12.3763 2.37925 12.1958 2.31285 11.9283C2.22829 11.5867 2.41573 11.2357 2.73168 11.1442L3.87615 10.8127C4.19238 10.7201 4.53554 10.9273 4.61013 11.2977L4.9088 12.5025C4.99329 12.8442 4.80581 13.1952 4.48951 13.2866C4.24777 13.3573 4.00028 13.2539 3.85815 13.042L3.69417 13.3491C3.45708 13.7929 3.77295 14.3425 4.24536 14.3082L4.87835 14.264C5.20082 14.2463 5.48664 14.5085 5.5079 14.8618C5.52873 15.2147 5.28149 15.5192 4.95475 15.5422ZM6.07062 9.02722L5.78942 9.6417C5.64399 9.95853 5.28834 10.0877 4.99556 9.93184C4.70244 9.7749 4.5821 9.391 4.72714 9.07394L5.00834 8.45946C5.63626 7.08741 7.43249 7.0237 8.14089 8.35065L8.30697 8.66146C8.44619 8.44711 8.69822 8.33708 8.94436 8.40841C9.26027 8.49992 9.44775 8.85111 9.36326 9.19275L9.05622 10.4298C8.97279 10.7653 8.64428 10.9878 8.30676 10.8755L7.18578 10.5509C6.86987 10.4594 6.68239 10.1084 6.76689 9.76677C6.8324 9.50295 7.04131 9.32392 7.27858 9.29734L7.11477 8.99075C6.88045 8.55262 6.28252 8.56397 6.07062 9.02722ZM8.89688 15.6522H8.56156C8.66462 15.8895 8.63048 16.1787 8.44903 16.3747C8.21762 16.6248 7.84266 16.6248 7.61121 16.3747L6.77338 15.4692C6.54466 15.222 6.53118 14.7961 6.79797 14.5372L7.61117 13.6581C7.84258 13.408 8.21754 13.408 8.44899 13.6581C8.62799 13.8514 8.66486 14.136 8.56695 14.3716H8.89681C9.37206 14.3716 9.65195 13.8007 9.38977 13.3761L9.03798 12.8058C8.85629 12.5115 8.92999 12.114 9.20229 11.9179C9.47426 11.722 9.84188 11.8009 10.024 12.0955L10.3758 12.6657C11.1626 13.9403 10.315 15.6522 8.89688 15.6522Z" fill="white"/>
</svg>
