<svg width="31" height="33" viewBox="0 0 31 33" fill="none" xmlns="http://www.w3.org/2000/svg">
<path d="M15.313 33.0001C13.3021 33.0001 11.3109 32.5733 9.453 31.7441C7.59513 30.9149 5.90703 29.6995 4.48509 28.1673C1.61333 25.073 0 20.8761 0 16.5C0 16.0624 0.161333 15.6427 0.448509 15.3333C0.735684 15.0239 1.12518 14.85 1.5313 14.85C1.93743 14.85 2.32692 15.0239 2.6141 15.3333C2.90128 15.6427 3.06261 16.0624 3.06261 16.5C3.06261 19.1108 3.78108 21.6628 5.12718 23.8336C6.47328 26.0043 8.38653 27.6962 10.625 28.6953C12.8635 29.6944 15.3266 29.9558 17.703 29.4464C20.0793 28.9371 22.2622 27.6799 23.9754 25.8339C25.6887 23.9878 26.8554 21.6358 27.3281 19.0752C27.8008 16.5147 27.5582 13.8606 26.631 11.4486C25.7038 9.03662 24.1336 6.97505 22.119 5.52461C20.1044 4.07418 17.736 3.30001 15.313 3.30001C14.9069 3.30001 14.5174 3.12617 14.2302 2.81673C13.9431 2.5073 13.7817 2.08761 13.7817 1.65C13.7817 1.2124 13.9431 0.792711 14.2302 0.483275C14.5174 0.173839 14.9069 0 15.313 0C19.3743 0 23.2692 1.73839 26.141 4.83275C29.0128 7.92711 30.6261 12.124 30.6261 16.5C30.6261 20.8761 29.0128 25.073 26.141 28.1673C23.2692 31.2617 19.3743 33.0001 15.313 33.0001Z" fill="white"/>
<path d="M15.313 18.15H9.18777C8.78165 18.15 8.39215 17.9761 8.10498 17.6667C7.8178 17.3573 7.65647 16.9376 7.65647 16.5C7.65647 16.0624 7.8178 15.6427 8.10498 15.3332C8.39215 15.0238 8.78165 14.85 9.18777 14.85H13.7817V8.24995C13.7817 7.81235 13.943 7.39266 14.2302 7.08323C14.5174 6.77379 14.9069 6.59995 15.313 6.59995C15.7191 6.59995 16.1086 6.77379 16.3958 7.08323C16.683 7.39266 16.8443 7.81235 16.8443 8.24995V16.5C16.8443 16.9376 16.683 17.3573 16.3958 17.6667C16.1086 17.9761 15.7191 18.15 15.313 18.15Z" fill="white"/>
</svg>
