<svg width="20" height="21" viewBox="0 0 20 21" fill="none" xmlns="http://www.w3.org/2000/svg">
<path d="M9.90467 9.28242C11.1352 9.28242 12.1343 8.37002 12.1343 7.25346C12.1343 6.1369 11.1352 5.22131 9.90467 5.22131C8.67417 5.22131 7.67505 6.13371 7.67505 7.25027C7.67505 8.36683 8.67417 9.28242 9.90467 9.28242ZM9.90467 6.08266C10.6128 6.08266 11.1878 6.60585 11.1878 7.25027C11.1878 7.89469 10.6128 8.41788 9.90467 8.41788C9.19652 8.41788 8.62159 7.89469 8.62159 7.25027C8.62159 6.60585 9.19652 6.08266 9.90467 6.08266Z" fill="#509BE0" />
<path d="M13.2842 11.6617C12.5024 10.6153 11.3665 10.0825 9.90467 10.0825C8.44279 10.0825 7.30695 10.6121 6.52517 11.6617C5.94323 12.4401 5.57163 13.5024 5.42439 14.8104C5.39634 15.0464 5.58565 15.2602 5.84507 15.2825C6.10449 15.308 6.33937 15.1358 6.36391 14.8997C6.6619 12.2742 7.85383 10.9439 9.90467 10.9439C11.9555 10.9439 13.1474 12.2742 13.4454 14.8997C13.47 15.1198 13.6768 15.2857 13.9152 15.2857C13.9327 15.2857 13.9467 15.2857 13.9643 15.2825C14.2237 15.257 14.413 15.0464 14.3849 14.8104C14.2377 13.4992 13.8661 12.4401 13.2842 11.6617Z" fill="#509BE0" />
<path d="M18.5 10.5C18.5 15.5404 14.6263 19.5 10 19.5C5.3737 19.5 1.5 15.5404 1.5 10.5C1.5 5.45963 5.3737 1.5 10 1.5C14.6263 1.5 18.5 5.45963 18.5 10.5Z" stroke="#509BE0" stroke-opacity="0.509" stroke-width="3"/>
</svg>
