<svg width="65" height="57" viewBox="0 0 65 57" fill="none" xmlns="http://www.w3.org/2000/svg">
<path fill-rule="evenodd" clip-rule="evenodd" d="M25.5496 51.0522L29.0242 55.2563C30.9458 57.5812 34.0568 57.5812 35.9735 55.2563L39.4482 51.0522C35.6099 46.4082 29.3879 46.4082 25.5496 51.0522ZM11.651 34.236L18.6003 42.6441C26.2622 33.368 38.7356 33.368 46.4024 42.6441L53.3517 34.236C41.8367 20.298 23.166 20.298 11.651 34.236ZM63.5594 21.8798L60.3011 25.8223C44.9477 7.24629 20.055 7.24629 4.69678 25.8223L1.43841 21.8798C-0.645392 19.3586 -0.434118 15.1852 1.87085 12.9554C19.7405 -4.31846 45.2622 -4.31846 63.1319 12.9554C65.4368 15.1852 65.6432 19.3586 63.5594 21.8798Z" fill="white"/>
</svg>
