<svg width="57" height="93" viewBox="0 0 57 93" fill="none" xmlns="http://www.w3.org/2000/svg">
<path fill-rule="evenodd" clip-rule="evenodd" d="M43.5628 93L0.483898 92.1468C0.483898 92.1468 -0.00333531 14.3013 1.72219e-05 11.0918C0.00448726 4.903 1.75451 0 7.798 0C17.3449 0 33.693 0.854295 43.5628 0.854295C49.4275 0.854295 51.2591 3.82162 51.3608 9.38642C51.5999 22.4106 51.3608 45.2212 51.3608 45.2212C51.3608 45.2212 55.0933 68.9997 56.5583 75.0836C58.0335 81.2064 55.5414 81.9039 53.0929 84.469C48.7045 89.0638 43.5628 93 43.5628 93ZM43.5628 46.9276L44.4289 8.76247L8.04051 7.90817L8.28189 48.6329L12.6134 76.789L48.7626 77.6432L43.5628 46.9276ZM27.5958 51.2228C43.0543 51.2228 45.7721 72.4407 30.6746 72.4407C14.1444 72.4407 12.0792 51.2228 27.5958 51.2228ZM29.6487 66.452C36.2197 66.452 35.0373 57.217 28.3088 57.217C21.5534 57.217 22.453 66.452 29.6487 66.452ZM22.3692 34.108L22.0798 15.7136L30.7584 15.8985L30.4913 34.361L22.3692 34.108Z" fill="#1174CF"/>
</svg>
