<svg width="18" height="15" viewBox="0 0 18 15" fill="none" xmlns="http://www.w3.org/2000/svg">
<path d="M8.73671 8.29664L2.78235 14.6697C2.3708 15.1102 1.70531 15.1102 1.29814 14.6697L0.308663 13.6106C-0.102888 13.1701 -0.102888 12.4578 0.308663 12.022L4.52925 7.5047L0.308663 2.98735C-0.102888 2.54687 -0.102888 1.83459 0.308663 1.39878L1.29376 0.330366C1.70531 -0.110122 2.3708 -0.110122 2.77797 0.330366L8.73233 6.70339C9.14826 7.14388 9.14826 7.85615 8.73671 8.29664ZM17.1429 6.70339L11.1885 0.330366C10.7769 -0.110122 10.1115 -0.110122 9.70429 0.330366L8.71482 1.38941C8.30326 1.8299 8.30326 2.54218 8.71482 2.97798L12.9354 7.49533L8.71482 12.0127C8.30326 12.4532 8.30326 13.1654 8.71482 13.6012L9.70429 14.6603C10.1158 15.1008 10.7813 15.1008 11.1885 14.6603L17.1429 8.28727C17.5544 7.85615 17.5544 7.14388 17.1429 6.70339Z" fill="white"/>
</svg>
