<svg width="51" height="49" viewBox="0 0 51 49" fill="none" xmlns="http://www.w3.org/2000/svg">
<path fill-rule="evenodd" clip-rule="evenodd" d="M15.3298 44.9681H35.6703C36.446 43.3318 37.4819 41.6932 38.4461 40.3001C39.9805 38.0835 41.6192 36.0884 42.5837 35.012C45.1499 32.1417 46.7524 28.688 47.2167 25.0501C47.681 21.412 46.9892 17.7279 45.216 14.4204C43.4427 11.1123 40.6566 8.31024 37.1691 6.34448C33.6809 4.37836 29.637 3.33157 25.5034 3.33097C21.3701 3.33037 17.3256 4.37601 13.8368 6.34113C10.3486 8.30589 7.56145 11.1073 5.78683 14.4149C4.01257 17.7219 3.31952 21.4056 3.78253 25.0439C4.24535 28.6823 5.84712 32.1367 8.4126 35.008C9.37522 36.0837 11.0147 38.0788 12.5507 40.2966C13.5161 41.6904 14.5534 43.3301 15.3298 44.9681ZM45.4033 37.1212C48.4066 33.7622 50.2894 29.7116 50.835 25.4361C51.3807 21.1605 50.5667 16.8337 48.4871 12.9545C46.4076 9.07508 43.1469 5.80085 39.0807 3.50896C35.0146 1.21705 30.3082 0.000683136 25.504 2.87669e-07C20.6998 -0.000682561 15.9932 1.21432 11.9261 3.50506C7.85925 5.7958 4.59725 9.06908 2.51645 12.9478C0.43547 16.8266 -0.380039 21.153 0.164077 25.4288C0.708137 29.7046 2.58949 33.7557 5.59157 37.1155C7.34469 39.0741 11.8034 44.6643 12.75 48.2991H38.25C39.1966 44.6671 43.6501 39.0769 45.4033 37.1212Z" fill="white"/>
</svg>
