<svg width="45" height="43" viewBox="0 0 45 43" fill="none" xmlns="http://www.w3.org/2000/svg">
<path d="M37.55 16.0625V41H7.44995V16.0625" stroke="white" stroke-width="3.24" stroke-miterlimit="10"/>
<path d="M27.6317 33.4974L29.4891 31.5631C29.7455 31.296 29.7455 30.863 29.4891 30.5959C29.2326 30.3289 28.8169 30.3289 28.5604 30.5959L26.703 32.5303C26.5748 32.6638 26.5107 32.8388 26.5107 33.0138C26.5107 33.1888 26.5748 33.3639 26.703 33.4973C26.9594 33.7645 27.3753 33.7645 27.6317 33.4974Z" fill="white"/>
<path d="M27.3574 34.5135L30.5103 31.3817C30.826 31.068 31 30.6509 31 30.2073C31 29.7636 30.8261 29.3466 30.5103 29.0329C30.2255 28.7501 20.1653 18.7568 19.8924 18.4857C19.2404 17.8381 18.1797 17.8381 17.5278 18.4857L15.1632 20.8345C15.0587 20.9383 15 21.0792 15 21.226L15.0001 22.792C15.0001 22.9389 15.0589 23.0797 15.1634 23.1835C15.268 23.2872 15.4097 23.3456 15.5575 23.3456L16.5763 23.3455L16.5764 24.3577C16.5764 24.6635 16.8259 24.9113 17.1337 24.9114L18.1529 24.9115L18.153 25.9238C18.153 26.0707 18.2117 26.2115 18.3162 26.3153C18.4208 26.4192 18.5626 26.4775 18.7104 26.4775L19.7291 26.4773V27.4895C19.7291 27.6363 19.7878 27.7772 19.8923 27.8809C19.9968 27.9847 20.1386 28.0431 20.2864 28.0431L21.3053 28.043L21.3052 29.0551V29.0552C21.3052 29.202 21.3639 29.3428 21.4685 29.4466C21.573 29.5504 21.7148 29.6088 21.8625 29.6088L22.978 29.6088L23.2147 30.8418C23.0236 31.122 22.9276 31.4475 22.9276 31.7732C22.9276 32.1985 23.0906 32.6239 23.4165 32.9476L24.9929 34.5135C25.3087 34.8272 25.7286 35 26.1752 35C26.6218 35 27.0417 34.8272 27.3574 34.5135ZM25.7812 33.7305L24.2048 32.1646C23.9874 31.9487 23.9875 31.5976 24.2048 31.3816L27.7516 27.8584L29.7221 29.8158C29.8273 29.9203 29.8853 30.0594 29.8853 30.2072C29.8853 30.3551 29.8273 30.4941 29.7221 30.5986L26.5693 33.7304C26.4641 33.8349 26.3241 33.8925 26.1753 33.8925C26.0264 33.8926 25.8864 33.835 25.7812 33.7305Z" fill="white"/>
<path d="M44 19.625L22.5 3L1 19.625" stroke="white" stroke-width="3.24" stroke-miterlimit="10"/>
</svg>
