<svg width="20" height="20" viewBox="0 0 20 20" fill="none" xmlns="http://www.w3.org/2000/svg">
<path d="M6.28566 8.69556H4.09937V10.6833H6.28566V8.69556Z" fill="#188BF4"/>
<path d="M15.8508 8.69556H13.6646V10.6833H15.8508V8.69556Z" fill="#188BF4"/>
<path d="M12.6624 8.69556H10.4761V10.6833H12.6624V8.69556Z" fill="#188BF4"/>
<path d="M6.28566 11.8013H4.09937V13.789H6.28566V11.8013Z" fill="#188BF4"/>
<path d="M12.6624 11.8013H10.4761V13.789H12.6624V11.8013Z" fill="#188BF4"/>
<path d="M9.47413 11.8013H7.28784V13.789H9.47413V11.8013Z" fill="#188BF4"/>
<path d="M15.8508 14.9067H13.6646V16.8944H15.8508V14.9067Z" fill="#188BF4"/>
<path d="M12.6624 14.9067H10.4761V16.8944H12.6624V14.9067Z" fill="#188BF4"/>
<path d="M9.47413 14.9067H7.28784V16.8944H9.47413V14.9067Z" fill="#188BF4"/>
<path d="M17.8503 2.15015H16.0724V3.69976C16.0724 4.27796 15.5484 4.74819 14.9044 4.74819H12.583C11.939 4.74819 11.415 4.27796 11.415 3.69976V2.15015H8.53205V3.68519C8.53205 4.27144 8.00229 4.74819 7.35109 4.74819H5.05553C4.40434 4.74819 3.87458 4.27144 3.87458 3.68519V2.15015H2.0967C0.940586 2.15015 0 2.99749 0 4.03897V18.1111C0 19.1525 0.940586 19.9999 2.0967 19.9999H17.8503C19.0081 19.9999 19.9501 19.1526 19.9501 18.1111V4.03897C19.9501 2.99753 19.0081 2.15015 17.8503 2.15015ZM18.4471 18.0744C18.4471 18.4088 18.2 18.6334 17.8322 18.6334H2.11797C1.75016 18.6334 1.50305 18.4088 1.50305 18.0744V6.95651H18.4471V18.0744Z" fill="#188BF4"/>
<path d="M5.05629 4.00418H7.35048C7.54474 4.00418 7.70278 3.86148 7.70278 3.68605V0.800508C7.70278 0.359102 7.30446 0 6.81478 0H5.59194C5.10231 0 4.70386 0.359063 4.70386 0.800508V3.68605C4.7039 3.86148 4.86194 4.00418 5.05629 4.00418Z" fill="#188BF4"/>
<path d="M12.5831 4.00418H14.9045C15.0913 4.00418 15.2432 3.86695 15.2432 3.69848V0.788203C15.2432 0.353633 14.851 0 14.3688 0H13.1188C12.6366 0 12.2444 0.353633 12.2444 0.788203V3.69848C12.2443 3.86695 12.3963 4.00418 12.5831 4.00418Z" fill="#188BF4"/>
</svg>
