<svg width="22" height="27" viewBox="0 0 22 27" fill="none" xmlns="http://www.w3.org/2000/svg">
<path d="M11 17.0526C13.6086 17.0526 15.7142 15.1484 15.7142 12.7895V4.26317C15.7142 1.90421 13.6086 0 11 0C8.39134 0 6.28571 1.90421 6.28571 4.26317V12.7895C6.28571 15.1484 8.39134 17.0526 11 17.0526Z" fill="white" fill-opacity="0.6472"/>
<path d="M19.3287 12.7896H22C22 17.6353 17.7258 21.6427 12.5713 22.339V27H9.42865V22.339C4.27429 21.6427 0 17.6353 0 12.7896H2.67142C2.67142 17.0527 6.66287 20.0369 11 20.0369C15.3371 20.0369 19.3287 17.0527 19.3287 12.7896Z" fill="white" fill-opacity="0.6472"/>
</svg>
