<svg width="50" height="59" viewBox="0 0 50 59" fill="none" xmlns="http://www.w3.org/2000/svg">
<path d="M23.4865 12.5709C23.8108 12.5709 23.973 12.3898 24.0541 12.1053C24.8918 7.78563 24.8379 7.68222 29.5405 6.82858C29.8648 6.77693 30.054 6.59583 30.054 6.28538C30.054 5.97505 29.8648 5.79394 29.5405 5.74218C24.8649 4.837 25 4.73349 24.0541 0.465612C23.973 0.181102 23.8108 0 23.4865 0C23.1621 0 23 0.181102 22.9189 0.465612C21.973 4.73349 22.1351 4.837 17.4324 5.74218C17.1352 5.79394 16.9189 5.97505 16.9189 6.28538C16.9189 6.59583 17.1352 6.77693 17.4324 6.82858C22.1351 7.73398 22.081 7.78563 22.9189 12.1053C23 12.3898 23.1621 12.5709 23.4865 12.5709ZM10.4055 30.3666C10.919 30.3666 11.2703 30.0561 11.3243 29.5906C12.2973 22.6843 12.5405 22.6843 20 21.3135C20.4866 21.2358 20.8378 20.9255 20.8378 20.4341C20.8378 19.9685 20.4866 19.6322 20 19.5546C12.5405 18.5717 12.2702 18.3389 11.3243 11.3034C11.2703 10.8379 10.919 10.5016 10.4055 10.5016C9.91896 10.5016 9.56759 10.8379 9.51351 11.3293C8.62166 18.2613 8.2432 18.2355 0.83788 19.5546C0.351365 19.6581 0 19.9685 0 20.4341C0 20.9513 0.351366 21.2358 0.945931 21.3135C8.29728 22.4516 8.62166 22.6327 9.51351 29.5388C9.56759 30.0561 9.91896 30.3666 10.4055 30.3666ZM28.7298 59C29.4325 59 29.946 58.5086 30.081 57.8102C32 43.6357 34.0811 41.4888 48.7297 39.9368C49.4865 39.8592 50 39.316 50 38.6436C50 37.9711 49.4865 37.4537 48.7297 37.3503C34.0811 35.7983 32 33.6514 30.081 19.477C29.946 18.7787 29.4325 18.3131 28.7298 18.3131C28.027 18.3131 27.5135 18.7787 27.4055 19.477C25.4865 33.6514 23.3784 35.7983 8.75669 37.3503C7.97301 37.4537 7.45951 37.9711 7.45951 38.6436C7.45951 39.316 7.97301 39.8592 8.75669 39.9368C23.3513 41.7733 25.3784 43.6616 27.4055 57.8102C27.5135 58.5086 28.027 59 28.7298 59Z" fill="#509BE0"/>
</svg>
