<svg width="29" height="24" viewBox="0 0 29 24" fill="none" xmlns="http://www.w3.org/2000/svg">
<path d="M28.627 20.2033L16.7279 1.21095C16.26 0.464069 15.4063 0 14.5 0C13.5936 0 12.74 0.464015 12.2721 1.2109L0.373141 20.2032C-0.110571 20.9752 -0.124958 21.9424 0.335588 22.7274C0.79619 23.5124 1.66421 24 2.60088 24H26.399C27.3357 24 28.2037 23.5124 28.6643 22.7274C29.1249 21.9425 29.1106 20.9753 28.627 20.2033ZM27.0277 21.8379C26.8999 22.0557 26.659 22.191 26.399 22.191H2.60093C2.34101 22.191 2.10012 22.0557 1.97228 21.8379C1.84438 21.6201 1.84835 21.3517 1.9827 21.1374L13.8818 2.14498C14.0116 1.93766 14.2485 1.80896 14.5 1.80896C14.7515 1.80896 14.9884 1.93772 15.1182 2.14498L27.0174 21.1373C27.1516 21.3516 27.1555 21.62 27.0277 21.8379Z" fill="#F4940A"/>
</svg>
