<svg width="109" height="107" viewBox="0 0 109 107" fill="none" xmlns="http://www.w3.org/2000/svg">
<ellipse cx="54.5" cy="53.5" rx="54.5" ry="53.5" fill="#1174CF"/>
<path d="M50 36.7812L51.0607 35.5216C50.9214 35.3562 50.7561 35.225 50.5741 35.1355C50.3921 35.046 50.197 35 50 35V36.7812ZM54 41.5312L52.9393 42.7909C53.0786 42.9563 53.2439 43.0875 53.4259 43.177C53.6079 43.2665 53.803 43.3125 54 43.3125V41.5312ZM68.5 69.4375H39.5V73H68.5V69.4375ZM37 66.4688V41.5312H34V66.4688H37ZM39.5 38.5625H50V35H39.5V38.5625ZM48.9393 38.0409L52.9393 42.7909L55.0607 40.2716L51.0607 35.5216L48.9393 38.0409ZM71 46.2812V66.4688H74V46.2812H71ZM54 43.3125H68.5V39.75H54V43.3125ZM39.5 69.4375C38.1193 69.4375 37 68.1084 37 66.4688H34C34 70.0758 36.4625 73 39.5 73V69.4375ZM68.5 73C71.5375 73 74 70.0758 74 66.4688H71C71 68.1084 69.8807 69.4375 68.5 69.4375V73ZM74 46.2812C74 42.6742 71.5375 39.75 68.5 39.75V43.3125C69.8807 43.3125 71 44.6416 71 46.2812H74ZM37 41.5312C37 39.8916 38.1193 38.5625 39.5 38.5625V35C36.4625 35 34 37.9242 34 41.5312H37Z" fill="white"/>
<path d="M83 33.2857H78.5V28.1429C78.5 27.5118 78.0522 27 77.5 27H76.5C75.9478 27 75.5 27.5118 75.5 28.1429V33.2857H71C70.4478 33.2857 70 33.7975 70 34.4286V35.5714C70 36.2025 70.4478 36.7143 71 36.7143H75.5V41.8571C75.5 42.4882 75.9478 43 76.5 43H77.5C78.0522 43 78.5 42.4882 78.5 41.8571V36.7143H83C83.5522 36.7143 84 36.2025 84 35.5714V34.4286C84 33.7975 83.5522 33.2857 83 33.2857Z" fill="white"/>
</svg>
