<svg width="47" height="47" viewBox="0 0 47 47" fill="none" xmlns="http://www.w3.org/2000/svg">
<path d="M3.27777 27.5065L3.11284 27.9327L3.50744 28.0846L3.68302 27.6852L3.27777 27.5065ZM3.27777 27.5065C3.11284 27.9327 3.11277 27.9326 3.11271 27.9326L3.11254 27.9325L3.11214 27.9324L3.11099 27.9319L3.10737 27.9305L3.09504 27.9257C3.08462 27.9215 3.06989 27.9156 3.05139 27.9081C3.01442 27.8929 2.96224 27.871 2.89933 27.8433C2.77415 27.788 2.60347 27.7081 2.42441 27.6103C2.24721 27.5136 2.05119 27.3937 1.88075 27.2566C1.72053 27.1277 1.53416 26.9457 1.4411 26.7115C1.30746 26.3751 1.34361 26.0022 1.50802 25.6821L1.90106 25.8865L1.50802 25.6821C1.67102 25.3648 1.94914 25.1164 2.27245 24.9761C2.59577 24.8358 2.96045 24.8053 3.29059 24.9086L3.15167 25.3438L3.29059 24.9086C3.62357 25.0129 3.90183 25.2493 4.03547 25.5857C4.12853 25.82 4.12032 26.0864 4.09457 26.296C4.06717 26.5189 4.01007 26.7487 3.95055 26.9481C3.89039 27.1497 3.82406 27.3324 3.77315 27.4641C3.74757 27.5303 3.72556 27.5843 3.70973 27.6224C3.70181 27.6414 3.69541 27.6565 3.69085 27.6671L3.68544 27.6797L3.68384 27.6834L3.68333 27.6845L3.68315 27.6849L3.68308 27.6851C3.68305 27.6852 3.68302 27.6852 3.27777 27.5065Z" stroke="#1174CF" stroke-width="0.9"/>
<path d="M5.63852 30.2771L5.43494 30.6573L5.90028 30.9007L6.07379 30.4488L5.63852 30.2771ZM5.63852 30.2771C5.43494 30.6573 5.43488 30.6573 5.43481 30.6573L5.43465 30.6572L5.43424 30.657L5.43308 30.6564L5.42943 30.6544L5.41696 30.6478C5.40642 30.6422 5.39149 30.6341 5.37274 30.6239C5.33527 30.6034 5.28235 30.5739 5.21847 30.537C5.09128 30.4634 4.91794 30.3586 4.73551 30.2346C4.5546 30.1116 4.35575 29.9636 4.1822 29.8029C4.01627 29.6492 3.83598 29.4502 3.74018 29.222C3.60234 28.8936 3.60638 28.5351 3.74995 28.2256L4.17473 28.4221L3.74995 28.2256C3.89343 27.9163 4.16443 27.6813 4.50258 27.5709C4.84072 27.4605 5.21997 27.4833 5.55723 27.6356L5.38201 28.0241L5.55723 27.6356C5.89468 27.788 6.16241 28.0578 6.30025 28.3862C6.39605 28.6144 6.40619 28.869 6.39369 29.0809C6.38061 29.3025 6.33897 29.529 6.29248 29.7263C6.24561 29.9252 6.19142 30.1042 6.14921 30.2331C6.12801 30.2978 6.1096 30.3506 6.0963 30.3877C6.08964 30.4062 6.08425 30.4209 6.0804 30.4312L6.07583 30.4434L6.07448 30.447L6.07405 30.4481L6.0739 30.4485L6.07384 30.4486C6.07381 30.4487 6.07379 30.4488 5.63852 30.2771Z" stroke="#1174CF" stroke-width="0.9"/>
<path fill-rule="evenodd" clip-rule="evenodd" d="M9.99289 3.02929C3.69906 3.69752 1.18182 13.5614 4.75056 23.5717C6.17554 27.569 8.87952 31.5515 11.7729 33.9145C12.5299 34.5327 12.6404 34.5327 12.2535 33.9145C11.9775 33.4737 11.8173 33.1365 11.6962 32.7421C11.6432 32.5692 11.451 31.9829 11.2691 31.4392C9.09325 24.9338 10.3517 20.0451 14.3845 19.3362C14.9841 19.2307 15.0832 19.4549 14.7536 20.171C12.8598 24.2843 12.0677 27.8742 12.4353 30.6772C12.5376 31.4582 12.5657 31.4346 12.6026 30.5365C12.7506 26.9294 14.4563 22.7284 17.162 19.3078C19.8624 15.8939 22.1671 14.0407 25.3196 12.7483C29.9127 10.8654 34.4376 13.0761 34.8195 17.3897C34.8447 17.6735 34.871 17.9764 34.8781 18.0629C34.9037 18.3734 34.7626 19.7593 34.6428 20.3754C34.2016 22.6434 33.1637 25.1809 31.4022 28.2982C30.6402 29.6465 30.6322 29.6634 30.6913 29.779C30.7386 29.8714 30.8825 29.9317 31.9979 30.3273C35.2711 31.488 37.5494 33.1597 38.0543 34.7712C39.059 37.9784 37.2426 40.5144 33.072 41.7275C30.1379 42.5809 25.679 42.5541 22.9981 41.6671C22.1509 41.3868 22.1825 41.5613 23.0857 42.1515C24.2338 42.9017 26.5116 43.7872 28.1148 44.1069C28.3678 44.1573 28.7613 44.2377 28.9892 44.2854C31.5569 44.8237 35.3984 44.7117 38.1011 44.0198C41.6101 43.1215 44.1548 41.1622 45.0268 38.6871C46.1292 35.5589 44.4195 32.5926 40.1072 30.1517C39.7006 29.9215 39.2995 29.6932 39.2158 29.6442C38.5342 29.2452 36.0146 28.2924 35.1908 28.1221C34.5823 27.9964 34.5814 27.7567 35.1851 26.7675C41.1807 16.9456 41.1553 10.0251 35.1123 6.92265C32.5637 5.61417 28.6965 6.60342 22.8034 10.0714C22.1915 10.4316 22.1832 10.4274 21.09 9.22063C17.4158 5.16457 13.0138 2.70864 9.99289 3.02929ZM13.9224 9.14591C15.6361 9.50652 17.4612 10.6771 18.9014 12.3391C19.5536 13.0919 19.566 13.2062 19.0577 13.7697C18.5351 14.349 17.9758 15.031 17.5152 15.6508C16.7997 16.6137 16.7877 16.6181 16.143 16.1692C12.6205 13.7159 9.36209 15.7378 8.5845 20.8593C8.0813 24.1739 8.77897 27.3219 10.9775 31.6569C11.6469 32.9767 11.6669 33.0745 11.1709 32.5978C10.6027 32.052 9.65178 30.6986 8.856 29.3029C5.24055 22.9627 4.67407 16.2985 7.39932 12.1676C8.98532 9.76354 11.4447 8.6243 13.9224 9.14591ZM24.5646 15.8956C23.449 15.9978 22.4636 16.3574 21.2486 17.1059C17.741 19.2666 14.3445 24.8874 13.5573 29.834C13.3846 30.9193 13.4891 31.0889 13.7735 30.1848C15.337 25.2134 21.6319 19.4657 24.6285 20.2733C27.9754 21.1754 28.1234 25.3073 25.032 31.5342C24.709 32.1849 24.7133 32.1948 25.3875 32.3533C27.4874 32.8468 29.0974 34.4667 29.0764 36.0648C29.0529 37.8552 26.788 39.8442 23.9105 40.6015C23.632 40.6749 23.3303 40.7543 23.24 40.7781C22.6821 40.9251 23.9344 41.1243 24.9098 41.0437C27.3357 40.8433 28.555 40.5291 30.1178 39.7015C33.081 38.1323 34.1815 36.0372 33.0055 34.2038C32.0057 32.6455 30.4665 31.8673 27.7166 31.53C26.5452 31.3864 26.5145 31.3013 27.2218 30.1568C30.0158 25.6365 30.8532 20.6051 29.2274 18.1094C28.2847 16.6624 26.3289 15.7337 24.5646 15.8956Z" fill="#1174CF"/>
<mask id="path-4-inside-1_549_558" fill="white">
<path fill-rule="evenodd" clip-rule="evenodd" d="M9.79927 2.70008C1.64474 3.92111 0.292153 18.9296 7.38546 29.4855C8.8388 31.6484 11.387 34.2884 12.9933 35.2955C13.7408 35.7642 13.9432 35.6814 13.7525 34.9851C12.7581 31.3549 15.4438 25.8781 19.8952 22.4588C22.7348 20.2777 24.6847 19.9982 26.0737 21.5731C27.5531 23.2506 27.1526 26.3252 24.8184 31.2106C24.4001 32.0859 24.3535 32.2645 24.5029 32.4196C24.5951 32.5153 24.6668 32.539 25.45 32.7328C27.6156 33.2688 29.1257 35.1142 28.6435 36.6355C27.9995 38.6671 25.126 40.3415 21.9639 40.5278C20.9207 40.5893 20.8463 40.7315 21.5125 41.3884C22.154 42.0207 23.6509 42.9464 24.7576 43.395C25.8558 43.8403 27.4955 44.3607 28.1159 44.4608C28.273 44.4862 28.6462 44.559 28.9448 44.6227C30.1505 44.8796 32.7511 45.0599 33.9224 44.9677C37.4004 44.694 39.2519 44.2447 41.2374 43.193C46.2251 40.5507 47.141 35.5599 43.2932 31.9904C41.5363 30.3606 37.6865 28.2975 35.578 27.8556C35.0344 27.7418 35.0237 27.6812 35.4296 27.0226C41.1318 17.7729 41.5118 10.8333 36.5074 7.34617C34.2595 5.77975 32.6895 5.6182 29.3564 6.61046C28.1752 6.96207 27.412 7.27957 25.2 8.33945C24.7376 8.56104 23.5128 9.24497 22.8437 9.65525C22.2475 10.0207 22.3205 10.0456 21.5562 9.21643C17.7235 5.05839 13.9173 2.76454 10.7391 2.69751C10.2944 2.68806 9.87156 2.68929 9.79927 2.70008ZM12.063 3.00615C15.1029 3.7545 17.8176 5.54707 21.052 8.94181L22.1657 10.1108L22.3323 10.0881C22.428 10.075 22.7047 9.94124 22.9812 9.7744C27.2842 7.17856 31.5245 5.78791 33.7113 6.25534C36.1432 6.77514 38.5577 8.92615 39.335 11.2652C40.6593 15.2505 39.3187 20.3498 35.1624 27.1361C34.7806 27.7594 34.8163 27.8402 35.5588 28.0338C36.9346 28.3927 38.7113 29.1497 40.2397 30.0285C44.5183 32.4887 46.2482 35.4339 45.2474 38.5541C44.2698 41.6017 40.9566 43.8467 36.4108 44.5416C33.9471 44.9183 30.8913 44.8783 28.9225 44.4437C28.6585 44.3853 28.2953 44.3128 28.1153 44.2825C27.4908 44.1771 25.9081 43.6789 24.8736 43.262C23.0373 42.522 20.9748 40.9787 21.6424 40.8442C22.3137 40.709 22.7562 40.6282 23.2313 40.5544C25.973 40.1283 28.5668 38.1972 28.8936 36.3388C29.161 34.8173 27.4914 33.0148 25.3672 32.5318C24.4383 32.3206 24.4538 32.3946 25.0636 31.0903C27.4399 26.0076 27.737 23.0697 26.0508 21.3274C24.5969 19.8249 22.6247 20.1353 19.8092 22.3095C16.8009 24.6325 14.6032 27.7751 13.6982 31.0477C13.4119 32.083 13.3161 32.2846 13.2604 31.9703C13.0003 30.5053 13.8838 26.9604 15.1596 24.349C18.2493 18.0251 22.8155 14.7095 26.6619 15.9968C30.1018 17.1481 31.1226 20.7089 29.4568 25.7472C28.988 27.1654 28.1705 28.9377 27.4192 30.1646C26.7548 31.2494 26.7477 31.2219 27.7288 31.3528C30.4541 31.7163 31.8101 32.3594 32.9421 33.8251C34.2136 35.4716 33.6634 37.5013 31.5293 39.0365C29.4127 40.5591 27.1821 41.2056 24.0596 41.2017C22.631 41.1999 22.5415 41.2175 22.9532 41.419C24.5482 42.1997 28.5272 42.4259 31.5019 41.9048C36.4946 41.0303 38.954 38.3573 37.9248 34.9239C37.4152 33.2232 35.2639 31.6671 31.6489 30.3841C30.6527 30.0306 30.5014 29.9506 30.4816 29.7677C30.4664 29.6267 30.5013 29.557 31.2936 28.1452C35.464 20.7142 35.816 15.7693 32.3447 13.3793C30.2497 11.9367 27.7825 11.8575 24.8401 13.1381C21.9538 14.3942 19.4572 16.5276 16.8949 19.9275C14.4829 23.1281 12.8347 27.3653 12.8098 30.4301C12.8005 31.5766 12.8584 32.0652 13.1488 33.2861C13.2313 33.6333 13.3172 34.1287 13.3396 34.3867C13.362 34.6448 13.3926 34.9247 13.4075 35.0088L13.4349 35.1616L13.2871 35.1321C12.4825 34.9714 10.2837 32.9566 8.54348 30.7855C3.22505 24.1499 1.38184 13.6663 4.40685 7.25687C5.58886 4.75236 7.30712 3.3403 9.7322 2.88051C10.0955 2.81159 11.6028 2.89291 12.063 3.00615ZM12.0074 9.23537C7.38973 9.96361 4.89008 15.4869 6.21651 22.031C6.77914 24.8069 8.15524 28.078 9.75893 30.4519C10.4986 31.547 10.6491 31.5626 10.1766 30.4956C9.4117 28.7681 9.0006 27.6087 8.71419 26.3713C6.8831 18.4599 11.1793 12.4626 16.1595 15.978C16.7471 16.3927 16.7634 16.3876 17.3475 15.5985C17.8353 14.9396 18.2759 14.3973 18.7909 13.8219C19.4041 13.137 19.4037 13.1342 18.5104 12.1776C16.4964 10.0206 14.049 8.91339 12.0074 9.23537ZM13.7015 9.45732C15.4187 9.76412 17.2905 10.9539 18.7214 12.6484C19.1583 13.1656 19.1658 13.1286 18.46 13.9418C18.1426 14.3076 17.6729 14.8895 17.4162 15.2349C16.6843 16.2196 16.7618 16.1824 16.2172 15.8119C13.4681 13.9418 10.8037 14.638 9.23067 17.6375C7.78361 20.3967 7.74992 24.3831 9.13986 28.3772C9.67378 29.9118 9.63746 29.9893 8.94687 28.7876C6.14291 23.9084 5.26912 18.1542 6.7333 14.211C7.99077 10.8246 10.7643 8.93245 13.7015 9.45732ZM29.9706 12.5365C31.0987 12.7452 32.2531 13.3737 33.1073 14.244C34.8331 16.0026 34.9778 19.1175 33.5174 23.0696C32.8877 24.7738 32.2245 26.1596 30.9973 28.3365C29.9896 30.1239 29.9495 29.9673 31.5592 30.5355C35.3399 31.8701 37.3785 33.4004 37.8339 35.2458C38.4928 37.916 37.0103 40.0097 33.622 41.1938C31.1876 42.0445 27.0584 42.2856 24.5977 41.7208C23.5981 41.4914 23.6283 41.428 24.7587 41.383C30.552 41.1524 34.9818 37.6287 33.5101 34.422C32.6605 32.5709 30.9146 31.6166 27.5161 31.1456C27.0843 31.0857 27.0833 31.0353 27.5005 30.3565C30.7964 24.9948 31.3354 19.4013 28.7823 17.0564C26.2593 14.7392 22.7632 15.1042 19.4757 18.0282C18.2063 19.1572 16.7171 21.1024 15.6771 22.9899C14.4429 25.23 13.87 26.7779 13.2299 29.6012C13.0539 30.3777 13.0202 30.3818 13.0517 29.6234C13.1586 27.0472 14.7195 23.2022 16.8511 20.2643C20.8329 14.7762 25.9108 11.7852 29.9706 12.5365ZM13.8759 19.6343C10.0061 20.802 9.20283 26.7864 12.0863 32.9681C12.8145 34.5292 13.1596 34.7455 12.7393 33.3773C11.6268 29.7564 12.1967 25.3703 14.409 20.525C14.8947 19.4612 14.8266 19.3474 13.8759 19.6343ZM14.5073 19.7724C14.5218 19.8122 14.4923 19.9385 14.4419 20.053C14.3913 20.1675 14.2099 20.5742 14.0387 20.9569C12.3152 24.8101 11.683 28.5924 12.2064 31.9188C12.3306 32.708 12.3358 32.8467 12.2385 32.7629C11.9951 32.5536 11.3627 30.8319 11.0264 29.4636C10.043 25.4626 10.5748 22.0842 12.4255 20.576C13.1305 20.0015 14.4107 19.5073 14.5073 19.7724Z"/>
</mask>
<path fill-rule="evenodd" clip-rule="evenodd" d="M9.79927 2.70008C1.64474 3.92111 0.292153 18.9296 7.38546 29.4855C8.8388 31.6484 11.387 34.2884 12.9933 35.2955C13.7408 35.7642 13.9432 35.6814 13.7525 34.9851C12.7581 31.3549 15.4438 25.8781 19.8952 22.4588C22.7348 20.2777 24.6847 19.9982 26.0737 21.5731C27.5531 23.2506 27.1526 26.3252 24.8184 31.2106C24.4001 32.0859 24.3535 32.2645 24.5029 32.4196C24.5951 32.5153 24.6668 32.539 25.45 32.7328C27.6156 33.2688 29.1257 35.1142 28.6435 36.6355C27.9995 38.6671 25.126 40.3415 21.9639 40.5278C20.9207 40.5893 20.8463 40.7315 21.5125 41.3884C22.154 42.0207 23.6509 42.9464 24.7576 43.395C25.8558 43.8403 27.4955 44.3607 28.1159 44.4608C28.273 44.4862 28.6462 44.559 28.9448 44.6227C30.1505 44.8796 32.7511 45.0599 33.9224 44.9677C37.4004 44.694 39.2519 44.2447 41.2374 43.193C46.2251 40.5507 47.141 35.5599 43.2932 31.9904C41.5363 30.3606 37.6865 28.2975 35.578 27.8556C35.0344 27.7418 35.0237 27.6812 35.4296 27.0226C41.1318 17.7729 41.5118 10.8333 36.5074 7.34617C34.2595 5.77975 32.6895 5.6182 29.3564 6.61046C28.1752 6.96207 27.412 7.27957 25.2 8.33945C24.7376 8.56104 23.5128 9.24497 22.8437 9.65525C22.2475 10.0207 22.3205 10.0456 21.5562 9.21643C17.7235 5.05839 13.9173 2.76454 10.7391 2.69751C10.2944 2.68806 9.87156 2.68929 9.79927 2.70008ZM12.063 3.00615C15.1029 3.7545 17.8176 5.54707 21.052 8.94181L22.1657 10.1108L22.3323 10.0881C22.428 10.075 22.7047 9.94124 22.9812 9.7744C27.2842 7.17856 31.5245 5.78791 33.7113 6.25534C36.1432 6.77514 38.5577 8.92615 39.335 11.2652C40.6593 15.2505 39.3187 20.3498 35.1624 27.1361C34.7806 27.7594 34.8163 27.8402 35.5588 28.0338C36.9346 28.3927 38.7113 29.1497 40.2397 30.0285C44.5183 32.4887 46.2482 35.4339 45.2474 38.5541C44.2698 41.6017 40.9566 43.8467 36.4108 44.5416C33.9471 44.9183 30.8913 44.8783 28.9225 44.4437C28.6585 44.3853 28.2953 44.3128 28.1153 44.2825C27.4908 44.1771 25.9081 43.6789 24.8736 43.262C23.0373 42.522 20.9748 40.9787 21.6424 40.8442C22.3137 40.709 22.7562 40.6282 23.2313 40.5544C25.973 40.1283 28.5668 38.1972 28.8936 36.3388C29.161 34.8173 27.4914 33.0148 25.3672 32.5318C24.4383 32.3206 24.4538 32.3946 25.0636 31.0903C27.4399 26.0076 27.737 23.0697 26.0508 21.3274C24.5969 19.8249 22.6247 20.1353 19.8092 22.3095C16.8009 24.6325 14.6032 27.7751 13.6982 31.0477C13.4119 32.083 13.3161 32.2846 13.2604 31.9703C13.0003 30.5053 13.8838 26.9604 15.1596 24.349C18.2493 18.0251 22.8155 14.7095 26.6619 15.9968C30.1018 17.1481 31.1226 20.7089 29.4568 25.7472C28.988 27.1654 28.1705 28.9377 27.4192 30.1646C26.7548 31.2494 26.7477 31.2219 27.7288 31.3528C30.4541 31.7163 31.8101 32.3594 32.9421 33.8251C34.2136 35.4716 33.6634 37.5013 31.5293 39.0365C29.4127 40.5591 27.1821 41.2056 24.0596 41.2017C22.631 41.1999 22.5415 41.2175 22.9532 41.419C24.5482 42.1997 28.5272 42.4259 31.5019 41.9048C36.4946 41.0303 38.954 38.3573 37.9248 34.9239C37.4152 33.2232 35.2639 31.6671 31.6489 30.3841C30.6527 30.0306 30.5014 29.9506 30.4816 29.7677C30.4664 29.6267 30.5013 29.557 31.2936 28.1452C35.464 20.7142 35.816 15.7693 32.3447 13.3793C30.2497 11.9367 27.7825 11.8575 24.8401 13.1381C21.9538 14.3942 19.4572 16.5276 16.8949 19.9275C14.4829 23.1281 12.8347 27.3653 12.8098 30.4301C12.8005 31.5766 12.8584 32.0652 13.1488 33.2861C13.2313 33.6333 13.3172 34.1287 13.3396 34.3867C13.362 34.6448 13.3926 34.9247 13.4075 35.0088L13.4349 35.1616L13.2871 35.1321C12.4825 34.9714 10.2837 32.9566 8.54348 30.7855C3.22505 24.1499 1.38184 13.6663 4.40685 7.25687C5.58886 4.75236 7.30712 3.3403 9.7322 2.88051C10.0955 2.81159 11.6028 2.89291 12.063 3.00615ZM12.0074 9.23537C7.38973 9.96361 4.89008 15.4869 6.21651 22.031C6.77914 24.8069 8.15524 28.078 9.75893 30.4519C10.4986 31.547 10.6491 31.5626 10.1766 30.4956C9.4117 28.7681 9.0006 27.6087 8.71419 26.3713C6.8831 18.4599 11.1793 12.4626 16.1595 15.978C16.7471 16.3927 16.7634 16.3876 17.3475 15.5985C17.8353 14.9396 18.2759 14.3973 18.7909 13.8219C19.4041 13.137 19.4037 13.1342 18.5104 12.1776C16.4964 10.0206 14.049 8.91339 12.0074 9.23537ZM13.7015 9.45732C15.4187 9.76412 17.2905 10.9539 18.7214 12.6484C19.1583 13.1656 19.1658 13.1286 18.46 13.9418C18.1426 14.3076 17.6729 14.8895 17.4162 15.2349C16.6843 16.2196 16.7618 16.1824 16.2172 15.8119C13.4681 13.9418 10.8037 14.638 9.23067 17.6375C7.78361 20.3967 7.74992 24.3831 9.13986 28.3772C9.67378 29.9118 9.63746 29.9893 8.94687 28.7876C6.14291 23.9084 5.26912 18.1542 6.7333 14.211C7.99077 10.8246 10.7643 8.93245 13.7015 9.45732ZM29.9706 12.5365C31.0987 12.7452 32.2531 13.3737 33.1073 14.244C34.8331 16.0026 34.9778 19.1175 33.5174 23.0696C32.8877 24.7738 32.2245 26.1596 30.9973 28.3365C29.9896 30.1239 29.9495 29.9673 31.5592 30.5355C35.3399 31.8701 37.3785 33.4004 37.8339 35.2458C38.4928 37.916 37.0103 40.0097 33.622 41.1938C31.1876 42.0445 27.0584 42.2856 24.5977 41.7208C23.5981 41.4914 23.6283 41.428 24.7587 41.383C30.552 41.1524 34.9818 37.6287 33.5101 34.422C32.6605 32.5709 30.9146 31.6166 27.5161 31.1456C27.0843 31.0857 27.0833 31.0353 27.5005 30.3565C30.7964 24.9948 31.3354 19.4013 28.7823 17.0564C26.2593 14.7392 22.7632 15.1042 19.4757 18.0282C18.2063 19.1572 16.7171 21.1024 15.6771 22.9899C14.4429 25.23 13.87 26.7779 13.2299 29.6012C13.0539 30.3777 13.0202 30.3818 13.0517 29.6234C13.1586 27.0472 14.7195 23.2022 16.8511 20.2643C20.8329 14.7762 25.9108 11.7852 29.9706 12.5365ZM13.8759 19.6343C10.0061 20.802 9.20283 26.7864 12.0863 32.9681C12.8145 34.5292 13.1596 34.7455 12.7393 33.3773C11.6268 29.7564 12.1967 25.3703 14.409 20.525C14.8947 19.4612 14.8266 19.3474 13.8759 19.6343ZM14.5073 19.7724C14.5218 19.8122 14.4923 19.9385 14.4419 20.053C14.3913 20.1675 14.2099 20.5742 14.0387 20.9569C12.3152 24.8101 11.683 28.5924 12.2064 31.9188C12.3306 32.708 12.3358 32.8467 12.2385 32.7629C11.9951 32.5536 11.3627 30.8319 11.0264 29.4636C10.043 25.4626 10.5748 22.0842 12.4255 20.576C13.1305 20.0015 14.4107 19.5073 14.5073 19.7724Z" fill="#1174CF" stroke="#1174CF" stroke-width="2" mask="url(#path-4-inside-1_549_558)"/>
<path d="M4.69125 28.1397C4.87804 28.0691 5.08972 28.0691 5.27974 28.1395C5.46975 28.21 5.62254 28.3451 5.70447 28.5153C5.91043 28.9431 5.55628 29.9363 5.55628 29.9363C5.55628 29.9363 4.50187 29.4751 4.29591 29.0473C4.21397 28.8771 4.20959 28.6859 4.28373 28.5157C4.35788 28.3455 4.50446 28.2102 4.69125 28.1397Z" fill="#1174CF"/>
<path d="M2.47615 25.5298C2.65013 25.4543 2.84513 25.4528 3.01824 25.5255C3.19136 25.5982 3.32842 25.7392 3.39927 25.9175C3.57737 26.3658 3.22415 27.4124 3.22415 27.4124C3.22415 27.4124 2.26541 26.935 2.08731 26.4868C2.01646 26.3085 2.01763 26.1075 2.09055 25.928C2.16347 25.7485 2.30218 25.6053 2.47615 25.5298Z" fill="#1174CF"/>
</svg>
