<svg width="24" height="31" viewBox="0 0 24 31" fill="none" xmlns="http://www.w3.org/2000/svg">
<path d="M12 0C6.55147 0 2.11765 4.7275 2.11765 10.54C2.11765 12.3879 2.56434 14.1486 3.41912 15.7325C3.64798 15.5896 3.93474 15.5 4.23529 15.5H6.35294C7.13051 15.5 7.76471 16.057 7.76471 16.74H12C9.27022 16.74 7.05882 13.9645 7.05882 10.54C7.05882 7.11547 9.27022 4.34 12 4.34C14.7298 4.34 16.9412 7.11547 16.9412 10.54C16.9412 13.9645 14.7298 16.74 12 16.74H16.2353C16.2353 16.057 16.8695 15.5 17.6471 15.5H19.7647C20.0653 15.5 20.352 15.5896 20.5809 15.7325C21.4357 14.1486 21.8824 12.3879 21.8824 10.54C21.8824 4.7275 17.4485 0 12 0ZM4.23529 16.12C3.84651 16.12 3.52941 16.3961 3.52941 16.74H7.05882C7.05882 16.3961 6.74173 16.12 6.35294 16.12H4.23529ZM17.6471 16.12C17.2555 16.12 16.9412 16.3961 16.9412 16.74H20.4706C20.4706 16.3961 20.1562 16.12 19.7647 16.12H17.6471ZM2.11765 17.36C0.951287 17.36 0 18.1955 0 19.22C0 20.2445 0.951287 21.08 2.11765 21.08H21.8824C23.0487 21.08 24 20.2445 24 19.22C24 18.1955 23.0487 17.36 21.8824 17.36H2.11765ZM1.43382 21.6225C1.74816 25.1294 5.10386 27.9 9.17647 27.9H14.8235C18.8961 27.9 22.2518 25.1294 22.5662 21.6225C22.3483 21.6685 22.1167 21.7 21.8824 21.7H2.11765C1.88327 21.7 1.65165 21.6685 1.43382 21.6225ZM5.60294 27.8225C5.24449 28.3892 4.94118 29.2102 4.94118 30.38C4.94118 30.7239 5.25827 31 5.64706 31H18.3529C18.3585 31 18.3722 31 18.375 31C18.7665 31 19.0809 30.7239 19.0809 30.38C19.0809 30.3364 19.0699 30.2855 19.0588 30.2444C19.0368 29.1424 18.7417 28.3698 18.3971 27.8225C17.3107 28.2681 16.1002 28.52 14.8235 28.52H9.17647C7.89982 28.52 6.68934 28.2681 5.60294 27.8225Z" fill="white"/>
</svg>
