<svg width="79" height="86" viewBox="0 0 79 86" fill="none" xmlns="http://www.w3.org/2000/svg">
<path fill-rule="evenodd" clip-rule="evenodd" d="M31.0642 64.4089H49.4619C50.1635 62.7862 51.1004 61.1613 51.9726 59.7798C53.3604 57.5816 54.8426 55.6031 55.7149 54.5357C58.036 51.6893 59.4855 48.2644 59.9054 44.6567C60.3254 41.049 59.6997 37.3956 58.0959 34.1156C56.4919 30.835 53.9719 28.0563 50.8176 26.1069C47.6625 24.1572 44.0048 23.1191 40.2661 23.1185C36.5275 23.1179 32.8694 24.1549 29.7138 26.1036C26.5588 28.052 24.0378 30.8301 22.4327 34.1102C20.8279 37.3896 20.2011 41.0427 20.6199 44.6506C21.0385 48.2587 22.4873 51.6844 24.8077 54.5317C25.6784 55.5985 27.1613 57.577 28.5506 59.7763C29.4237 61.1585 30.3619 62.7845 31.0642 64.4089ZM58.2652 56.6273C60.9817 53.2963 62.6847 49.2794 63.1781 45.0396C63.6717 40.7996 62.9354 36.5088 61.0545 32.6619C59.1736 28.8148 56.2243 25.5678 52.5466 23.295C48.8688 21.0222 44.6119 19.816 40.2666 19.8153C35.9213 19.8146 31.6642 21.0195 27.9856 23.2912C24.3072 25.5628 21.3568 28.8089 19.4747 32.6553C17.5925 36.5017 16.8549 40.7921 17.347 45.0323C17.8391 49.2725 19.5408 53.2899 22.2561 56.6217C23.8418 58.564 27.8746 64.1076 28.7308 67.7121H51.7952C52.6513 64.1104 56.6795 58.5668 58.2652 56.6273Z" fill="#1174CF"/>
<path d="M28.2696 71.1955H51.3339V73.8081H28.2696V71.1955Z" fill="#1174CF"/>
<path fill-rule="evenodd" clip-rule="evenodd" d="M48.039 80.7749H31.5645V82.5166H48.039V80.7749ZM28.2696 77.2915V82.5166C28.2696 84.4405 29.7447 86 31.5645 86H48.039C49.8588 86 51.3339 84.4405 51.3339 82.5166V77.2915H28.2696Z" fill="#1174CF"/>
<line x1="13.6133" y1="27.9063" x2="0.576925" y2="20.8867" stroke="#1174CF" stroke-width="2.427"/>
<line y1="-1.2135" x2="14.7648" y2="-1.2135" transform="matrix(0.882935 -0.475427 -0.475427 -0.882935 63.3274 26.8349)" stroke="#1174CF" stroke-width="2.427"/>
<line x1="39.0235" y1="14.8013" x2="39.0235" y2="9.61761e-06" stroke="#1174CF" stroke-width="2.472"/>
<line x1="14.8957" y1="53.9267" x2="1.85937" y2="62.9519" stroke="#1174CF" stroke-width="2.472"/>
<line x1="66.062" y1="51.9053" x2="78.0323" y2="60.611" stroke="#1174CF" stroke-width="2.472"/>
</svg>
