<svg width="17" height="7" viewBox="0 0 17 7" fill="none" xmlns="http://www.w3.org/2000/svg">
<path d="M0 2.74717C0 5.36119 0.00748899 5.51537 0.157269 5.81672C0.344493 6.20216 0.756388 6.61564 1.16079 6.81887L1.46035 6.97305L8.3652 6.99407C15.1877 7.00809 15.27 7.00809 15.6819 6.86793C15.974 6.76281 16.1912 6.62265 16.4308 6.37035C16.9925 5.78868 17 5.73963 17 2.6841V0H8.5H0V2.74717ZM9.1141 1.35957C10.6119 2.0814 10.6419 3.9806 9.17401 4.71644C8.74714 4.92669 7.87841 4.92669 7.44405 4.71644C6.2533 4.12076 6.00617 2.57197 6.97974 1.70297C7.39163 1.33154 7.82599 1.18437 8.38767 1.2124C8.65727 1.22642 8.98678 1.28949 9.1141 1.35957ZM4.74802 2.67008C4.99515 2.85229 5.01762 3.20971 4.78546 3.40593C4.65815 3.51105 4.51586 3.53909 4.0815 3.53909C3.44493 3.53909 3.22026 3.41294 3.22026 3.05553C3.22026 2.65607 3.43744 2.52992 4.08899 2.52291C4.44097 2.52291 4.59075 2.55795 4.74802 2.67008ZM13.1731 2.62803C13.5551 2.81024 13.5326 3.32884 13.1282 3.49704C12.9035 3.59515 12.2819 3.59515 12.0273 3.50405C11.6154 3.35688 11.5855 2.80324 11.9824 2.61402C12.237 2.49488 12.9185 2.50189 13.1731 2.62803Z" fill="white"/>
</svg>
