<svg width="43" height="14" viewBox="0 0 43 14" fill="none" xmlns="http://www.w3.org/2000/svg">
<path d="M15.1895 13.8401L17.3641 0.27727H20.8426L18.6663 13.8401H15.1895ZM31.2334 0.569644C30.5444 0.294868 29.4645 0 28.1159 0C24.6787 0 22.2578 1.83953 22.237 4.47595C22.2177 6.42481 23.9656 7.51207 25.2849 8.16076C26.639 8.82574 27.0941 9.24961 27.0876 9.84316C27.0789 10.7524 26.0063 11.1675 25.0064 11.1675C23.6143 11.1675 22.8747 10.9619 21.7323 10.4558L21.2839 10.2402L20.7958 13.2763C21.6083 13.6551 23.1106 13.983 24.6706 14C28.3271 14 30.7008 12.1815 30.7278 9.36601C30.7408 7.82308 29.8141 6.64908 27.8072 5.68099C26.5914 5.05356 25.8468 4.63489 25.8547 3.99956C25.8547 3.43581 26.485 2.83298 27.8469 2.83298C28.9842 2.8142 29.8083 3.07782 30.4503 3.3526L30.762 3.50911L31.2334 0.569644ZM40.1846 0.277062H37.4969C36.6642 0.277062 36.041 0.518583 35.6754 1.4018L30.5095 13.8312H34.1621C34.1621 13.8312 34.7592 12.16 34.8943 11.793C35.2934 11.793 38.8418 11.7988 39.3491 11.7988C39.4531 12.2737 39.7723 13.8312 39.7723 13.8312H43L40.1846 0.276646V0.277062ZM35.9201 9.03511C36.2078 8.25367 37.306 5.24368 37.306 5.24368C37.2856 5.27977 37.5916 4.45842 37.7672 3.94919L38.0023 5.11855C38.0023 5.11855 38.6683 8.35607 38.8076 9.03491H35.9201V9.03511ZM12.2366 0.277062L8.8311 9.52633L8.46832 7.64675C7.83428 5.48 5.85909 3.13249 3.65091 1.95724L6.76484 13.8185L10.4451 13.8141L15.9214 0.276923L12.2366 0.276855" fill="#0E4595"/>
<path d="M5.65347 0.276611H0.0444598L0 0.5588C4.36375 1.68146 7.25108 4.39451 8.44993 7.65476L7.23029 1.42206C7.01979 0.563234 6.40909 0.306887 5.6536 0.276957" fill="#F2AE14"/>
</svg>
