<svg width="23" height="23" viewBox="0 0 23 23" fill="none" xmlns="http://www.w3.org/2000/svg">
<path d="M19.4615 12.3214C18.2912 12.3214 17.2606 12.8562 16.6166 13.6694L12.412 11.5L16.6166 9.33061C17.2606 10.1438 18.2903 10.6786 19.4615 10.6786C21.4157 10.6786 23 9.20739 23 7.39286C23 5.57832 21.4157 4.10714 19.4615 4.10714C17.5074 4.10714 15.9231 5.57832 15.9231 7.39286C15.9231 7.82493 16.0186 8.23564 16.1814 8.61432L11.9423 10.8018V6.53036C13.685 6.32582 15.0385 4.95979 15.0385 3.28571C15.0385 1.47118 13.4541 0 11.5 0C9.54588 0 7.96154 1.47118 7.96154 3.28571C7.96154 4.95979 9.315 6.32582 11.0577 6.53036V10.8018L6.81773 8.61432C6.98138 8.23564 7.07692 7.82493 7.07692 7.39286C7.07692 5.57832 5.49258 4.10714 3.53846 4.10714C1.58435 4.10714 0 5.57832 0 7.39286C0 9.20739 1.58435 10.6786 3.53846 10.6786C4.70969 10.6786 5.73938 10.1438 6.38338 9.33061L10.588 11.5L6.3825 13.6694C5.73938 12.8562 4.70969 12.3214 3.53846 12.3214C1.58435 12.3214 0 13.7926 0 15.6071C0 17.4217 1.58435 18.8929 3.53846 18.8929C5.49258 18.8929 7.07692 17.4217 7.07692 15.6071C7.07692 15.1751 6.98138 14.7644 6.81773 14.3857L11.0577 12.1982V16.4696C9.315 16.6742 7.96154 18.0402 7.96154 19.7143C7.96154 21.5288 9.54588 23 11.5 23C13.4541 23 15.0385 21.5288 15.0385 19.7143C15.0385 18.0402 13.685 16.6742 11.9423 16.4696V12.1982L16.1823 14.3857C16.0186 14.7635 15.9231 15.1743 15.9231 15.6071C15.9231 17.4217 17.5074 18.8929 19.4615 18.8929C21.4157 18.8929 23 17.4217 23 15.6071C23 13.7926 21.4157 12.3214 19.4615 12.3214Z" fill="white"/>
</svg>
