<svg width="45" height="42" viewBox="0 0 45 42" fill="none" xmlns="http://www.w3.org/2000/svg">
<path d="M37.556 15.1164V40.0639H7.44391V15.1164" stroke="white" stroke-width="3.24" stroke-miterlimit="10"/>
<path d="M44.0086 18.6804L22.5 2.04867L0.991365 18.6804" stroke="white" stroke-width="3.24" stroke-miterlimit="10"/>
<path d="M16.6103 20.6548C16.6103 20.6548 16.7685 20.6548 16.8317 20.6548C16.895 20.6548 19.2042 20.0788 19.7736 19.9543C19.8843 20.3435 20.1216 20.6704 20.4695 20.8728V21.9936H22.067V20.8261C22.3675 20.6237 22.589 20.3435 22.6997 19.9854C23.4114 20.1567 25.436 20.6548 25.4992 20.6548C25.5783 20.6704 25.7207 20.6548 25.7207 20.6548C26.3533 20.6548 26.8753 20.1411 26.8753 19.5184C26.8753 18.8957 26.3533 18.382 25.7207 18.382C25.6416 18.382 25.5309 18.3976 25.5309 18.3976L22.6681 19.0203C22.4466 18.4598 21.893 18.0551 21.2446 18.0551C20.5803 18.0551 20.0267 18.4754 19.8052 19.0514L16.8001 18.382C16.8001 18.382 16.6894 18.3664 16.6103 18.3664C15.9776 18.3664 15.4557 18.8802 15.4557 19.5029C15.4557 20.1411 15.9776 20.6548 16.6103 20.6548ZM28.9314 31.1316V31.1627C28.9314 31.1627 27.2549 34.5408 27.2232 34.6498C27.1758 34.821 27.1125 35.0546 27.1125 35.2881C27.1125 36.2688 27.9192 37.0627 28.9156 37.0627C29.9121 37.0627 30.7187 36.2688 30.7187 35.2881C30.7029 34.9144 30.5605 34.6187 30.5605 34.6187L28.9314 31.1316ZM30.6871 29.2324V27.3488C30.6871 24.5311 27.935 24.6401 27.935 24.6401H24.4711V23.6437L22.6364 22.6786H19.9318L18.1129 23.6593V24.6556H14.997V28.0493H27.1916V29.2324H26.812V30.5089H31.0034V29.2324H30.6871Z" fill="white"/>
</svg>
