<svg width="19" height="22" viewBox="0 0 19 22" fill="none" xmlns="http://www.w3.org/2000/svg">
<path d="M13.2538 14.1139L12.7729 14.6999C12.7729 14.6999 11.6302 16.093 8.51104 12.2905C5.3919 8.48815 6.53462 7.09511 6.53462 7.09511L6.83735 6.72604C7.58321 5.81686 7.65351 4.35718 7.00276 3.29157L5.67177 1.11175C4.8664 -0.207167 3.31017 -0.381395 2.38708 0.743895L0.730284 2.76362C0.272574 3.32159 -0.0341491 4.04489 0.00304865 4.84727C0.0982069 6.90002 0.855747 11.3167 5.08287 16.4698C9.56554 21.9343 13.7716 22.1515 15.4916 21.9549C16.0357 21.8928 16.5088 21.5531 16.89 21.0882L18.3896 19.2604C19.4017 18.0265 19.1163 15.9111 17.8212 15.048L15.8046 13.704C14.9542 13.1373 13.9183 13.3037 13.2538 14.1139Z" fill="white"/>
</svg>
