<svg width="16" height="17" viewBox="0 0 16 17" fill="none" xmlns="http://www.w3.org/2000/svg">
<path d="M12.6317 15.4974L14.4891 13.5631C14.7455 13.296 14.7455 12.863 14.4891 12.5959C14.2326 12.3289 13.8169 12.3289 13.5604 12.5959L11.703 14.5303C11.5748 14.6638 11.5107 14.8388 11.5107 15.0138C11.5107 15.1888 11.5748 15.3639 11.703 15.4973C11.9594 15.7645 12.3753 15.7645 12.6317 15.4974Z" fill="white"/>
<path d="M12.3574 16.5135L15.5103 13.3817C15.826 13.068 16 12.6509 16 12.2073C16 11.7636 15.8261 11.3466 15.5103 11.0329C15.2255 10.7501 5.16534 0.756829 4.89235 0.485693C4.24042 -0.161898 3.17973 -0.161898 2.5278 0.485693L0.16325 2.83451C0.0587292 2.93833 0 3.07918 0 3.226L0.000133514 4.79202C0.000133514 4.93888 0.0588617 5.07969 0.163417 5.18345C0.267971 5.28724 0.409729 5.34558 0.557469 5.34558L1.57635 5.34548L1.57638 6.35774C1.57638 6.66348 1.82587 6.91134 2.13368 6.91137L3.15292 6.91147L3.15296 7.92383C3.15296 8.07069 3.21169 8.2115 3.31624 8.31532C3.42079 8.41915 3.56255 8.47749 3.71036 8.47746L4.72907 8.47732V9.48948C4.72907 9.63634 4.78776 9.77715 4.89232 9.88091C4.99684 9.98474 5.13863 10.0431 5.28644 10.0431L6.30531 10.043L6.30525 11.0551V11.0552C6.30525 11.202 6.36394 11.3428 6.46846 11.4466C6.57298 11.5504 6.71477 11.6088 6.86251 11.6088L7.97796 11.6088L8.21474 12.8418C8.02358 13.122 7.92762 13.4475 7.92762 13.7732C7.92762 14.1985 8.09063 14.6239 8.41653 14.9476L9.99291 16.5135C10.3087 16.8272 10.7286 17 11.1752 17C11.6218 17 12.0417 16.8272 12.3574 16.5135ZM10.7812 15.7305L9.2048 14.1646C8.98744 13.9487 8.98751 13.5976 9.2048 13.3816L12.7516 9.8584L14.7221 11.8158C14.8273 11.9203 14.8853 12.0594 14.8853 12.2072C14.8853 12.3551 14.8273 12.4941 14.7221 12.5986L11.5693 15.7304C11.4641 15.8349 11.3241 15.8925 11.1753 15.8925C11.0264 15.8926 10.8864 15.835 10.7812 15.7305Z" fill="white"/>
</svg>
