<svg width="45" height="43" viewBox="0 0 45 43" fill="none" xmlns="http://www.w3.org/2000/svg">
<path d="M2.37617 24.9498L2.21035 25.3782L2.60708 25.531L2.78362 25.1295L2.37617 24.9498ZM2.37617 24.9498C2.21035 25.3782 2.21028 25.3782 2.21022 25.3782L2.21005 25.3781L2.20964 25.378L2.20849 25.3775L2.20485 25.3761L2.19245 25.3712C2.18198 25.3671 2.16716 25.3611 2.14856 25.3535C2.1114 25.3383 2.05893 25.3163 1.99569 25.2884C1.86983 25.2328 1.69822 25.1525 1.51819 25.0542C1.34004 24.9569 1.14294 24.8364 0.971585 24.6985C0.810499 24.5689 0.623122 24.386 0.529559 24.1505C0.395188 23.8122 0.431537 23.4373 0.596833 23.1155L0.992005 23.321L0.596833 23.1155C0.760723 22.7965 1.04034 22.5467 1.36541 22.4056C1.69048 22.2646 2.05713 22.2339 2.38906 22.3378L2.24939 22.7754L2.38906 22.3378C2.72385 22.4426 3.00361 22.6804 3.13798 23.0186C3.23154 23.2541 3.22329 23.522 3.19739 23.7327C3.16985 23.9568 3.11244 24.1878 3.05259 24.3884C2.99211 24.591 2.92543 24.7748 2.87424 24.9071C2.84851 24.9737 2.82639 25.028 2.81047 25.0663C2.80251 25.0855 2.79607 25.1006 2.79149 25.1113L2.78605 25.1239L2.78444 25.1276L2.78393 25.1288L2.78375 25.1292L2.78368 25.1294C2.78365 25.1294 2.78362 25.1295 2.37617 24.9498Z" stroke="#188BF4" stroke-width="0.9"/>
<path d="M4.7498 27.7353L4.54512 28.1176L5.01298 28.3623L5.18743 27.9079L4.7498 27.7353ZM4.7498 27.7353C4.54512 28.1176 4.54506 28.1176 4.54499 28.1175L4.54483 28.1174L4.54442 28.1172L4.54325 28.1166L4.53958 28.1147L4.52704 28.108C4.51644 28.1024 4.50143 28.0943 4.48258 28.084C4.44491 28.0633 4.3917 28.0337 4.32748 27.9966C4.1996 27.9226 4.02532 27.8173 3.84191 27.6925C3.66001 27.5689 3.46008 27.4201 3.28559 27.2585C3.11877 27.104 2.9375 26.9039 2.84118 26.6744C2.70259 26.3443 2.70666 25.9839 2.851 25.6727L3.27808 25.8703L2.851 25.6727C2.99526 25.3618 3.26773 25.1254 3.6077 25.0144C3.94768 24.9034 4.32899 24.9263 4.66807 25.0795L4.4919 25.4701L4.66807 25.0795C5.00735 25.2327 5.27653 25.5039 5.41512 25.8341C5.51144 26.0636 5.52163 26.3196 5.50906 26.5326C5.49591 26.7554 5.45404 26.9832 5.40731 27.1815C5.36018 27.3815 5.3057 27.5615 5.26326 27.6911C5.24194 27.7561 5.22343 27.8092 5.21006 27.8465C5.20336 27.8651 5.19794 27.8799 5.19408 27.8902L5.18948 27.9025L5.18813 27.9061L5.18769 27.9072L5.18754 27.9076L5.18748 27.9078C5.18745 27.9078 5.18743 27.9079 4.7498 27.7353Z" stroke="#188BF4" stroke-width="0.9"/>
<path fill-rule="evenodd" clip-rule="evenodd" d="M9.12769 0.340018C2.79977 1.01187 0.268902 10.9292 3.85697 20.9937C5.28967 25.0127 8.0083 29.0167 10.9173 31.3925C11.6785 32.014 11.7895 32.0141 11.4005 31.3925C11.1231 30.9493 10.9619 30.6103 10.8402 30.2138C10.7869 30.04 10.5937 29.4504 10.4108 28.9038C8.22318 22.3632 9.48841 17.448 13.5431 16.7353C14.1459 16.6292 14.2456 16.8546 13.9142 17.5745C12.0101 21.7101 11.2137 25.3195 11.5833 28.1377C11.6862 28.923 11.7145 28.8992 11.7516 27.9962C11.9003 24.3695 13.6152 20.1458 16.3356 16.7067C19.0507 13.2743 21.3679 11.4111 24.5375 10.1117C29.1554 8.21853 33.7048 10.4412 34.0888 14.7783C34.1141 15.0635 34.1406 15.3681 34.1477 15.455C34.1734 15.7673 34.0316 17.1606 33.9111 17.7801C33.4676 20.0603 32.424 22.6116 30.6529 25.7458C29.8868 27.1015 29.8788 27.1184 29.9382 27.2347C29.9858 27.3275 30.1304 27.3882 31.2519 27.7859C34.5429 28.9528 36.8335 30.6336 37.3411 32.2539C38.3512 35.4785 36.525 38.0282 32.3318 39.2478C29.3818 40.1058 24.8988 40.0789 22.2034 39.1871C21.3515 38.9053 21.3833 39.0807 22.2914 39.6741C23.4458 40.4284 25.7358 41.3187 27.3478 41.6401C27.6022 41.6908 27.9978 41.7716 28.2269 41.8196C30.8085 42.3608 34.6708 42.2482 37.3881 41.5526C40.9162 40.6494 43.4746 38.6795 44.3514 36.191C45.4597 33.0458 43.7408 30.0634 39.4052 27.6094C38.9964 27.3779 38.593 27.1483 38.5089 27.0991C37.8236 26.6979 35.2903 25.74 34.4621 25.5687C33.8503 25.4423 33.8494 25.2013 34.4563 24.2068C40.4844 14.3318 40.4589 7.37376 34.3832 4.25447C31.8207 2.9389 27.9326 3.93351 22.0076 7.42031C21.3924 7.78242 21.384 7.77818 20.2849 6.56489C16.5908 2.48686 12.165 0.0176389 9.12769 0.340018ZM13.0785 6.48977C14.8015 6.85234 16.6365 8.02925 18.0844 9.7003C18.7402 10.4571 18.7527 10.572 18.2417 11.1386C17.7162 11.721 17.1539 12.4068 16.6908 13.0299C15.9714 13.998 15.9593 14.0024 15.3112 13.5511C11.7695 11.0845 8.49348 13.1174 7.71168 18.2667C7.20575 21.5992 7.9072 24.7642 10.1176 29.1227C10.7906 30.4497 10.8108 30.5479 10.3121 30.0687C9.74078 29.5199 8.78474 28.1592 7.98465 26.756C4.34962 20.3814 3.78007 13.6811 6.52007 9.52786C8.11467 7.11075 10.5873 5.96533 13.0785 6.48977ZM23.7783 13.276C22.6567 13.3788 21.666 13.7403 20.4444 14.4929C16.9178 16.6653 13.5029 22.3165 12.7114 27.2899C12.5378 28.381 12.6429 28.5516 12.9288 27.6426C14.5007 22.6443 20.8297 16.8654 23.8426 17.6774C27.2076 18.5844 27.3564 22.7387 24.2483 28.9994C23.9236 29.6535 23.9278 29.6635 24.6057 29.8228C26.7169 30.319 28.3357 31.9477 28.3146 33.5545C28.2909 35.3546 26.0137 37.3543 23.1207 38.1158C22.8407 38.1895 22.5373 38.2694 22.4466 38.2933C21.8857 38.4411 23.1448 38.6414 24.1254 38.5604C26.5645 38.3589 27.7904 38.0429 29.3616 37.2109C32.3409 35.6332 33.4474 33.5267 32.2649 31.6834C31.2598 30.1166 29.7122 29.3343 26.9475 28.9951C25.7696 28.8507 25.7388 28.7651 26.4499 27.6145C29.259 23.0697 30.101 18.0111 28.4664 15.5018C27.5186 14.047 25.5522 13.1133 23.7783 13.276Z" fill="#188BF4"/>
<mask id="path-4-inside-1_413_1313" fill="white">
<path fill-rule="evenodd" clip-rule="evenodd" d="M8.933 0.00908569C0.734303 1.23673 -0.625615 16.3265 6.50611 26.9396C7.96732 29.1142 10.5293 31.7685 12.1443 32.7811C12.8959 33.2523 13.0994 33.169 12.9076 32.469C11.9078 28.8191 14.6081 23.3126 19.0836 19.8748C21.9385 17.6819 23.899 17.4009 25.2956 18.9844C26.783 20.6709 26.3803 23.7622 24.0335 28.6741C23.6129 29.5541 23.5661 29.7336 23.7163 29.8896C23.8089 29.9858 23.8811 30.0096 24.6685 30.2045C26.8458 30.7433 28.3641 32.5988 27.8793 34.1283C27.2318 36.1709 24.3427 37.8544 21.1635 38.0417C20.1147 38.1035 20.0398 38.2465 20.7097 38.907C21.3546 39.5427 22.8596 40.4734 23.9724 40.9244C25.0765 41.3721 26.7251 41.8954 27.3488 41.996C27.5068 42.0215 27.882 42.0948 28.1822 42.1588C29.3944 42.4171 32.0092 42.5983 33.1868 42.5057C36.6836 42.2305 38.5451 41.7788 40.5414 40.7213C45.5561 38.0648 46.477 33.0469 42.6083 29.4581C40.842 27.8195 36.9713 25.7451 34.8514 25.3009C34.3048 25.1865 34.294 25.1255 34.7022 24.4633C40.4352 15.1635 40.8173 8.18638 35.7858 4.68034C33.5257 3.10544 31.9472 2.94302 28.596 3.94065C27.4085 4.29416 26.6411 4.61338 24.4172 5.67901C23.9523 5.9018 22.7208 6.58943 22.048 7.00193C21.4487 7.36935 21.5221 7.39438 20.7536 6.56074C16.9001 2.38017 13.0734 0.0739021 9.87791 0.00650378C9.43085 -0.00299512 9.00568 -0.00176267 8.933 0.00908569ZM11.209 0.316821C14.2654 1.06922 16.9948 2.8715 20.2467 6.28462L21.3664 7.45994L21.534 7.43709C21.6301 7.42392 21.9083 7.28947 22.1863 7.12173C26.5126 4.51183 30.7759 3.11364 32.9746 3.58361C35.4196 4.10622 37.8472 6.26888 38.6287 8.62063C39.9602 12.6275 38.6123 17.7544 34.4335 24.5774C34.0496 25.2041 34.0855 25.2853 34.832 25.48C36.2154 25.8409 38.0016 26.602 39.5383 27.4856C43.8401 29.9591 45.5794 32.9202 44.5731 36.0573C43.5902 39.1214 40.2591 41.3786 35.6887 42.0773C33.2116 42.456 30.1392 42.4158 28.1598 41.9788C27.8944 41.9201 27.5292 41.8472 27.3482 41.8168C26.7204 41.7108 25.1291 41.2098 24.0889 40.7907C22.2427 40.0467 20.169 38.495 20.8403 38.3598C21.5152 38.2238 21.9601 38.1426 22.4377 38.0684C25.1944 37.6401 27.8022 35.6985 28.1307 33.8301C28.3996 32.3003 26.721 30.4881 24.5853 30.0024C23.6513 29.7901 23.6669 29.8645 24.28 28.5531C26.6692 23.4429 26.9679 20.489 25.2726 18.7373C23.8107 17.2267 21.8279 17.5388 18.9971 19.7247C15.9726 22.0603 13.7629 25.2199 12.853 28.5102C12.5652 29.5512 12.4689 29.7539 12.4129 29.4379C12.1513 27.965 13.0396 24.4008 14.3224 21.7752C17.4288 15.4172 22.0197 12.0836 25.8869 13.3779C29.3455 14.5354 30.3718 18.1155 28.697 23.1811C28.2257 24.607 27.4037 26.3888 26.6483 27.6223C25.9804 28.7131 25.9732 28.6854 26.9596 28.817C29.6997 29.1825 31.0631 29.829 32.2012 31.3027C33.4796 32.9581 32.9264 34.9988 30.7807 36.5423C28.6526 38.0732 26.41 38.7232 23.2706 38.7192C21.8342 38.7174 21.7443 38.7351 22.1581 38.9377C23.7619 39.7226 27.7624 39.9501 30.7531 39.4261C35.773 38.5469 38.2457 35.8594 37.2109 32.4074C36.6985 30.6976 34.5356 29.133 30.901 27.843C29.8994 27.4876 29.7473 27.4072 29.7274 27.2233C29.712 27.0816 29.7471 27.0115 30.5438 25.592C34.7368 18.1208 35.0907 13.1491 31.6006 10.7462C29.4942 9.29579 27.0136 9.21611 24.0553 10.5036C21.1533 11.7666 18.6433 13.9115 16.0671 17.3298C13.642 20.5478 11.9849 24.8079 11.9598 27.8893C11.9505 29.0421 12.0087 29.5332 12.3006 30.7608C12.3836 31.1099 12.47 31.6079 12.4925 31.8673C12.515 32.1268 12.5457 32.4082 12.5608 32.4928L12.5883 32.6465L12.4397 32.6168C11.6308 32.4552 9.42003 30.4295 7.67041 28.2466C2.32316 21.5751 0.469977 11.0347 3.51136 4.59057C4.69978 2.07249 6.42735 0.65278 8.86557 0.190499C9.23079 0.121204 10.7463 0.202968 11.209 0.316821ZM11.1531 6.57978C6.5104 7.31196 3.99722 12.8651 5.33083 19.4447C5.89651 22.2357 7.28006 25.5245 8.89244 27.9112C9.63615 29.0122 9.78746 29.0279 9.31241 27.9552C8.54333 26.2183 8.13 25.0527 7.84204 23.8085C6.00103 15.8543 10.3205 9.82453 15.3277 13.3589C15.9185 13.7759 15.9349 13.7708 16.5221 12.9774C17.0126 12.3149 17.4555 11.7697 17.9734 11.1912C18.5899 10.5025 18.5894 10.4997 17.6913 9.53792C15.6664 7.36929 13.2058 6.25605 11.1531 6.57978ZM12.8563 6.80293C14.5829 7.11139 16.4648 8.30766 17.9035 10.0113C18.3427 10.5313 18.3502 10.4941 17.6407 11.3117C17.3216 11.6794 16.8493 12.2645 16.5912 12.6118C15.8553 13.6019 15.9333 13.5644 15.3857 13.1919C12.6217 11.3117 9.94291 12.0117 8.36131 15.0274C6.90642 17.8016 6.87254 21.8095 8.27001 25.8253C8.80683 27.3682 8.77031 27.4461 8.07598 26.2379C5.25683 21.3323 4.37831 15.5469 5.85042 11.5824C7.11471 8.17763 9.9033 6.27521 12.8563 6.80293ZM29.2136 9.89875C30.3478 10.1086 31.5085 10.7405 32.3673 11.6156C34.1024 13.3837 34.2479 16.5154 32.7796 20.4889C32.1464 22.2024 31.4797 23.5957 30.2458 25.7843C29.2326 27.5815 29.1924 27.424 30.8108 27.9952C34.612 29.3371 36.6616 30.8757 37.1194 32.7311C37.782 35.4157 36.2914 37.5208 32.8847 38.7113C30.4372 39.5667 26.2856 39.8091 23.8116 39.2411C22.8066 39.0105 22.8369 38.9468 23.9735 38.9015C29.7981 38.6697 34.2519 35.1269 32.7722 31.9028C31.918 30.0417 30.1627 29.0822 26.7458 28.6086C26.3117 28.5485 26.3106 28.4978 26.7301 27.8154C30.0438 22.4245 30.5858 16.8008 28.0189 14.4432C25.4822 12.1135 21.9671 12.4804 18.6618 15.4202C17.3855 16.5554 15.8883 18.511 14.8427 20.4088C13.6018 22.661 13.0258 24.2173 12.3822 27.0559C12.2052 27.8366 12.1713 27.8408 12.2031 27.0782C12.3105 24.4881 13.8799 20.6223 16.023 17.6684C20.0263 12.1506 25.1318 9.14342 29.2136 9.89875ZM13.0317 17.035C9.14092 18.209 8.33333 24.2259 11.2324 30.441C11.9645 32.0106 12.3115 32.2281 11.889 30.8525C10.7705 27.212 11.3434 22.8021 13.5677 17.9306C14.056 16.861 13.9876 16.7466 13.0317 17.035ZM13.6665 17.1739C13.6811 17.2139 13.6514 17.3409 13.6007 17.456C13.5499 17.5711 13.3675 17.98 13.1954 18.3648C11.4625 22.2389 10.827 26.0416 11.3532 29.3861C11.478 30.1795 11.4833 30.319 11.3855 30.2348C11.1408 30.0243 10.5049 28.2933 10.1668 26.9176C9.17807 22.8949 9.71273 19.4982 11.5735 17.9819C12.2823 17.4043 13.5694 16.9074 13.6665 17.1739Z"/>
</mask>
<path fill-rule="evenodd" clip-rule="evenodd" d="M8.933 0.00908569C0.734303 1.23673 -0.625615 16.3265 6.50611 26.9396C7.96732 29.1142 10.5293 31.7685 12.1443 32.7811C12.8959 33.2523 13.0994 33.169 12.9076 32.469C11.9078 28.8191 14.6081 23.3126 19.0836 19.8748C21.9385 17.6819 23.899 17.4009 25.2956 18.9844C26.783 20.6709 26.3803 23.7622 24.0335 28.6741C23.6129 29.5541 23.5661 29.7336 23.7163 29.8896C23.8089 29.9858 23.8811 30.0096 24.6685 30.2045C26.8458 30.7433 28.3641 32.5988 27.8793 34.1283C27.2318 36.1709 24.3427 37.8544 21.1635 38.0417C20.1147 38.1035 20.0398 38.2465 20.7097 38.907C21.3546 39.5427 22.8596 40.4734 23.9724 40.9244C25.0765 41.3721 26.7251 41.8954 27.3488 41.996C27.5068 42.0215 27.882 42.0948 28.1822 42.1588C29.3944 42.4171 32.0092 42.5983 33.1868 42.5057C36.6836 42.2305 38.5451 41.7788 40.5414 40.7213C45.5561 38.0648 46.477 33.0469 42.6083 29.4581C40.842 27.8195 36.9713 25.7451 34.8514 25.3009C34.3048 25.1865 34.294 25.1255 34.7022 24.4633C40.4352 15.1635 40.8173 8.18638 35.7858 4.68034C33.5257 3.10544 31.9472 2.94302 28.596 3.94065C27.4085 4.29416 26.6411 4.61338 24.4172 5.67901C23.9523 5.9018 22.7208 6.58943 22.048 7.00193C21.4487 7.36935 21.5221 7.39438 20.7536 6.56074C16.9001 2.38017 13.0734 0.0739021 9.87791 0.00650378C9.43085 -0.00299512 9.00568 -0.00176267 8.933 0.00908569ZM11.209 0.316821C14.2654 1.06922 16.9948 2.8715 20.2467 6.28462L21.3664 7.45994L21.534 7.43709C21.6301 7.42392 21.9083 7.28947 22.1863 7.12173C26.5126 4.51183 30.7759 3.11364 32.9746 3.58361C35.4196 4.10622 37.8472 6.26888 38.6287 8.62063C39.9602 12.6275 38.6123 17.7544 34.4335 24.5774C34.0496 25.2041 34.0855 25.2853 34.832 25.48C36.2154 25.8409 38.0016 26.602 39.5383 27.4856C43.8401 29.9591 45.5794 32.9202 44.5731 36.0573C43.5902 39.1214 40.2591 41.3786 35.6887 42.0773C33.2116 42.456 30.1392 42.4158 28.1598 41.9788C27.8944 41.9201 27.5292 41.8472 27.3482 41.8168C26.7204 41.7108 25.1291 41.2098 24.0889 40.7907C22.2427 40.0467 20.169 38.495 20.8403 38.3598C21.5152 38.2238 21.9601 38.1426 22.4377 38.0684C25.1944 37.6401 27.8022 35.6985 28.1307 33.8301C28.3996 32.3003 26.721 30.4881 24.5853 30.0024C23.6513 29.7901 23.6669 29.8645 24.28 28.5531C26.6692 23.4429 26.9679 20.489 25.2726 18.7373C23.8107 17.2267 21.8279 17.5388 18.9971 19.7247C15.9726 22.0603 13.7629 25.2199 12.853 28.5102C12.5652 29.5512 12.4689 29.7539 12.4129 29.4379C12.1513 27.965 13.0396 24.4008 14.3224 21.7752C17.4288 15.4172 22.0197 12.0836 25.8869 13.3779C29.3455 14.5354 30.3718 18.1155 28.697 23.1811C28.2257 24.607 27.4037 26.3888 26.6483 27.6223C25.9804 28.7131 25.9732 28.6854 26.9596 28.817C29.6997 29.1825 31.0631 29.829 32.2012 31.3027C33.4796 32.9581 32.9264 34.9988 30.7807 36.5423C28.6526 38.0732 26.41 38.7232 23.2706 38.7192C21.8342 38.7174 21.7443 38.7351 22.1581 38.9377C23.7619 39.7226 27.7624 39.9501 30.7531 39.4261C35.773 38.5469 38.2457 35.8594 37.2109 32.4074C36.6985 30.6976 34.5356 29.133 30.901 27.843C29.8994 27.4876 29.7473 27.4072 29.7274 27.2233C29.712 27.0816 29.7471 27.0115 30.5438 25.592C34.7368 18.1208 35.0907 13.1491 31.6006 10.7462C29.4942 9.29579 27.0136 9.21611 24.0553 10.5036C21.1533 11.7666 18.6433 13.9115 16.0671 17.3298C13.642 20.5478 11.9849 24.8079 11.9598 27.8893C11.9505 29.0421 12.0087 29.5332 12.3006 30.7608C12.3836 31.1099 12.47 31.6079 12.4925 31.8673C12.515 32.1268 12.5457 32.4082 12.5608 32.4928L12.5883 32.6465L12.4397 32.6168C11.6308 32.4552 9.42003 30.4295 7.67041 28.2466C2.32316 21.5751 0.469977 11.0347 3.51136 4.59057C4.69978 2.07249 6.42735 0.65278 8.86557 0.190499C9.23079 0.121204 10.7463 0.202968 11.209 0.316821ZM11.1531 6.57978C6.5104 7.31196 3.99722 12.8651 5.33083 19.4447C5.89651 22.2357 7.28006 25.5245 8.89244 27.9112C9.63615 29.0122 9.78746 29.0279 9.31241 27.9552C8.54333 26.2183 8.13 25.0527 7.84204 23.8085C6.00103 15.8543 10.3205 9.82453 15.3277 13.3589C15.9185 13.7759 15.9349 13.7708 16.5221 12.9774C17.0126 12.3149 17.4555 11.7697 17.9734 11.1912C18.5899 10.5025 18.5894 10.4997 17.6913 9.53792C15.6664 7.36929 13.2058 6.25605 11.1531 6.57978ZM12.8563 6.80293C14.5829 7.11139 16.4648 8.30766 17.9035 10.0113C18.3427 10.5313 18.3502 10.4941 17.6407 11.3117C17.3216 11.6794 16.8493 12.2645 16.5912 12.6118C15.8553 13.6019 15.9333 13.5644 15.3857 13.1919C12.6217 11.3117 9.94291 12.0117 8.36131 15.0274C6.90642 17.8016 6.87254 21.8095 8.27001 25.8253C8.80683 27.3682 8.77031 27.4461 8.07598 26.2379C5.25683 21.3323 4.37831 15.5469 5.85042 11.5824C7.11471 8.17763 9.9033 6.27521 12.8563 6.80293ZM29.2136 9.89875C30.3478 10.1086 31.5085 10.7405 32.3673 11.6156C34.1024 13.3837 34.2479 16.5154 32.7796 20.4889C32.1464 22.2024 31.4797 23.5957 30.2458 25.7843C29.2326 27.5815 29.1924 27.424 30.8108 27.9952C34.612 29.3371 36.6616 30.8757 37.1194 32.7311C37.782 35.4157 36.2914 37.5208 32.8847 38.7113C30.4372 39.5667 26.2856 39.8091 23.8116 39.2411C22.8066 39.0105 22.8369 38.9468 23.9735 38.9015C29.7981 38.6697 34.2519 35.1269 32.7722 31.9028C31.918 30.0417 30.1627 29.0822 26.7458 28.6086C26.3117 28.5485 26.3106 28.4978 26.7301 27.8154C30.0438 22.4245 30.5858 16.8008 28.0189 14.4432C25.4822 12.1135 21.9671 12.4804 18.6618 15.4202C17.3855 16.5554 15.8883 18.511 14.8427 20.4088C13.6018 22.661 13.0258 24.2173 12.3822 27.0559C12.2052 27.8366 12.1713 27.8408 12.2031 27.0782C12.3105 24.4881 13.8799 20.6223 16.023 17.6684C20.0263 12.1506 25.1318 9.14342 29.2136 9.89875ZM13.0317 17.035C9.14092 18.209 8.33333 24.2259 11.2324 30.441C11.9645 32.0106 12.3115 32.2281 11.889 30.8525C10.7705 27.212 11.3434 22.8021 13.5677 17.9306C14.056 16.861 13.9876 16.7466 13.0317 17.035ZM13.6665 17.1739C13.6811 17.2139 13.6514 17.3409 13.6007 17.456C13.5499 17.5711 13.3675 17.98 13.1954 18.3648C11.4625 22.2389 10.827 26.0416 11.3532 29.3861C11.478 30.1795 11.4833 30.319 11.3855 30.2348C11.1408 30.0243 10.5049 28.2933 10.1668 26.9176C9.17807 22.8949 9.71273 19.4982 11.5735 17.9819C12.2823 17.4043 13.5694 16.9074 13.6665 17.1739Z" fill="#188BF4" stroke="#188BF4" stroke-width="2" mask="url(#path-4-inside-1_413_1313)"/>
<path d="M3.79734 25.5865C3.98514 25.5156 4.19797 25.5155 4.38902 25.5864C4.58006 25.6572 4.73367 25.7931 4.81605 25.9642C5.02312 26.3943 4.66705 27.3928 4.66705 27.3928C4.66705 27.3928 3.60693 26.9291 3.39986 26.4991C3.31748 26.328 3.31307 26.1357 3.38762 25.9646C3.46216 25.7934 3.60954 25.6574 3.79734 25.5865Z" fill="#188BF4"/>
<path d="M1.57031 22.9625C1.74522 22.8866 1.94128 22.885 2.11533 22.9581C2.28939 23.0313 2.42719 23.173 2.49843 23.3523C2.67748 23.803 2.32235 24.8553 2.32235 24.8553C2.32235 24.8553 1.35842 24.3753 1.17936 23.9247C1.10813 23.7454 1.1093 23.5433 1.18261 23.3628C1.25593 23.1824 1.39539 23.0384 1.57031 22.9625Z" fill="#188BF4"/>
</svg>
