<svg width="83" height="75" viewBox="0 0 83 75" fill="none" xmlns="http://www.w3.org/2000/svg">
<path d="M1.54418 0.323547C0.782159 0.867691 0.63624 1.41183 0.63624 3.70605C0.63624 5.98558 0.798372 6.54443 1.57661 7.02975C1.96572 7.26505 2.46833 7.29446 5.88932 7.33858C10.0399 7.39741 10.5101 7.32388 10.8343 6.69149C11.0938 6.17677 11.0613 5.98558 10.6722 5.54438L10.3479 5.16201H6.69997H3.06822V3.69135V2.2207H11.953C20.2218 2.2207 20.9189 2.2354 22.1511 2.51482C24.8101 3.08838 26.7557 4.13255 28.7499 6.0444C29.7227 7.00033 30.1605 7.57389 30.7928 8.75041C31.8142 10.6623 32.1223 11.8388 32.1547 14.0595L32.1709 15.8243L30.6144 15.8684L29.058 15.9125L28.9607 14.1624C28.8148 11.2358 27.8096 9.1622 25.7018 7.42682C24.5993 6.51501 22.6051 5.57379 21.2594 5.32378C20.7892 5.23554 19.0869 5.16201 17.498 5.16201C14.7904 5.16201 14.5634 5.17671 14.2553 5.45614C13.7689 5.89734 13.8176 6.67679 14.3526 7.05916C14.7579 7.33858 15.0011 7.368 17.579 7.368C19.9462 7.368 20.546 7.41212 21.454 7.66212C23.5617 8.2651 25.5559 10.1034 26.2044 12.0447C26.3828 12.5888 26.4801 13.4124 26.4963 14.3536V15.8243L15.7956 15.8978L5.09487 15.9713L4.04101 16.4272C2.72774 17.0008 1.6901 17.8391 1.00914 18.8538C-0.0771405 20.501 -0.0285009 18.8685 0.0201387 45.8404L0.0687783 70.2386L0.425469 71.0475C1.2037 72.7682 2.9223 74.2241 4.85167 74.7683C5.67854 75.0036 8.11052 75.0183 41.8178 74.9889L77.8921 74.9447L78.946 74.4888C80.2592 73.9153 81.2969 73.077 81.9778 72.0622C83.0641 70.4151 82.9993 72.0034 82.9993 45.458C82.9993 18.9127 83.0641 20.501 81.9778 18.8538C81.2969 17.8391 80.2592 17.0008 78.946 16.4272L77.8921 15.9713L67.1914 15.8978L56.4907 15.8243L56.4421 14.7213C56.2961 11.4123 58.0472 8.97102 61.5168 7.63271C61.8897 7.48565 64.3217 7.42682 71.4879 7.368C80.2917 7.29446 81.005 7.27975 81.4104 7.02975C82.1886 6.54443 82.3507 5.98558 82.3507 3.70605C82.3507 1.41183 82.2048 0.867691 81.4428 0.323547L80.9888 0L71.0177 0.0441208L61.0304 0.0882416L59.6036 0.500023C56.3934 1.41183 53.8155 2.94131 51.8699 5.11789C49.4866 7.77978 48.303 10.9417 48.303 14.6036V15.8978H46.9249H45.563L45.5144 8.45628L45.4657 1.01476L44.8658 0.514732L44.2497 0.0147095H41.4935H38.7372L38.1211 0.514732L37.5213 1.01476L37.4726 8.45628L37.424 15.8978H36.0621H34.6839V14.6036C34.6677 7.79449 30.4199 2.48541 23.3834 0.500023L21.9566 0.0882416L11.9693 0.0441208L1.99815 0L1.54418 0.323547ZM43.1148 9.05925V15.8978H41.4935H39.8722V9.05925V2.2207H41.4935H43.1148V9.05925ZM79.9188 3.69135V5.16201H71.2447C65.6349 5.16201 62.2788 5.22083 61.7276 5.32378C60.3819 5.57379 58.3876 6.51501 57.2851 7.42682C55.1612 9.1622 54.1398 11.2652 54.0101 14.1771L53.929 15.9125L52.3725 15.8684L50.8161 15.8243L50.8323 14.133C50.8485 11.9123 51.2052 10.5152 52.2104 8.69159C53.8966 5.63262 57.0906 3.33839 60.771 2.51482C61.8897 2.26482 62.7976 2.2354 70.9691 2.2354L79.9188 2.2207V3.69135ZM77.6489 18.3244C78.6379 18.6332 79.4648 19.295 80.016 20.1921L80.4862 20.9716V45.458V69.9445L80.1133 70.5622C79.6593 71.3563 78.8487 72.0917 78.038 72.4593C77.4219 72.7387 76.6437 72.7387 41.6394 72.7829L5.85689 72.8123L4.83546 72.327C3.70053 71.8122 2.88987 70.9151 2.58182 69.871C2.46833 69.5033 2.4359 61.3117 2.45212 45.1345L2.50076 20.9716L2.97094 20.1921C3.50598 19.3244 4.34906 18.6479 5.28943 18.3244C6.24601 18.0156 76.6437 18.0009 77.6489 18.3244Z" fill="#1174CF"/>
<path d="M11.6448 22.9423C9.78032 23.4864 8.159 25.0453 7.76988 26.6778C7.64017 27.2219 7.60775 32.6045 7.64017 45.8993L7.68881 64.356L8.12657 65.1649C8.72646 66.2679 9.74789 67.1797 11.0125 67.7238L12.0664 68.1797L41.0718 68.2239C72.574 68.2533 71.131 68.2974 72.574 67.4738C73.4982 66.9444 74.3737 66.062 74.8601 65.1649L75.2978 64.356L75.3465 45.8993C75.3789 32.6045 75.3465 27.2219 75.2168 26.6778C74.9574 25.6189 73.9521 24.2953 72.8983 23.6482C71.2121 22.604 72.7686 22.6629 47.8813 22.6629C35.5593 22.6629 25.345 22.707 25.1991 22.7511C25.0694 22.8099 24.8262 23.0452 24.6965 23.2805C24.4857 23.6482 24.4857 23.7953 24.6478 24.1482C24.7451 24.3982 24.9721 24.6483 25.1342 24.7218C25.3126 24.81 33.7921 24.8688 47.8165 24.8688C67.6938 24.8688 70.2717 24.8983 70.8068 25.1042C71.5688 25.3836 72.2335 25.9571 72.6389 26.6631C72.9307 27.1925 72.9469 27.7808 72.9469 45.4139C72.9469 62.7089 72.9307 63.6501 72.6389 64.209C72.266 64.959 71.358 65.6943 70.5636 65.8855C69.7043 66.1061 13.2824 66.1061 12.4231 65.8855C11.661 65.6943 10.7693 65.0031 10.3478 64.2678C10.0559 63.7236 10.0397 63.2383 10.0397 45.4581C10.0397 27.7955 10.0559 27.1925 10.3478 26.6631C10.7531 25.9571 11.4178 25.3836 12.1799 25.1042C12.6663 24.913 13.5418 24.8688 16.8493 24.8688H20.9188L21.3403 24.4865C21.6646 24.1923 21.7294 24.0306 21.6484 23.6482C21.4376 22.6776 21.3241 22.6629 16.7034 22.6776C13.1689 22.6776 12.4231 22.7217 11.6448 22.9423Z" fill="#1174CF"/>
<path d="M16.3305 31.1927C16.0062 31.3545 15.5684 31.6928 15.3577 31.9575L14.9848 32.4428L14.9361 44.6493C14.9037 53.532 14.9523 56.9587 15.082 57.2675C15.3414 57.8264 16.2332 58.5029 16.9628 58.6793C17.8545 58.9146 55.7609 58.8999 56.296 58.6793C56.6851 58.5176 57.058 57.9881 57.058 57.6058C57.058 57.5028 56.9121 57.2381 56.7175 57.0175L56.3933 56.6351H53.7991H51.2212V44.8699V33.1046H58.4361H65.651L65.6186 44.8257L65.5699 56.5616L63.0407 56.6351C60.1871 56.7234 59.9764 56.7822 59.9764 57.6646C59.9764 58.1058 60.0737 58.297 60.3979 58.5323C60.787 58.8117 61.0464 58.8411 63.1217 58.8411C64.3701 58.8411 65.6834 58.7676 66.0239 58.6793C66.7535 58.5029 67.6452 57.8264 67.9046 57.2675C68.0343 56.9587 68.083 53.532 68.0505 44.6493L68.0019 32.4428L67.629 31.9575C67.4182 31.6928 66.9643 31.3545 66.6238 31.1927C65.9915 30.8986 65.5861 30.8986 41.4609 30.8986C17.514 30.9133 16.9141 30.9133 16.3305 31.1927ZM31.7654 44.8699V56.6351L24.5992 56.6057L17.4167 56.5616L17.3681 44.8257L17.3357 33.1046H24.5505H31.7654V44.8699ZM48.7893 44.8699V56.6351H41.4933H34.1974V44.8699V33.1046H41.4933H48.7893V44.8699Z" fill="#1174CF"/>
<path d="M20.9512 36.8547C20.6594 36.9723 20.2703 37.2811 20.0919 37.5459C19.7839 37.9871 19.7677 38.2224 19.8001 40.0607L19.8487 42.1049L20.4486 42.6049C21.0161 43.0755 21.1296 43.105 22.1996 43.105H23.3346V47.1493V51.2083L23.7561 51.5907C24.0804 51.8848 24.2587 51.9436 24.6803 51.8701C25.6855 51.6789 25.6855 51.7377 25.7341 47.2228L25.7828 43.105H26.9015C27.858 43.105 28.085 43.0461 28.5066 42.7226C29.2037 42.1931 29.3821 41.5166 29.301 39.5607C29.2037 36.7811 28.9605 36.6341 24.5181 36.6341C22.2645 36.6488 21.3403 36.6929 20.9512 36.8547ZM26.9015 39.8695V40.899H24.5505H22.1996V39.8695V38.84H24.5505H26.9015V39.8695Z" fill="#1174CF"/>
<path d="M40.8124 37.9724C40.3098 38.2371 40.1963 39.1342 40.1963 42.8402V46.4875H39.3045C38.2831 46.4875 37.6346 46.7375 37.132 47.311C36.8239 47.664 36.7915 47.8993 36.7915 49.6788C36.7915 52.9143 36.8401 52.9584 41.4933 52.9584C46.1465 52.9584 46.1952 52.9143 46.1952 49.6788C46.1952 47.8993 46.1627 47.664 45.8547 47.311C45.3521 46.7375 44.7035 46.4875 43.6821 46.4875H42.7904V42.8402C42.7904 39.0754 42.6769 38.2224 42.1419 37.9577C41.7527 37.7665 41.1691 37.7812 40.8124 37.9724ZM43.7632 49.7229V50.7524H41.4933H39.2235V49.7229V48.6935H41.4933H43.7632V49.7229Z" fill="#1174CF"/>
<path d="M54.8368 36.8694C53.9289 37.2811 53.7505 37.6929 53.6857 39.5607C53.6046 41.5166 53.7829 42.1931 54.4801 42.7226C54.9016 43.0461 55.1286 43.105 56.1014 43.105H57.2201V47.1346C57.2201 51.6054 57.2363 51.6789 58.3064 51.8701C58.728 51.9436 58.9063 51.8848 59.2306 51.5907L59.6521 51.2083V47.1493V43.105H60.787C61.8571 43.105 61.9706 43.0755 62.5381 42.6049L63.1379 42.1049L63.1866 40.1342C63.2352 37.8694 63.0569 37.3253 62.0841 36.8988C61.2896 36.5311 55.6312 36.5164 54.8368 36.8694ZM60.787 39.8695V40.899H58.4361H56.0852V39.8695V38.84H58.4361H60.787V39.8695Z" fill="#1174CF"/>
</svg>
