<svg width="90" height="87" viewBox="0 0 90 87" fill="none" xmlns="http://www.w3.org/2000/svg">
<path d="M4.46085 50.9068L4.1783 51.6249L4.84312 51.8851L5.139 51.2011L4.46085 50.9068ZM4.46085 50.9068C5.139 51.2011 5.13905 51.201 5.1391 51.2008L5.13923 51.2005L5.13956 51.1998L5.14051 51.1976L5.14358 51.1904L5.15419 51.1654C5.16316 51.1441 5.17585 51.1137 5.1916 51.0752C5.22309 50.9983 5.26696 50.8887 5.31802 50.7545C5.41971 50.4871 5.55197 50.1166 5.67174 49.7088C5.79048 49.3044 5.9029 48.8433 5.95658 48.3994C6.00759 47.9776 6.01969 47.4674 5.84837 47.029C5.59958 46.3922 5.07927 45.9384 4.44589 45.7369C3.81703 45.5367 3.11694 45.5947 2.49288 45.8701C1.86882 46.1454 1.33596 46.6314 1.02542 47.2459C0.712644 47.8649 0.647843 48.5769 0.89663 49.2136C1.06796 49.6521 1.41656 50.0032 1.73371 50.2625C2.06748 50.5355 2.45416 50.7763 2.80753 50.9724C3.16395 51.1702 3.50426 51.3322 3.75426 51.4444C3.87978 51.5007 3.9838 51.5451 4.05729 51.5757C4.09406 51.591 4.12327 51.6029 4.1438 51.6112L4.16796 51.6208L4.17491 51.6236L4.17705 51.6244L4.17779 51.6247L4.17807 51.6248C4.17819 51.6249 4.1783 51.6249 4.46085 50.9068Z" stroke="#1174CF" stroke-width="1.5"/>
<path d="M9.2238 56.591L8.87582 57.2311L9.6602 57.6481L9.95273 56.8736L9.2238 56.591ZM9.2238 56.591C8.87582 57.2311 8.87571 57.2311 8.8756 57.231L8.87531 57.2309L8.87457 57.2305L8.87241 57.2293L8.8654 57.2256L8.84095 57.2123C8.82018 57.2011 8.79059 57.1849 8.75331 57.1641C8.6788 57.1227 8.57328 57.063 8.4458 56.988C8.19175 56.8386 7.84597 56.6261 7.48257 56.3749C7.12165 56.1254 6.72859 55.8277 6.38766 55.5068C6.05913 55.1975 5.71809 54.8109 5.53955 54.3784C5.27953 53.7485 5.2863 53.059 5.55901 52.4614C5.83176 51.8638 6.34822 51.4071 6.99511 51.1923C7.64201 50.9776 8.36561 51.0226 9.00658 51.317C9.64746 51.6112 10.1533 52.1306 10.4133 52.7604C10.5918 53.1929 10.6138 53.6855 10.589 54.1121C10.5633 54.5547 10.4812 55.0102 10.3884 55.4103C10.295 55.8131 10.1869 56.1763 10.1026 56.438C10.0602 56.5694 10.0235 56.6763 9.99706 56.7512C9.98382 56.7887 9.97312 56.8183 9.96555 56.839L9.95659 56.8633L9.954 56.8703L9.95319 56.8724L9.95292 56.8731L9.95281 56.8734C9.95277 56.8735 9.95273 56.8736 9.2238 56.591Z" stroke="#1174CF" stroke-width="1.5"/>
<path fill-rule="evenodd" clip-rule="evenodd" d="M18.0135 0.695392C5.31396 2.06695 0.233415 22.3017 7.43291 42.836C10.3076 51.0358 15.7631 59.2049 21.6009 64.0519C23.1283 65.32 23.3512 65.32 22.5706 64.0519C22.0139 63.1476 21.6905 62.4561 21.4463 61.647C21.3394 61.2924 20.9516 60.0895 20.5846 58.9743C16.1952 45.6296 18.7351 35.6009 26.8725 34.1463C28.0824 33.9298 28.2823 34.3897 27.6172 35.8586C23.7953 44.2968 22.1965 51.661 22.9379 57.411C23.1443 59.0132 23.201 58.9648 23.2756 57.1224C23.5746 49.7228 27.0168 41.1049 32.4768 34.0876C37.9262 27.0841 42.5767 23.2823 48.9379 20.6308C58.206 16.7675 67.3357 21.302 68.1058 30.1509C68.1565 30.7329 68.2096 31.3543 68.2239 31.5317C68.2755 32.1687 67.9907 35.0116 67.7489 36.2756C66.8584 40.928 64.7637 46.1336 61.2089 52.5285C59.6713 55.2945 59.6551 55.3291 59.7743 55.5663C59.8698 55.7558 60.1601 55.8795 62.4106 56.6908C69.0152 59.0713 73.612 62.5004 74.6305 65.8062C76.6573 72.3852 72.9919 77.5877 64.5764 80.0766C58.6559 81.8276 49.659 81.7733 44.2497 79.9541C42.5402 79.3791 42.6039 79.737 44.4264 80.9476C46.7429 82.4864 51.3387 84.3027 54.5737 84.9582C55.0842 85.0615 55.8781 85.2264 56.3379 85.3244C61.5189 86.4282 69.2701 86.198 74.7236 84.7784C81.8041 82.9351 86.9389 78.9157 88.6988 73.8383C90.9236 67.4209 87.4743 61.3362 78.7734 56.3297C77.9531 55.8574 77.1437 55.3891 76.9748 55.2886C75.5996 54.4702 70.5156 52.516 68.8535 52.1667C67.6258 51.9089 67.6239 51.4172 68.8421 49.3881C80.9412 29.2391 80.8909 15.0426 68.698 8.67898C63.5556 5.99513 55.7525 8.02492 43.8612 15.1398C42.6265 15.8787 42.6096 15.87 40.404 13.3947C32.9909 5.07471 24.1091 0.0372646 18.0135 0.695392ZM25.9415 13.2423C29.3993 13.9819 33.0818 16.3829 35.9874 19.7922C37.3034 21.3362 37.3284 21.5707 36.3028 22.7267C35.2481 23.9151 34.1195 25.3144 33.1901 26.5857C31.7462 28.561 31.722 28.5701 30.4213 27.6494C23.3139 22.6172 16.739 26.7652 15.1693 37.2715C14.1535 44.071 15.5608 50.5286 19.9962 59.421C21.3467 62.1283 21.3872 62.3287 20.3864 61.351C19.2399 60.2315 17.3214 57.4553 15.7159 54.5924C8.42169 41.5866 7.27957 27.9161 12.779 19.4418C15.9796 14.5099 20.9421 12.1726 25.9415 13.2423ZM47.414 27.087C45.163 27.2969 43.1747 28.0346 40.723 29.5703C33.6451 34.0031 26.7911 45.5337 25.202 55.6812C24.8534 57.9074 25.0643 58.2554 25.6382 56.4007C28.7936 46.2024 41.496 34.411 47.5424 36.0673C54.2955 37.9174 54.5935 46.3934 48.355 59.1675C47.7032 60.5023 47.7118 60.5227 49.0722 60.8477C53.3091 61.8598 56.5576 65.1826 56.515 68.4609C56.4673 72.1337 51.8969 76.2141 46.0908 77.768C45.5289 77.9185 44.92 78.0815 44.7379 78.1302C43.6122 78.432 46.139 78.8404 48.1071 78.675C53.0021 78.2636 55.4623 77.6188 58.6158 75.921C64.5951 72.7016 66.816 68.4035 64.4432 64.6428C62.4262 61.4463 59.3206 59.8502 53.772 59.1585C51.4082 58.864 51.3463 58.6895 52.7737 56.3417C58.4118 47.0686 60.1024 36.7473 56.8222 31.6278C54.9203 28.6596 50.974 26.7548 47.414 27.087Z" fill="#1174CF"/>
<mask id="path-4-inside-1_104_348" fill="white">
<path fill-rule="evenodd" clip-rule="evenodd" d="M17.6222 0.0183789C1.16812 2.52417 -1.56315 33.3122 12.748 54.9653C15.6802 59.4021 20.8215 64.8173 24.0624 66.883C25.5707 67.8444 25.9791 67.6745 25.5944 66.2463C23.5884 58.7994 29.0083 47.5641 37.9907 40.5494C43.7205 36.0749 47.6551 35.5013 50.4575 38.7319C53.4424 42.1727 52.6338 48.48 47.9234 58.502C47.0791 60.2976 46.9852 60.664 47.2865 60.9821C47.4725 61.1784 47.6173 61.227 49.1976 61.6245C53.5671 62.7236 56.6139 66.5092 55.6408 69.6298C54.341 73.7975 48.5426 77.2327 42.1623 77.6152C40.0575 77.7415 39.9072 78.0332 41.2515 79.3807C42.5457 80.6778 45.566 82.5764 47.799 83.4966C50.0148 84.4099 53.3234 85.4773 54.575 85.6825C54.8921 85.7345 55.645 85.884 56.2476 86.0146C58.6803 86.5414 63.9278 86.9109 66.2912 86.7217C73.309 86.1598 77.0449 85.2379 81.0513 83.0802C91.1157 77.6593 92.9645 67.4212 85.201 60.0994C81.6563 56.7563 73.8885 52.5244 69.6341 51.6184C68.5373 51.385 68.5157 51.2606 69.3349 49.9095C80.8417 30.9343 81.6096 16.6987 71.5122 9.5459C66.9767 6.33287 63.8089 6.00168 57.0832 8.03758C54.7 8.759 53.1598 9.4104 48.6965 11.5849C47.7635 12.0395 45.292 13.4426 43.9417 14.2843C42.7389 15.0341 42.8861 15.0851 41.3439 13.3843C33.611 4.85515 25.9315 0.150115 19.5185 0.0129947C18.6213 -0.00633098 17.768 -0.00376406 17.6222 0.0183789ZM22.1899 0.645975C28.3236 2.18073 33.8009 5.8576 40.3268 12.821L42.5737 15.2189L42.9099 15.1723C43.1029 15.1454 43.6613 14.871 44.2192 14.5288C52.902 9.20322 61.4581 6.34995 65.8706 7.30855C70.7775 8.37455 75.6491 12.7868 77.2171 17.585C79.8888 25.76 77.1829 36.2208 68.7957 50.1423C68.0251 51.4211 68.0972 51.5867 69.5953 51.9838C72.3714 52.7199 75.9562 54.2727 79.04 56.0752C87.6729 61.1214 91.1631 67.1627 89.1431 73.5636C87.1702 79.8155 80.4847 84.4213 71.3123 85.8473C66.341 86.6203 60.175 86.5387 56.2026 85.6473C55.67 85.5276 54.937 85.3789 54.5739 85.3168C53.3138 85.1007 50.1205 84.0788 48.033 83.2238C44.328 81.7059 40.1665 78.5404 41.5136 78.2643C42.8681 77.9869 43.7609 77.8211 44.7196 77.6697C50.2519 76.7953 55.4858 72.8336 56.1454 69.0214C56.6852 65.9002 53.3166 62.2028 49.0306 61.2122C47.1562 60.7791 47.1875 60.9308 48.4181 58.2552C53.2136 47.8284 53.8135 41.8016 50.4114 38.2278C47.4779 35.1459 43.4984 35.7828 37.8172 40.2432C31.7468 45.0089 27.3119 51.4558 25.4854 58.1691C24.9075 60.2931 24.7143 60.7066 24.6019 60.0618C24.0772 57.0567 25.8604 49.7846 28.4352 44.4274C34.6703 31.4546 43.8842 24.6525 51.6451 27.2928C58.586 29.6541 60.6452 36.9584 57.2834 47.2941C56.3372 50.2033 54.6874 53.8389 53.1712 56.3558C51.8306 58.5814 51.8162 58.525 53.7958 58.7933C59.2947 59.5386 62.0308 60.8576 64.3147 63.8641C66.8801 67.2416 65.7696 71.4054 61.4632 74.5549C57.1922 77.6785 52.6913 79.005 46.391 78.9974C43.5082 78.9939 43.3278 79.0299 44.1583 79.4433C47.3767 81.0446 55.4053 81.5081 61.4075 80.4388C71.4819 78.6443 76.4447 73.1606 74.3685 66.1176C73.3404 62.629 68.9999 59.4371 61.7058 56.8056C59.6957 56.0806 59.3905 55.9165 59.3506 55.5413C59.3198 55.2521 59.3902 55.1092 60.9892 52.2129C69.4051 36.9688 70.1161 26.8248 63.1121 21.9226C58.885 18.9636 53.9067 18.8014 47.9696 21.4286C42.1455 24.0058 37.1078 28.3825 31.9372 35.3572C27.0698 41.9231 23.7436 50.6153 23.6929 56.9024C23.674 59.2543 23.7908 60.2564 24.3765 62.761C24.543 63.4733 24.7162 64.4894 24.7614 65.0186C24.8066 65.5481 24.8682 66.1223 24.8983 66.2949L24.9535 66.6084L24.6554 66.5478C23.0319 66.2182 18.5955 62.0854 15.0845 57.6319C4.35402 44.0205 0.636304 22.5151 6.74093 9.36669C9.12629 4.22889 12.5935 1.33202 17.4868 0.388528C18.2198 0.247098 21.2613 0.413736 22.1899 0.645975ZM22.0768 13.4244C12.7593 14.9188 7.71486 26.2494 10.3904 39.6736C11.5253 45.3679 14.3014 52.0779 17.537 56.9475C19.0294 59.1937 19.333 59.2258 18.3798 57.0371C16.8366 53.4934 16.0072 51.1152 15.4295 48.5768C11.7359 32.3479 20.4055 20.0448 30.4539 27.2554C31.6394 28.1061 31.6724 28.0956 32.8509 26.4768C33.8353 25.1252 34.7243 24.0127 35.7637 22.8322C37.0011 21.4271 37.0002 21.4213 35.1979 19.4591C31.1344 15.0347 26.1963 12.7636 22.0768 13.4244ZM25.495 13.8795C28.9599 14.5086 32.7365 16.9491 35.6237 20.4249C36.505 21.4858 36.5202 21.4099 35.096 23.0781C34.4556 23.8285 33.5077 25.0223 32.9896 25.7309C31.5127 27.751 31.6692 27.6747 30.5703 26.9147C25.0235 23.0789 19.6473 24.5073 16.4728 30.6605C13.5526 36.3209 13.4841 44.4984 16.2881 52.6916C17.3652 55.8395 17.2919 55.9985 15.8987 53.5335C10.2416 43.5249 8.4793 31.721 11.4342 23.6319C13.972 16.685 19.5686 12.8031 25.495 13.8795ZM58.3218 20.1939C60.598 20.6219 62.9273 21.9111 64.6507 23.6963C68.1326 27.3036 68.4242 33.6933 65.477 41.8006C64.2061 45.2968 62.8678 48.1396 60.3912 52.6053C58.3577 56.2721 58.2769 55.9509 61.5248 57.1162C69.1532 59.8534 73.2664 62.9925 74.1849 66.7781C75.5142 72.2555 72.5224 76.5506 65.6855 78.98C60.7734 80.7255 52.4416 81.2206 47.4766 80.0621C45.4597 79.5917 45.5205 79.4617 47.8015 79.3692C59.491 78.8954 68.4298 71.6666 65.4606 65.0885C63.7466 61.2914 60.224 59.3341 53.3667 58.3682C52.4954 58.2455 52.4934 58.142 53.3352 56.7496C59.9863 45.7503 61.0747 34.276 55.9235 29.4661C50.8329 24.713 43.7786 25.4622 37.1448 31.4607C34.5833 33.7769 31.5783 37.7673 29.4795 41.6395C26.9889 46.2348 25.8327 49.4102 24.5406 55.2019C24.1854 56.7948 24.1174 56.8033 24.1811 55.2475C24.3972 49.9628 27.5472 42.0751 31.8487 36.0481C39.8837 24.7895 50.1302 18.6533 58.3218 20.1939ZM25.8456 34.7561C18.037 37.1519 16.4154 49.4283 22.2327 62.1088C23.7018 65.3111 24.3981 65.7547 23.5503 62.9482C21.3061 55.5205 22.4565 46.523 26.921 36.5833C27.9013 34.401 27.7639 34.1676 25.8456 34.7561ZM27.1196 35.0394C27.1487 35.121 27.0892 35.3801 26.9875 35.615C26.8855 35.8498 26.5193 36.6841 26.1739 37.4692C22.6957 45.3737 21.4197 53.1327 22.4752 59.9563C22.7256 61.5751 22.7362 61.8598 22.5399 61.6879C22.0489 61.2585 20.7729 57.7268 20.0946 54.92C18.1109 46.7126 19.1844 39.7822 22.9189 36.6881C24.3415 35.5095 26.9247 34.4956 27.1196 35.0394Z"/>
</mask>
<path fill-rule="evenodd" clip-rule="evenodd" d="M17.6222 0.0183789C1.16812 2.52417 -1.56315 33.3122 12.748 54.9653C15.6802 59.4021 20.8215 64.8173 24.0624 66.883C25.5707 67.8444 25.9791 67.6745 25.5944 66.2463C23.5884 58.7994 29.0083 47.5641 37.9907 40.5494C43.7205 36.0749 47.6551 35.5013 50.4575 38.7319C53.4424 42.1727 52.6338 48.48 47.9234 58.502C47.0791 60.2976 46.9852 60.664 47.2865 60.9821C47.4725 61.1784 47.6173 61.227 49.1976 61.6245C53.5671 62.7236 56.6139 66.5092 55.6408 69.6298C54.341 73.7975 48.5426 77.2327 42.1623 77.6152C40.0575 77.7415 39.9072 78.0332 41.2515 79.3807C42.5457 80.6778 45.566 82.5764 47.799 83.4966C50.0148 84.4099 53.3234 85.4773 54.575 85.6825C54.8921 85.7345 55.645 85.884 56.2476 86.0146C58.6803 86.5414 63.9278 86.9109 66.2912 86.7217C73.309 86.1598 77.0449 85.2379 81.0513 83.0802C91.1157 77.6593 92.9645 67.4212 85.201 60.0994C81.6563 56.7563 73.8885 52.5244 69.6341 51.6184C68.5373 51.385 68.5157 51.2606 69.3349 49.9095C80.8417 30.9343 81.6096 16.6987 71.5122 9.5459C66.9767 6.33287 63.8089 6.00168 57.0832 8.03758C54.7 8.759 53.1598 9.4104 48.6965 11.5849C47.7635 12.0395 45.292 13.4426 43.9417 14.2843C42.7389 15.0341 42.8861 15.0851 41.3439 13.3843C33.611 4.85515 25.9315 0.150115 19.5185 0.0129947C18.6213 -0.00633098 17.768 -0.00376406 17.6222 0.0183789ZM22.1899 0.645975C28.3236 2.18073 33.8009 5.8576 40.3268 12.821L42.5737 15.2189L42.9099 15.1723C43.1029 15.1454 43.6613 14.871 44.2192 14.5288C52.902 9.20322 61.4581 6.34995 65.8706 7.30855C70.7775 8.37455 75.6491 12.7868 77.2171 17.585C79.8888 25.76 77.1829 36.2208 68.7957 50.1423C68.0251 51.4211 68.0972 51.5867 69.5953 51.9838C72.3714 52.7199 75.9562 54.2727 79.04 56.0752C87.6729 61.1214 91.1631 67.1627 89.1431 73.5636C87.1702 79.8155 80.4847 84.4213 71.3123 85.8473C66.341 86.6203 60.175 86.5387 56.2026 85.6473C55.67 85.5276 54.937 85.3789 54.5739 85.3168C53.3138 85.1007 50.1205 84.0788 48.033 83.2238C44.328 81.7059 40.1665 78.5404 41.5136 78.2643C42.8681 77.9869 43.7609 77.8211 44.7196 77.6697C50.2519 76.7953 55.4858 72.8336 56.1454 69.0214C56.6852 65.9002 53.3166 62.2028 49.0306 61.2122C47.1562 60.7791 47.1875 60.9308 48.4181 58.2552C53.2136 47.8284 53.8135 41.8016 50.4114 38.2278C47.4779 35.1459 43.4984 35.7828 37.8172 40.2432C31.7468 45.0089 27.3119 51.4558 25.4854 58.1691C24.9075 60.2931 24.7143 60.7066 24.6019 60.0618C24.0772 57.0567 25.8604 49.7846 28.4352 44.4274C34.6703 31.4546 43.8842 24.6525 51.6451 27.2928C58.586 29.6541 60.6452 36.9584 57.2834 47.2941C56.3372 50.2033 54.6874 53.8389 53.1712 56.3558C51.8306 58.5814 51.8162 58.525 53.7958 58.7933C59.2947 59.5386 62.0308 60.8576 64.3147 63.8641C66.8801 67.2416 65.7696 71.4054 61.4632 74.5549C57.1922 77.6785 52.6913 79.005 46.391 78.9974C43.5082 78.9939 43.3278 79.0299 44.1583 79.4433C47.3767 81.0446 55.4053 81.5081 61.4075 80.4388C71.4819 78.6443 76.4447 73.1606 74.3685 66.1176C73.3404 62.629 68.9999 59.4371 61.7058 56.8056C59.6957 56.0806 59.3905 55.9165 59.3506 55.5413C59.3198 55.2521 59.3902 55.1092 60.9892 52.2129C69.4051 36.9688 70.1161 26.8248 63.1121 21.9226C58.885 18.9636 53.9067 18.8014 47.9696 21.4286C42.1455 24.0058 37.1078 28.3825 31.9372 35.3572C27.0698 41.9231 23.7436 50.6153 23.6929 56.9024C23.674 59.2543 23.7908 60.2564 24.3765 62.761C24.543 63.4733 24.7162 64.4894 24.7614 65.0186C24.8066 65.5481 24.8682 66.1223 24.8983 66.2949L24.9535 66.6084L24.6554 66.5478C23.0319 66.2182 18.5955 62.0854 15.0845 57.6319C4.35402 44.0205 0.636304 22.5151 6.74093 9.36669C9.12629 4.22889 12.5935 1.33202 17.4868 0.388528C18.2198 0.247098 21.2613 0.413736 22.1899 0.645975ZM22.0768 13.4244C12.7593 14.9188 7.71486 26.2494 10.3904 39.6736C11.5253 45.3679 14.3014 52.0779 17.537 56.9475C19.0294 59.1937 19.333 59.2258 18.3798 57.0371C16.8366 53.4934 16.0072 51.1152 15.4295 48.5768C11.7359 32.3479 20.4055 20.0448 30.4539 27.2554C31.6394 28.1061 31.6724 28.0956 32.8509 26.4768C33.8353 25.1252 34.7243 24.0127 35.7637 22.8322C37.0011 21.4271 37.0002 21.4213 35.1979 19.4591C31.1344 15.0347 26.1963 12.7636 22.0768 13.4244ZM25.495 13.8795C28.9599 14.5086 32.7365 16.9491 35.6237 20.4249C36.505 21.4858 36.5202 21.4099 35.096 23.0781C34.4556 23.8285 33.5077 25.0223 32.9896 25.7309C31.5127 27.751 31.6692 27.6747 30.5703 26.9147C25.0235 23.0789 19.6473 24.5073 16.4728 30.6605C13.5526 36.3209 13.4841 44.4984 16.2881 52.6916C17.3652 55.8395 17.2919 55.9985 15.8987 53.5335C10.2416 43.5249 8.4793 31.721 11.4342 23.6319C13.972 16.685 19.5686 12.8031 25.495 13.8795ZM58.3218 20.1939C60.598 20.6219 62.9273 21.9111 64.6507 23.6963C68.1326 27.3036 68.4242 33.6933 65.477 41.8006C64.2061 45.2968 62.8678 48.1396 60.3912 52.6053C58.3577 56.2721 58.2769 55.9509 61.5248 57.1162C69.1532 59.8534 73.2664 62.9925 74.1849 66.7781C75.5142 72.2555 72.5224 76.5506 65.6855 78.98C60.7734 80.7255 52.4416 81.2206 47.4766 80.0621C45.4597 79.5917 45.5205 79.4617 47.8015 79.3692C59.491 78.8954 68.4298 71.6666 65.4606 65.0885C63.7466 61.2914 60.224 59.3341 53.3667 58.3682C52.4954 58.2455 52.4934 58.142 53.3352 56.7496C59.9863 45.7503 61.0747 34.276 55.9235 29.4661C50.8329 24.713 43.7786 25.4622 37.1448 31.4607C34.5833 33.7769 31.5783 37.7673 29.4795 41.6395C26.9889 46.2348 25.8327 49.4102 24.5406 55.2019C24.1854 56.7948 24.1174 56.8033 24.1811 55.2475C24.3972 49.9628 27.5472 42.0751 31.8487 36.0481C39.8837 24.7895 50.1302 18.6533 58.3218 20.1939ZM25.8456 34.7561C18.037 37.1519 16.4154 49.4283 22.2327 62.1088C23.7018 65.3111 24.3981 65.7547 23.5503 62.9482C21.3061 55.5205 22.4565 46.523 26.921 36.5833C27.9013 34.401 27.7639 34.1676 25.8456 34.7561ZM27.1196 35.0394C27.1487 35.121 27.0892 35.3801 26.9875 35.615C26.8855 35.8498 26.5193 36.6841 26.1739 37.4692C22.6957 45.3737 21.4197 53.1327 22.4752 59.9563C22.7256 61.5751 22.7362 61.8598 22.5399 61.6879C22.0489 61.2585 20.7729 57.7268 20.0946 54.92C18.1109 46.7126 19.1844 39.7822 22.9189 36.6881C24.3415 35.5095 26.9247 34.4956 27.1196 35.0394Z" fill="#1174CF" stroke="#1174CF" stroke-width="2" mask="url(#path-4-inside-1_104_348)"/>
<path d="M7.31277 52.2074C7.68967 52.0627 8.1168 52.0625 8.5002 52.207C8.88359 52.3515 9.19185 52.6288 9.35715 52.9779C9.77267 53.8553 9.05794 55.8927 9.05794 55.8927C9.05794 55.8927 6.93045 54.9468 6.51493 54.0694C6.34963 53.7203 6.34082 53.328 6.49044 52.9788C6.64007 52.6296 6.93586 52.3522 7.31277 52.2074Z" fill="#1174CF"/>
<path d="M2.8447 46.8526C3.19576 46.6977 3.58921 46.6945 3.93851 46.8437C4.28782 46.9928 4.56435 47.2821 4.70729 47.6479C5.06658 48.5674 4.35372 50.7144 4.35372 50.7144C4.35372 50.7144 2.41928 49.7352 2.05999 48.8158C1.91705 48.45 1.91943 48.0376 2.06659 47.6695C2.21375 47.3013 2.49365 47.0075 2.8447 46.8526Z" fill="#1174CF"/>
</svg>
