<svg width="45" height="42" viewBox="0 0 45 42" fill="none" xmlns="http://www.w3.org/2000/svg">
<path d="M37.556 15.1164V40.0639H7.44391V15.1164" stroke="white" stroke-width="3.24" stroke-miterlimit="10"/>
<path d="M44.0086 18.6804L22.5 2.04867L0.991365 18.6804" stroke="white" stroke-width="3.24" stroke-miterlimit="10"/>
<path d="M30.8784 33.2612H24.1257V25.158H28.1919C28.3701 25.1578 28.5458 25.1239 28.7044 25.0588C28.863 24.9938 29.0001 24.8995 29.1042 24.7839C29.2084 24.6682 29.2768 24.5343 29.3036 24.3934C29.3305 24.2524 29.3152 24.1084 29.2588 23.9731L26.6332 17.6705C26.5585 17.4912 26.4151 17.3352 26.2234 17.2246C26.0317 17.1141 25.8014 17.0547 25.5651 17.0547H20.4353C20.199 17.0547 19.9687 17.1141 19.777 17.2246C19.5853 17.3352 19.4419 17.4912 19.3672 17.6705L16.7416 23.9731C16.6852 24.1084 16.6699 24.2524 16.6968 24.3934C16.7236 24.5343 16.792 24.6682 16.8962 24.7839C17.0003 24.8995 17.1374 24.9938 17.296 25.0588C17.4546 25.1239 17.6303 25.1578 17.8085 25.158H21.8747V33.2612H15.122C14.8235 33.2612 14.5373 33.3561 14.3262 33.5249C14.1152 33.6938 13.9966 33.9228 13.9966 34.1616C13.9966 34.4004 14.1152 34.6294 14.3262 34.7982C14.5373 34.9671 14.8235 35.0619 15.122 35.0619H30.8784C31.1769 35.0619 31.4631 34.9671 31.6742 34.7982C31.8852 34.6294 32.0038 34.4004 32.0038 34.1616C32.0038 33.9228 31.8852 33.6938 31.6742 33.5249C31.4631 33.3561 31.1769 33.2612 30.8784 33.2612Z" fill="white"/>
</svg>
