<svg width="101" height="122" viewBox="0 0 101 122" fill="none" xmlns="http://www.w3.org/2000/svg">
<path fill-rule="evenodd" clip-rule="evenodd" d="M101 18.3V6.1H85.0526C64.5018 6.1 47.8421 25.2174 47.8421 48.8V67.1H21.2632V109.8C21.2632 116.54 26.0208 122 31.8947 122H74.4211C80.295 122 85.0526 116.54 85.0526 109.8V67.1H58.4737V61H63.7895C84.3403 61 101 41.8826 101 18.3ZM51.1592 19.3309C43.935 7.6311 32.0489 0 18.6053 0H0V9.15C0 34.4162 17.8504 54.9 39.8684 54.9H42.5263V48.8C42.5263 37.7285 45.737 27.511 51.1592 19.3309ZM55.0795 89.0489C53.7913 87.4286 52.4644 85.7597 52 84C51.5356 85.7597 50.2087 87.4286 48.9205 89.0489C47.4345 90.9178 46 92.7221 46 94.5263C46 97.8947 49.5 100 52 100C54.5 100 58 97.8947 58 94.5263C58 92.7221 56.5655 90.9178 55.0795 89.0489Z" fill="white"/>
</svg>
