<svg width="88" height="81" viewBox="0 0 88 81" fill="none" xmlns="http://www.w3.org/2000/svg">
<mask id="path-1-inside-1_104_1713" fill="white">
<path fill-rule="evenodd" clip-rule="evenodd" d="M14.3769 0.0168282C-2.35245 2.34412 -5.1166 31.0163 9.44407 51.1876C12.4274 55.3207 17.6573 60.3659 20.9535 62.291C22.4876 63.1869 22.9027 63.0288 22.511 61.6986C20.4681 54.7625 25.9744 44.3011 35.1046 37.7717C40.9288 33.6067 44.9292 33.074 47.7801 36.0838C50.8165 39.2894 49.997 45.1632 45.2117 54.4949C44.3541 56.1669 44.2587 56.508 44.5652 56.8044C44.7544 56.9873 44.9016 57.0327 46.5087 57.4034C50.952 58.4288 54.0516 61.9555 53.0635 64.8614C51.7436 68.7422 45.8493 71.9393 39.362 72.293C37.2218 72.4099 37.0691 72.6814 38.4366 73.9369C39.7531 75.1454 42.8249 76.9148 45.0958 77.7726C47.3492 78.624 50.7138 79.6194 51.9866 79.811C52.309 79.8596 53.0746 79.999 53.6874 80.1209C56.1612 80.6125 61.4969 80.9586 63.9 80.7834C71.0354 80.2627 74.8337 79.4056 78.9064 77.3977C89.1376 72.3531 91.0131 62.819 83.1161 55.9971C79.5105 52.8822 71.6105 48.938 67.2842 48.0925C66.1689 47.8748 66.1468 47.7589 66.9792 46.5009C78.6713 28.8336 79.4461 15.5762 69.1761 8.91079C64.563 5.91671 61.3419 5.60705 54.5041 7.50049C52.0812 8.17143 50.5154 8.77749 45.9781 10.8009C45.0295 11.2239 42.5171 12.5297 41.1445 13.3131C39.9218 14.0108 40.0716 14.0584 38.5027 12.4739C30.6363 4.52756 22.8258 0.142737 16.3051 0.0125491C15.3928 -0.00579697 14.5252 -0.00373721 14.3769 0.0168282ZM19.0216 0.603086C25.259 2.03479 30.8298 5.46123 37.4682 11.9489L39.7539 14.1829L40.0958 14.1396C40.292 14.1146 40.8597 13.8593 41.4267 13.5408C50.2532 8.58444 58.9518 5.93048 63.4388 6.82495C68.4285 7.81962 73.3838 11.9306 74.9802 16.3999C77.7002 24.0144 74.9533 33.7556 66.4311 46.7176C65.6481 47.9082 65.7215 48.0625 67.2449 48.4329C70.068 49.1195 73.7136 50.567 76.85 52.2469C85.63 56.9499 89.1813 62.5775 87.1302 68.5379C85.1268 74.3596 78.3308 78.6465 69.005 79.9709C63.9506 80.6889 57.681 80.6105 53.6415 79.7788C53.0998 79.6672 52.3545 79.5284 51.9852 79.4704C50.7039 79.2687 47.4565 78.3157 45.3336 77.5186C41.5657 76.1036 37.333 73.1539 38.7026 72.8973C40.0797 72.6394 40.9875 72.4854 41.9622 72.3447C47.587 71.5326 52.9072 67.845 53.5763 64.2949C54.1238 61.3883 50.6971 57.9436 46.3386 57.0194C44.4326 56.6153 44.4645 56.7566 45.7147 54.2653C50.5863 44.5566 51.1937 38.944 47.733 35.6144C44.7489 32.743 40.7029 33.3346 34.9281 37.4864C28.7578 41.9224 24.2511 47.9247 22.3967 54.1762C21.8101 56.1541 21.6138 56.5391 21.4992 55.9386C20.9645 53.1397 22.7745 46.3678 25.3902 41.3796C31.7247 29.3003 41.0905 22.969 48.9828 25.4309C56.0412 27.6327 58.1381 34.4361 54.7242 44.0605C53.7634 46.7696 52.0873 50.1548 50.5468 52.4982C49.1846 54.5704 49.1699 54.5178 51.1829 54.7685C56.7745 55.4648 59.5571 56.6942 61.8806 59.4951C64.4905 62.6415 63.3632 66.5189 58.9857 69.4504C54.6443 72.3578 50.0684 73.5915 43.6622 73.5819C40.731 73.5776 40.5476 73.611 41.3923 73.9963C44.6654 75.4888 52.829 75.9237 58.9316 74.9301C69.1744 73.2628 74.2183 68.1577 72.1042 61.5977C71.0573 58.3483 66.6426 55.374 59.2249 52.9204C57.1808 52.2444 56.8703 52.0915 56.8296 51.7421C56.7982 51.4727 56.8697 51.3396 58.4944 48.6429C67.0452 34.4492 67.7638 25.0023 60.6401 20.4341C56.3407 17.6767 51.2788 17.5237 45.2431 19.9681C39.3223 22.3661 34.2018 26.4402 28.9473 32.9338C24.0009 39.0468 20.6225 47.1406 20.5736 52.9958C20.5554 55.1862 20.6746 56.1195 21.2711 58.4523C21.4407 59.1157 21.6173 60.0621 21.6635 60.555C21.7096 61.0481 21.7725 61.5828 21.8033 61.7436L21.8595 62.0356L21.5563 61.979C19.9054 61.6715 15.3927 57.8208 11.8209 53.6718C0.904468 40.9913 -2.88476 20.9617 3.31684 8.71878C5.74011 3.93482 9.26437 1.23829 14.2395 0.361499C14.9847 0.230068 18.0773 0.386439 19.0216 0.603086ZM18.912 12.5037C9.43865 13.8919 4.31426 24.4422 7.04037 36.9453C8.19672 42.2489 11.0224 48.4991 14.3143 53.0354C15.8327 55.128 16.1415 55.1579 15.1713 53.1192C13.6007 49.8183 12.7564 47.6032 12.1679 45.2389C8.40539 30.1234 17.2154 18.6687 27.4356 25.3879C28.6414 26.1807 28.6749 26.1709 29.8726 24.6637C30.873 23.4053 31.7764 22.3696 32.8328 21.2706C34.0903 19.9625 34.0895 19.9571 32.2561 18.129C28.1224 14.0069 23.1004 11.8899 18.912 12.5037ZM22.3878 12.9288C25.9112 13.5161 29.7523 15.7905 32.6893 19.0286C33.586 20.0169 33.6013 19.9463 32.154 21.4993C31.5031 22.198 30.5398 23.3094 30.0133 23.9691C28.5125 25.8499 28.6715 25.7788 27.5539 25.0707C21.9122 21.4961 16.4464 22.8244 13.2212 28.5537C10.2543 33.8241 10.1881 41.4399 13.0427 49.0714C14.1392 52.0035 14.0647 52.1515 12.647 49.8553C6.89073 40.532 5.09384 29.5382 8.09497 22.006C10.6724 15.5372 16.3614 11.9241 22.3878 12.9288ZM55.7687 18.8222C58.0833 19.2217 60.4522 20.4233 62.2053 22.0866C65.7472 25.4474 66.0464 31.3983 63.0531 38.9476C61.7623 42.2031 60.4028 44.8501 57.8865 49.0081C55.8203 52.4223 55.738 52.1231 59.041 53.2096C66.7986 55.7618 70.9823 58.6868 71.9178 62.2127C73.2718 67.3144 70.2315 71.3133 63.2808 73.5732C58.287 75.1969 49.8155 75.6547 44.7665 74.5739C42.7155 74.135 42.7774 74.014 45.0966 73.9287C56.9823 73.492 66.0681 66.7632 63.0463 60.6358C61.3019 57.0989 57.7193 55.2746 50.7464 54.3724C49.8605 54.2578 49.8583 54.1615 50.7137 52.865C57.4719 42.6238 58.5737 31.9382 53.334 27.4566C48.1559 23.0281 40.9833 23.723 34.2407 29.307C31.6371 31.4631 28.5833 35.1782 26.451 38.7836C23.9204 43.0622 22.7461 46.0191 21.4349 51.4124C21.0744 52.8958 21.0052 52.9037 21.0693 51.4548C21.2868 46.5332 24.4864 39.1885 28.8575 33.5771C37.0228 23.0951 47.4388 17.3843 55.7687 18.8222ZM22.7531 32.3716C14.8144 34.5998 13.1707 46.0323 19.0911 57.844C20.5862 60.8269 21.2944 61.2404 20.4311 58.6263C18.1461 51.7079 19.3121 43.3289 23.8474 34.0737C24.8431 32.0417 24.7033 31.8242 22.7531 32.3716ZM24.0486 32.6359C24.0783 32.712 24.0179 32.9533 23.9145 33.1719C23.8109 33.3906 23.4389 34.1674 23.0881 34.8984C19.5548 42.2587 18.2606 49.4842 19.3368 55.8395C19.5921 57.3472 19.603 57.6123 19.4033 57.4522C18.9038 57.052 17.6049 53.7625 16.9141 51.1482C14.8936 43.5038 15.9821 37.0498 19.7781 34.1698C21.2241 33.0727 23.8502 32.1294 24.0486 32.6359Z"/>
</mask>
<path fill-rule="evenodd" clip-rule="evenodd" d="M14.3769 0.0168282C-2.35245 2.34412 -5.1166 31.0163 9.44407 51.1876C12.4274 55.3207 17.6573 60.3659 20.9535 62.291C22.4876 63.1869 22.9027 63.0288 22.511 61.6986C20.4681 54.7625 25.9744 44.3011 35.1046 37.7717C40.9288 33.6067 44.9292 33.074 47.7801 36.0838C50.8165 39.2894 49.997 45.1632 45.2117 54.4949C44.3541 56.1669 44.2587 56.508 44.5652 56.8044C44.7544 56.9873 44.9016 57.0327 46.5087 57.4034C50.952 58.4288 54.0516 61.9555 53.0635 64.8614C51.7436 68.7422 45.8493 71.9393 39.362 72.293C37.2218 72.4099 37.0691 72.6814 38.4366 73.9369C39.7531 75.1454 42.8249 76.9148 45.0958 77.7726C47.3492 78.624 50.7138 79.6194 51.9866 79.811C52.309 79.8596 53.0746 79.999 53.6874 80.1209C56.1612 80.6125 61.4969 80.9586 63.9 80.7834C71.0354 80.2627 74.8337 79.4056 78.9064 77.3977C89.1376 72.3531 91.0131 62.819 83.1161 55.9971C79.5105 52.8822 71.6105 48.938 67.2842 48.0925C66.1689 47.8748 66.1468 47.7589 66.9792 46.5009C78.6713 28.8336 79.4461 15.5762 69.1761 8.91079C64.563 5.91671 61.3419 5.60705 54.5041 7.50049C52.0812 8.17143 50.5154 8.77749 45.9781 10.8009C45.0295 11.2239 42.5171 12.5297 41.1445 13.3131C39.9218 14.0108 40.0716 14.0584 38.5027 12.4739C30.6363 4.52756 22.8258 0.142737 16.3051 0.0125491C15.3928 -0.00579697 14.5252 -0.00373721 14.3769 0.0168282ZM19.0216 0.603086C25.259 2.03479 30.8298 5.46123 37.4682 11.9489L39.7539 14.1829L40.0958 14.1396C40.292 14.1146 40.8597 13.8593 41.4267 13.5408C50.2532 8.58444 58.9518 5.93048 63.4388 6.82495C68.4285 7.81962 73.3838 11.9306 74.9802 16.3999C77.7002 24.0144 74.9533 33.7556 66.4311 46.7176C65.6481 47.9082 65.7215 48.0625 67.2449 48.4329C70.068 49.1195 73.7136 50.567 76.85 52.2469C85.63 56.9499 89.1813 62.5775 87.1302 68.5379C85.1268 74.3596 78.3308 78.6465 69.005 79.9709C63.9506 80.6889 57.681 80.6105 53.6415 79.7788C53.0998 79.6672 52.3545 79.5284 51.9852 79.4704C50.7039 79.2687 47.4565 78.3157 45.3336 77.5186C41.5657 76.1036 37.333 73.1539 38.7026 72.8973C40.0797 72.6394 40.9875 72.4854 41.9622 72.3447C47.587 71.5326 52.9072 67.845 53.5763 64.2949C54.1238 61.3883 50.6971 57.9436 46.3386 57.0194C44.4326 56.6153 44.4645 56.7566 45.7147 54.2653C50.5863 44.5566 51.1937 38.944 47.733 35.6144C44.7489 32.743 40.7029 33.3346 34.9281 37.4864C28.7578 41.9224 24.2511 47.9247 22.3967 54.1762C21.8101 56.1541 21.6138 56.5391 21.4992 55.9386C20.9645 53.1397 22.7745 46.3678 25.3902 41.3796C31.7247 29.3003 41.0905 22.969 48.9828 25.4309C56.0412 27.6327 58.1381 34.4361 54.7242 44.0605C53.7634 46.7696 52.0873 50.1548 50.5468 52.4982C49.1846 54.5704 49.1699 54.5178 51.1829 54.7685C56.7745 55.4648 59.5571 56.6942 61.8806 59.4951C64.4905 62.6415 63.3632 66.5189 58.9857 69.4504C54.6443 72.3578 50.0684 73.5915 43.6622 73.5819C40.731 73.5776 40.5476 73.611 41.3923 73.9963C44.6654 75.4888 52.829 75.9237 58.9316 74.9301C69.1744 73.2628 74.2183 68.1577 72.1042 61.5977C71.0573 58.3483 66.6426 55.374 59.2249 52.9204C57.1808 52.2444 56.8703 52.0915 56.8296 51.7421C56.7982 51.4727 56.8697 51.3396 58.4944 48.6429C67.0452 34.4492 67.7638 25.0023 60.6401 20.4341C56.3407 17.6767 51.2788 17.5237 45.2431 19.9681C39.3223 22.3661 34.2018 26.4402 28.9473 32.9338C24.0009 39.0468 20.6225 47.1406 20.5736 52.9958C20.5554 55.1862 20.6746 56.1195 21.2711 58.4523C21.4407 59.1157 21.6173 60.0621 21.6635 60.555C21.7096 61.0481 21.7725 61.5828 21.8033 61.7436L21.8595 62.0356L21.5563 61.979C19.9054 61.6715 15.3927 57.8208 11.8209 53.6718C0.904468 40.9913 -2.88476 20.9617 3.31684 8.71878C5.74011 3.93482 9.26437 1.23829 14.2395 0.361499C14.9847 0.230068 18.0773 0.386439 19.0216 0.603086ZM18.912 12.5037C9.43865 13.8919 4.31426 24.4422 7.04037 36.9453C8.19672 42.2489 11.0224 48.4991 14.3143 53.0354C15.8327 55.128 16.1415 55.1579 15.1713 53.1192C13.6007 49.8183 12.7564 47.6032 12.1679 45.2389C8.40539 30.1234 17.2154 18.6687 27.4356 25.3879C28.6414 26.1807 28.6749 26.1709 29.8726 24.6637C30.873 23.4053 31.7764 22.3696 32.8328 21.2706C34.0903 19.9625 34.0895 19.9571 32.2561 18.129C28.1224 14.0069 23.1004 11.8899 18.912 12.5037ZM22.3878 12.9288C25.9112 13.5161 29.7523 15.7905 32.6893 19.0286C33.586 20.0169 33.6013 19.9463 32.154 21.4993C31.5031 22.198 30.5398 23.3094 30.0133 23.9691C28.5125 25.8499 28.6715 25.7788 27.5539 25.0707C21.9122 21.4961 16.4464 22.8244 13.2212 28.5537C10.2543 33.8241 10.1881 41.4399 13.0427 49.0714C14.1392 52.0035 14.0647 52.1515 12.647 49.8553C6.89073 40.532 5.09384 29.5382 8.09497 22.006C10.6724 15.5372 16.3614 11.9241 22.3878 12.9288ZM55.7687 18.8222C58.0833 19.2217 60.4522 20.4233 62.2053 22.0866C65.7472 25.4474 66.0464 31.3983 63.0531 38.9476C61.7623 42.2031 60.4028 44.8501 57.8865 49.0081C55.8203 52.4223 55.738 52.1231 59.041 53.2096C66.7986 55.7618 70.9823 58.6868 71.9178 62.2127C73.2718 67.3144 70.2315 71.3133 63.2808 73.5732C58.287 75.1969 49.8155 75.6547 44.7665 74.5739C42.7155 74.135 42.7774 74.014 45.0966 73.9287C56.9823 73.492 66.0681 66.7632 63.0463 60.6358C61.3019 57.0989 57.7193 55.2746 50.7464 54.3724C49.8605 54.2578 49.8583 54.1615 50.7137 52.865C57.4719 42.6238 58.5737 31.9382 53.334 27.4566C48.1559 23.0281 40.9833 23.723 34.2407 29.307C31.6371 31.4631 28.5833 35.1782 26.451 38.7836C23.9204 43.0622 22.7461 46.0191 21.4349 51.4124C21.0744 52.8958 21.0052 52.9037 21.0693 51.4548C21.2868 46.5332 24.4864 39.1885 28.8575 33.5771C37.0228 23.0951 47.4388 17.3843 55.7687 18.8222ZM22.7531 32.3716C14.8144 34.5998 13.1707 46.0323 19.0911 57.844C20.5862 60.8269 21.2944 61.2404 20.4311 58.6263C18.1461 51.7079 19.3121 43.3289 23.8474 34.0737C24.8431 32.0417 24.7033 31.8242 22.7531 32.3716ZM24.0486 32.6359C24.0783 32.712 24.0179 32.9533 23.9145 33.1719C23.8109 33.3906 23.4389 34.1674 23.0881 34.8984C19.5548 42.2587 18.2606 49.4842 19.3368 55.8395C19.5921 57.3472 19.603 57.6123 19.4033 57.4522C18.9038 57.052 17.6049 53.7625 16.9141 51.1482C14.8936 43.5038 15.9821 37.0498 19.7781 34.1698C21.2241 33.0727 23.8502 32.1294 24.0486 32.6359Z" fill="white" stroke="white" stroke-width="2" mask="url(#path-1-inside-1_104_1713)"/>
</svg>
