<svg width="45" height="43" viewBox="0 0 45 43" fill="none" xmlns="http://www.w3.org/2000/svg">
<path d="M2.37617 24.9498L2.21035 25.3783L2.60709 25.531L2.78362 25.1295L2.37617 24.9498ZM2.37617 24.9498C2.21035 25.3783 2.21029 25.3783 2.21022 25.3782L2.21006 25.3782L2.20965 25.378L2.20849 25.3776L2.20486 25.3761L2.19246 25.3713C2.18198 25.3671 2.16717 25.3612 2.14857 25.3536C2.1114 25.3383 2.05894 25.3163 1.99569 25.2884C1.86983 25.2328 1.69822 25.1525 1.51819 25.0542C1.34004 24.957 1.14295 24.8364 0.971587 24.6986C0.810501 24.569 0.623123 24.386 0.52956 24.1505C0.395189 23.8123 0.431537 23.4373 0.596834 23.1155L0.992006 23.321L0.596834 23.1155C0.760724 22.7965 1.04035 22.5467 1.36541 22.4057C1.69048 22.2646 2.05713 22.2339 2.38907 22.3379L2.24939 22.7754L2.38907 22.3379C2.72385 22.4427 3.00361 22.6804 3.13799 23.0186C3.23155 23.2541 3.22329 23.522 3.1974 23.7327C3.16985 23.9569 3.11244 24.1879 3.0526 24.3884C2.99212 24.591 2.92543 24.7748 2.87424 24.9072C2.84852 24.9737 2.8264 25.0281 2.81048 25.0663C2.80251 25.0855 2.79608 25.1006 2.7915 25.1113L2.78605 25.124L2.78445 25.1276L2.78394 25.1288L2.78375 25.1292L2.78368 25.1294C2.78365 25.1295 2.78362 25.1295 2.37617 24.9498Z" stroke="white" stroke-width="0.9"/>
<path d="M4.74974 27.7354L4.54507 28.1178L5.01293 28.3624L5.18738 27.9081L4.74974 27.7354ZM4.74974 27.7354C4.54507 28.1178 4.545 28.1177 4.54493 28.1177L4.54477 28.1176L4.54436 28.1174L4.5432 28.1168L4.53953 28.1148L4.52699 28.1082C4.51639 28.1025 4.50138 28.0944 4.48253 28.0841C4.44485 28.0635 4.39164 28.0339 4.32742 27.9967C4.19955 27.9228 4.02527 27.8174 3.84185 27.6927C3.65995 27.569 3.46003 27.4202 3.28554 27.2587C3.11871 27.1042 2.93744 26.9041 2.84112 26.6746C2.70254 26.3444 2.7066 25.984 2.85095 25.6729L3.27802 25.8705L2.85095 25.6729C2.99521 25.3619 3.26767 25.1255 3.60765 25.0146C3.94762 24.9036 4.32893 24.9265 4.66801 25.0796L4.49184 25.4702L4.66801 25.0796C5.00729 25.2329 5.27648 25.5041 5.41507 25.8343C5.51138 26.0637 5.52157 26.3197 5.509 26.5328C5.49586 26.7556 5.45399 26.9833 5.40725 27.1816C5.36013 27.3816 5.30565 27.5617 5.2632 27.6912C5.24189 27.7563 5.22338 27.8093 5.21 27.8466C5.20331 27.8653 5.19789 27.88 5.19402 27.8904L5.18943 27.9027L5.18807 27.9062L5.18764 27.9074L5.18749 27.9078L5.18743 27.9079C5.1874 27.908 5.18738 27.9081 4.74974 27.7354Z" stroke="white" stroke-width="0.9"/>
<path fill-rule="evenodd" clip-rule="evenodd" d="M9.1277 0.340018C2.79978 1.01187 0.268902 10.9292 3.85697 20.9937C5.28968 25.0127 8.00831 29.0167 10.9174 31.3925C11.6785 32.0141 11.7895 32.0141 11.4006 31.3926C11.1231 30.9493 10.962 30.6104 10.8402 30.2138C10.787 30.04 10.5937 29.4505 10.4108 28.9039C8.22319 22.3632 9.48842 17.448 13.5431 16.7353C14.146 16.6292 14.2456 16.8546 13.9142 17.5746C12.0102 21.7102 11.2137 25.3195 11.5833 28.1377C11.6862 28.923 11.7145 28.8993 11.7516 27.9963C11.9003 24.3696 13.6153 20.1459 16.3357 16.7067C19.0507 13.2743 21.3679 11.4111 24.5375 10.1117C29.1555 8.21854 33.7048 10.4413 34.0888 14.7783C34.1141 15.0636 34.1406 15.3681 34.1477 15.4551C34.1735 15.7673 34.0316 17.1606 33.9112 17.7801C33.4676 20.0604 32.4241 22.6117 30.653 25.7459C29.8869 27.1015 29.8788 27.1184 29.9382 27.2347C29.9858 27.3276 30.1305 27.3882 31.2519 27.7859C34.5429 28.9529 36.8335 30.6337 37.3412 32.2539C38.3513 35.4785 36.5251 38.0283 32.3319 39.2479C29.3818 40.1059 24.8988 40.079 22.2034 39.1872C21.3516 38.9054 21.3833 39.0808 22.2915 39.6742C23.4458 40.4284 25.7359 41.3188 27.3478 41.6402C27.6022 41.6908 27.9978 41.7716 28.2269 41.8197C30.8086 42.3608 34.6709 42.2483 37.3882 41.5526C40.9162 40.6494 43.4747 38.6795 44.3514 36.1911C45.4598 33.0458 43.7409 30.0635 39.4052 27.6094C38.9964 27.3779 38.5931 27.1484 38.5089 27.0991C37.8237 26.698 35.2904 25.74 34.4622 25.5688C33.8504 25.4424 33.8494 25.2014 34.4564 24.2069C40.4845 14.3318 40.4589 7.37377 34.3832 4.25447C31.8208 2.9389 27.9327 3.93351 22.0077 7.42032C21.3924 7.78243 21.384 7.77819 20.2849 6.5649C16.5908 2.48687 12.165 0.0176389 9.1277 0.340018ZM13.0785 6.48978C14.8015 6.85235 16.6365 8.02926 18.0845 9.70031C18.7402 10.4571 18.7527 10.5721 18.2417 11.1386C17.7162 11.721 17.1539 12.4068 16.6908 13.0299C15.9714 13.998 15.9593 14.0024 15.3112 13.5511C11.7695 11.0845 8.49349 13.1174 7.71169 18.2667C7.20576 21.5992 7.90721 24.7643 10.1176 29.1228C10.7906 30.4497 10.8108 30.548 10.3121 30.0687C9.74079 29.52 8.78475 28.1593 7.98466 26.756C4.34962 20.3814 3.78007 13.6811 6.52008 9.52787C8.11468 7.11076 10.5874 5.96534 13.0785 6.48978ZM23.7784 13.276C22.6567 13.3788 21.666 13.7403 20.4444 14.4929C16.9178 16.6653 13.5029 22.3165 12.7115 27.29C12.5378 28.3811 12.6429 28.5517 12.9288 27.6426C14.5008 22.6443 20.8297 16.8655 23.8426 17.6774C27.2076 18.5844 27.3564 22.7387 24.2483 28.9994C23.9236 29.6536 23.9278 29.6636 24.6057 29.8229C26.717 30.3191 28.3357 31.9478 28.3146 33.5545C28.2909 35.3547 26.0138 37.3544 23.1207 38.1158C22.8407 38.1896 22.5374 38.2694 22.4466 38.2933C21.8857 38.4412 23.1448 38.6414 24.1254 38.5604C26.5645 38.3589 27.7904 38.043 29.3616 37.211C32.3409 35.6332 33.4474 33.5267 32.265 31.6834C31.2598 30.1167 29.7123 29.3343 26.9475 28.9951C25.7697 28.8507 25.7388 28.7652 26.45 27.6145C29.2591 23.0698 30.1011 18.0111 28.4664 15.5018C27.5187 14.047 25.5522 13.1133 23.7784 13.276Z" fill="white"/>
<mask id="path-4-inside-1_236_820" fill="white">
<path fill-rule="evenodd" clip-rule="evenodd" d="M8.93301 0.00896297C0.734304 1.23661 -0.625616 16.3264 6.50612 26.9395C7.96734 29.1142 10.5293 31.7684 12.1443 32.781C12.8959 33.2522 13.0994 33.1689 12.9077 32.4689C11.9078 28.819 14.6081 23.3125 19.0836 19.8747C21.9386 17.6818 23.8991 17.4008 25.2956 18.9843C26.783 20.6708 26.3803 23.7621 24.0335 28.674C23.6129 29.554 23.5661 29.7336 23.7163 29.8895C23.809 29.9857 23.8811 30.0096 24.6686 30.2044C26.8458 30.7433 28.3641 32.5987 27.8794 34.1282C27.2318 36.1708 24.3427 37.8543 21.1635 38.0416C20.1147 38.1035 20.0399 38.2464 20.7097 38.9069C21.3547 39.5426 22.8597 40.4733 23.9724 40.9244C25.0765 41.372 26.7252 41.8953 27.3489 41.996C27.5068 42.0214 27.882 42.0947 28.1823 42.1587C29.3945 42.417 32.0092 42.5983 33.1869 42.5056C36.6837 42.2304 38.5452 41.7787 40.5414 40.7213C45.5562 38.0647 46.4771 33.0468 42.6084 29.458C40.842 27.8194 36.9713 25.745 34.8514 25.3008C34.3049 25.1864 34.2941 25.1254 34.7022 24.4632C40.4353 15.1634 40.8174 8.18627 35.7858 4.68023C33.5257 3.10532 31.9473 2.9429 28.5961 3.94054C27.4085 4.29405 26.6411 4.61327 24.4172 5.67889C23.9523 5.90168 22.7208 6.58932 22.0481 7.00181C21.4487 7.36924 21.5221 7.39427 20.7536 6.56062C16.9001 2.38005 13.0734 0.0737794 9.87792 0.00638105C9.43086 -0.00311786 9.00569 -0.0018854 8.93301 0.00896297ZM11.209 0.316699C14.2654 1.0691 16.9948 2.87138 20.2467 6.28451L21.3664 7.45982L21.534 7.43698C21.6301 7.42381 21.9084 7.28936 22.1863 7.12162C26.5127 4.51171 30.7759 3.11352 32.9746 3.58349C35.4197 4.1061 37.8473 6.26877 38.6288 8.62052C39.9603 12.6274 38.6123 17.7543 34.4336 24.5773C34.0497 25.2041 34.0856 25.2853 34.8321 25.4799C36.2154 25.8408 38.0017 26.6019 39.5384 27.4855C43.8402 29.959 45.5794 32.9201 44.5732 36.0572C43.5903 39.1214 40.2591 41.3786 35.6888 42.0772C33.2117 42.4559 30.1393 42.4157 28.1598 41.9787C27.8944 41.9201 27.5292 41.8471 27.3483 41.8167C26.7204 41.7107 25.1292 41.2098 24.089 40.7907C22.2428 40.0466 20.1691 38.495 20.8403 38.3597C21.5152 38.2238 21.9601 38.1426 22.4378 38.0684C25.1944 37.64 27.8022 35.6984 28.1308 33.83C28.3996 32.3002 26.721 30.488 24.5853 30.0023C23.6514 29.79 23.6669 29.8644 24.2801 28.553C26.6692 23.4428 26.9679 20.4889 25.2726 18.7372C23.8108 17.2266 21.8279 17.5387 18.9972 19.7246C15.9726 22.0602 13.7629 25.2198 12.8531 28.5101C12.5652 29.5511 12.4689 29.7538 12.4129 29.4378C12.1514 27.9649 13.0396 24.4007 14.3224 21.7751C17.4289 15.4171 22.0198 12.0835 25.887 13.3778C29.3456 14.5353 30.3719 18.1154 28.6971 23.181C28.2257 24.6069 27.4038 26.3887 26.6484 27.6223C25.9804 28.713 25.9732 28.6853 26.9597 28.8169C29.6997 29.1824 31.0631 29.8289 32.2012 31.3026C33.4796 32.958 32.9265 34.9987 30.7807 36.5422C28.6527 38.0731 26.41 38.7231 23.2706 38.7192C21.8342 38.7174 21.7443 38.735 22.1582 38.9376C23.7619 39.7226 27.7624 39.95 30.7532 39.4261C35.773 38.5469 38.2457 35.8593 37.211 32.4074C36.6985 30.6975 34.5356 29.1329 30.901 27.843C29.8994 27.4875 29.7473 27.4071 29.7274 27.2232C29.7121 27.0815 29.7472 27.0114 30.5438 25.592C34.7368 18.1207 35.0907 13.149 31.6006 10.7461C29.4942 9.29568 27.0136 9.216 24.0553 10.5035C21.1534 11.7665 18.6433 13.9114 16.0671 17.3297C13.642 20.5477 11.9849 24.8078 11.9598 27.8892C11.9505 29.042 12.0088 29.5331 12.3006 30.7607C12.3836 31.1098 12.47 31.6078 12.4925 31.8672C12.5151 32.1267 12.5458 32.4081 12.5608 32.4927L12.5883 32.6464L12.4397 32.6167C11.6308 32.4551 9.42004 30.4294 7.67042 28.2465C2.32317 21.575 0.469977 11.0346 3.51137 4.59045C4.69979 2.07237 6.42736 0.652658 8.86558 0.190377C9.2308 0.121081 10.7463 0.202845 11.209 0.316699ZM11.1531 6.57967C6.51041 7.31185 3.99723 12.865 5.33083 19.4446C5.89652 22.2356 7.28007 25.5244 8.89246 27.9112C9.63616 29.0121 9.78748 29.0279 9.31242 27.9551C8.54334 26.2182 8.13001 25.0526 7.84205 23.8084C6.00104 15.8542 10.3205 9.82442 15.3277 13.3588C15.9185 13.7758 15.9349 13.7706 16.5221 12.9773C17.0126 12.3148 17.4555 11.7696 17.9734 11.1911C18.5899 10.5024 18.5895 10.4996 17.6914 9.53781C15.6664 7.36918 13.2058 6.25594 11.1531 6.57967ZM12.8564 6.80282C14.5829 7.11128 16.4648 8.30755 17.9035 10.0112C18.3427 10.5312 18.3503 10.494 17.6407 11.3116C17.3216 11.6793 16.8493 12.2644 16.5912 12.6117C15.8554 13.6018 15.9333 13.5643 15.3858 13.1918C12.6217 11.3116 9.94292 12.0116 8.36133 15.0273C6.90642 17.8015 6.87255 21.8095 8.27002 25.8252C8.80684 27.3681 8.77032 27.446 8.07599 26.2378C5.25684 21.3322 4.37832 15.5468 5.85043 11.5823C7.11472 8.17752 9.90331 6.2751 12.8564 6.80282ZM29.2136 9.89864C30.3478 10.1085 31.5085 10.7404 32.3673 11.6155C34.1024 13.3836 34.2479 16.5153 32.7796 20.4888C32.1465 22.2023 31.4798 23.5956 30.2458 25.7843C29.2327 27.5814 29.1924 27.4239 30.8108 27.9952C34.612 29.337 36.6617 30.8756 37.1195 32.7311C37.782 35.4157 36.2914 37.5207 32.8848 38.7112C30.4372 39.5666 26.2857 39.809 23.8116 39.2411C22.8066 39.0104 22.8369 38.9467 23.9735 38.9014C29.7982 38.6696 34.252 35.1268 32.7723 31.9027C31.9181 30.0416 30.1628 29.0822 26.7458 28.6086C26.3117 28.5484 26.3107 28.4977 26.7301 27.8153C30.0439 22.4245 30.5858 16.8007 28.0189 14.4431C25.4822 12.1134 21.9671 12.4803 18.6619 15.4201C17.3856 16.5553 15.8884 18.5109 14.8427 20.4087C13.6018 22.6609 13.0258 24.2172 12.3822 27.0558C12.2053 27.8365 12.1713 27.8407 12.2031 27.0782C12.3106 24.488 13.8799 20.6222 16.023 17.6683C20.0264 12.1505 25.1318 9.14331 29.2136 9.89864ZM13.0318 17.0349C9.14094 18.2089 8.33334 24.2258 11.2324 30.441C11.9645 32.0105 12.3115 32.228 11.889 30.8524C10.7705 27.2119 11.3434 22.8021 13.5677 17.9305C14.056 16.8609 13.9876 16.7465 13.0318 17.0349ZM13.6666 17.1738C13.6811 17.2138 13.6515 17.3408 13.6008 17.4559C13.5499 17.571 13.3675 17.9799 13.1955 18.3647C11.4626 22.2388 10.827 26.0416 11.3532 29.386C11.478 30.1794 11.4833 30.3189 11.3855 30.2347C11.1408 30.0242 10.5049 28.2932 10.1668 26.9175C9.17809 22.8949 9.71274 19.4981 11.5735 17.9818C12.2823 17.4042 13.5694 16.9073 13.6666 17.1738Z"/>
</mask>
<path fill-rule="evenodd" clip-rule="evenodd" d="M8.93301 0.00896297C0.734304 1.23661 -0.625616 16.3264 6.50612 26.9395C7.96734 29.1142 10.5293 31.7684 12.1443 32.781C12.8959 33.2522 13.0994 33.1689 12.9077 32.4689C11.9078 28.819 14.6081 23.3125 19.0836 19.8747C21.9386 17.6818 23.8991 17.4008 25.2956 18.9843C26.783 20.6708 26.3803 23.7621 24.0335 28.674C23.6129 29.554 23.5661 29.7336 23.7163 29.8895C23.809 29.9857 23.8811 30.0096 24.6686 30.2044C26.8458 30.7433 28.3641 32.5987 27.8794 34.1282C27.2318 36.1708 24.3427 37.8543 21.1635 38.0416C20.1147 38.1035 20.0399 38.2464 20.7097 38.9069C21.3547 39.5426 22.8597 40.4733 23.9724 40.9244C25.0765 41.372 26.7252 41.8953 27.3489 41.996C27.5068 42.0214 27.882 42.0947 28.1823 42.1587C29.3945 42.417 32.0092 42.5983 33.1869 42.5056C36.6837 42.2304 38.5452 41.7787 40.5414 40.7213C45.5562 38.0647 46.4771 33.0468 42.6084 29.458C40.842 27.8194 36.9713 25.745 34.8514 25.3008C34.3049 25.1864 34.2941 25.1254 34.7022 24.4632C40.4353 15.1634 40.8174 8.18627 35.7858 4.68023C33.5257 3.10532 31.9473 2.9429 28.5961 3.94054C27.4085 4.29405 26.6411 4.61327 24.4172 5.67889C23.9523 5.90168 22.7208 6.58932 22.0481 7.00181C21.4487 7.36924 21.5221 7.39427 20.7536 6.56062C16.9001 2.38005 13.0734 0.0737794 9.87792 0.00638105C9.43086 -0.00311786 9.00569 -0.0018854 8.93301 0.00896297ZM11.209 0.316699C14.2654 1.0691 16.9948 2.87138 20.2467 6.28451L21.3664 7.45982L21.534 7.43698C21.6301 7.42381 21.9084 7.28936 22.1863 7.12162C26.5127 4.51171 30.7759 3.11352 32.9746 3.58349C35.4197 4.1061 37.8473 6.26877 38.6288 8.62052C39.9603 12.6274 38.6123 17.7543 34.4336 24.5773C34.0497 25.2041 34.0856 25.2853 34.8321 25.4799C36.2154 25.8408 38.0017 26.6019 39.5384 27.4855C43.8402 29.959 45.5794 32.9201 44.5732 36.0572C43.5903 39.1214 40.2591 41.3786 35.6888 42.0772C33.2117 42.4559 30.1393 42.4157 28.1598 41.9787C27.8944 41.9201 27.5292 41.8471 27.3483 41.8167C26.7204 41.7107 25.1292 41.2098 24.089 40.7907C22.2428 40.0466 20.1691 38.495 20.8403 38.3597C21.5152 38.2238 21.9601 38.1426 22.4378 38.0684C25.1944 37.64 27.8022 35.6984 28.1308 33.83C28.3996 32.3002 26.721 30.488 24.5853 30.0023C23.6514 29.79 23.6669 29.8644 24.2801 28.553C26.6692 23.4428 26.9679 20.4889 25.2726 18.7372C23.8108 17.2266 21.8279 17.5387 18.9972 19.7246C15.9726 22.0602 13.7629 25.2198 12.8531 28.5101C12.5652 29.5511 12.4689 29.7538 12.4129 29.4378C12.1514 27.9649 13.0396 24.4007 14.3224 21.7751C17.4289 15.4171 22.0198 12.0835 25.887 13.3778C29.3456 14.5353 30.3719 18.1154 28.6971 23.181C28.2257 24.6069 27.4038 26.3887 26.6484 27.6223C25.9804 28.713 25.9732 28.6853 26.9597 28.8169C29.6997 29.1824 31.0631 29.8289 32.2012 31.3026C33.4796 32.958 32.9265 34.9987 30.7807 36.5422C28.6527 38.0731 26.41 38.7231 23.2706 38.7192C21.8342 38.7174 21.7443 38.735 22.1582 38.9376C23.7619 39.7226 27.7624 39.95 30.7532 39.4261C35.773 38.5469 38.2457 35.8593 37.211 32.4074C36.6985 30.6975 34.5356 29.1329 30.901 27.843C29.8994 27.4875 29.7473 27.4071 29.7274 27.2232C29.7121 27.0815 29.7472 27.0114 30.5438 25.592C34.7368 18.1207 35.0907 13.149 31.6006 10.7461C29.4942 9.29568 27.0136 9.216 24.0553 10.5035C21.1534 11.7665 18.6433 13.9114 16.0671 17.3297C13.642 20.5477 11.9849 24.8078 11.9598 27.8892C11.9505 29.042 12.0088 29.5331 12.3006 30.7607C12.3836 31.1098 12.47 31.6078 12.4925 31.8672C12.5151 32.1267 12.5458 32.4081 12.5608 32.4927L12.5883 32.6464L12.4397 32.6167C11.6308 32.4551 9.42004 30.4294 7.67042 28.2465C2.32317 21.575 0.469977 11.0346 3.51137 4.59045C4.69979 2.07237 6.42736 0.652658 8.86558 0.190377C9.2308 0.121081 10.7463 0.202845 11.209 0.316699ZM11.1531 6.57967C6.51041 7.31185 3.99723 12.865 5.33083 19.4446C5.89652 22.2356 7.28007 25.5244 8.89246 27.9112C9.63616 29.0121 9.78748 29.0279 9.31242 27.9551C8.54334 26.2182 8.13001 25.0526 7.84205 23.8084C6.00104 15.8542 10.3205 9.82442 15.3277 13.3588C15.9185 13.7758 15.9349 13.7706 16.5221 12.9773C17.0126 12.3148 17.4555 11.7696 17.9734 11.1911C18.5899 10.5024 18.5895 10.4996 17.6914 9.53781C15.6664 7.36918 13.2058 6.25594 11.1531 6.57967ZM12.8564 6.80282C14.5829 7.11128 16.4648 8.30755 17.9035 10.0112C18.3427 10.5312 18.3503 10.494 17.6407 11.3116C17.3216 11.6793 16.8493 12.2644 16.5912 12.6117C15.8554 13.6018 15.9333 13.5643 15.3858 13.1918C12.6217 11.3116 9.94292 12.0116 8.36133 15.0273C6.90642 17.8015 6.87255 21.8095 8.27002 25.8252C8.80684 27.3681 8.77032 27.446 8.07599 26.2378C5.25684 21.3322 4.37832 15.5468 5.85043 11.5823C7.11472 8.17752 9.90331 6.2751 12.8564 6.80282ZM29.2136 9.89864C30.3478 10.1085 31.5085 10.7404 32.3673 11.6155C34.1024 13.3836 34.2479 16.5153 32.7796 20.4888C32.1465 22.2023 31.4798 23.5956 30.2458 25.7843C29.2327 27.5814 29.1924 27.4239 30.8108 27.9952C34.612 29.337 36.6617 30.8756 37.1195 32.7311C37.782 35.4157 36.2914 37.5207 32.8848 38.7112C30.4372 39.5666 26.2857 39.809 23.8116 39.2411C22.8066 39.0104 22.8369 38.9467 23.9735 38.9014C29.7982 38.6696 34.252 35.1268 32.7723 31.9027C31.9181 30.0416 30.1628 29.0822 26.7458 28.6086C26.3117 28.5484 26.3107 28.4977 26.7301 27.8153C30.0439 22.4245 30.5858 16.8007 28.0189 14.4431C25.4822 12.1134 21.9671 12.4803 18.6619 15.4201C17.3856 16.5553 15.8884 18.5109 14.8427 20.4087C13.6018 22.6609 13.0258 24.2172 12.3822 27.0558C12.2053 27.8365 12.1713 27.8407 12.2031 27.0782C12.3106 24.488 13.8799 20.6222 16.023 17.6683C20.0264 12.1505 25.1318 9.14331 29.2136 9.89864ZM13.0318 17.0349C9.14094 18.2089 8.33334 24.2258 11.2324 30.441C11.9645 32.0105 12.3115 32.228 11.889 30.8524C10.7705 27.2119 11.3434 22.8021 13.5677 17.9305C14.056 16.8609 13.9876 16.7465 13.0318 17.0349ZM13.6666 17.1738C13.6811 17.2138 13.6515 17.3408 13.6008 17.4559C13.5499 17.571 13.3675 17.9799 13.1955 18.3647C11.4626 22.2388 10.827 26.0416 11.3532 29.386C11.478 30.1794 11.4833 30.3189 11.3855 30.2347C11.1408 30.0242 10.5049 28.2932 10.1668 26.9175C9.17809 22.8949 9.71274 19.4981 11.5735 17.9818C12.2823 17.4042 13.5694 16.9073 13.6666 17.1738Z" fill="white" stroke="white" stroke-width="2" mask="url(#path-4-inside-1_236_820)"/>
<path d="M3.79735 25.5864C3.98515 25.5155 4.19798 25.5154 4.38902 25.5863C4.58007 25.6571 4.73368 25.793 4.81606 25.9641C5.02313 26.3942 4.66706 27.3927 4.66706 27.3927C4.66706 27.3927 3.60693 26.929 3.39986 26.499C3.31748 26.3279 3.31308 26.1356 3.38762 25.9645C3.46216 25.7933 3.60955 25.6574 3.79735 25.5864Z" fill="white"/>
<path d="M1.57025 22.9624C1.74517 22.8865 1.94122 22.8849 2.11527 22.9581C2.28933 23.0312 2.42713 23.173 2.49837 23.3522C2.67743 23.8029 2.32229 24.8552 2.32229 24.8552C2.32229 24.8552 1.35836 24.3752 1.1793 23.9246C1.10807 23.7453 1.10924 23.5432 1.18255 23.3628C1.25587 23.1823 1.39533 23.0383 1.57025 22.9624Z" fill="white"/>
</svg>
