<svg width="50" height="70" viewBox="0 0 50 70" fill="none" xmlns="http://www.w3.org/2000/svg">
<path d="M3.94737 0C1.77105 0 0 2.14136 0 4.77273V65.2273C0 67.8586 1.77105 70 3.94737 70H46.0526C48.2289 70 50 67.8586 50 65.2273V4.77273C50 2.14136 48.2289 0 46.0526 0H3.94737ZM32.8947 7.95455C34.3487 7.95455 35.5263 9.37841 35.5263 11.1364C35.5263 12.8943 34.3487 14.3182 32.8947 14.3182C31.4408 14.3182 30.2632 12.8943 30.2632 11.1364C30.2632 9.37841 31.4408 7.95455 32.8947 7.95455ZM40.7895 7.95455C42.2434 7.95455 43.4211 9.37841 43.4211 11.1364C43.4211 12.8943 42.2434 14.3182 40.7895 14.3182C39.3355 14.3182 38.1579 12.8943 38.1579 11.1364C38.1579 9.37841 39.3355 7.95455 40.7895 7.95455ZM25 20.6818C32.0929 20.6818 37.9869 26.8597 39.2244 35.0062C37.3838 33.8481 35.4774 33.4441 34.2388 33.4122C32.3604 33.3645 30.9043 34.3415 29.5333 35.1274C28.1623 35.9133 26.8487 36.5909 25 36.5909C23.1513 36.5909 21.8377 35.9133 20.4667 35.1274C19.0963 34.3419 17.6409 33.3655 15.7638 33.4122H15.7612C14.521 33.443 12.6144 33.8463 10.7756 35.0031C12.0136 26.8581 17.9057 20.6818 25 20.6818ZM15.8152 36.5909H15.8177C16.8814 36.5639 17.903 37.1787 19.3385 38.0016C20.774 38.8245 22.596 39.7727 25 39.7727C27.404 39.7727 29.226 38.8245 30.6615 38.0016C32.097 37.1787 33.1186 36.5639 34.1823 36.5909C35.1388 36.6155 37.7167 37.2893 39.3015 38.8437C39.3456 38.8866 39.392 38.926 39.4403 38.9617C39.1003 48.262 32.7731 55.6818 25 55.6818C17.2252 55.6818 10.9008 48.2636 10.5597 38.9648C10.6081 38.9281 10.6545 38.8877 10.6985 38.8437C12.2836 37.289 14.8614 36.6143 15.8152 36.5909Z" fill="white"/>
</svg>
