<svg width="22" height="22" viewBox="0 0 22 22" fill="none" xmlns="http://www.w3.org/2000/svg">
<path d="M22 10.9634C22.001 11.4278 21.8751 11.8829 21.6372 12.2758C21.3992 12.6687 21.0588 12.9833 20.6556 13.183L3.37955 21.6934C3.06335 21.8727 2.71308 21.9774 2.3536 22C1.96021 21.9991 1.57329 21.896 1.22804 21.6999C0.882788 21.5038 0.590186 21.2211 0.376869 20.8774C0.163553 20.5337 0.0362979 20.1399 0.00669021 19.732C-0.0229175 19.3241 0.0460626 18.915 0.20735 18.5419L2.89605 12.1897H9.42913C9.74189 12.1897 10.0418 12.0605 10.263 11.8305C10.4841 11.6006 10.6084 11.2886 10.6084 10.9634C10.6084 10.6382 10.4841 10.3263 10.263 10.0963C10.0418 9.86632 9.74189 9.73712 9.42913 9.73712H2.89605L0.20735 3.44627C0.0125276 2.98912 -0.0432678 2.48096 0.0474421 1.98991C0.138152 1.49886 0.371033 1.04837 0.714874 0.698824C1.05871 0.349275 1.49709 0.117367 1.97124 0.03418C2.44539 -0.0490069 2.93266 0.0205025 3.36776 0.233393L20.6438 8.74383C21.0492 8.94174 21.392 9.25558 21.6322 9.64864C21.8723 10.0417 21.9999 10.4977 22 10.9634Z" fill="white" fill-opacity="0.6472"/>
</svg>
