<svg width="7" height="8" viewBox="0 0 7 8" fill="none" xmlns="http://www.w3.org/2000/svg">
<path d="M4.63492 5.82446L4.37831 6.54335L5.04378 6.78214L5.33962 6.15514L4.63492 5.82446ZM4.63492 5.82446C5.33962 6.15514 5.33967 6.15503 5.33973 6.15491L5.33986 6.15463L5.3402 6.1539L5.3412 6.15178L5.3444 6.14494L5.35542 6.12111C5.36474 6.10085 5.3779 6.07194 5.39425 6.03534C5.4269 5.96219 5.47241 5.85798 5.52536 5.73034C5.6308 5.47618 5.76803 5.12372 5.89235 4.73539C6.01547 4.35077 6.13269 3.91026 6.1887 3.48458C6.24149 3.08341 6.25674 2.5819 6.06974 2.14388C5.79872 1.50907 5.23815 1.07039 4.58049 0.878466C3.92837 0.688156 3.21069 0.744458 2.57561 1.00093C1.94054 1.2574 1.39293 1.71206 1.07121 2.29565C0.746753 2.88419 0.67054 3.58003 0.941558 4.21483C1.12857 4.65286 1.50458 4.99636 1.83401 5.24318C2.18357 5.50507 2.58712 5.73527 2.95415 5.92194C3.32472 6.11042 3.6783 6.26468 3.93782 6.37145C4.06816 6.42507 4.17618 6.46728 4.2525 6.49642C4.2907 6.511 4.32104 6.52233 4.34238 6.53022L4.36751 6.53944L4.37475 6.54207L4.377 6.54288L4.37777 6.54316L4.37807 6.54327C4.37819 6.54331 4.37831 6.54335 4.63492 5.82446Z" stroke="white" stroke-width="1.5"/>
</svg>
