<svg width="74" height="72" viewBox="0 0 74 72" fill="none" xmlns="http://www.w3.org/2000/svg">
<path d="M57.7361 8.78052H16.2639C12.3902 8.78052 9.25 11.8607 9.25 15.6603V56.3397C9.25 60.1393 12.3902 63.2195 16.2639 63.2195H57.7361C61.6098 63.2195 64.75 60.1393 64.75 56.3397V15.6603C64.75 11.8607 61.6098 8.78052 57.7361 8.78052Z" stroke="white" stroke-width="2.472" stroke-miterlimit="10"/>
<path d="M46.2371 21.0732H27.7629C24.35 21.0732 21.5833 23.9096 21.5833 27.4084V46.3478C21.5833 49.8467 24.35 52.683 27.7629 52.683H46.2371C49.65 52.683 52.4166 49.8467 52.4166 46.3478V27.4084C52.4166 23.9096 49.65 21.0732 46.2371 21.0732Z" stroke="white" stroke-width="2.472" stroke-miterlimit="10"/>
<path d="M21.5833 0V7.02439" stroke="white" stroke-width="2.472" stroke-miterlimit="10"/>
<path d="M37 0V7.02439" stroke="white" stroke-width="2.472" stroke-miterlimit="10"/>
<path d="M52.4167 0V7.02439" stroke="white" stroke-width="2.472" stroke-miterlimit="10"/>
<path d="M21.5833 66.7317V72" stroke="white" stroke-width="2.472" stroke-miterlimit="10"/>
<path d="M37 66.7317V72" stroke="white" stroke-width="2.472" stroke-miterlimit="10"/>
<path d="M52.4167 66.7317V72" stroke="white" stroke-width="2.472" stroke-miterlimit="10"/>
<path d="M0 52.6829H6.16667" stroke="white" stroke-width="2.472" stroke-miterlimit="10"/>
<path d="M0 36.8779H6.16667" stroke="white" stroke-width="2.472" stroke-miterlimit="10"/>
<path d="M0 21.0732H6.16667" stroke="white" stroke-width="2.472" stroke-miterlimit="10"/>
<path d="M67.8333 52.6829H74" stroke="white" stroke-width="2.472" stroke-miterlimit="10"/>
<path d="M67.8333 36.8779H74" stroke="white" stroke-width="2.472" stroke-miterlimit="10"/>
<path d="M67.8333 21.0732H74" stroke="white" stroke-width="2.472" stroke-miterlimit="10"/>
</svg>
