<svg width="45" height="43" viewBox="0 0 45 43" fill="none" xmlns="http://www.w3.org/2000/svg">
<path d="M37.55 16.0625V41H7.44995V16.0625" stroke="white" stroke-width="3.24" stroke-miterlimit="10"/>
<path d="M44 19.625L22.5 3L1 19.625" stroke="white" stroke-width="3.24" stroke-miterlimit="10"/>
<path d="M31.6054 17H13.3946C13.1767 17 13 17.1695 13 17.3785V32.7104C13 34.5243 14.5386 36 16.4297 36C17.7451 36 18.8897 35.2859 19.4649 34.2408C20.04 35.2859 21.1846 36 22.5 36C23.8154 36 24.96 35.2859 25.5351 34.2409C26.1103 35.2859 27.2549 36 28.5703 36C30.4614 36 32 34.5243 32 32.7104V17.3785C32 17.1695 31.8233 17 31.6054 17ZM19.0703 32.7104C19.0703 34.1069 17.8857 35.243 16.4297 35.243C14.9737 35.243 13.7892 34.1069 13.7892 32.7104V29.7183C14.4188 30.4464 15.3687 30.9109 16.4297 30.9109C17.4907 30.9109 18.4407 30.4464 19.0703 29.7183V32.7104ZM19.0703 27.5997V27.6213C19.0703 29.0178 17.8857 30.1539 16.4297 30.1539C14.9737 30.1539 13.7892 29.0178 13.7892 27.6213V27.5997V24.5861C14.4188 25.3142 15.3687 25.7787 16.4297 25.7787C17.4907 25.7787 18.4407 25.3142 19.0703 24.5861V27.5997ZM19.0703 22.4891C19.0703 23.8856 17.8857 25.0217 16.4297 25.0217C14.9737 25.0217 13.7892 23.8856 13.7892 22.4891V17.757H19.0703V22.4891ZM25.1405 32.7104C25.1405 34.1069 23.956 35.243 22.5 35.243C21.044 35.243 19.8595 34.1069 19.8595 32.7104V29.7183C20.4891 30.4464 21.439 30.9109 22.5 30.9109C23.561 30.9109 24.5109 30.4464 25.1405 29.7183V32.7104ZM25.1405 27.5998V27.6213C25.1405 29.0178 23.956 30.1539 22.5 30.1539C21.044 30.1539 19.8595 29.0178 19.8595 27.6213V27.5998V24.5862C20.4891 25.3142 21.439 25.7788 22.5 25.7788C23.561 25.7788 24.5109 25.3143 25.1405 24.5862V27.5998ZM25.1405 22.4891C25.1405 23.8856 23.956 25.0217 22.5 25.0217C21.044 25.0217 19.8595 23.8856 19.8595 22.4891V17.757H25.1405V22.4891ZM31.2108 32.7104C31.2108 34.1069 30.0263 35.243 28.5703 35.243C27.1143 35.243 25.9297 34.1069 25.9297 32.7104V29.7183C26.5593 30.4464 27.5093 30.9109 28.5703 30.9109C29.6313 30.9109 30.5812 30.4464 31.2108 29.7183V32.7104ZM31.2108 27.5998V27.6213C31.2108 29.0178 30.0263 30.1539 28.5703 30.1539C27.1143 30.1539 25.9297 29.0178 25.9297 27.6213V27.5998V24.5862C26.5593 25.3142 27.5093 25.7788 28.5703 25.7788C29.6313 25.7788 30.5812 25.3143 31.2108 24.5862V27.5998ZM31.2108 22.4891C31.2108 23.8856 30.0263 25.0217 28.5703 25.0217C27.1143 25.0217 25.9297 23.8856 25.9297 22.4891V17.757H31.2108V22.4891Z" fill="white"/>
<path d="M30.471 18.1752C30.2531 18.1752 30.0764 18.3446 30.0764 18.5536V20.2947C30.0764 20.5037 30.2531 20.6732 30.471 20.6732C30.6889 20.6732 30.8656 20.5037 30.8656 20.2947V18.5536C30.8656 18.3446 30.6889 18.1752 30.471 18.1752Z" fill="white"/>
<path d="M30.471 21.0516C30.2531 21.0516 30.0764 21.2211 30.0764 21.4301V21.8086C30.0764 22.0176 30.2531 22.1871 30.471 22.1871C30.6889 22.1871 30.8656 22.0176 30.8656 21.8086V21.4301C30.8656 21.2212 30.6889 21.0516 30.471 21.0516Z" fill="white"/>
</svg>
