<svg width="10" height="11" viewBox="0 0 10 11" fill="none" xmlns="http://www.w3.org/2000/svg">
<path d="M1.5625 8.46154H0.3125C0.22962 8.46154 0.150134 8.50611 0.0915291 8.58545C0.032924 8.6648 0 8.77241 0 8.88462L0 10.5769C0 10.6891 0.032924 10.7967 0.0915291 10.8761C0.150134 10.9554 0.22962 11 0.3125 11H1.5625C1.64538 11 1.72487 10.9554 1.78347 10.8761C1.84208 10.7967 1.875 10.6891 1.875 10.5769V8.88462C1.875 8.77241 1.84208 8.6648 1.78347 8.58545C1.72487 8.50611 1.64538 8.46154 1.5625 8.46154ZM1.5625 0H0.3125C0.22962 0 0.150134 0.044574 0.0915291 0.123916C0.032924 0.203259 0 0.31087 0 0.423077L0 2.11538C0 2.22759 0.032924 2.3352 0.0915291 2.41455C0.150134 2.49389 0.22962 2.53846 0.3125 2.53846H1.5625C1.64538 2.53846 1.72487 2.49389 1.78347 2.41455C1.84208 2.3352 1.875 2.22759 1.875 2.11538V0.423077C1.875 0.31087 1.84208 0.203259 1.78347 0.123916C1.72487 0.044574 1.64538 0 1.5625 0ZM1.5625 4.23077H0.3125C0.22962 4.23077 0.150134 4.27534 0.0915291 4.35469C0.032924 4.43403 0 4.54164 0 4.65385L0 6.34615C0 6.45836 0.032924 6.56597 0.0915291 6.64531C0.150134 6.72466 0.22962 6.76923 0.3125 6.76923H1.5625C1.64538 6.76923 1.72487 6.72466 1.78347 6.64531C1.84208 6.56597 1.875 6.45836 1.875 6.34615V4.65385C1.875 4.54164 1.84208 4.43403 1.78347 4.35469C1.72487 4.27534 1.64538 4.23077 1.5625 4.23077ZM9.6875 8.88462H3.4375C3.35462 8.88462 3.27513 8.92919 3.21653 9.00853C3.15792 9.08787 3.125 9.19549 3.125 9.30769V10.1538C3.125 10.2661 3.15792 10.3737 3.21653 10.453C3.27513 10.5323 3.35462 10.5769 3.4375 10.5769H9.6875C9.77038 10.5769 9.84987 10.5323 9.90847 10.453C9.96708 10.3737 10 10.2661 10 10.1538V9.30769C10 9.19549 9.96708 9.08787 9.90847 9.00853C9.84987 8.92919 9.77038 8.88462 9.6875 8.88462ZM9.6875 0.423077H3.4375C3.35462 0.423077 3.27513 0.467651 3.21653 0.546993C3.15792 0.626336 3.125 0.733947 3.125 0.846154V1.69231C3.125 1.80451 3.15792 1.91213 3.21653 1.99147C3.27513 2.07081 3.35462 2.11538 3.4375 2.11538H9.6875C9.77038 2.11538 9.84987 2.07081 9.90847 1.99147C9.96708 1.91213 10 1.80451 10 1.69231V0.846154C10 0.733947 9.96708 0.626336 9.90847 0.546993C9.84987 0.467651 9.77038 0.423077 9.6875 0.423077ZM9.6875 4.65385H3.4375C3.35462 4.65385 3.27513 4.69842 3.21653 4.77776C3.15792 4.8571 3.125 4.96472 3.125 5.07692V5.92308C3.125 6.03528 3.15792 6.1429 3.21653 6.22224C3.27513 6.30158 3.35462 6.34615 3.4375 6.34615H9.6875C9.77038 6.34615 9.84987 6.30158 9.90847 6.22224C9.96708 6.1429 10 6.03528 10 5.92308V5.07692C10 4.96472 9.96708 4.8571 9.90847 4.77776C9.84987 4.69842 9.77038 4.65385 9.6875 4.65385Z" fill="black" fill-opacity="0.809"/>
</svg>
