<svg width="20" height="11" viewBox="0 0 20 11" fill="none" xmlns="http://www.w3.org/2000/svg">
<path d="M19.3334 4.07039H17.9547L14.1333 0H8.70941L4.35469 4.07039L0.765352 4.90477C0.325391 4.97141 0 5.41555 0 5.93902V9.14646H2.37098L2.39059 9.14655V9.14646H2.39996C2.39996 7.52529 3.50402 6.21187 4.8666 6.21187C6.22937 6.21187 7.33332 7.52529 7.33332 9.14646H13.2748L13.3239 9.14655V9.14646H13.3333C13.3333 7.52529 14.4374 6.21187 15.8 6.21187C17.1627 6.21187 18.2666 7.52529 18.2666 9.14646H20V4.8635C20 4.42572 19.7014 4.07039 19.3334 4.07039ZM6.20383 4.06184L9.08004 1.37374H12.5214L12.5334 1.37379V4.07044H8.95371L6.20383 4.06184ZM13.6 1.3737H13.7254L15.4667 3.22965V4.07034H13.6V1.3737Z" fill="white"/>
<path d="M15.8 7.48096C15.0267 7.48096 14.4 8.22968 14.4 9.14655C14.4 10.0666 15.0267 10.8121 15.8 10.8121C16.5707 10.8121 17.2 10.0666 17.2 9.14655C17.2 8.22968 16.5708 7.48096 15.8 7.48096Z" fill="white"/>
<path d="M4.86667 7.48096C4.09335 7.48096 3.46667 8.22968 3.46667 9.14655C3.46667 10.0666 4.09335 10.8121 4.86667 10.8121C5.63738 10.8121 6.26667 10.0666 6.26667 9.14655C6.26667 8.22968 5.63738 7.48096 4.86667 7.48096Z" fill="white"/>
</svg>
