<svg width="58" height="74" viewBox="0 0 58 74" fill="none" xmlns="http://www.w3.org/2000/svg">
<path d="M43.5 73.9999H14.5C6.525 73.9999 0 68.4499 0 61.6666V40.0833C0 33.3 6.525 27.75 14.5 27.75H43.5C51.475 27.75 58 33.3 58 40.0833V61.6666C58 68.4499 51.475 73.9999 43.5 73.9999ZM14.5 33.9166C10.5125 33.9166 7.25 36.6916 7.25 40.0833V61.6666C7.25 65.0582 10.5125 67.8332 14.5 67.8332H43.5C47.4875 67.8332 50.75 65.0582 50.75 61.6666V40.0833C50.75 36.6916 47.4875 33.9166 43.5 33.9166H14.5Z" fill="white"/>
<path d="M47.125 33.9166H10.875C8.7 33.9166 7.25 32.6832 7.25 30.8332V18.4999C7.25 8.32497 17.0375 0 29 0C41.325 0 50.75 8.32497 50.75 18.4999V30.8332C50.75 32.6832 49.3 33.9166 47.125 33.9166ZM14.5 27.7499H43.5V18.4999C43.5 11.7166 36.975 6.16665 29 6.16665C21.025 6.16665 14.5 11.7166 14.5 18.4999V27.7499Z" fill="white"/>
<path d="M20.5807 53.2096L30.6839 40.5239V48.9811H37.4194L27.3162 61.6668V53.2096H20.5807Z" fill="white"/>
</svg>
