<svg width="14" height="15" viewBox="0 0 14 15" fill="none" xmlns="http://www.w3.org/2000/svg">
<path d="M7.74352 7.48871L13.6917 12.6053C14.1028 12.959 14.1028 13.5309 13.6917 13.8807L12.7032 14.731C12.2921 15.0847 11.6273 15.0847 11.2206 14.731L7 11.108L2.78382 14.7348C2.3727 15.0884 1.7079 15.0884 1.30116 14.7348L0.308341 13.8845C-0.10278 13.5309 -0.10278 12.959 0.308341 12.6091L6.25648 7.49248C6.6676 7.13506 7.3324 7.13506 7.74352 7.48871ZM6.25648 0.265237L0.308341 5.38187C-0.10278 5.73552 -0.10278 6.30737 0.308341 6.65726L1.29678 7.50753C1.7079 7.86117 2.3727 7.86117 2.77944 7.50753L6.99563 3.88074L11.2118 7.50753C11.6229 7.86117 12.2877 7.86117 12.6945 7.50753L13.6829 6.65726C14.094 6.30361 14.094 5.73175 13.6829 5.38187L7.73477 0.265237C7.3324 -0.0884123 6.6676 -0.0884123 6.25648 0.265237Z" fill="#1174CF"/>
</svg>
