<svg width="16" height="20" viewBox="0 0 16 20" fill="none" xmlns="http://www.w3.org/2000/svg">
<path d="M8.84973 9.94939L15.6476 16.7473C16.1175 17.2171 16.1175 17.9769 15.6476 18.4417L14.518 19.5714C14.0481 20.0412 13.2883 20.0412 12.8235 19.5714L8 14.7579L3.18151 19.5764C2.71165 20.0462 1.95189 20.0462 1.48704 19.5764L0.35239 18.4467C-0.117463 17.9769 -0.117463 17.2171 0.35239 16.7523L7.15027 9.95439C7.62012 9.47954 8.37988 9.47954 8.84973 9.94939ZM7.15027 0.35239L0.35239 7.15027C-0.117463 7.62012 -0.117463 8.37988 0.35239 8.84474L1.48204 9.97438C1.95189 10.4442 2.71165 10.4442 3.17651 9.97438L7.995 5.15589L12.8135 9.97438C13.2833 10.4442 14.0431 10.4442 14.508 9.97438L15.6376 8.84474C16.1075 8.37488 16.1075 7.61512 15.6376 7.15027L8.83974 0.35239C8.37988 -0.117463 7.62012 -0.117463 7.15027 0.35239Z" fill="#188BF4"/>
</svg>
