<svg width="431" height="518" viewBox="0 0 431 518" fill="none" xmlns="http://www.w3.org/2000/svg">
<path d="M280.01 315.286H372.989C379.43 315.286 385.152 312.556 388.688 307.794C391.874 303.504 393.001 298.04 391.862 292.41C389.587 281.176 378.862 270.307 367.448 267.666C367.236 267.616 366.063 267.347 364.206 266.946C362.617 266.604 358.107 265.581 358.107 260.724V254.885C358.107 246.792 353.512 239.844 347.001 236.93C345.491 236.254 342.19 235.106 342.19 231.585V16.9979C342.19 7.61022 335.165 0 326.5 0C317.835 0 310.811 7.61022 310.811 16.9979V231.585C310.811 234.62 307.185 236.348 305.544 237.141C299.274 240.168 294.893 246.981 294.893 254.886V261.696C294.893 265.339 291.221 266.433 289.793 266.736C287.359 267.251 285.801 267.61 285.553 267.668C274.138 270.309 263.414 281.177 261.138 292.412C259.999 298.041 261.127 303.504 264.313 307.795C267.848 312.555 273.571 315.286 280.01 315.286Z" fill="black"/>
<path d="M430.481 483.183L405.401 359.299C402.858 346.731 391.127 336.506 379.251 336.506H273.749C261.873 336.506 250.141 346.73 247.599 359.298L222.518 483.184C221.223 489.587 222.375 495.954 225.763 501.113C229.15 506.27 234.326 509.537 240.333 510.309C242.777 510.623 300.476 517.997 326.374 518H326.394C326.395 518 326.393 518 326.393 518C352.367 518 410.214 510.62 412.664 510.306C418.672 509.535 423.848 506.27 427.236 501.113C430.625 495.954 431.778 489.588 430.481 483.183Z" fill="black"/>
<path d="M106.109 412.125C153.125 412.125 193.688 385.875 212.125 344.75V343.875C212.125 341.25 212.125 338.625 210.281 336.875C208.438 335.125 205.672 334.25 202.906 334.25H191.844C188.156 344.75 178.016 351.75 166.031 351.75C154.047 351.75 143.906 344.75 140.219 334.25H9.3125C6.54688 334.25 3.78125 335.125 1.9375 337.75C0.0937482 339.5 0.09375 342.125 0.09375 344.75V345.625C18.5312 385.875 59.0938 412.125 106.109 412.125Z" fill="black"/>
<path d="M106.109 429.625C67.3906 429.625 32.3594 414.75 8.39062 388.5L27.75 502.25C28.6719 505.75 32.3594 509.25 36.9688 509.25H175.25C179.859 509.25 183.547 505.75 184.469 502.25L204.75 389.375C179.859 414.75 144.828 429.625 106.109 429.625Z" fill="black"/>
<path d="M161.422 360.5C148.516 360.5 136.531 355.25 129.156 345.625C126.391 342.125 126.391 336 131 333.375C134.688 330.75 141.141 330.75 143.906 335.125C148.516 340.375 154.969 343.875 162.344 343.875C171.562 343.875 178.938 338.625 183.547 331.625C185.391 329 185.391 325.5 185.391 322C184.469 308.875 174.328 299.25 161.422 299.25C157.734 299.25 154.047 300.125 150.359 301.875C147.594 303.625 144.828 303.625 142.062 302.75C139.297 301.875 137.453 299.25 136.531 296.625C131 277.375 113.484 264.25 92.2812 264.25C71.0781 264.25 53.5625 277.375 48.0312 296.625C47.1094 299.25 45.2656 301 43.4219 301.875C33.2812 306.25 27.75 315.875 27.75 325.5C27.75 328.125 27.75 329.875 28.6719 332.5C29.5938 336.875 26.8281 342.125 22.2188 343C17.6094 343.875 12.0781 341.25 11.1562 336.875C10.2344 332.5 9.3125 329 9.3125 325.5C9.3125 310.625 17.6094 296.625 31.4375 288.75C39.7344 263.375 64.625 246.75 92.2812 246.75C118.094 246.75 141.141 261.625 151.281 282.625C154.969 281.75 157.734 281.75 161.422 281.75C184.469 281.75 202.906 299.25 202.906 321.125C202.906 327.25 201.984 332.5 199.219 337.75C191.844 351.75 177.094 360.5 161.422 360.5Z" fill="black"/>
</svg>
