<svg width="7" height="8" viewBox="0 0 7 8" fill="none" xmlns="http://www.w3.org/2000/svg">
<path d="M4.77383 5.96803L4.45639 6.60607L5.23208 6.98401L5.52098 6.2827L4.77383 5.96803ZM4.77383 5.96803C4.45639 6.60607 4.45627 6.60602 4.45615 6.60596L4.45585 6.60581L4.45508 6.60543L4.45283 6.60433L4.44557 6.60077L4.42035 6.58828C4.39894 6.57762 4.36847 6.56233 4.3301 6.54277C4.25342 6.50369 4.14486 6.44738 4.01371 6.3767C3.75244 6.23592 3.39653 6.03545 3.02222 5.79837C2.65078 5.56311 2.24443 5.28125 1.89081 4.97632C1.55203 4.68418 1.18951 4.31025 0.997683 3.88495C0.71908 3.26726 0.730933 2.60097 1.01276 2.03488C1.29365 1.47065 1.81946 1.04985 2.46683 0.853206C3.1142 0.656565 3.84715 0.695021 4.50801 0.973191C5.17104 1.25228 5.70866 1.75166 5.98727 2.36935C6.17909 2.79465 6.20061 3.27216 6.17525 3.67491C6.14878 4.09529 6.06398 4.52634 5.96871 4.90337C5.87271 5.28331 5.76161 5.62563 5.675 5.87208C5.63153 5.9958 5.5938 6.09654 5.56661 6.16718C5.55301 6.20252 5.54201 6.23041 5.53422 6.24994L5.52499 6.27289L5.52231 6.27948L5.52147 6.28151L5.52118 6.28221L5.52107 6.28248C5.52103 6.28259 5.52098 6.2827 4.77383 5.96803Z" stroke="white" stroke-width="1.5"/>
</svg>
