<svg width="67" height="70" viewBox="0 0 67 70" fill="none" xmlns="http://www.w3.org/2000/svg">
<path fill-rule="evenodd" clip-rule="evenodd" d="M33.5 38.8889C34.6563 38.8889 35.5938 40.0496 35.5938 41.4815V67.4074C35.5938 68.8393 34.6563 70 33.5 70C32.3437 70 31.4062 68.8393 31.4062 67.4074V41.4815C31.4062 40.0496 32.3437 38.8889 33.5 38.8889ZM46.0625 38.8889C47.2188 38.8889 48.1562 40.0496 48.1562 41.4815C48.1562 50.8046 51.7926 59.3684 57.8029 64.6927C58.7434 65.5259 58.9603 67.1453 58.2875 68.3098C57.6147 69.4743 56.3069 69.743 55.3664 68.9098C48.2686 62.6221 43.9688 52.4958 43.9688 41.4815C43.9688 40.0496 44.9062 38.8889 46.0625 38.8889ZM20.9375 38.8889C22.0938 38.8889 23.0312 40.0496 23.0312 41.4815C23.0312 52.4831 18.7414 62.5992 11.6571 68.889C10.7174 69.7233 9.40931 69.4564 8.7355 68.2928C8.06168 67.1291 8.27726 65.5094 9.217 64.6751C15.2158 59.349 18.8438 50.7939 18.8438 41.4815C18.8438 40.0496 19.7812 38.8889 20.9375 38.8889ZM58.625 0C63.2504 0 67 4.64297 67 10.3704V25.9259C67 31.6533 63.2504 36.2963 58.625 36.2963H8.375C3.74961 36.2963 0 31.6533 0 25.9259V10.3704C0 4.64297 3.74961 0 8.375 0H58.625ZM56.5312 20.7407H10.4688C9.3124 20.7407 8.375 21.9015 8.375 23.3333C8.375 24.7652 9.3124 25.9259 10.4688 25.9259H56.5312C57.6876 25.9259 58.625 24.7652 58.625 23.3333C58.625 21.9015 57.6876 20.7407 56.5312 20.7407Z" fill="white"/>
</svg>
