<svg width="45" height="43" viewBox="0 0 45 43" fill="none" xmlns="http://www.w3.org/2000/svg">
<path d="M37.55 16.0625V41H7.44995V16.0625" stroke="white" stroke-width="3.24" stroke-miterlimit="10"/>
<path d="M44 19.625L22.5 3L1 19.625" stroke="white" stroke-width="3.24" stroke-miterlimit="10"/>
<path d="M34.9138 30.133C33.6321 30.133 32.9349 30.4604 32.3747 30.7233C31.9035 30.9445 31.563 31.1044 30.7757 31.1044C29.9883 31.1044 29.6478 30.9445 29.1765 30.7233C28.6718 30.4864 28.0544 30.1981 27 30.1431V20.3372C27 17.9457 25.0107 16 22.5656 16V18.1248C23.8129 18.1248 24.8276 19.1174 24.8276 20.3372V22.3623H20.1679V20.3372C20.1679 17.9457 18.1787 16 15.7335 16V18.1248C16.9808 18.1248 17.9955 19.1174 17.9955 20.3372V30.1433C16.9434 30.1987 16.3269 30.4867 15.8228 30.7233C15.3516 30.9445 15.0112 31.1044 14.224 31.1044C13.4367 31.1044 13.0963 30.9445 12.6251 30.7234C12.065 30.4603 11.3678 30.133 10.0862 30.133H9V33.7756V36.5682V41H36V36.5682V33.7756V30.133H34.9138ZM20.1679 28.4534H24.8276V30.4151C24.5479 30.5127 24.313 30.6227 24.0986 30.7233C23.6273 30.9445 23.2869 31.1044 22.4995 31.1044C21.7123 31.1044 21.3718 30.9445 20.9006 30.7234C20.6853 30.6223 20.4492 30.5118 20.1679 30.4139V28.4534ZM24.8276 24.4871V26.3286H20.1679V24.4871H24.8276Z" fill="white"/>
</svg>
