<svg width="31" height="36" viewBox="0 0 31 36" fill="none" xmlns="http://www.w3.org/2000/svg">
<path d="M0 7.65957V33.503C0 34.6289 0.983257 36 2.19385 36H28.5979C29.8053 36 31 34.6289 31 33.503V7.65957H0ZM15.4682 28.1689C10.8103 28.1689 7.03382 24.65 7.03382 20.3078C7.03382 15.9656 10.8103 12.4468 15.4682 12.4468C20.1262 12.4468 23.9026 15.9656 23.9026 20.3078C23.9026 24.6508 20.1262 28.1689 15.4682 28.1689ZM28.5979 0H2.19385C0.983257 0 0 0.791234 0 1.91872V6.12766H31V1.91872C31 0.791234 29.8053 0 28.5979 0ZM10.3333 4.59575H1.58974V1.53191H10.3333V4.59575ZM25.5519 4.38128C24.5592 4.38128 23.7571 3.6314 23.7571 2.70536C23.7571 1.78085 24.5592 1.03098 25.5519 1.03098C26.5447 1.03098 27.3492 1.78085 27.3492 2.70536C27.3484 3.63064 26.5447 4.38128 25.5519 4.38128Z" fill="white"/>
</svg>
