<svg width="213" height="198" viewBox="0 0 213 198" fill="none" xmlns="http://www.w3.org/2000/svg">
<path d="M62.8653 88.3753L62.6157 89.0747L63.2631 89.307L63.5509 88.697L62.8653 88.3753ZM62.8653 88.3753C63.5509 88.697 63.551 88.6969 63.551 88.6968L63.5512 88.6966L63.5515 88.6958L63.5525 88.6938L63.5556 88.6871L63.5663 88.6639C63.5754 88.6442 63.5882 88.6161 63.6041 88.5805C63.6358 88.5093 63.6801 88.408 63.7316 88.2838C63.8342 88.0365 63.9677 87.6936 64.0886 87.3158C64.2084 86.9416 64.3225 86.5131 64.377 86.099C64.4283 85.7087 64.4432 85.2208 64.2612 84.7946C63.9976 84.1771 63.4522 83.7503 62.8124 83.5636C62.178 83.3784 61.4798 83.4332 60.8619 83.6827C60.2441 83.9322 59.7113 84.3745 59.3983 84.9423C59.0827 85.5149 59.0085 86.1918 59.2722 86.8094C59.4541 87.2355 59.8199 87.5697 60.1404 87.8098C60.4805 88.0646 60.8731 88.2886 61.2302 88.4702C61.5907 88.6535 61.9347 88.8036 62.1872 88.9075C62.314 88.9597 62.419 89.0007 62.4933 89.0291C62.5305 89.0433 62.56 89.0543 62.5807 89.062L62.6052 89.0709L62.6122 89.0735L62.6144 89.0743L62.6152 89.0745L62.6155 89.0746C62.6156 89.0747 62.6157 89.0747 62.8653 88.3753Z" stroke="white" stroke-width="1.5"/>
<path d="M67.6702 93.6275L67.3583 94.2545L68.1205 94.6259L68.4044 93.9367L67.6702 93.6275ZM67.6702 93.6275C67.3583 94.2545 67.3582 94.2544 67.358 94.2544L67.3578 94.2542L67.357 94.2539L67.3548 94.2528L67.3476 94.2493L67.3229 94.237C67.3018 94.2265 67.2719 94.2115 67.2342 94.1923C67.1588 94.1539 67.0522 94.0985 66.9233 94.0291C66.6666 93.8908 66.3168 93.6938 65.949 93.4608C65.5841 93.2296 65.1848 92.9527 64.8373 92.6531C64.5044 92.366 64.1482 91.9986 63.9597 91.5807C63.6859 90.9737 63.6976 90.319 63.9745 89.7627C64.2505 89.2083 64.7672 88.7948 65.4033 88.6016C66.0394 88.4084 66.7596 88.4462 67.409 88.7195C68.0605 88.9937 68.5888 89.4844 68.8626 90.0914C69.051 90.5093 69.0722 90.9785 69.0473 91.3743C69.0213 91.7873 68.9379 92.2109 68.8443 92.5814C68.75 92.9547 68.6408 93.2911 68.5557 93.5332C68.513 93.6548 68.4759 93.7538 68.4492 93.8232C68.4358 93.8579 68.425 93.8853 68.4174 93.9045L68.4083 93.9271L68.4057 93.9336L68.4049 93.9356L68.4046 93.9362L68.4045 93.9365C68.4044 93.9366 68.4044 93.9367 67.6702 93.6275Z" stroke="white" stroke-width="1.5"/>
<path fill-rule="evenodd" clip-rule="evenodd" d="M76.5099 42.0014C63.7039 43.2633 58.589 61.9511 65.8578 80.9203C68.7601 88.4951 74.265 96.0425 80.154 100.522C81.6948 101.693 81.9196 101.694 81.1319 100.522C80.5701 99.6866 80.2437 99.0477 79.9971 98.3003C79.8891 97.9727 79.4976 96.8616 79.1271 95.8314C74.6951 83.5039 77.2521 74.2419 85.4575 72.9015C86.6775 72.7021 86.8793 73.1269 86.2092 74.4834C82.3587 82.2758 80.7495 89.0771 81.4995 94.3883C81.7083 95.8682 81.7655 95.8236 81.8399 94.1219C82.1383 87.2874 85.606 79.3288 91.1091 72.8494C96.6014 66.3828 101.29 62.873 107.703 60.4265C117.048 56.8618 126.256 61.0535 127.037 69.227C127.088 69.7646 127.142 70.3386 127.156 70.5024C127.209 71.0908 126.923 73.7165 126.679 74.8839C125.783 79.1808 123.673 83.9881 120.091 89.8934C118.542 92.4476 118.525 92.4795 118.646 92.6987C118.742 92.8737 119.035 92.9881 121.305 93.7383C127.966 95.9396 132.603 99.1086 133.631 102.162C135.678 108.24 131.984 113.044 123.498 115.339C117.529 116.954 108.456 116.901 103 115.218C101.276 114.687 101.341 115.017 103.179 116.136C105.516 117.558 110.151 119.238 113.413 119.844C113.928 119.94 114.729 120.093 115.193 120.183C120.418 121.205 128.234 120.995 133.733 119.686C140.872 117.986 146.049 114.276 147.821 109.587C150.062 103.66 146.581 98.0386 137.805 93.411C136.978 92.9745 136.161 92.5416 135.991 92.4487C134.604 91.6923 129.476 89.8854 127.8 89.5621C126.562 89.3236 126.56 88.8693 127.787 86.9956C139.98 68.3898 139.923 55.2772 127.625 49.3949C122.438 46.914 114.57 48.7858 102.581 55.3528C101.337 56.0348 101.32 56.0268 99.0944 53.7396C91.6153 46.0521 82.6565 41.3958 76.5099 42.0014ZM84.5099 53.5933C87.9972 54.2777 91.7117 56.4968 94.6433 59.6469C95.9709 61.0736 95.9963 61.2902 94.9625 62.3575C93.8995 63.4548 92.7619 64.7467 91.8251 65.9206C90.37 67.7446 90.3456 67.753 89.0335 66.902C81.8641 62.2513 75.2355 66.0801 73.657 75.7836C72.6355 82.0635 74.0573 88.0286 78.5339 96.2437C79.8969 98.7448 79.9378 98.93 78.9281 98.0265C77.7715 96.992 75.8357 94.4271 74.2155 91.7821C66.8543 79.7666 65.6969 67.1395 71.2391 59.3144C74.4646 54.7603 79.468 52.6034 84.5099 53.5933ZM106.169 66.3891C103.899 66.5821 101.895 67.2628 99.4228 68.6802C92.2872 72.7718 85.3802 83.4194 83.782 92.7915C83.4314 94.8476 83.6441 95.1691 84.2221 93.4562C87.3999 84.0378 100.204 73.1516 106.302 74.6838C113.113 76.3952 113.417 84.2242 107.132 96.0205C106.475 97.2531 106.483 97.272 107.855 97.5726C112.129 98.5091 115.406 101.579 115.364 104.607C115.318 108 110.71 111.767 104.856 113.2C104.289 113.339 103.676 113.489 103.492 113.534C102.357 113.812 104.905 114.19 106.89 114.038C111.826 113.66 114.306 113.066 117.486 111.499C123.514 108.527 125.752 104.558 123.358 101.084C121.322 98.1307 118.19 96.6552 112.594 96.0142C110.21 95.7414 110.148 95.5801 111.586 93.4121C117.268 84.8493 118.969 75.3167 115.659 70.5868C113.739 67.8446 109.759 66.0837 106.169 66.3891Z" fill="white"/>
<mask id="path-4-inside-1_104_1706" fill="white">
<path fill-rule="evenodd" clip-rule="evenodd" d="M76.1149 41.3759C59.5232 43.684 56.7818 72.1202 71.2226 92.1255C74.1814 96.2246 79.3683 101.228 82.6374 103.138C84.1588 104.026 84.5705 103.869 84.182 102.55C82.156 95.671 87.6169 85.2957 96.672 78.82C102.448 74.6894 106.416 74.161 109.243 77.1461C112.255 80.3253 111.442 86.1507 106.696 95.4057C105.845 97.0638 105.751 97.4022 106.055 97.6961C106.242 97.8775 106.388 97.9225 107.982 98.2902C112.389 99.3071 115.463 102.805 114.483 105.687C113.174 109.536 107.328 112.706 100.894 113.057C98.7718 113.173 98.6203 113.442 99.9765 114.688C101.282 115.886 104.329 117.641 106.581 118.492C108.816 119.336 112.153 120.323 113.415 120.513C113.735 120.561 114.494 120.7 115.102 120.821C117.555 121.308 122.847 121.651 125.23 121.478C132.307 120.961 136.074 120.111 140.113 118.12C150.26 113.117 152.12 103.661 144.288 96.8954C140.712 93.8062 132.877 89.8945 128.587 89.0559C127.481 88.8399 127.459 88.7251 128.284 87.4774C139.88 69.9555 140.648 56.8072 130.463 50.1967C125.888 47.2272 122.693 46.9201 115.912 48.798C113.509 49.4634 111.956 50.0645 107.456 52.0712C106.515 52.4907 104.023 53.7858 102.662 54.5627C101.45 55.2547 101.598 55.3019 100.042 53.7304C92.2405 45.8495 84.4943 41.5008 78.0272 41.3717C77.1224 41.3535 76.262 41.3555 76.1149 41.3759ZM80.7214 41.9573C86.9074 43.3773 92.4324 46.7755 99.0161 53.2098L101.283 55.4254L101.622 55.3825C101.817 55.3577 102.38 55.1045 102.942 54.7886C111.696 49.873 120.323 47.2409 124.773 48.128C129.722 49.1145 134.636 53.1917 136.219 57.6241C138.917 65.176 136.193 74.837 127.741 87.6923C126.964 88.8731 127.037 89.0262 128.548 89.3935C131.348 90.0744 134.963 91.51 138.074 93.1761C146.782 97.8404 150.304 103.422 148.269 109.333C146.282 115.107 139.542 119.358 130.293 120.672C125.281 121.384 119.063 121.306 115.056 120.481C114.519 120.371 113.78 120.233 113.414 120.176C112.143 119.975 108.922 119.03 106.817 118.24C103.08 116.836 98.882 113.911 100.24 113.657C101.606 113.401 102.506 113.248 103.473 113.109C109.052 112.303 114.328 108.646 114.992 105.125C115.535 102.242 112.136 98.8259 107.814 97.9093C105.923 97.5086 105.955 97.6487 107.195 95.1779C112.026 85.5491 112.629 79.9827 109.196 76.6805C106.237 73.8327 102.224 74.4195 96.4969 78.5371C90.3774 82.9366 85.9078 88.8895 84.0687 95.0895C83.4868 97.0511 83.2922 97.433 83.1786 96.8374C82.6482 94.0615 84.4433 87.3454 87.0376 82.3982C93.3199 70.4184 102.609 64.1392 110.436 66.5808C117.436 68.7645 119.516 75.5119 116.13 85.0571C115.177 87.7439 113.515 91.1012 111.987 93.4254C110.636 95.4805 110.621 95.4283 112.618 95.6769C118.164 96.3675 120.923 97.5868 123.228 100.365C125.816 103.485 124.698 107.331 120.357 110.238C116.051 113.121 111.513 114.345 105.159 114.336C102.252 114.331 102.07 114.364 102.908 114.746C106.154 116.227 114.251 116.658 120.303 115.673C130.461 114.019 135.464 108.956 133.367 102.45C132.329 99.2273 127.95 96.2774 120.594 93.8441C118.566 93.1736 118.259 93.022 118.218 92.6754C118.187 92.4083 118.258 92.2763 119.869 89.6018C128.35 75.5249 129.062 66.1557 121.997 61.6251C117.733 58.8904 112.713 58.7387 106.727 61.163C100.855 63.5412 95.7766 67.5818 90.5653 74.0219C85.6596 80.0846 82.3091 88.1118 82.2605 93.9189C82.2425 96.0912 82.3607 97.0168 82.9523 99.3304C83.1205 99.9883 83.2957 100.927 83.3415 101.416C83.3873 101.905 83.4496 102.435 83.4801 102.595L83.5358 102.884L83.2352 102.828C81.5979 102.523 77.1223 98.7041 73.5799 94.5893C62.7533 82.0132 58.9953 62.1484 65.1458 50.0062C67.5492 45.2617 71.0444 42.5873 75.9786 41.7177C76.7176 41.5874 79.7848 41.7425 80.7214 41.9573ZM80.6126 53.76C71.2173 55.1368 66.135 65.6002 68.8387 78.0005C69.9856 83.2604 72.7879 89.4591 76.0528 93.9581C77.5587 96.0335 77.8649 96.0632 76.9028 94.0412C75.345 90.7675 74.5077 88.5706 73.924 86.2258C70.1925 71.2347 78.93 59.8743 89.0661 66.5381C90.262 67.3244 90.2952 67.3147 91.483 65.82C92.4752 64.5719 93.3712 63.5447 94.4189 62.4547C95.6661 61.1574 95.6652 61.1521 93.8469 59.339C89.7472 55.2508 84.7666 53.1513 80.6126 53.76ZM84.0598 54.1817C87.5542 54.7641 91.3637 57.0197 94.2766 60.2312C95.1658 61.2114 95.1811 61.1414 93.7456 62.6816C93.1001 63.3745 92.1447 64.4767 91.6226 65.131C90.1341 66.9964 90.2918 66.9259 89.1834 66.2235C83.5882 62.6784 78.1674 63.9957 74.9687 69.6779C72.0262 74.9049 71.9605 82.458 74.7916 90.0267C75.8791 92.9347 75.8053 93.0815 74.3992 90.8042C68.6903 81.5576 66.9082 70.6543 69.8846 63.1841C72.4409 56.7685 78.0831 53.1852 84.0598 54.1817ZM117.166 60.0265C119.462 60.4228 121.811 61.6144 123.55 63.264C127.062 66.5972 127.359 72.4991 124.39 79.9863C123.11 83.215 121.762 85.8402 119.266 89.964C117.217 93.35 117.136 93.0533 120.411 94.1309C128.105 96.6621 132.254 99.563 133.182 103.06C134.525 108.12 131.51 112.086 124.616 114.327C119.664 115.937 111.262 116.391 106.254 115.319C104.22 114.884 104.282 114.764 106.582 114.679C118.37 114.246 127.381 107.573 124.384 101.496C122.654 97.9882 119.101 96.1789 112.185 95.2842C111.306 95.1705 111.304 95.0749 112.153 93.7892C118.855 83.6323 119.948 73.0345 114.751 68.5898C109.616 64.1978 102.502 64.887 95.8152 70.425C93.233 72.5633 90.2044 76.2479 88.0896 79.8236C85.5799 84.067 84.4152 86.9995 83.1147 92.3485C82.7572 93.8196 82.6886 93.8275 82.7522 92.3905C82.9679 87.5094 86.1412 80.2252 90.4763 74.66C98.5744 64.2642 108.905 58.6004 117.166 60.0265ZM84.4222 73.4644C76.5487 75.6742 74.9186 87.0126 80.7903 98.7271C82.273 101.686 82.9754 102.096 82.1193 99.503C79.853 92.6415 81.0094 84.3315 85.5074 75.1525C86.495 73.1372 86.3563 72.9215 84.4222 73.4644ZM85.707 73.7265C85.7364 73.8019 85.6765 74.0413 85.574 74.2581C85.4712 74.475 85.1023 75.2454 84.7544 75.9704C81.2501 83.2701 79.9666 90.4361 81.0339 96.7391C81.2871 98.2344 81.2979 98.4973 81.0999 98.3385C80.6045 97.9417 79.3163 94.6792 78.6311 92.0864C76.6273 84.505 77.7069 78.1041 81.4716 75.2477C82.9057 74.1597 85.5102 73.2242 85.707 73.7265Z"/>
</mask>
<path fill-rule="evenodd" clip-rule="evenodd" d="M76.1149 41.3759C59.5232 43.684 56.7818 72.1202 71.2226 92.1255C74.1814 96.2246 79.3683 101.228 82.6374 103.138C84.1588 104.026 84.5705 103.869 84.182 102.55C82.156 95.671 87.6169 85.2957 96.672 78.82C102.448 74.6894 106.416 74.161 109.243 77.1461C112.255 80.3253 111.442 86.1507 106.696 95.4057C105.845 97.0638 105.751 97.4022 106.055 97.6961C106.242 97.8775 106.388 97.9225 107.982 98.2902C112.389 99.3071 115.463 102.805 114.483 105.687C113.174 109.536 107.328 112.706 100.894 113.057C98.7718 113.173 98.6203 113.442 99.9765 114.688C101.282 115.886 104.329 117.641 106.581 118.492C108.816 119.336 112.153 120.323 113.415 120.513C113.735 120.561 114.494 120.7 115.102 120.821C117.555 121.308 122.847 121.651 125.23 121.478C132.307 120.961 136.074 120.111 140.113 118.12C150.26 113.117 152.12 103.661 144.288 96.8954C140.712 93.8062 132.877 89.8945 128.587 89.0559C127.481 88.8399 127.459 88.7251 128.284 87.4774C139.88 69.9555 140.648 56.8072 130.463 50.1967C125.888 47.2272 122.693 46.9201 115.912 48.798C113.509 49.4634 111.956 50.0645 107.456 52.0712C106.515 52.4907 104.023 53.7858 102.662 54.5627C101.45 55.2547 101.598 55.3019 100.042 53.7304C92.2405 45.8495 84.4943 41.5008 78.0272 41.3717C77.1224 41.3535 76.262 41.3555 76.1149 41.3759ZM80.7214 41.9573C86.9074 43.3773 92.4324 46.7755 99.0161 53.2098L101.283 55.4254L101.622 55.3825C101.817 55.3577 102.38 55.1045 102.942 54.7886C111.696 49.873 120.323 47.2409 124.773 48.128C129.722 49.1145 134.636 53.1917 136.219 57.6241C138.917 65.176 136.193 74.837 127.741 87.6923C126.964 88.8731 127.037 89.0262 128.548 89.3935C131.348 90.0744 134.963 91.51 138.074 93.1761C146.782 97.8404 150.304 103.422 148.269 109.333C146.282 115.107 139.542 119.358 130.293 120.672C125.281 121.384 119.063 121.306 115.056 120.481C114.519 120.371 113.78 120.233 113.414 120.176C112.143 119.975 108.922 119.03 106.817 118.24C103.08 116.836 98.882 113.911 100.24 113.657C101.606 113.401 102.506 113.248 103.473 113.109C109.052 112.303 114.328 108.646 114.992 105.125C115.535 102.242 112.136 98.8259 107.814 97.9093C105.923 97.5086 105.955 97.6487 107.195 95.1779C112.026 85.5491 112.629 79.9827 109.196 76.6805C106.237 73.8327 102.224 74.4195 96.4969 78.5371C90.3774 82.9366 85.9078 88.8895 84.0687 95.0895C83.4868 97.0511 83.2922 97.433 83.1786 96.8374C82.6482 94.0615 84.4433 87.3454 87.0376 82.3982C93.3199 70.4184 102.609 64.1392 110.436 66.5808C117.436 68.7645 119.516 75.5119 116.13 85.0571C115.177 87.7439 113.515 91.1012 111.987 93.4254C110.636 95.4805 110.621 95.4283 112.618 95.6769C118.164 96.3675 120.923 97.5868 123.228 100.365C125.816 103.485 124.698 107.331 120.357 110.238C116.051 113.121 111.513 114.345 105.159 114.336C102.252 114.331 102.07 114.364 102.908 114.746C106.154 116.227 114.251 116.658 120.303 115.673C130.461 114.019 135.464 108.956 133.367 102.45C132.329 99.2273 127.95 96.2774 120.594 93.8441C118.566 93.1736 118.259 93.022 118.218 92.6754C118.187 92.4083 118.258 92.2763 119.869 89.6018C128.35 75.5249 129.062 66.1557 121.997 61.6251C117.733 58.8904 112.713 58.7387 106.727 61.163C100.855 63.5412 95.7766 67.5818 90.5653 74.0219C85.6596 80.0846 82.3091 88.1118 82.2605 93.9189C82.2425 96.0912 82.3607 97.0168 82.9523 99.3304C83.1205 99.9883 83.2957 100.927 83.3415 101.416C83.3873 101.905 83.4496 102.435 83.4801 102.595L83.5358 102.884L83.2352 102.828C81.5979 102.523 77.1223 98.7041 73.5799 94.5893C62.7533 82.0132 58.9953 62.1484 65.1458 50.0062C67.5492 45.2617 71.0444 42.5873 75.9786 41.7177C76.7176 41.5874 79.7848 41.7425 80.7214 41.9573ZM80.6126 53.76C71.2173 55.1368 66.135 65.6002 68.8387 78.0005C69.9856 83.2604 72.7879 89.4591 76.0528 93.9581C77.5587 96.0335 77.8649 96.0632 76.9028 94.0412C75.345 90.7675 74.5077 88.5706 73.924 86.2258C70.1925 71.2347 78.93 59.8743 89.0661 66.5381C90.262 67.3244 90.2952 67.3147 91.483 65.82C92.4752 64.5719 93.3712 63.5447 94.4189 62.4547C95.6661 61.1574 95.6652 61.1521 93.8469 59.339C89.7472 55.2508 84.7666 53.1513 80.6126 53.76ZM84.0598 54.1817C87.5542 54.7641 91.3637 57.0197 94.2766 60.2312C95.1658 61.2114 95.1811 61.1414 93.7456 62.6816C93.1001 63.3745 92.1447 64.4767 91.6226 65.131C90.1341 66.9964 90.2918 66.9259 89.1834 66.2235C83.5882 62.6784 78.1674 63.9957 74.9687 69.6779C72.0262 74.9049 71.9605 82.458 74.7916 90.0267C75.8791 92.9347 75.8053 93.0815 74.3992 90.8042C68.6903 81.5576 66.9082 70.6543 69.8846 63.1841C72.4409 56.7685 78.0831 53.1852 84.0598 54.1817ZM117.166 60.0265C119.462 60.4228 121.811 61.6144 123.55 63.264C127.062 66.5972 127.359 72.4991 124.39 79.9863C123.11 83.215 121.762 85.8402 119.266 89.964C117.217 93.35 117.136 93.0533 120.411 94.1309C128.105 96.6621 132.254 99.563 133.182 103.06C134.525 108.12 131.51 112.086 124.616 114.327C119.664 115.937 111.262 116.391 106.254 115.319C104.22 114.884 104.282 114.764 106.582 114.679C118.37 114.246 127.381 107.573 124.384 101.496C122.654 97.9882 119.101 96.1789 112.185 95.2842C111.306 95.1705 111.304 95.0749 112.153 93.7892C118.855 83.6323 119.948 73.0345 114.751 68.5898C109.616 64.1978 102.502 64.887 95.8152 70.425C93.233 72.5633 90.2044 76.2479 88.0896 79.8236C85.5799 84.067 84.4152 86.9995 83.1147 92.3485C82.7572 93.8196 82.6886 93.8275 82.7522 92.3905C82.9679 87.5094 86.1412 80.2252 90.4763 74.66C98.5744 64.2642 108.905 58.6004 117.166 60.0265ZM84.4222 73.4644C76.5487 75.6742 74.9186 87.0126 80.7903 98.7271C82.273 101.686 82.9754 102.096 82.1193 99.503C79.853 92.6415 81.0094 84.3315 85.5074 75.1525C86.495 73.1372 86.3563 72.9215 84.4222 73.4644ZM85.707 73.7265C85.7364 73.8019 85.6765 74.0413 85.574 74.2581C85.4712 74.475 85.1023 75.2454 84.7544 75.9704C81.2501 83.2701 79.9666 90.4361 81.0339 96.7391C81.2871 98.2344 81.2979 98.4973 81.0999 98.3385C80.6045 97.9417 79.3163 94.6792 78.6311 92.0864C76.6273 84.505 77.7069 78.1041 81.4716 75.2477C82.9057 74.1597 85.5102 73.2242 85.707 73.7265Z" fill="white" stroke="white" stroke-width="2" mask="url(#path-4-inside-1_104_1706)"/>
<g filter="url(#filter0_i_104_1706)">
<path d="M46.827 179.054C43.4446 179.072 40.911 177.999 39.2262 175.833C37.5414 173.668 36.7042 170.819 36.7146 167.285L36.7807 144.771L43.4405 144.464L43.372 167.793C43.3686 168.971 43.426 169.967 43.5444 170.782C43.693 171.597 44.0383 172.29 44.5802 172.86C45.1221 173.431 45.9518 173.714 47.0692 173.708C48.1261 173.702 48.8971 173.411 49.382 172.835C49.8971 172.228 50.2163 171.532 50.3394 170.746C50.4626 169.93 50.526 168.903 50.5296 167.665L50.5962 144.969L56.668 144.393L56.6033 166.409C56.5939 169.61 55.9512 172.513 54.6752 175.117C53.4294 177.721 50.8133 179.033 46.827 179.054ZM65.2973 153.362L71.6408 152.785L71.6335 155.276C72.633 154.274 73.5562 153.559 74.403 153.132C75.2801 152.675 76.2925 152.443 77.4401 152.436C79.0105 152.428 80.2474 152.859 81.1508 153.73C82.0844 154.601 82.7448 155.972 83.1319 157.842C83.5493 159.682 83.7534 162.157 83.7442 165.268C83.7317 169.526 83.2237 172.851 82.2201 175.242C81.2467 177.633 79.3708 178.836 76.5925 178.85C75.3241 178.857 74.3131 178.621 73.5595 178.142C72.806 177.663 72.1436 176.987 71.5723 176.114L71.5464 184.947L65.2007 186.25L65.2973 153.362ZM74.3417 174.015C75.3383 174.01 76.0799 173.417 76.5666 172.237C77.0834 171.056 77.3466 168.835 77.3562 165.574C77.3654 162.463 77.1151 160.26 76.6055 158.964C76.1262 157.668 75.3731 157.023 74.3463 157.028C73.2893 157.034 72.3816 157.628 71.6231 158.809L71.5844 171.992C72.1844 173.347 73.1035 174.022 74.3417 174.015ZM98.6353 178.733C96.1287 178.746 94.107 178.198 92.5701 177.089C91.0333 175.95 90.0414 174.37 89.5943 172.349L94.5367 170.691C94.6559 171.265 94.8808 171.777 95.2117 172.228C95.9034 173.221 96.9136 173.714 98.2424 173.707C98.9974 173.703 99.7227 173.533 100.418 173.197C101.114 172.861 101.463 172.346 101.465 171.651C101.467 170.715 100.82 169.994 99.5231 169.487L94.1842 167.341C92.7666 166.745 91.682 165.845 90.9306 164.641C90.1792 163.437 89.806 161.959 89.8111 160.207C89.8159 158.576 90.2126 157.17 91.0013 155.988C91.8201 154.806 92.8798 153.909 94.1801 153.298C95.5108 152.657 96.9311 152.333 98.4411 152.324C100.344 152.314 102.094 152.864 103.691 153.973C105.288 155.051 106.356 156.54 106.894 158.44L101.634 160.099C101.515 159.586 101.305 159.074 101.005 158.562C100.343 157.539 99.4993 157.03 98.4725 157.035C97.7175 157.039 97.0677 157.224 96.523 157.589C95.9785 157.924 95.7052 158.424 95.7033 159.089C95.701 159.874 96.4387 160.595 97.9166 161.251L102.441 163.084C104.039 163.831 105.29 164.775 106.193 165.918C107.095 167.061 107.544 168.599 107.538 170.531C107.533 172.283 107.106 173.78 106.256 175.023C105.407 176.235 104.302 177.162 102.941 177.804C101.581 178.415 100.145 178.725 98.6353 178.733ZM122.503 178.605C119.483 178.622 117.177 177.441 115.583 175.064C113.989 172.656 113.199 169.459 113.21 165.473C113.222 161.426 114.047 158.206 115.685 155.811C117.323 153.417 119.697 152.211 122.807 152.194C125.767 152.179 128.028 153.36 129.592 155.737C131.155 158.114 131.931 161.326 131.919 165.373C131.918 165.615 131.872 165.796 131.781 165.918C131.691 166.009 131.645 166.069 131.645 166.099L119.55 166.164C119.544 168.127 119.796 169.922 120.304 171.551C120.813 173.148 121.596 173.945 122.653 173.939C123.831 173.933 124.708 173.248 125.286 171.886C125.864 170.524 126.168 169.813 126.198 169.752L130.995 171.539C130.354 173.717 129.338 175.443 127.945 176.719C126.552 177.965 124.738 178.594 122.503 178.605ZM125.676 162.462C125.682 160.65 125.444 159.217 124.964 158.162C124.484 157.108 123.731 156.584 122.704 156.589C122.19 156.592 121.691 156.851 121.207 157.367C120.722 157.883 120.327 158.595 120.023 159.502C119.718 160.41 119.564 161.408 119.561 162.495L125.676 162.462ZM138.724 152.97L145.068 152.393L145.055 156.515C145.965 155.212 147.086 154.164 148.417 153.372C149.778 152.549 151.501 152.132 153.585 152.121L153.566 158.327C152.479 158.333 151.044 158.537 149.261 158.939C147.508 159.311 146.102 159.967 145.043 160.909L144.993 177.625L138.65 178.202L138.724 152.97ZM164.427 177.793L157.388 152.871L165 152.287L168.168 168.577L171.883 153.065L177.638 152.491L170.271 177.762L164.427 177.793Z" fill="white"/>
</g>
<path d="M65.7415 89.5778C66.1215 89.4442 66.5522 89.4443 66.9389 89.5779C67.3255 89.7115 67.6365 89.9677 67.8033 90.2902C68.2227 91.1009 67.5028 92.9826 67.5028 92.9826C67.5028 92.9826 65.3571 92.108 64.9378 91.2973C64.7709 90.9748 64.7619 90.6125 64.9126 90.29C65.0634 89.9675 65.3615 89.7113 65.7415 89.5778Z" fill="white"/>
<path d="M61.2339 84.6301C61.5878 84.4872 61.9846 84.4843 62.3369 84.6222C62.6891 84.7601 62.9681 85.0274 63.1124 85.3654C63.4751 86.2148 62.7572 88.1978 62.7572 88.1978C62.7572 88.1978 60.8061 87.2926 60.4434 86.4431C60.2992 86.1052 60.3014 85.7243 60.4496 85.3843C60.5979 85.0443 60.88 84.773 61.2339 84.6301Z" fill="white"/>
<defs>
<filter id="filter0_i_104_1706" x="36.6585" y="143.748" width="141.005" height="46.6538" filterUnits="userSpaceOnUse" color-interpolation-filters="sRGB">
<feFlood flood-opacity="0" result="BackgroundImageFix"/>
<feBlend mode="normal" in="SourceGraphic" in2="BackgroundImageFix" result="shape"/>
<feColorMatrix in="SourceAlpha" type="matrix" values="0 0 0 0 0 0 0 0 0 0 0 0 0 0 0 0 0 0 127 0" result="hardAlpha"/>
<feOffset dy="4"/>
<feGaussianBlur stdDeviation="2"/>
<feComposite in2="hardAlpha" operator="arithmetic" k2="-1" k3="1"/>
<feColorMatrix type="matrix" values="0 0 0 0 1 0 0 0 0 1 0 0 0 0 1 0 0 0 0.25 0"/>
<feBlend mode="normal" in2="shape" result="effect1_innerShadow_104_1706"/>
</filter>
</defs>
</svg>
