<svg width="63" height="64" viewBox="0 0 63 64" fill="none" xmlns="http://www.w3.org/2000/svg">
<path d="M42 0C33.9482 0 27.5625 5.50655 27.5625 16V17.6667C25.5415 16.6457 23.2737 16 21 16C13.298 16 6.5625 21.5065 6.5625 32V37.3333C6.5625 42.6667 14.4375 42.6667 14.4375 37.3333V32C14.4375 26.8482 18.0233 24 21 24C23.9767 24 27.5625 27.0259 27.5625 32V45.3333C29.5097 43.3553 33.5972 43.4638 35.4375 45.3333V32V16C35.4375 10.8482 39.1982 8 42 8C45.1515 8 48.5625 11.0259 48.5625 16V26.6667C48.5625 32 56.4375 32 56.4375 26.6667V16C56.4375 5.87408 49.8769 0 42 0ZM10.5 50.6667C7.69704 50.6667 2.6655 56 0 56V64C2.82022 64 8.00848 58.6667 10.5 58.6667C13.1472 58.6667 18.197 64 21 64C23.4964 64 28.8345 58.6667 31.5 58.6667C34.1472 58.6667 39.4891 64 42 64C44.6472 64 50.0085 58.6667 52.5 58.6667C54.9915 58.6667 60.3528 64 63 64V56C60.8199 56 55.303 50.5085 52.5 50.6667C49.9891 50.6667 44.8073 56 42 56C39.6642 56 34.1472 50.6667 31.5 50.6667C28.8528 50.6667 23.341 56 21 56C18.5036 56 13.303 50.6667 10.5 50.6667Z" fill="white"/>
</svg>
