<svg width="19" height="19" viewBox="0 0 19 19" fill="none" xmlns="http://www.w3.org/2000/svg">
<path d="M18.6054 0H0.394602C0.176698 0 0 0.169479 0 0.378479V15.7104C0 17.5243 1.53859 19 3.42973 19C4.74509 19 5.8897 18.2859 6.46487 17.2408C7.04004 18.2859 8.18465 19 9.5 19C10.8154 19 11.96 18.2859 12.5351 17.2409C13.1103 18.2859 14.2549 19 15.5703 19C17.4614 19 19 17.5243 19 15.7104V0.378479C19 0.169479 18.8233 0 18.6054 0ZM6.07027 15.7104C6.07027 17.1069 4.88573 18.243 3.42973 18.243C1.97374 18.243 0.789203 17.1069 0.789203 15.7104V12.7183C1.41881 13.4464 2.36873 13.9109 3.42973 13.9109C4.49074 13.9109 5.44066 13.4464 6.07027 12.7183V15.7104ZM6.07027 10.5997V10.6213C6.07027 12.0178 4.88573 13.1539 3.42973 13.1539C1.97374 13.1539 0.789203 12.0178 0.789203 10.6213V10.5997V7.58612C1.41881 8.31421 2.36873 8.77874 3.42973 8.77874C4.49074 8.77874 5.44066 8.31424 6.07027 7.58612V10.5997ZM6.07027 5.48911C6.07027 6.88561 4.88573 8.02175 3.42973 8.02175C1.97374 8.02175 0.789203 6.88561 0.789203 5.48911V0.756957H6.07027V5.48911ZM12.1405 15.7104C12.1405 17.1069 10.956 18.243 9.5 18.243C8.04401 18.243 6.85947 17.1069 6.85947 15.7104V12.7183C7.48907 13.4464 8.439 13.9109 9.5 13.9109C10.561 13.9109 11.5109 13.4464 12.1405 12.7183V15.7104ZM12.1405 10.5998V10.6213C12.1405 12.0178 10.956 13.1539 9.5 13.1539C8.04401 13.1539 6.85947 12.0178 6.85947 10.6213V10.5998V7.58616C7.48907 8.31421 8.439 8.77878 9.5 8.77878C10.561 8.77878 11.5109 8.31428 12.1405 7.58616V10.5998ZM12.1405 5.48911C12.1405 6.88561 10.956 8.02175 9.5 8.02175C8.04401 8.02175 6.85947 6.88561 6.85947 5.48911V0.756957H12.1405V5.48911ZM18.2108 15.7104C18.2108 17.1069 17.0263 18.243 15.5703 18.243C14.1143 18.243 12.9297 17.1069 12.9297 15.7104V12.7183C13.5593 13.4464 14.5093 13.9109 15.5703 13.9109C16.6313 13.9109 17.5812 13.4464 18.2108 12.7183V15.7104ZM18.2108 10.5998V10.6213C18.2108 12.0178 17.0263 13.1539 15.5703 13.1539C14.1143 13.1539 12.9297 12.0178 12.9297 10.6213V10.5998V7.58616C13.5593 8.31421 14.5093 8.77878 15.5703 8.77878C16.6313 8.77878 17.5812 8.31428 18.2108 7.58616V10.5998ZM18.2108 5.48911C18.2108 6.88561 17.0263 8.02175 15.5703 8.02175C14.1143 8.02175 12.9297 6.88561 12.9297 5.48911V0.756957H18.2108V5.48911Z" fill="white"/>
<path d="M17.471 1.17517C17.2531 1.17517 17.0764 1.34465 17.0764 1.55365V3.29467C17.0764 3.50367 17.2531 3.67315 17.471 3.67315C17.6889 3.67315 17.8656 3.50367 17.8656 3.29467V1.55365C17.8656 1.34465 17.6889 1.17517 17.471 1.17517Z" fill="white"/>
<path d="M17.471 4.05164C17.2531 4.05164 17.0764 4.22111 17.0764 4.43011V4.80859C17.0764 5.01759 17.2531 5.18707 17.471 5.18707C17.6889 5.18707 17.8656 5.01759 17.8656 4.80859V4.43011C17.8656 4.22115 17.6889 4.05164 17.471 4.05164Z" fill="white"/>
</svg>
