<svg width="17" height="18" viewBox="0 0 17 18" fill="none" xmlns="http://www.w3.org/2000/svg">
<path d="M16.5617 7.0982L5.54144 0.749499C5.35359 0.685371 5.16575 0.621242 4.9779 0.685371C4.79005 0.749499 4.66482 0.877756 4.60221 1.07014L4.41436 1.58317L2.16022 0.108216C1.90976 -0.0841683 1.53407 -0.0200401 1.34622 0.300601C1.15838 0.557114 1.22099 0.941884 1.53407 1.13427L4.03867 2.8016L2.4733 7.22645L0.0939227 11.2024C-0.0313075 11.3948 -0.0313075 11.7154 0.0939227 11.9078C0.219153 12.1002 0.406998 12.1643 0.594843 12.1643C0.657458 12.1643 0.720074 12.1643 0.782689 12.1643L6.73112 10.5611L10.0497 12.6132L10.175 13.1263C9.73665 13.3186 9.36096 13.7034 9.1105 14.0882C8.42173 15.3066 8.79742 16.9098 9.98711 17.6152C10.3628 17.8717 10.8011 18 11.302 18C11.4899 18 11.6777 18 11.9282 17.9359C12.5543 17.7435 13.1179 17.3587 13.4936 16.7816C14.1823 15.5631 13.8066 13.9599 12.6169 13.2545C12.2413 12.998 11.8656 12.9339 11.4273 12.8697L11.3646 12.485L16.7495 8.2525C16.9374 8.12425 17 7.93186 17 7.67535C16.8748 7.41884 16.7495 7.22645 16.5617 7.0982ZM1.97238 10.497L3.22468 8.38076L5.22836 9.5992L1.97238 10.497ZM11.8656 14.2806C12.4291 14.6653 12.6796 15.4349 12.3039 16.0762C12.116 16.3968 11.8656 16.5892 11.5525 16.6533C11.2394 16.7174 10.9263 16.6533 10.6133 16.525C10.0497 16.1403 9.79926 15.3707 10.175 14.7295C10.2376 14.6012 10.3002 14.5371 10.4254 14.4729L10.6759 15.5631C10.7385 15.8838 10.9889 16.0762 11.302 16.0762C11.3646 16.0762 11.3646 16.0762 11.4273 16.0762C11.7403 16.012 11.9908 15.6914 11.9282 15.3066L11.6777 14.2164C11.7403 14.2164 11.8029 14.2164 11.8656 14.2806Z" fill="white"/>
</svg>
