<svg width="49" height="49" viewBox="0 0 49 49" fill="none" xmlns="http://www.w3.org/2000/svg">
<path d="M24.4232 33.0789L27.1881 30.6057L24.4232 27.8233L41.9342 10.2019L45.6207 8.9653L49 2.16404L46.8495 0L39.7837 3.09148L38.2477 6.80126L21.0439 24.4227L18.279 21.6404L15.8213 24.4227C15.8213 24.4227 18.279 26.2776 15.5141 29.0599C13.9781 30.6057 11.5204 28.7508 6.91223 33.388C5.37618 34.9338 0.460815 39.8801 0.460815 39.8801C0.460815 39.8801 -1.38245 42.9716 2.30408 46.6814C5.9906 50.3912 9.0627 48.5363 9.0627 48.5363C9.0627 48.5363 13.9781 43.5899 15.5141 42.0442C19.815 37.7161 18.279 34.9338 19.5078 33.6972C22.2727 30.9148 24.4232 33.0789 24.4232 33.0789ZM14.8997 31.8423L17.0502 34.0063L5.37618 45.7539L3.22571 43.5899L14.8997 31.8423Z" fill="#5791C7"/>
</svg>
