<svg width="44" height="65" viewBox="0 0 44 65" fill="none" xmlns="http://www.w3.org/2000/svg">
<path d="M35.9431 15.4243V1.71819C35.9431 0.769337 35.0785 0 34.012 0H30.9227C29.8562 0 28.9907 0.769337 28.9907 1.71819V15.4243H15.009V1.71819C15.0091 0.769337 14.1446 0 13.0771 0H9.98886C8.92136 0 8.05683 0.769337 8.05683 1.71819V15.4243H6.10352e-05V21.2593H44V15.4243H35.9431Z" fill="white"/>
<path d="M0 31.1425C0 38.1671 4.7056 44.2116 11.4649 46.9337V50.7041C11.4649 52.5146 13.1172 53.983 15.154 53.983H28.8459C30.8838 53.983 32.535 52.5146 32.535 50.7041V46.9337C39.2953 44.2117 43.9999 38.1671 43.9999 31.1425V23.9101H0V31.1425Z" fill="white"/>
<path d="M26.1833 56.4137H17.8167V65H26.1833V56.4137Z" fill="white"/>
</svg>
