<svg width="27" height="25" viewBox="0 0 27 25" fill="none" xmlns="http://www.w3.org/2000/svg">
<path d="M25.9138 14.133C24.6321 14.133 23.9349 14.4604 23.3747 14.7233C22.9035 14.9445 22.563 15.1044 21.7757 15.1044C20.9883 15.1044 20.6478 14.9445 20.1765 14.7233C19.6718 14.4864 19.0544 14.1981 18 14.1431V4.33725C18 1.94567 16.0107 0 13.5656 0V2.12482C14.8129 2.12482 15.8276 3.11736 15.8276 4.33725V6.36227H11.1679V4.33725C11.1679 1.94567 9.17867 0 6.73354 0V2.12482C7.98081 2.12482 8.99551 3.11736 8.99551 4.33725V14.1433C7.94344 14.1987 7.32691 14.4867 6.82279 14.7233C6.35163 14.9445 6.01124 15.1044 5.22396 15.1044C4.43668 15.1044 4.09629 14.9445 3.62513 14.7234C3.06496 14.4603 2.3678 14.133 1.0862 14.133H0V17.7756V20.5682V25H27V20.5682V17.7756V14.133H25.9138ZM11.1679 12.4534H15.8276V14.4151C15.5479 14.5127 15.313 14.6227 15.0986 14.7233C14.6273 14.9445 14.2869 15.1044 13.4995 15.1044C12.7123 15.1044 12.3718 14.9445 11.9006 14.7234C11.6853 14.6223 11.4492 14.5118 11.1679 14.4139V12.4534ZM15.8276 8.48709V10.3286H11.1679V8.48709H15.8276Z" fill="white"/>
</svg>
