<svg width="45" height="43" viewBox="0 0 45 43" fill="none" xmlns="http://www.w3.org/2000/svg">
<path d="M30 18.9V20.7C30 24.1794 27.5258 27 24.4737 27H23.6842V27.9H27.6316V34.2C27.6316 35.1945 26.925 36 26.0526 36H19.7368C18.8645 36 18.1579 35.1945 18.1579 34.2V27.9H22.1053V25.2C22.1053 21.7206 24.5795 18.9 27.6316 18.9H30ZM17.7632 18C19.7597 18 21.525 19.1259 22.5979 20.8521C21.7926 22.059 21.3158 23.5665 21.3158 25.2V26.1H20.9211C17.6511 26.1 15 23.0778 15 19.35V18H17.7632Z" fill="white"/>
<path d="M37.55 16.0625V41H7.44995V16.0625" stroke="white" stroke-width="3.24" stroke-miterlimit="10"/>
<path d="M44 19.625L22.5 3L1 19.625" stroke="white" stroke-width="3.24" stroke-miterlimit="10"/>
</svg>
