<svg width="38" height="37" viewBox="0 0 38 37" fill="none" xmlns="http://www.w3.org/2000/svg">
<path d="M38 18.5C38 28.7173 29.4934 37 19 37C8.50659 37 0 28.7173 0 18.5C0 8.28273 8.50659 0 19 0C29.4934 0 38 8.28273 38 18.5Z" fill="#1174CF"/>
<path d="M27.6429 16.4643H21.5357V10.3571C21.5357 9.60775 20.928 9 20.1786 9H18.8214C18.072 9 17.4643 9.60775 17.4643 10.3571V16.4643H11.3571C10.6077 16.4643 10 17.072 10 17.8214V19.1786C10 19.928 10.6077 20.5357 11.3571 20.5357H17.4643V26.6429C17.4643 27.3923 18.072 28 18.8214 28H20.1786C20.928 28 21.5357 27.3923 21.5357 26.6429V20.5357H27.6429C28.3923 20.5357 29 19.928 29 19.1786V17.8214C29 17.072 28.3923 16.4643 27.6429 16.4643Z" fill="white"/>
</svg>
