<svg width="145" height="108" viewBox="0 0 145 108" fill="none" xmlns="http://www.w3.org/2000/svg">
<path d="M73 0C54.2235 0 39 13.7683 39 30.75C39 37.4368 41.4239 43.5728 45.4529 48.5978C45.5252 48.7183 45.5365 48.8528 45.6187 48.9681L68.2853 79.7181C69.3365 81.1441 71.1073 82 73 82C74.8927 82 76.6635 81.1441 77.7147 79.7181L100.381 48.9681C100.465 48.8528 100.475 48.7183 100.547 48.5978C104.576 43.5728 107 37.4368 107 30.75C107 13.7683 91.7765 0 73 0ZM73 41C66.7412 41 61.6667 36.4106 61.6667 30.75C61.6667 25.0894 66.7412 20.5 73 20.5C79.2588 20.5 84.3333 25.0894 84.3333 30.75C84.3333 36.4106 79.2588 41 73 41Z" fill="black"/>
<path d="M145 97.5C145 103.299 112.541 108 72.5 108C32.4594 108 0 103.299 0 97.5C0 91.701 32.4594 87 72.5 87C112.541 87 145 91.701 145 97.5Z" fill="black"/>
</svg>
