<svg width="74" height="57" viewBox="0 0 74 57" fill="none" xmlns="http://www.w3.org/2000/svg">
<path d="M65.2955 0H8.37122C7.48315 0 6.63145 0.33363 6.00348 0.927495C5.37552 1.52136 5.02274 2.32681 5.02274 3.16667V41.1667C5.02274 42.0065 5.37552 42.812 6.00348 43.4058C6.63145 43.9997 7.48315 44.3333 8.37122 44.3333H65.2955C66.1835 44.3333 67.0352 43.9997 67.6632 43.4058C68.2912 42.812 68.6439 42.0065 68.6439 41.1667V3.16667C68.6439 2.32681 68.2912 1.52136 67.6632 0.927495C67.0352 0.33363 66.1835 0 65.2955 0ZM50.0599 24.225L46.3765 25.0167C46.2261 25.5694 46.001 26.1016 45.7068 26.6L47.7159 29.6083C46.8855 30.7099 45.8671 31.673 44.7023 32.4583L41.5212 30.5583L39.847 31.1917L39.0099 34.675H34.6568L33.8197 31.1917L32.1455 30.5583L28.9644 32.4583C27.7996 31.673 26.7812 30.7099 25.9508 29.6083L27.9599 26.6C27.6657 26.1016 27.4406 25.5694 27.2902 25.0167L23.6068 24.225C23.468 23.5472 23.4118 22.8566 23.4394 22.1667C23.4118 21.4768 23.468 20.7861 23.6068 20.1083L27.2902 19.3167C27.4406 18.7639 27.6657 18.2317 27.9599 17.7333L25.9508 14.725C26.7812 13.6235 27.7996 12.6603 28.9644 11.875L32.1455 13.775L33.8197 13.1417L34.6568 9.65833H39.0099L39.847 13.1417L41.5212 13.775L44.7023 11.875C45.8671 12.6603 46.8855 13.6235 47.7159 14.725L45.7068 17.7333C46.001 18.2317 46.2261 18.7639 46.3765 19.3167L50.0599 20.1083C50.1987 20.7861 50.2549 21.4768 50.2273 22.1667C50.2549 22.8566 50.1987 23.5472 50.0599 24.225ZM36.8333 19C36.1711 19 35.5237 19.1857 34.973 19.5337C34.4224 19.8816 33.9932 20.3762 33.7397 20.9548C33.4863 21.5335 33.42 22.1702 33.5492 22.7845C33.6784 23.3987 33.9973 23.963 34.4656 24.4058C34.9339 24.8487 35.5305 25.1503 36.1801 25.2725C36.8296 25.3947 37.5029 25.332 38.1147 25.0923C38.7266 24.8526 39.2496 24.4467 39.6175 23.926C39.9854 23.4052 40.1818 22.793 40.1818 22.1667C40.1818 21.3268 39.829 20.5214 39.2011 19.9275C38.5731 19.3336 37.7214 19 36.8333 19Z" fill="white"/>
<path d="M70.3182 50.6666H3.34848C2.46041 50.6666 1.60871 51.0003 0.980748 51.5941C0.352786 52.188 0 52.9934 0 53.8333C0 54.6731 0.352786 55.4786 0.980748 56.0725C1.60871 56.6663 2.46041 57 3.34848 57H70.3182C71.2062 57 72.0579 56.6663 72.6859 56.0725C73.3139 55.4786 73.6667 54.6731 73.6667 53.8333C73.6667 52.9934 73.3139 52.188 72.6859 51.5941C72.0579 51.0003 71.2062 50.6666 70.3182 50.6666Z" fill="white"/>
</svg>
