<svg width="99" height="98" viewBox="0 0 99 98" fill="none" xmlns="http://www.w3.org/2000/svg">
<path d="M99 18C99 8.082 90.918 0 81 0C71.082 0 63 8.082 63 18C63 23.22 65.25 27.918 68.814 31.212C68.814 31.23 68.814 31.23 68.796 31.248C68.976 31.428 69.192 31.572 69.372 31.734C69.48 31.824 69.57 31.914 69.678 31.986C70.002 32.256 70.362 32.508 70.704 32.76C70.83 32.85 70.938 32.922 71.064 33.012C71.406 33.246 71.766 33.462 72.144 33.66C72.27 33.732 72.414 33.822 72.54 33.894C72.9 34.092 73.278 34.272 73.674 34.434C73.818 34.506 73.962 34.578 74.106 34.632C74.502 34.794 74.898 34.938 75.294 35.064C75.438 35.118 75.582 35.172 75.726 35.208C76.158 35.334 76.59 35.442 77.022 35.55C77.148 35.586 77.274 35.622 77.418 35.64C77.922 35.748 78.426 35.82 78.948 35.874C79.02 35.874 79.092 35.892 79.164 35.91C79.776 35.964 80.388 36 81 36C81.612 36 82.224 35.964 82.818 35.91C82.89 35.91 82.962 35.892 83.034 35.874C83.556 35.82 84.06 35.748 84.564 35.64C84.69 35.622 84.816 35.568 84.96 35.55C85.392 35.442 85.842 35.352 86.256 35.208C86.4 35.154 86.544 35.1 86.688 35.064C87.084 34.92 87.498 34.794 87.876 34.632C88.02 34.578 88.164 34.506 88.308 34.434C88.686 34.272 89.064 34.092 89.442 33.894C89.586 33.822 89.712 33.732 89.838 33.66C90.198 33.444 90.558 33.246 90.918 33.012C91.044 32.94 91.152 32.85 91.278 32.76C91.638 32.508 91.98 32.256 92.304 31.986C92.412 31.896 92.502 31.806 92.61 31.734C92.808 31.572 93.006 31.41 93.186 31.248C93.186 31.23 93.186 31.23 93.168 31.212C96.75 27.918 99 23.22 99 18ZM89.892 26.946C85.014 23.67 77.022 23.67 72.108 26.946C71.316 27.468 70.668 28.08 70.128 28.746C67.392 25.974 65.7 22.176 65.7 18C65.7 9.558 72.558 2.7 81 2.7C89.442 2.7 96.3 9.558 96.3 18C96.3 22.176 94.608 25.974 91.872 28.746C91.35 28.08 90.684 27.468 89.892 26.946Z" fill="#057A2C"/>
<path d="M81.5294 8.75676C77.7303 8.75676 74.647 11.8121 74.647 15.5767C74.647 19.2685 77.5652 22.2693 81.4376 22.3784C81.4927 22.3784 81.5661 22.3784 81.6028 22.3784C81.6395 22.3784 81.6946 22.3784 81.7313 22.3784C81.7496 22.3784 81.768 22.3784 81.768 22.3784C85.4753 22.2511 88.3934 19.2685 88.4117 15.5767C88.4117 11.8121 85.3285 8.75676 81.5294 8.75676Z" fill="#057A2C"/>
<path d="M56 25H8C5.87827 25 3.84339 25.7211 2.3431 27.0045C0.842808 28.288 0 30.0287 0 31.8438V98H64V31.8438C64 30.0287 63.1572 28.288 61.6569 27.0045C60.1566 25.7211 58.1217 25 56 25ZM26.6667 93.4375V79.75H37.3333V93.4375H26.6667ZM58.6667 93.4375H42.6667V77.4688C42.6667 76.8637 42.3857 76.2835 41.8856 75.8557C41.3855 75.4279 40.7072 75.1875 40 75.1875H24C23.2928 75.1875 22.6145 75.4279 22.1144 75.8557C21.6143 76.2835 21.3333 76.8637 21.3333 77.4688V93.4375H5.33333V31.8438C5.33333 31.2387 5.61432 30.6585 6.11442 30.2307C6.61452 29.8029 7.29276 29.5625 8 29.5625H56C56.7072 29.5625 57.3855 29.8029 57.8856 30.2307C58.3857 30.6585 58.6667 31.2387 58.6667 31.8438V93.4375ZM16 38.6875H26.6667V47.8125H16V38.6875ZM37.3333 38.6875H48V47.8125H37.3333V38.6875ZM16 56.9375H26.6667V66.0625H16V56.9375ZM37.3333 56.9375H48V66.0625H37.3333V56.9375Z" fill="#057A2C"/>
</svg>
