<svg width="58" height="70" viewBox="0 0 58 70" fill="none" xmlns="http://www.w3.org/2000/svg">
<path d="M56.3889 18.9583H48.3333V2.79854C48.3333 1.25271 46.8914 0 45.1111 0C43.3308 0 41.8889 1.25271 41.8889 2.79854V18.9583H16.1111V2.79854C16.1111 1.25271 14.6692 0 12.8873 0C11.107 0 9.66667 1.25271 9.66667 2.79854V18.9583H1.61111C0.720167 18.9583 0 20.2256 0 20.9985V28C0 36.3985 16.1111 46.1504 16.1111 59.64V64.1667H22.5556V70H35.4444V64.1667H41.8889V59.64C41.8889 46.1504 58 36.3971 58 28V20.9985C58 20.2256 57.2798 18.9583 56.3889 18.9583ZM27.2391 42.8575C27.3438 42.5513 27.1311 42.2917 26.7622 42.2917H20.503C20.1324 42.2917 20.0277 42.1021 20.2629 41.8556C20.2629 41.8556 33.1599 27.0404 33.4112 26.7546C33.6013 26.4833 33.8108 26.5781 33.7447 26.8902C33.6448 27.2854 30.8914 37.3931 30.8914 37.3931C30.7577 37.6906 30.9511 37.9167 31.3168 37.9167H37.5792C37.9481 37.9167 38.0657 38.1413 37.8402 38.395C37.8402 38.395 24.9239 53.5646 24.6919 53.8183C24.4583 54.0721 24.2424 53.9948 24.36 53.5631C24.4776 53.13 27.2391 42.8575 27.2391 42.8575Z" fill="white"/>
</svg>
