<svg width="44" height="67" viewBox="0 0 44 67" fill="none" xmlns="http://www.w3.org/2000/svg">
<path d="M3.66667 0C1.64714 0 0 1.80586 0 4.02V24.12H44V4.02C44 1.80586 42.3529 0 40.3333 0H3.66667ZM8.55556 8.04C9.22873 8.04 9.77778 8.64195 9.77778 9.38V18.76C9.77778 19.498 9.22873 20.1 8.55556 20.1C7.88238 20.1 7.33333 19.498 7.33333 18.76V9.38C7.33333 8.64195 7.88238 8.04 8.55556 8.04ZM0 26.8V58.96C0 61.1741 1.64714 62.98 3.66667 62.98V64.32C3.66667 65.7961 4.76476 67 6.11111 67H9.77778C11.1241 67 12.2222 65.7961 12.2222 64.32V62.98H31.7778V64.32C31.7778 65.7961 32.8759 67 34.2222 67H37.8889C39.2352 67 40.3333 65.7961 40.3333 64.32V62.98C42.3529 62.98 44 61.1741 44 58.96V26.8H0ZM8.55556 30.82C9.22873 30.82 9.77778 31.422 9.77778 32.16V41.54C9.77778 42.2833 9.22873 42.88 8.55556 42.88C7.88238 42.88 7.33333 42.2833 7.33333 41.54V32.16C7.33333 31.422 7.88238 30.82 8.55556 30.82Z" fill="white"/>
</svg>
