<svg width="68" height="64" viewBox="0 0 68 64" fill="none" xmlns="http://www.w3.org/2000/svg">
<path d="M49.4546 46.5455H18.5455V52.3637H49.4546V46.5455Z" fill="white"/>
<path d="M49.4546 34.9092H18.5455V40.7273H49.4546V34.9092Z" fill="white"/>
<path d="M66.4566 17.2155L35.5475 0.390844C34.5902 -0.130281 33.41 -0.130281 32.4525 0.390844L1.54341 17.2155C0.588492 17.7353 0 18.6952 0 19.7337V61.091C0 62.6975 1.38417 64 3.09095 64H12.3636V61.0909V58.1817V55.2726V43.6362V32C12.3636 30.3934 13.7478 29.0909 15.4546 29.0909H52.5455C54.2527 29.0909 55.6365 30.3934 55.6365 32V43.6364V55.2727V58.1819V61.091V64H64.9092C66.6164 64 68 62.6975 68 61.091V19.7337C68 18.6952 67.4118 17.7353 66.4566 17.2155Z" fill="white"/>
<path d="M18.5455 58.182V61.0911V64.0001H49.4546V61.0911V58.182H18.5455Z" fill="white"/>
</svg>
