<svg width="41" height="53" viewBox="0 0 41 53" fill="none" xmlns="http://www.w3.org/2000/svg">
<path d="M20.5 0C9.17887 0 0 8.89903 0 19.875C0 24.197 1.46148 28.1629 3.89073 31.4108C3.93429 31.4886 3.94112 31.5756 3.99067 31.6501L17.6573 51.5251C18.2911 52.4468 19.3588 53 20.5 53C21.6412 53 22.7089 52.4468 23.3427 51.5251L37.0093 31.6501C37.0597 31.5756 37.0657 31.4886 37.1093 31.4108C39.5385 28.1629 41 24.197 41 19.875C41 8.89903 31.8211 0 20.5 0ZM20.5 26.5C16.7263 26.5 13.6667 23.5337 13.6667 19.875C13.6667 16.2163 16.7263 13.25 20.5 13.25C24.2737 13.25 27.3333 16.2163 27.3333 19.875C27.3333 23.5337 24.2737 26.5 20.5 26.5Z" fill="#057A2C"/>
</svg>
