<svg width="74" height="75" viewBox="0 0 74 75" fill="none" xmlns="http://www.w3.org/2000/svg">
<path d="M37 57.9545C31.6474 57.9545 26.5141 55.7995 22.7293 51.9636C18.9445 48.1276 16.8182 42.9249 16.8182 37.5C16.8182 32.0751 18.9445 26.8724 22.7293 23.0365C26.5141 19.2005 31.6474 17.0455 37 17.0455C42.3526 17.0455 47.4859 19.2005 51.2707 23.0365C55.0555 26.8724 57.1818 32.0751 57.1818 37.5C57.1818 42.9249 55.0555 48.1276 51.2707 51.9636C47.4859 55.7995 42.3526 57.9545 37 57.9545ZM33.6364 0H40.3636V10.2273H33.6364V0ZM33.6364 64.7727H40.3636V75H33.6364V64.7727ZM8.45955 13.3943L13.2157 8.57386L20.35 15.8045L15.5938 20.625L8.45955 13.3943ZM53.65 59.1955L58.4062 54.375L65.5405 61.6057L60.7843 66.4261L53.65 59.1955ZM60.7843 8.57045L65.5405 13.3943L58.4062 20.625L53.65 15.8045L60.7843 8.57386V8.57045ZM15.5938 54.375L20.35 59.1955L13.2157 66.4261L8.45955 61.6057L15.5938 54.375ZM74 34.0909V40.9091H63.9091V34.0909H74ZM10.0909 34.0909V40.9091H0V34.0909H10.0909Z" fill="black"/>
<path d="M44 35.5621H36.5V25L29 40.4379H36.5V51L44 35.5621Z" fill="white"/>
</svg>
