<svg width="81" height="77" viewBox="0 0 81 77" fill="none" xmlns="http://www.w3.org/2000/svg">
<path d="M13.51 21.3228L20.9708 13.7364C22.0009 12.6891 23.671 12.6891 24.7012 13.7364C25.7315 14.7838 25.7315 16.482 24.7012 17.5295L17.2403 25.1158C16.7251 25.6396 16.0501 25.9015 15.3752 25.9015C14.7003 25.9015 14.0249 25.6396 13.5101 25.1158C12.4798 24.0685 12.4798 22.3701 13.51 21.3228Z" fill="white"/>
<path d="M2.31792 17.5299L17.2401 2.35692C18.7346 0.837276 20.7219 0 22.8359 0C24.9498 0 26.9368 0.836954 28.4315 2.35692C29.779 3.72713 77.3939 52.1418 78.6858 53.4556C81.7714 56.593 81.7714 61.6975 78.6858 64.835L67.4944 76.2144C66.9997 76.7174 66.3286 77 65.629 77L58.1674 76.9994C57.4677 76.9994 56.7967 76.7167 56.3024 76.2136C55.8078 75.7104 55.5299 75.0282 55.5299 74.3172L55.5303 69.4138L50.7072 69.4137C49.2505 69.4137 48.0695 68.213 48.0693 66.7317L48.0689 61.8266L43.2453 61.8264C42.5455 61.8264 41.8746 61.5438 41.3799 61.0406C40.8852 60.5374 40.6072 59.8552 40.6074 59.1439L40.608 54.2414H35.7854C35.0856 54.2414 34.4147 53.9589 33.9203 53.4557C33.4256 52.9527 33.1477 52.2703 33.1477 51.559L33.1478 46.6557L28.3255 46.656H28.3253C27.6256 46.656 26.9548 46.3735 26.4603 45.8705C25.9656 45.3675 25.6876 44.6852 25.6876 43.9741L25.6875 38.6061L19.8124 37.4666C18.4777 38.3865 16.9267 38.8483 15.3745 38.8483C13.3481 38.8483 11.3215 38.0638 9.77892 36.4954L2.31792 28.9091C0.823219 27.3895 -6.86646e-05 25.3688 -6.86646e-05 23.2195C-6.86646e-05 21.0699 0.82338 19.0494 2.31792 17.5299ZM6.04881 25.1156L13.5098 32.7019C14.5386 33.748 16.2116 33.7476 17.2404 32.7019L34.0276 15.6329L24.7014 6.15C24.2032 5.64345 23.5405 5.36436 22.8363 5.36436C22.1317 5.36436 21.4695 5.64345 20.9713 6.15L6.04929 21.3226C5.55111 21.829 5.27663 22.5025 5.27663 23.2189C5.27615 23.9355 5.55064 24.609 6.04881 25.1156Z" fill="white"/>
</svg>
