<svg width="84" height="84" viewBox="0 0 84 84" fill="none" xmlns="http://www.w3.org/2000/svg">
<path d="M83.5151 42.1065C83.5151 19.0624 64.851 0.284058 41.947 0.284058C19.0429 0.284058 0.378784 19.0624 0.378784 42.1065C0.378784 54.2351 5.57481 65.1507 13.8053 72.8043C13.8053 72.8461 13.8053 72.8461 13.7637 72.8879C14.1794 73.3061 14.6782 73.6407 15.0939 74.0171C15.3433 74.2262 15.5512 74.4353 15.8006 74.6026C16.5488 75.23 17.3802 75.8155 18.17 76.401C18.4609 76.6101 18.7104 76.7774 19.0013 76.9865C19.7911 77.5302 20.6225 78.0321 21.4954 78.4921C21.7864 78.6594 22.1189 78.8685 22.4099 79.0358C23.2413 79.4958 24.1142 79.9141 25.0287 80.2905C25.3613 80.4578 25.6938 80.6251 26.0264 80.7505C26.9409 81.1269 27.8554 81.4615 28.7698 81.7543C29.1024 81.8797 29.4349 82.0052 29.7675 82.0888C30.7651 82.3816 31.7628 82.6325 32.7604 82.8835C33.0514 82.9671 33.3424 83.0508 33.6749 83.0926C34.8388 83.3435 36.0027 83.5108 37.2082 83.6363C37.3745 83.6363 37.5407 83.6781 37.707 83.7199C39.1203 83.8454 40.5336 83.929 41.947 83.929C43.3603 83.929 44.7736 83.8454 46.1454 83.7199C46.3116 83.7199 46.4779 83.6781 46.6442 83.6363C47.8496 83.5108 49.0136 83.3435 50.1775 83.0926C50.4684 83.0508 50.7594 82.9253 51.092 82.8835C52.0896 82.6325 53.1288 82.4234 54.0849 82.0888C54.4174 81.9634 54.75 81.8379 55.0825 81.7543C55.997 81.4197 56.9531 81.1269 57.826 80.7505C58.1586 80.6251 58.4911 80.4578 58.8236 80.2905C59.6966 79.9141 60.5695 79.4958 61.4424 79.0358C61.775 78.8685 62.066 78.6594 62.3569 78.4921C63.1883 77.9902 64.0197 77.5302 64.851 76.9865C65.142 76.8192 65.3914 76.6101 65.6824 76.401C66.5138 75.8155 67.3036 75.23 68.0518 74.6026C68.3012 74.3935 68.509 74.1844 68.7584 74.0171C69.2157 73.6407 69.6729 73.2643 70.0886 72.8879C70.0886 72.8461 70.0886 72.8461 70.0471 72.8043C78.3191 65.1507 83.5151 54.2351 83.5151 42.1065ZM62.4816 62.8923C51.2167 55.2806 32.7604 55.2806 21.4123 62.8923C19.5833 64.1052 18.0868 65.5271 16.8398 67.0746C10.5214 60.6339 6.61401 51.8094 6.61401 42.1065C6.61401 22.4918 22.4515 6.55743 41.947 6.55743C61.4424 6.55743 77.2799 22.4918 77.2799 42.1065C77.2799 51.8094 73.3725 60.6339 67.0541 67.0746C65.8487 65.5271 64.3106 64.1052 62.4816 62.8923Z" fill="#057A2C"/>
<path d="M43.1696 20.6301C34.3963 20.6301 27.2759 27.7291 27.2759 36.476C27.2759 45.0539 34.0148 52.0261 42.9577 52.2796C43.0848 52.2796 43.2544 52.2796 43.3391 52.2796C43.4239 52.2796 43.551 52.2796 43.6358 52.2796C43.6782 52.2796 43.7206 52.2796 43.7206 52.2796C52.282 51.9838 59.0209 45.0539 59.0633 36.476C59.0633 27.7291 51.9429 20.6301 43.1696 20.6301Z" fill="#057A2C"/>
</svg>
