<svg width="68" height="63" viewBox="0 0 68 63" fill="none" xmlns="http://www.w3.org/2000/svg">
<path fill-rule="evenodd" clip-rule="evenodd" d="M26.7288 56.4261L30.3638 61.0728C32.3741 63.6424 35.6286 63.6424 37.6338 61.0728L41.2689 56.4261C37.2534 51.2933 30.7443 51.2933 26.7288 56.4261ZM12.1887 37.8397L19.4588 47.1329C27.4743 36.8804 40.5234 36.8804 48.5441 47.1329L55.8141 37.8397C43.7677 22.4346 24.2352 22.4346 12.1887 37.8397ZM66.4929 24.1829L63.0842 28.5404C47.0222 8.00906 20.9806 8.00906 4.91355 28.5404L1.5048 24.1829C-0.67518 21.3964 -0.454154 16.7836 1.95719 14.3191C20.6516 -4.77304 47.3513 -4.77304 66.0456 14.3191C68.457 16.7836 68.6729 21.3964 66.4929 24.1829Z" fill="white"/>
</svg>
