<svg width="92" height="92" viewBox="0 0 92 92" fill="none" xmlns="http://www.w3.org/2000/svg">
<path d="M4.5634 54.0094L4.28298 54.7222L4.9428 54.9804L5.23646 54.3015L4.5634 54.0094ZM4.5634 54.0094C5.23646 54.3015 5.23651 54.3014 5.23656 54.3013L5.23668 54.301L5.23701 54.3002L5.23795 54.298L5.241 54.2909L5.25153 54.2661C5.26044 54.245 5.27303 54.2148 5.28866 54.1766C5.31991 54.1003 5.36345 53.9915 5.41413 53.8583C5.51506 53.5929 5.64633 53.2252 5.7652 52.8204C5.88304 52.4191 5.99461 51.9614 6.0479 51.5209C6.09852 51.1023 6.11053 50.5959 5.94049 50.1607C5.69358 49.5288 5.17718 49.0784 4.54855 48.8783C3.92442 48.6797 3.22959 48.7373 2.61022 49.0106C1.99086 49.2838 1.462 49.7662 1.15379 50.3761C0.843366 50.9904 0.779052 51.6971 1.02597 52.329C1.19601 52.7642 1.54199 53.1126 1.85676 53.37C2.18802 53.6409 2.5718 53.88 2.9225 54.0746C3.27625 54.2709 3.614 54.4317 3.86212 54.543C3.9867 54.5989 4.08994 54.6429 4.16288 54.6733C4.19937 54.6885 4.22836 54.7003 4.24873 54.7085L4.27271 54.7181L4.27961 54.7209L4.28174 54.7217L4.28247 54.722L4.28275 54.7221C4.28287 54.7221 4.28298 54.7222 4.5634 54.0094Z" stroke="#057A2C" stroke-width="1.5"/>
<path d="M9.29056 59.6509L8.9452 60.2863L9.72368 60.7001L10.014 59.9314L9.29056 59.6509ZM9.29056 59.6509C8.9452 60.2863 8.94509 60.2862 8.94497 60.2861L8.94469 60.286L8.94396 60.2856L8.94181 60.2844L8.93485 60.2807L8.91059 60.2676C8.88997 60.2564 8.8606 60.2403 8.8236 60.2197C8.74966 60.1786 8.64493 60.1194 8.5184 60.045C8.26626 59.8967 7.92308 59.6858 7.56241 59.4365C7.20421 59.1889 6.8141 58.8934 6.47574 58.5749C6.14968 58.2679 5.8112 57.8842 5.634 57.4549C5.37593 56.8298 5.38266 56.1455 5.65331 55.5524C5.92401 54.9592 6.43659 54.506 7.07862 54.2928C7.72066 54.0797 8.43882 54.1244 9.07497 54.4165C9.71104 54.7086 10.213 55.224 10.4711 55.8491C10.6483 56.2784 10.6701 56.7673 10.6455 57.1906C10.62 57.6299 10.5385 58.082 10.4464 58.4791C10.3537 58.8789 10.2464 59.2394 10.1627 59.4991C10.1207 59.6294 10.0843 59.7356 10.058 59.81C10.0449 59.8472 10.0343 59.8765 10.0267 59.8971L10.0178 59.9212L10.0153 59.9281L10.0145 59.9302L10.0142 59.9309L10.0141 59.9312C10.0141 59.9313 10.014 59.9314 9.29056 59.6509Z" stroke="#057A2C" stroke-width="1.5"/>
<path fill-rule="evenodd" clip-rule="evenodd" d="M18.0142 4.17538C5.4101 5.53663 0.367739 25.6194 7.51313 45.9993C10.3663 54.1375 15.7807 62.2452 21.5746 67.0558C23.0906 68.3143 23.3118 68.3144 22.5371 67.0558C21.9845 66.1583 21.6636 65.4719 21.4212 64.6689C21.3151 64.317 20.9302 63.1232 20.566 62.0163C16.2096 48.7719 18.7304 38.8186 26.8066 37.3749C28.0074 37.1601 28.2059 37.6164 27.5457 39.0743C23.7526 47.4491 22.1658 54.758 22.9016 60.4647C23.1065 62.0549 23.1627 62.0069 23.2368 60.1784C23.5335 52.8343 26.9499 44.2812 32.3689 37.3166C37.7772 30.3658 42.3928 26.5925 48.7062 23.961C57.9046 20.1268 66.9658 24.6272 67.7301 33.4095C67.7804 33.9872 67.8331 34.6039 67.8473 34.7799C67.8985 35.4122 67.6158 38.2337 67.3758 39.4882C66.492 44.1056 64.4131 49.2721 60.885 55.619C59.3589 58.3642 59.3429 58.3985 59.4612 58.6339C59.556 58.822 59.844 58.9448 62.0776 59.7499C68.6326 62.1126 73.1949 65.516 74.2057 68.7968C76.2173 75.3264 72.5794 80.4898 64.2272 82.96C58.3512 84.6979 49.4219 84.644 44.0532 82.8384C42.3566 82.2678 42.4198 82.623 44.2286 83.8245C46.5277 85.3517 51.089 87.1544 54.2996 87.805C54.8063 87.9075 55.5942 88.0711 56.0505 88.1684C61.1927 89.2639 68.8856 89.0355 74.2981 87.6265C81.3254 85.7971 86.4216 81.8078 88.1683 76.7686C90.3764 70.3994 86.953 64.3605 78.3175 59.3916C77.5033 58.9228 76.7 58.4581 76.5324 58.3583C75.1675 57.5461 70.1218 55.6066 68.4722 55.2599C67.2536 55.004 67.2518 54.516 68.4609 52.5021C80.469 32.5045 80.4191 18.4147 68.3178 12.099C63.2141 9.43529 55.4696 11.4498 43.6677 18.5113C42.4422 19.2446 42.4254 19.236 40.2365 16.7793C32.879 8.52179 24.064 3.5222 18.0142 4.17538ZM25.8826 16.628C29.3144 17.362 32.9693 19.745 35.8531 23.1287C37.1591 24.6611 37.184 24.8938 36.166 26.0412C35.1193 27.2206 33.9992 28.6093 33.0767 29.8711C31.6437 31.8316 31.6197 31.8406 30.3287 30.9268C23.2748 25.9324 16.7493 30.0493 15.1913 40.4766C14.1832 47.225 15.5799 53.6341 19.9821 62.4596C21.3224 65.1466 21.3626 65.3456 20.3692 64.3751C19.2314 63.264 17.3273 60.5087 15.7339 57.6673C8.49447 44.7593 7.36094 31.1915 12.8191 22.7809C15.9955 17.8861 20.9208 15.5664 25.8826 16.628ZM47.1938 30.3686C44.9597 30.577 42.9864 31.3092 40.553 32.8333C33.5284 37.2327 26.7258 48.6767 25.1487 58.7479C24.8027 60.9575 25.012 61.3029 25.5816 59.4621C28.7133 49.3404 41.3202 37.6376 47.3212 39.2814C54.0235 41.1177 54.3193 49.53 48.1277 62.2081C47.4808 63.5328 47.4893 63.5531 48.8395 63.8756C53.0446 64.8801 56.2687 68.178 56.2263 71.4316C56.179 75.0769 51.643 79.1266 45.8805 80.6688C45.3228 80.8182 44.7185 80.9799 44.5377 81.0283C43.4206 81.3277 45.9284 81.7331 47.8816 81.569C52.7399 81.1606 55.1816 80.5207 58.3114 78.8357C64.2458 75.6404 66.4499 71.3747 64.095 67.6422C62.0931 64.4697 59.0108 62.8856 53.5039 62.1991C51.1579 61.9069 51.0965 61.7336 52.5132 59.4035C58.109 50.2001 59.7868 39.9563 56.5312 34.8753C54.6436 31.9295 50.727 30.039 47.1938 30.3686Z" fill="#057A2C"/>
<mask id="path-4-inside-1_133_43" fill="white">
<path fill-rule="evenodd" clip-rule="evenodd" d="M17.6258 3.50346C1.29542 5.99041 -1.41533 36.5471 12.7883 58.0375C15.6985 62.4409 20.8011 67.8154 24.0177 69.8656C25.5146 70.8197 25.9199 70.6511 25.5382 69.2336C23.5472 61.8428 28.9264 50.6919 37.8413 43.7299C43.528 39.289 47.433 38.7197 50.2144 41.926C53.1768 45.341 52.3743 51.6009 47.6993 61.5476C46.8614 63.3297 46.7681 63.6933 47.0673 64.009C47.2518 64.2038 47.3955 64.2521 48.964 64.6465C53.3006 65.7375 56.3245 69.4946 55.3587 72.5918C54.0687 76.7281 48.3139 80.1375 41.9816 80.5171C39.8925 80.6425 39.7434 80.932 41.0776 82.2694C42.3621 83.5567 45.3596 85.4411 47.5758 86.3544C49.7751 87.2607 53.0587 88.3201 54.301 88.5238C54.6156 88.5754 55.3629 88.7238 55.961 88.8534C58.3754 89.3763 63.5835 89.7429 65.9291 89.5552C72.8942 88.9975 76.602 88.0826 80.5783 85.941C90.5671 80.5609 92.4019 70.3998 84.6968 63.133C81.1787 59.815 73.4693 55.6149 69.2469 54.7156C68.1583 54.484 68.1368 54.3606 68.9499 53.0196C80.3702 34.187 81.1323 20.0584 71.1109 12.9594C66.6094 9.7705 63.4655 9.4418 56.7903 11.4624C54.425 12.1784 52.8964 12.8249 48.4667 14.983C47.5406 15.4342 45.0877 16.8268 43.7476 17.6622C42.5537 18.4063 42.6999 18.457 41.1693 16.769C33.4945 8.30388 25.8727 3.6342 19.5079 3.49811C18.6175 3.47893 17.7706 3.48148 17.6258 3.50346ZM22.1592 4.12633C28.2468 5.64955 33.683 9.2988 40.1598 16.2099L42.3898 18.5898L42.7236 18.5435C42.9151 18.5168 43.4693 18.2445 44.0229 17.9048C52.6405 12.6193 61.1323 9.78745 65.5117 10.7388C70.3816 11.7968 75.2167 16.1759 76.7729 20.938C79.4245 29.0516 76.739 39.4338 68.4148 53.2507C67.65 54.5198 67.7215 54.6843 69.2084 55.0784C71.9636 55.8089 75.5215 57.35 78.5821 59.139C87.1502 64.1473 90.6141 70.1432 88.6093 76.496C86.6512 82.7009 80.0159 87.2721 70.9125 88.6873C65.9785 89.4545 59.8589 89.3735 55.9163 88.4889C55.3877 88.3701 54.6602 88.2225 54.2998 88.1608C53.0492 87.9464 49.8799 86.9321 47.8081 86.0836C44.1309 84.5771 40.0007 81.4353 41.3377 81.1614C42.682 80.886 43.5681 80.7215 44.5196 80.5712C50.0103 79.7034 55.2049 75.7715 55.8595 71.9879C56.3953 68.8901 53.052 65.2205 48.7982 64.2374C46.9379 63.8076 46.969 63.9581 48.1903 61.3026C52.9498 50.9542 53.5451 44.9727 50.1686 41.4258C47.2571 38.367 43.3076 38.9991 37.6691 43.426C31.6443 48.1558 27.2427 54.5543 25.43 61.2172C24.8564 63.3252 24.6647 63.7356 24.5531 63.0957C24.0324 60.1131 25.8021 52.8957 28.3575 47.5788C34.5459 34.7034 43.6905 27.9525 51.3931 30.5729C58.2818 32.9164 60.3255 40.1659 56.989 50.4238C56.0499 53.3113 54.4125 56.9195 52.9077 59.4175C51.5772 61.6263 51.5628 61.5704 53.5276 61.8366C58.9852 62.5764 61.7007 63.8855 63.9674 66.8694C66.5136 70.2215 65.4114 74.3539 61.1374 77.4798C56.8984 80.58 52.4314 81.8965 46.1784 81.8889C43.3173 81.8855 43.1382 81.9212 43.9626 82.3315C47.1567 83.9207 55.125 84.3808 61.0821 83.3195C71.0807 81.5385 76.0063 76.096 73.9457 69.106C72.9253 65.6436 68.6174 62.4756 61.3782 59.8639C59.3832 59.1443 59.0802 58.9815 59.0406 58.6092C59.0101 58.3221 59.08 58.1802 60.667 55.3057C69.0196 40.1762 69.7252 30.1084 62.7739 25.2431C58.5785 22.3063 53.6377 22.1453 47.7452 24.7528C41.9649 27.3106 36.965 31.6544 31.8333 38.5767C27.0024 45.0933 23.7012 53.7201 23.6509 59.96C23.6322 62.2942 23.7481 63.2888 24.3293 65.7746C24.4946 66.4815 24.6665 67.49 24.7114 68.0152C24.7562 68.5407 24.8174 69.1106 24.8473 69.2819L24.902 69.593L24.6061 69.5329C22.9949 69.2058 18.5918 65.104 15.1072 60.684C4.45737 47.1749 0.7676 25.8311 6.82634 12.7815C9.19378 7.68232 12.635 4.80723 17.4915 3.87082C18.219 3.73045 21.2376 3.89584 22.1592 4.12633ZM22.0469 16.8087C12.7995 18.2919 7.79296 29.5373 10.4484 42.8607C11.5747 48.5122 14.33 55.1718 17.5413 60.0047C19.0225 62.2341 19.3238 62.2659 18.3778 60.0937C16.8461 56.5766 16.023 54.2163 15.4496 51.697C11.7838 35.5901 20.3882 23.3794 30.3611 30.5357C31.5377 31.3801 31.5704 31.3697 32.7401 29.7631C33.7171 28.4216 34.5995 27.3174 35.6311 26.1458C36.8591 24.7513 36.8582 24.7455 35.0695 22.7981C31.0365 18.4069 26.1355 16.1529 22.0469 16.8087ZM25.4395 17.2604C28.8784 17.8848 32.6266 20.307 35.492 23.7566C36.3668 24.8095 36.3818 24.7343 34.9683 26.3899C34.3327 27.1346 33.392 28.3195 32.8778 29.0227C31.412 31.0277 31.5673 30.9519 30.4767 30.1976C24.9715 26.3906 19.6358 27.8083 16.4851 33.9153C13.5869 39.5331 13.5188 47.6492 16.3018 55.7808C17.3708 58.905 17.2981 59.0629 15.9153 56.6164C10.3007 46.683 8.55165 34.9678 11.4844 26.9395C14.003 20.0448 19.5576 16.1921 25.4395 17.2604ZM58.0196 23.5273C60.2787 23.9521 62.5905 25.2316 64.3009 27.0035C67.7567 30.5836 68.0461 36.9253 65.121 44.9717C63.8596 48.4416 62.5315 51.263 60.0734 55.6952C58.0552 59.3345 57.975 59.0157 61.1985 60.1722C68.7695 62.8889 72.8519 66.0043 73.7635 69.7615C75.0828 75.1977 72.1135 79.4605 65.328 81.8716C60.4528 83.6041 52.1836 84.0954 47.2558 82.9457C45.2541 82.4788 45.3145 82.3498 47.5784 82.2579C59.18 81.7877 68.0516 74.6132 65.1048 68.0846C63.4036 64.316 59.9075 62.3734 53.1017 61.4148C52.237 61.293 52.2349 61.1903 53.0705 59.8084C59.6716 48.8917 60.7518 37.5037 55.6393 32.7298C50.587 28.0125 43.5856 28.756 37.0017 34.7095C34.4594 37.0083 31.477 40.9687 29.394 44.8118C26.9221 49.3725 25.7746 52.5241 24.4923 58.2722C24.1398 59.8532 24.0722 59.8616 24.1355 58.3175C24.3499 53.0726 27.4763 45.2441 31.7454 39.2624C39.72 28.0885 49.8895 21.9983 58.0196 23.5273ZM25.7875 37.9801C18.0375 40.3579 16.4281 52.542 22.2017 65.1272C23.6597 68.3055 24.3509 68.7458 23.5094 65.9603C21.282 58.5885 22.4238 49.6586 26.8548 39.7936C27.8277 37.6277 27.6913 37.396 25.7875 37.9801ZM27.0518 38.2613C27.0808 38.3423 27.0217 38.5995 26.9207 38.8325C26.8195 39.0656 26.456 39.8936 26.1133 40.6728C22.6612 48.518 21.3948 56.2186 22.4424 62.9909C22.6909 64.5976 22.7014 64.8801 22.5066 64.7096C22.0192 64.2833 20.7529 60.7782 20.0797 57.9925C18.1109 49.8468 19.1763 42.9684 22.8828 39.8976C24.2947 38.7279 26.8584 37.7215 27.0518 38.2613Z"/>
</mask>
<path fill-rule="evenodd" clip-rule="evenodd" d="M17.6258 3.50346C1.29542 5.99041 -1.41533 36.5471 12.7883 58.0375C15.6985 62.4409 20.8011 67.8154 24.0177 69.8656C25.5146 70.8197 25.9199 70.6511 25.5382 69.2336C23.5472 61.8428 28.9264 50.6919 37.8413 43.7299C43.528 39.289 47.433 38.7197 50.2144 41.926C53.1768 45.341 52.3743 51.6009 47.6993 61.5476C46.8614 63.3297 46.7681 63.6933 47.0673 64.009C47.2518 64.2038 47.3955 64.2521 48.964 64.6465C53.3006 65.7375 56.3245 69.4946 55.3587 72.5918C54.0687 76.7281 48.3139 80.1375 41.9816 80.5171C39.8925 80.6425 39.7434 80.932 41.0776 82.2694C42.3621 83.5567 45.3596 85.4411 47.5758 86.3544C49.7751 87.2607 53.0587 88.3201 54.301 88.5238C54.6156 88.5754 55.3629 88.7238 55.961 88.8534C58.3754 89.3763 63.5835 89.7429 65.9291 89.5552C72.8942 88.9975 76.602 88.0826 80.5783 85.941C90.5671 80.5609 92.4019 70.3998 84.6968 63.133C81.1787 59.815 73.4693 55.6149 69.2469 54.7156C68.1583 54.484 68.1368 54.3606 68.9499 53.0196C80.3702 34.187 81.1323 20.0584 71.1109 12.9594C66.6094 9.7705 63.4655 9.4418 56.7903 11.4624C54.425 12.1784 52.8964 12.8249 48.4667 14.983C47.5406 15.4342 45.0877 16.8268 43.7476 17.6622C42.5537 18.4063 42.6999 18.457 41.1693 16.769C33.4945 8.30388 25.8727 3.6342 19.5079 3.49811C18.6175 3.47893 17.7706 3.48148 17.6258 3.50346ZM22.1592 4.12633C28.2468 5.64955 33.683 9.2988 40.1598 16.2099L42.3898 18.5898L42.7236 18.5435C42.9151 18.5168 43.4693 18.2445 44.0229 17.9048C52.6405 12.6193 61.1323 9.78745 65.5117 10.7388C70.3816 11.7968 75.2167 16.1759 76.7729 20.938C79.4245 29.0516 76.739 39.4338 68.4148 53.2507C67.65 54.5198 67.7215 54.6843 69.2084 55.0784C71.9636 55.8089 75.5215 57.35 78.5821 59.139C87.1502 64.1473 90.6141 70.1432 88.6093 76.496C86.6512 82.7009 80.0159 87.2721 70.9125 88.6873C65.9785 89.4545 59.8589 89.3735 55.9163 88.4889C55.3877 88.3701 54.6602 88.2225 54.2998 88.1608C53.0492 87.9464 49.8799 86.9321 47.8081 86.0836C44.1309 84.5771 40.0007 81.4353 41.3377 81.1614C42.682 80.886 43.5681 80.7215 44.5196 80.5712C50.0103 79.7034 55.2049 75.7715 55.8595 71.9879C56.3953 68.8901 53.052 65.2205 48.7982 64.2374C46.9379 63.8076 46.969 63.9581 48.1903 61.3026C52.9498 50.9542 53.5451 44.9727 50.1686 41.4258C47.2571 38.367 43.3076 38.9991 37.6691 43.426C31.6443 48.1558 27.2427 54.5543 25.43 61.2172C24.8564 63.3252 24.6647 63.7356 24.5531 63.0957C24.0324 60.1131 25.8021 52.8957 28.3575 47.5788C34.5459 34.7034 43.6905 27.9525 51.3931 30.5729C58.2818 32.9164 60.3255 40.1659 56.989 50.4238C56.0499 53.3113 54.4125 56.9195 52.9077 59.4175C51.5772 61.6263 51.5628 61.5704 53.5276 61.8366C58.9852 62.5764 61.7007 63.8855 63.9674 66.8694C66.5136 70.2215 65.4114 74.3539 61.1374 77.4798C56.8984 80.58 52.4314 81.8965 46.1784 81.8889C43.3173 81.8855 43.1382 81.9212 43.9626 82.3315C47.1567 83.9207 55.125 84.3808 61.0821 83.3195C71.0807 81.5385 76.0063 76.096 73.9457 69.106C72.9253 65.6436 68.6174 62.4756 61.3782 59.8639C59.3832 59.1443 59.0802 58.9815 59.0406 58.6092C59.0101 58.3221 59.08 58.1802 60.667 55.3057C69.0196 40.1762 69.7252 30.1084 62.7739 25.2431C58.5785 22.3063 53.6377 22.1453 47.7452 24.7528C41.9649 27.3106 36.965 31.6544 31.8333 38.5767C27.0024 45.0933 23.7012 53.7201 23.6509 59.96C23.6322 62.2942 23.7481 63.2888 24.3293 65.7746C24.4946 66.4815 24.6665 67.49 24.7114 68.0152C24.7562 68.5407 24.8174 69.1106 24.8473 69.2819L24.902 69.593L24.6061 69.5329C22.9949 69.2058 18.5918 65.104 15.1072 60.684C4.45737 47.1749 0.7676 25.8311 6.82634 12.7815C9.19378 7.68232 12.635 4.80723 17.4915 3.87082C18.219 3.73045 21.2376 3.89584 22.1592 4.12633ZM22.0469 16.8087C12.7995 18.2919 7.79296 29.5373 10.4484 42.8607C11.5747 48.5122 14.33 55.1718 17.5413 60.0047C19.0225 62.2341 19.3238 62.2659 18.3778 60.0937C16.8461 56.5766 16.023 54.2163 15.4496 51.697C11.7838 35.5901 20.3882 23.3794 30.3611 30.5357C31.5377 31.3801 31.5704 31.3697 32.7401 29.7631C33.7171 28.4216 34.5995 27.3174 35.6311 26.1458C36.8591 24.7513 36.8582 24.7455 35.0695 22.7981C31.0365 18.4069 26.1355 16.1529 22.0469 16.8087ZM25.4395 17.2604C28.8784 17.8848 32.6266 20.307 35.492 23.7566C36.3668 24.8095 36.3818 24.7343 34.9683 26.3899C34.3327 27.1346 33.392 28.3195 32.8778 29.0227C31.412 31.0277 31.5673 30.9519 30.4767 30.1976C24.9715 26.3906 19.6358 27.8083 16.4851 33.9153C13.5869 39.5331 13.5188 47.6492 16.3018 55.7808C17.3708 58.905 17.2981 59.0629 15.9153 56.6164C10.3007 46.683 8.55165 34.9678 11.4844 26.9395C14.003 20.0448 19.5576 16.1921 25.4395 17.2604ZM58.0196 23.5273C60.2787 23.9521 62.5905 25.2316 64.3009 27.0035C67.7567 30.5836 68.0461 36.9253 65.121 44.9717C63.8596 48.4416 62.5315 51.263 60.0734 55.6952C58.0552 59.3345 57.975 59.0157 61.1985 60.1722C68.7695 62.8889 72.8519 66.0043 73.7635 69.7615C75.0828 75.1977 72.1135 79.4605 65.328 81.8716C60.4528 83.6041 52.1836 84.0954 47.2558 82.9457C45.2541 82.4788 45.3145 82.3498 47.5784 82.2579C59.18 81.7877 68.0516 74.6132 65.1048 68.0846C63.4036 64.316 59.9075 62.3734 53.1017 61.4148C52.237 61.293 52.2349 61.1903 53.0705 59.8084C59.6716 48.8917 60.7518 37.5037 55.6393 32.7298C50.587 28.0125 43.5856 28.756 37.0017 34.7095C34.4594 37.0083 31.477 40.9687 29.394 44.8118C26.9221 49.3725 25.7746 52.5241 24.4923 58.2722C24.1398 59.8532 24.0722 59.8616 24.1355 58.3175C24.3499 53.0726 27.4763 45.2441 31.7454 39.2624C39.72 28.0885 49.8895 21.9983 58.0196 23.5273ZM25.7875 37.9801C18.0375 40.3579 16.4281 52.542 22.2017 65.1272C23.6597 68.3055 24.3509 68.7458 23.5094 65.9603C21.282 58.5885 22.4238 49.6586 26.8548 39.7936C27.8277 37.6277 27.6913 37.396 25.7875 37.9801ZM27.0518 38.2613C27.0808 38.3423 27.0217 38.5995 26.9207 38.8325C26.8195 39.0656 26.456 39.8936 26.1133 40.6728C22.6612 48.518 21.3948 56.2186 22.4424 62.9909C22.6909 64.5976 22.7014 64.8801 22.5066 64.7096C22.0192 64.2833 20.7529 60.7782 20.0797 57.9925C18.1109 49.8468 19.1763 42.9684 22.8828 39.8976C24.2947 38.7279 26.8584 37.7215 27.0518 38.2613Z" fill="#057A2C" stroke="#057A2C" stroke-width="2" mask="url(#path-4-inside-1_133_43)"/>
<path d="M7.39389 55.3003C7.76796 55.1566 8.19188 55.1565 8.57239 55.2999C8.95291 55.4433 9.25885 55.7185 9.42291 56.0649C9.83531 56.9358 9.12595 58.9579 9.12595 58.9579C9.12595 58.9579 7.01444 58.0191 6.60205 57.1482C6.43799 56.8018 6.42925 56.4124 6.57774 56.0659C6.72624 55.7193 7.01982 55.4439 7.39389 55.3003Z" fill="#057A2C"/>
<path d="M2.9594 49.9857C3.30782 49.832 3.69832 49.8288 4.04499 49.9768C4.39167 50.1249 4.66613 50.412 4.80799 50.775C5.16458 51.6876 4.45708 53.8185 4.45708 53.8185C4.45708 53.8185 2.53717 52.8467 2.18058 51.9341C2.03872 51.5711 2.04108 51.1619 2.18714 50.7965C2.33319 50.4311 2.61099 50.1394 2.9594 49.9857Z" fill="#057A2C"/>
</svg>
