<svg width="77" height="81" viewBox="0 0 77 81" fill="none" xmlns="http://www.w3.org/2000/svg">
<path d="M67.375 0H9.625C7.07229 0 4.62408 0.800086 2.81904 2.22419C1.014 3.6483 0 5.57976 0 7.59375V81H77V7.59375C77 5.57976 75.986 3.6483 74.181 2.22419C72.3759 0.800086 69.9277 0 67.375 0ZM32.0833 75.9375V60.75H44.9167V75.9375H32.0833ZM70.5833 75.9375H51.3333V58.2188C51.3333 57.5474 50.9953 56.9036 50.3936 56.4289C49.7919 55.9542 48.9759 55.6875 48.125 55.6875H28.875C28.0241 55.6875 27.2081 55.9542 26.6064 56.4289C26.0047 56.9036 25.6667 57.5474 25.6667 58.2188V75.9375H6.41667V7.59375C6.41667 6.92242 6.75473 6.27862 7.35641 5.80392C7.95809 5.32922 8.7741 5.0625 9.625 5.0625H67.375C68.2259 5.0625 69.0419 5.32922 69.6436 5.80392C70.2453 6.27862 70.5833 6.92242 70.5833 7.59375V75.9375ZM19.25 15.1875H32.0833V25.3125H19.25V15.1875ZM44.9167 15.1875H57.75V25.3125H44.9167V15.1875ZM19.25 35.4375H32.0833V45.5625H19.25V35.4375ZM44.9167 35.4375H57.75V45.5625H44.9167V35.4375Z" fill="#057A2C"/>
</svg>
