<svg width="74" height="74" viewBox="0 0 74 74" fill="none" xmlns="http://www.w3.org/2000/svg">
<path d="M62.6154 39.6429C58.8499 39.6429 55.5342 41.3634 53.4622 43.9798L39.9344 37L53.4622 30.0202C55.5342 32.6366 58.8471 34.3571 62.6154 34.3571C68.9025 34.3571 74 29.6238 74 23.7857C74 17.9476 68.9025 13.2143 62.6154 13.2143C56.3282 13.2143 51.2308 17.9476 51.2308 23.7857C51.2308 25.1759 51.5382 26.4973 52.0618 27.7156L38.4231 34.7536V21.0107C44.03 20.3526 48.3846 15.9576 48.3846 10.5714C48.3846 4.73336 43.2872 0 37 0C30.7128 0 25.6154 4.73336 25.6154 10.5714C25.6154 15.9576 29.97 20.3526 35.5769 21.0107V34.7536L21.9353 27.7156C22.4618 26.4973 22.7692 25.1759 22.7692 23.7857C22.7692 17.9476 17.6718 13.2143 11.3846 13.2143C5.09746 13.2143 0 17.9476 0 23.7857C0 29.6238 5.09746 34.3571 11.3846 34.3571C15.1529 34.3571 18.4658 32.6366 20.5378 30.0202L34.0656 37L20.535 43.9798C18.4658 41.3634 15.1529 39.6429 11.3846 39.6429C5.09746 39.6429 0 44.3762 0 50.2143C0 56.0524 5.09746 60.7857 11.3846 60.7857C17.6718 60.7857 22.7692 56.0524 22.7692 50.2143C22.7692 48.8241 22.4618 47.5027 21.9353 46.2844L35.5769 39.2464V52.9893C29.97 53.6474 25.6154 58.0424 25.6154 63.4286C25.6154 69.2666 30.7128 74 37 74C43.2872 74 48.3846 69.2666 48.3846 63.4286C48.3846 58.0424 44.03 53.6474 38.4231 52.9893V39.2464L52.0647 46.2844C51.5382 47.5001 51.2308 48.8215 51.2308 50.2143C51.2308 56.0524 56.3282 60.7857 62.6154 60.7857C68.9025 60.7857 74 56.0524 74 50.2143C74 44.3762 68.9025 39.6429 62.6154 39.6429Z" fill="white"/>
</svg>
