<svg width="64" height="60" viewBox="0 0 64 60" fill="none" xmlns="http://www.w3.org/2000/svg">
<path d="M3.85714 0.0416377C2.57143 0.322693 0 1.5406 0 6.03747V60H9.14286V6.03747C9.14286 0.0416376 4.57143 0.0416377 4.57143 0.0416377C4.57143 0.0416377 4.28571 -0.0520472 3.85714 0.0416377ZM58.7143 0.0416377C57.4286 0.322693 54.8571 1.5406 54.8571 6.03747V60H64V6.03747C64 0.0416376 59.4286 0.0416377 59.4286 0.0416377C59.4286 0.0416377 59.1429 -0.0520472 58.7143 0.0416377ZM13.7143 12.0333V54.0042H50.2857V12.0333H13.7143ZM21.7143 18.0291H42.2857C42.2857 18.0291 45.7143 18.0291 45.7143 21.0271C45.7143 24.025 42.2857 24.025 42.2857 24.025H21.7143C21.7143 24.025 18.2857 24.025 18.2857 21.0271C18.2857 18.0291 21.7143 18.0291 21.7143 18.0291ZM21.7143 30.0208H42.2857C42.2857 30.0208 45.7143 30.0208 45.7143 33.0187C45.7143 36.0167 42.2857 36.0167 42.2857 36.0167H21.7143C21.7143 36.0167 18.2857 36.0167 18.2857 33.0187C18.2857 30.0208 21.7143 30.0208 21.7143 30.0208ZM21.7143 42.0125H42.2857C42.2857 42.0125 45.7143 42.0125 45.7143 45.0104C45.7143 48.0083 42.2857 48.0083 42.2857 48.0083H21.7143C21.7143 48.0083 18.2857 48.0083 18.2857 45.0104C18.2857 42.0125 21.7143 42.0125 21.7143 42.0125Z" fill="white"/>
</svg>
