<svg width="66" height="56" viewBox="0 0 66 56" fill="none" xmlns="http://www.w3.org/2000/svg">
<path fill-rule="evenodd" clip-rule="evenodd" d="M33 31.1111C34.1391 31.1111 35.0625 32.0397 35.0625 33.1852V53.9259C35.0625 55.0714 34.1391 56 33 56C31.8609 56 30.9375 55.0714 30.9375 53.9259V33.1852C30.9375 32.0397 31.8609 31.1111 33 31.1111ZM45.375 31.1111C46.5141 31.1111 47.4375 32.0397 47.4375 33.1852C47.4375 40.6437 51.0196 47.4947 56.9402 51.7542C57.8666 52.4207 58.0803 53.7162 57.4176 54.6478C56.7548 55.5794 55.4665 55.7944 54.5401 55.1279C47.5482 50.0976 43.3125 41.9967 43.3125 33.1852C43.3125 32.0397 44.2359 31.1111 45.375 31.1111ZM20.625 31.1111C21.7641 31.1111 22.6875 32.0397 22.6875 33.1852C22.6875 41.9865 18.4616 50.0793 11.4831 55.1112C10.5574 55.7787 9.26888 55.5651 8.60512 54.6342C7.94136 53.7033 8.15372 52.4075 9.07943 51.7401C14.9887 47.4792 18.5625 40.6351 18.5625 33.1852C18.5625 32.0397 19.4859 31.1111 20.625 31.1111ZM57.75 0C62.3064 0 66 3.71438 66 8.2963V20.7407C66 25.3227 62.3064 29.037 57.75 29.037H8.25C3.69365 29.037 0 25.3227 0 20.7407V8.2963C0 3.71438 3.69365 0 8.25 0H57.75ZM55.6875 16.5926H10.3125C9.17341 16.5926 8.25 17.5212 8.25 18.6667C8.25 19.8121 9.17341 20.7407 10.3125 20.7407H55.6875C56.8266 20.7407 57.75 19.8121 57.75 18.6667C57.75 17.5212 56.8266 16.5926 55.6875 16.5926Z" fill="white"/>
</svg>
