<svg width="45" height="63" viewBox="0 0 45 63" fill="none" xmlns="http://www.w3.org/2000/svg">
<path d="M33.1175 29.274L39.2751 24.3637C42.9273 21.4523 45 17.3868 45 13.1305V6.04852C45.0013 4.38565 44.1986 2.85938 42.9158 1.77213C41.6371 0.68033 39.8409 -0.00110608 37.8853 1.34774e-06H7.11359C5.15792 -0.00110608 3.36288 0.68033 2.08418 1.77201C0.800272 2.85938 -0.00115613 4.38553 1.58507e-06 6.04839V13.1303C1.58507e-06 17.3866 2.07159 21.4522 5.72375 24.3635L11.8814 29.2716C12.2217 29.5429 12.4136 29.9203 12.4136 30.3167V32.6833C12.4136 33.0797 12.2217 33.456 11.8825 33.7262L5.72375 38.6364C2.07159 41.5468 1.58507e-06 45.6134 1.58507e-06 49.8696V56.9515C-0.00130085 58.6143 0.800127 60.1406 2.08418 61.228C3.36288 62.3195 5.15792 63.001 7.11359 63H37.8851C39.8408 63.001 41.637 62.3195 42.9158 61.228C44.1984 60.1405 45.0012 58.6143 45 56.9515V49.8696C45 45.6134 42.9271 41.5467 39.2751 38.6364L33.1175 33.7273C32.7783 33.456 32.5852 33.0797 32.5852 32.6833V30.3167C32.5852 29.9204 32.7784 29.5431 33.1175 29.274ZM39.568 56.9517C39.5667 57.3545 39.3848 57.6968 39.0755 57.9629C38.7627 58.2256 38.3589 58.3815 37.8851 58.3825H7.11359C6.63994 58.3814 6.23734 58.2256 5.92331 57.9629C5.61536 57.6968 5.43215 57.3545 5.43099 56.9517V49.8699C5.43099 46.8906 6.8819 44.0428 9.43828 42.0059L15.5959 37.0956C17.0306 35.9531 17.8445 34.3548 17.8445 32.6835V30.3168C17.8445 28.6443 17.0306 27.0462 15.5946 25.9036L9.43828 20.9945C6.88176 18.9574 5.43099 16.1107 5.43099 13.1305V6.04852C5.43215 5.64578 5.61536 5.30347 5.92331 5.03633C6.23734 4.77461 6.63994 4.61871 7.11359 4.61772H37.8851C38.3588 4.61883 38.7627 4.77461 39.0755 5.03633C39.3846 5.30347 39.5667 5.64566 39.568 6.04852V13.1304C39.568 16.1106 38.1171 18.9573 35.5619 20.9943L29.4043 25.9034C27.9684 27.0461 27.1544 28.6442 27.1544 30.3167V32.6833C27.1544 34.3547 27.9684 35.953 29.4043 37.0975L35.5619 42.0047C38.1172 44.0427 39.568 46.8905 39.568 49.8696V56.9517Z" fill="#057A2C"/>
<path d="M22.5001 30.5987C23.9497 30.5987 25.1239 29.5993 25.1239 28.3668C25.5627 26.8839 26.4838 25.5169 27.8124 24.4591L33.9688 19.551C35.9358 17.9835 37.095 15.8045 37.2171 13.5237H7.7829C7.90504 15.8045 9.0642 17.9835 11.03 19.551L17.1863 24.4591C18.5162 25.5169 19.4362 26.8839 19.875 28.3668C19.8751 29.5993 21.0505 30.5987 22.5001 30.5987Z" fill="#057A2C"/>
<path d="M22.5001 32.9517C21.0505 32.9517 19.8751 33.9511 19.8751 35.1836C19.8751 36.4152 21.0505 37.4146 22.5001 37.4146C23.9497 37.4146 25.1239 36.4152 25.1239 35.1836C25.1239 33.9511 23.9497 32.9517 22.5001 32.9517Z" fill="#057A2C"/>
<path d="M22.5001 40.8687C21.0505 40.8687 19.8751 41.868 19.8751 43.1007C19.8751 44.3323 21.0505 45.3317 22.5001 45.3317C23.9497 45.3317 25.1239 44.3323 25.1239 43.1007C25.1239 41.868 23.9497 40.8687 22.5001 40.8687Z" fill="#057A2C"/>
<path d="M20.1667 47.9566L10.5377 56.1439H34.4612L24.8323 47.9566C23.5435 46.8618 21.4555 46.8618 20.1667 47.9566Z" fill="#057A2C"/>
</svg>
