<svg width="69" height="70" viewBox="0 0 69 70" fill="none" xmlns="http://www.w3.org/2000/svg">
<path d="M34.5 70C53.5537 70 69 54.3298 69 35C69 15.67 53.5537 0 34.5 0C15.4462 0 0 15.67 0 35C0 40.5989 1.29589 45.8906 3.59994 50.5837C4.21224 51.8308 4.41603 53.2563 4.06106 54.6021L2.00621 62.3935C1.11418 65.7755 4.16418 68.8695 7.49806 67.9648L15.1779 65.8801C16.5046 65.52 17.9097 65.7268 19.139 66.3477C23.7649 68.6854 28.981 70 34.5 70Z" fill="black"/>
<path d="M21.1801 51.6667C19.9103 51.6667 18.7176 51.1883 17.8201 50.318C16.9225 49.45 16.4286 48.2938 16.4286 47.0653C16.4286 45.8368 16.9225 44.6807 17.8201 43.8127L32.9384 29.1722L31.8589 24.5113C31.7698 24.1893 31.8637 23.8475 32.1023 23.6153L39.0018 16.9373C39.1826 16.7635 39.4199 16.6667 39.6741 16.6667C39.7572 16.6667 39.8403 16.6772 39.9186 16.6982L45.1015 18.0433C45.4279 18.1273 45.6858 18.3758 45.7737 18.692C45.8604 19.0093 45.7665 19.35 45.5291 19.581L40.3849 24.5638L41.1186 27.477L44.2786 28.5072L49.559 23.4893C49.7397 23.3143 49.9783 23.2187 50.2337 23.2187C50.3168 23.2187 50.3999 23.2292 50.4794 23.249C50.8059 23.3342 51.0625 23.585 51.1505 23.9012L52.5383 28.9202C52.6275 29.2375 52.5335 29.577 52.2938 29.808L45.3942 36.4883C45.2147 36.6633 44.9762 36.7578 44.722 36.7578C44.6388 36.7578 44.5557 36.7473 44.4774 36.7263L40.0524 35.5795L37.2526 38.0108L24.5401 50.3192C23.6426 51.1883 22.4487 51.6667 21.1801 51.6667ZM33.8359 24.5417L35.0828 29.0473C35.1696 29.3635 35.0756 29.7042 34.837 29.9352L19.1633 45.1123C18.6248 45.6327 18.3273 46.328 18.3273 47.0653C18.3273 47.8038 18.6248 48.4968 19.1633 49.0172C19.7043 49.5398 20.4199 49.828 21.1801 49.828C21.9415 49.828 22.6583 49.5398 23.1968 49.0172L38.8693 33.8447C39.0452 33.6732 39.291 33.5752 39.5428 33.5752C39.6259 33.5752 39.709 33.5857 39.7873 33.6055L44.2112 34.7523L50.3927 29.0473L49.9264 26.5903L49.7409 25.9148L45.3171 30.2C45.1376 30.3738 44.8979 30.4695 44.6449 30.4695C44.5617 30.4695 44.4786 30.459 44.4003 30.4392L40.1584 29.339C39.8319 29.255 39.5753 29.0065 39.4874 28.6903L38.3513 24.5825C38.2645 24.2652 38.3585 23.9245 38.5958 23.6935L43.0209 19.4095L39.956 18.6162L33.8359 24.5417Z" fill="none"/>
</svg>
