<svg width="79" height="53" viewBox="0 0 79 53" fill="none" xmlns="http://www.w3.org/2000/svg">
<path d="M78.9968 47.7371L79 50.5274C79.0006 51.072 78.8015 51.5947 78.4464 51.9803C78.0913 52.3654 77.6095 52.5821 77.1072 52.5821H21.2112C20.6944 52.5821 20.1998 52.3529 19.8429 51.9478L19.3956 51.4404C18.1247 49.9986 16.8225 48.7756 15.5424 47.7371H78.9968Z" fill="white"/>
<path d="M1.4819 39.1521L2.92328 39.5001C4.28668 39.8293 8.1293 40.9745 12.3918 44.1359H78.9864L78.9801 38.6767C78.9796 38.2022 78.8274 37.7432 78.5499 37.3765L78.2065 36.9232C77.6343 36.1681 74.5133 32.1358 69.2665 26.9107C65.4998 23.16 61.5192 19.7108 57.436 16.6588L57.341 16.5878L57.2986 16.4716C55.5705 11.7323 51.9071 9.1221 46.9831 9.1221C46.6272 9.1221 46.2604 9.13564 45.8921 9.16273L45.7895 9.17032L45.6977 9.12046C34.516 3.06861 23.0413 0 11.5932 0C10.8627 0 10.1207 0.0127238 9.38822 0.0377585L8.18268 0.0792087C7.30119 0.109579 6.55561 0.796189 6.38563 1.73438L0.0357805 36.7533C-0.162019 37.846 0.479648 38.9102 1.4819 39.1521ZM10.5461 21.4839L12.182 10.5571C12.4531 8.7474 13.9976 7.49545 15.675 7.72364C25.7681 9.10014 33.4776 11.3625 38.5882 14.4479C44.8245 18.2126 45.5538 22.2346 45.4338 24.2969C45.3814 25.2 44.999 26.0433 44.3723 26.6409C43.7975 27.1884 43.0595 27.488 42.2991 27.488C42.2302 27.488 42.1611 27.4851 42.0915 27.4804L13.4398 25.4277C12.5568 25.3645 11.7395 24.9006 11.1885 24.1495C10.6377 23.3985 10.4045 22.4307 10.5461 21.4839Z" fill="white"/>
<path d="M21.0683 21.8315C21.0887 21.5411 21.2146 21.2715 21.4186 21.0819C21.6223 20.8923 21.8877 20.7985 22.1553 20.8202L31.5396 21.5678C31.8076 21.5897 32.0561 21.7264 32.231 21.9474C32.4061 22.1684 32.493 22.4559 32.4723 22.7463L32.3684 24.2241C32.3281 24.8003 31.884 25.2387 31.3597 25.2387C31.334 25.2387 31.3079 25.2376 31.2818 25.2354L21.8975 24.4878C21.3399 24.4417 20.9221 23.9143 20.9645 23.3095L21.0683 21.8315Z" fill="white"/>
</svg>
