<svg width="68" height="70" viewBox="0 0 68 70" fill="none" xmlns="http://www.w3.org/2000/svg">
<path d="M19.9567 37.3333H25.2072C26.738 33.9504 29.3455 31.2227 32.5219 29.6105V23.3333H25.8698C22.2016 23.3333 19.2176 20.1933 19.2176 16.3333C19.2176 12.4734 22.2016 9.33336 25.8698 9.33336H32.5219V6.99999C32.5219 3.14005 35.506 0 39.1741 0C42.8422 0 45.8262 3.14005 45.8262 6.99999V9.33336H52.4783C56.1464 9.33336 59.1304 12.4734 59.1304 16.3333C59.1304 20.1933 56.1464 23.3333 52.4783 23.3333H45.8261V29.6214C48.9765 31.2188 51.5941 33.907 53.1423 37.3333H65.7826C67.0067 37.3333 68 38.3784 68 39.6665V53.6665C68 54.9547 67.0067 55.9999 65.7826 55.9999H53.1972C50.6347 61.6433 45.1837 65.3333 39.174 65.3333C33.1859 65.3333 27.7608 61.6449 25.2171 55.9999H19.9566C18.7339 55.9999 17.7392 57.0467 17.7392 58.3333V67.6666C17.7392 68.9548 16.7459 70 15.5217 70H2.21743C0.993301 70 0 68.9548 0 67.6666V58.3333C0.000267029 46.7532 8.95219 37.3333 19.9567 37.3333ZM52.4783 18.6666C53.7009 18.6666 54.6957 17.6198 54.6957 16.3332C54.6957 15.0466 53.7009 13.9998 52.4783 13.9998H25.8697C24.647 13.9998 23.6522 15.0466 23.6522 16.3332C23.6522 17.6198 24.647 18.6666 25.8697 18.6666H52.4783Z" fill="white"/>
</svg>
