<svg width="106" height="69" viewBox="0 0 106 69" fill="none" xmlns="http://www.w3.org/2000/svg">
<path d="M101.736 39.0072C96.7037 39.0072 93.9665 39.9107 91.7673 40.6364C89.9173 41.247 88.5807 41.6881 85.4897 41.6881C82.3984 41.6881 81.0618 41.247 79.2115 40.6364C77.23 39.9824 74.8061 39.1867 70.6667 39.035V11.9708C70.6667 5.37005 62.8569 0 53.2577 0V5.86451C58.1544 5.86451 62.138 8.60391 62.138 11.9708V17.5599H43.8444V11.9708C43.8444 5.37005 36.0348 0 26.4354 0V5.86451C31.3321 5.86451 35.3157 8.60391 35.3157 11.9708V39.0355C31.1854 39.1885 28.7649 39.9832 26.7858 40.6364C24.936 41.247 23.5997 41.6881 20.5089 41.6881C17.4181 41.6881 16.0817 41.247 14.232 40.6365C12.0328 39.9105 9.29581 39.0072 4.26436 39.0072H0V49.0607V56.7683V69H106V56.7683V49.0607V39.0072H101.736ZM43.8444 34.3714H62.138V39.7857C61.0398 40.055 60.1177 40.3586 59.2758 40.6364C57.4258 41.247 56.0892 41.6881 52.9982 41.6881C49.9074 41.6881 48.5708 41.247 46.721 40.6365C45.8755 40.3576 44.9488 40.0526 43.8444 39.7823V34.3714ZM62.138 23.4244V28.5069H43.8444V23.4244H62.138Z" fill="white"/>
</svg>
