<svg width="84" height="78" viewBox="0 0 84 78" fill="none" xmlns="http://www.w3.org/2000/svg">
<path d="M78.5431 41.1322L80.7636 33.6689C83.3552 24.9573 84.651 20.6014 83.6752 16.8319C82.9049 13.8555 81.1716 11.1517 78.6949 9.06246C75.5582 6.41651 70.7216 5.24937 61.0494 2.91506C51.3767 0.580745 46.5401 -0.586392 42.3551 0.292554C39.0502 0.986531 36.0482 2.54756 33.7286 4.77822C31.2133 7.19698 29.9016 10.7379 27.9497 17.1741C27.6219 18.255 27.276 19.4175 26.9034 20.6701L24.6828 28.1339C22.0911 36.8456 20.7952 41.2013 21.7711 44.971C22.5416 47.9476 24.2748 50.6514 26.7515 52.7406C29.8882 55.3865 34.7245 56.5535 44.3972 58.888C53.1155 60.9919 57.9045 62.1478 61.8296 61.7116C62.2594 61.6641 62.6784 61.5973 63.0915 61.5103C66.3959 60.8165 69.398 59.2554 71.7176 57.0248C74.6553 54.1997 75.9515 49.844 78.5431 41.1322Z" fill="black"/>
<path d="M3.23658 49.1201L5.45687 56.5833C8.04865 65.2951 9.34452 69.6508 12.2823 72.476C14.602 74.7065 17.604 76.2676 20.9087 76.9615C25.094 77.8403 29.9303 76.6733 39.6031 74.3391C49.2754 72.0046 54.1119 70.8376 57.2487 68.1917C57.509 67.9719 57.7608 67.7455 58.0049 67.513C56.5714 67.4044 55.1255 67.1966 53.656 66.9335C50.6702 66.3988 47.1226 65.5428 42.9269 64.5302L42.4688 64.4193L42.3624 64.3938C37.7973 63.2921 33.9829 62.3699 30.9374 61.379C27.7346 60.3368 24.8245 59.0523 22.3534 56.9677C18.9479 54.0951 16.5648 50.3772 15.5053 46.2849C14.7365 43.3149 14.9562 40.4029 15.5557 37.3834C16.1301 34.4903 17.1617 31.0231 18.3977 26.8689L20.7705 18.8933C12.5328 20.892 8.19681 22.0744 5.30525 24.5136C2.82855 26.6029 1.09534 29.3066 0.324822 32.2829C-0.65107 36.0526 0.6448 40.4083 3.23658 49.1201Z" fill="black"/>
<path d="M47.3902 17.4449L55.5328 19.8288C57.2023 20.3175 58.5637 20.9875 59.617 21.8385C60.6803 22.6925 61.3935 23.7045 61.7565 24.8745C62.1194 26.0444 62.0917 27.3442 61.6731 28.7737C61.3307 29.9434 60.8366 30.8896 60.1909 31.6122C59.5581 32.3279 58.7998 32.8602 57.9161 33.2093C57.0454 33.5513 56.0818 33.7468 55.0255 33.7958L53.3814 34.1285L46.3035 32.0563L47.3009 28.5385L52.5643 30.0795C53.3541 30.3107 54.0498 30.3625 54.6516 30.2347C55.2534 30.107 55.7575 29.8313 56.1637 29.4075C56.58 28.9867 56.8847 28.4464 57.0779 27.7866C57.2827 27.0868 57.3299 26.4439 57.2192 25.858C57.1085 25.272 56.8278 24.7665 56.377 24.3415C55.9262 23.9165 55.3009 23.5869 54.5011 23.3527L50.8572 22.2859L45.4967 40.5955L40.9981 39.2784L47.3902 17.4449ZM53.2045 42.852L51.0752 31.6624L55.8376 33.0241L58.0795 44.0514L58.018 44.2613L53.2045 42.852Z" fill="white"/>
</svg>
