<svg width="77" height="76" viewBox="0 0 77 76" fill="none" xmlns="http://www.w3.org/2000/svg">
<path d="M76.6134 11.4976C76.2252 9.77632 76.2011 9.55325 72.2821 9.55325H68.3423L67.5546 7.41904C66.5151 4.32294 63.0213 1.37239 59.5402 0.511745C57.5254 0.0149761 50.3483 -0.0720374 32.8324 0.0481995C10.812 0.200078 8.68964 0.323479 6.51118 1.29012C1.6345 3.45122 -1.05248 8.89986 0.38806 13.6983C1.39387 17.0427 3.50817 19.5187 6.51118 20.8492C8.68803 21.8143 10.8103 21.9155 32.8308 22.0658C50.3451 22.1876 57.5238 22.05 59.537 21.5516C63.0293 20.6894 66.5135 17.6329 67.5627 14.5083C68.3535 12.1589 68.3888 12.1352 70.9715 12.3029L73.5783 12.4722L73.7516 20.5818L73.9232 28.6899L66.2825 30.4697C62.086 31.449 56.8292 32.7004 54.6042 33.2526C52.3808 33.8031 46.9924 35.0957 42.6307 36.124L34.6996 37.9956L34.698 42.1027C34.6964 46.1844 35.059 46.2224 32.587 48.2601L30.4791 50.3088V76H41.7083V50.3088L39.4127 48.2332C36.9647 46.2145 37.0097 46.0673 37.1957 42.9617L37.438 39.7691L40.2677 39.0746C41.8093 38.6901 46.7197 37.5131 51.1681 36.4515C55.6164 35.3931 63.2539 33.5753 68.1321 32.4109L77 30.2973V21.868C77 17.2358 76.8251 12.4532 76.6134 11.4976ZM38.139 69.0959C38.139 70.428 37.8839 70.7032 36.5108 70.844C34.7815 71.0181 34.0339 70.1733 34.4029 68.4646C34.5472 67.7986 35.1424 67.5106 36.3744 67.5106C37.9401 67.5122 38.139 67.6926 38.139 69.0959Z" fill="white"/>
</svg>
