<svg width="17" height="17" viewBox="0 0 17 17" fill="none" xmlns="http://www.w3.org/2000/svg">
<path d="M1.65214 0H6.6086C6.82531 0.000912342 7.03299 0.0869341 7.18685 0.23952L15.6954 8.71358C15.849 8.86699 15.9709 9.04917 16.0541 9.24971C16.1372 9.45024 16.18 9.66519 16.18 9.88227C16.18 10.0994 16.1372 10.3143 16.0541 10.5148C15.9709 10.7154 15.849 10.8976 15.6954 11.051L11.0529 15.6927C10.7445 16.0029 10.3256 16.1782 9.88812 16.18C9.67011 16.1802 9.45422 16.1372 9.2529 16.0536C9.05157 15.9699 8.86879 15.8473 8.7151 15.6927L0.239555 7.18561C0.0869427 7.03177 0.000904083 6.82413 -7.62939e-06 6.60745V1.65186C-7.62939e-06 1.21376 0.174059 0.793604 0.483896 0.483819C0.793736 0.174035 1.21397 0 1.65214 0ZM4.54341 5.78152C4.78848 5.78152 5.02805 5.70886 5.23182 5.57273C5.4356 5.4366 5.59442 5.24311 5.6882 5.01673C5.78199 4.79035 5.80653 4.54125 5.75872 4.30093C5.7109 4.0606 5.59289 3.83985 5.4196 3.66659C5.2463 3.49333 5.02551 3.37533 4.78515 3.32753C4.54478 3.27973 4.29564 3.30426 4.06922 3.39803C3.8428 3.4918 3.64928 3.65059 3.51312 3.85433C3.37697 4.05806 3.3043 4.29759 3.3043 4.54262C3.3043 4.8712 3.43485 5.18632 3.66722 5.41866C3.8996 5.651 4.21478 5.78152 4.54341 5.78152Z" fill="#057A2C"/>
</svg>
