<svg width="70" height="84" viewBox="0 0 70 84" fill="none" xmlns="http://www.w3.org/2000/svg">
<path d="M35 84C40.5187 84 44.9953 79.2996 44.9953 73.5H25.0047C25.0047 79.2996 29.4813 84 35 84ZM68.6546 59.4382C65.6358 56.0323 59.9874 50.9086 59.9874 34.125C59.9874 21.3773 51.4749 11.1727 39.9969 8.66906V5.25C39.9969 2.35102 37.7594 0 35 0C32.2406 0 30.0031 2.35102 30.0031 5.25V8.66906C18.5251 11.1727 10.0126 21.3773 10.0126 34.125C10.0126 50.9086 4.36416 56.0323 1.34542 59.4382C0.407919 60.4964 -0.00770445 61.7613 0.000108029 63C0.0172955 65.6906 2.02823 68.25 5.01572 68.25H64.9843C67.9718 68.25 69.9843 65.6906 69.9999 63C70.0077 61.7613 69.5921 60.4948 68.6546 59.4382Z" fill="black"/>
<path d="M22.5666 37.5208C20.0772 35.3339 19.6612 32.8488 20.218 30.754C20.2344 30.5876 20.2755 30.4478 20.4255 30.3424L20.9265 29.945C21.0133 29.8672 21.1304 29.8282 21.2474 29.8397C21.3653 29.8504 21.4723 29.9096 21.5417 30.0017L24.4233 33.6284C24.5038 33.7355 24.6336 33.7966 24.7698 33.7922L25.8157 33.8665C25.9053 33.8639 25.9921 33.8329 26.0625 33.778L28.0829 32.1204C28.1652 32.0557 28.2191 31.9637 28.2329 31.8619L28.3581 30.945C28.3728 30.8442 28.3463 30.7415 28.2841 30.6592L25.5863 27.1111C25.4637 26.9474 25.4875 26.7217 25.6393 26.5846L26.2939 26.0899C26.4219 25.9739 26.5672 25.9907 26.7656 26.027C28.6288 26.3837 31.8103 28.1298 32.6175 30.5441C33.3288 32.6691 33.081 34.1674 33.081 34.1674C33.081 35.3648 33.4878 36.5189 33.9879 37.0038L48.0447 50.0676C48.0721 50.0924 48.0986 50.1162 48.1251 50.1419C49.2862 51.2659 49.2844 53.0908 48.1626 54.1758C47.0409 55.2617 45.1284 55.2909 43.9674 54.1661C43.9134 54.1138 43.8613 54.0599 43.8128 54.0041L30.2578 39.8192C28.5903 38.3828 25.2891 39.9138 22.5666 37.5208Z"/>
</svg>
