<svg width="92" height="92" viewBox="0 0 92 92" fill="none" xmlns="http://www.w3.org/2000/svg">
<path fill-rule="evenodd" clip-rule="evenodd" d="M18.0142 4.17539C5.4101 5.53664 0.367735 25.6194 7.51313 45.9993C10.3662 54.1375 15.7807 62.2452 21.5746 67.0558C23.0906 68.3143 23.3118 68.3144 22.5371 67.0558C21.9845 66.1583 21.6636 65.4719 21.4212 64.6689C21.3151 64.317 20.9302 63.1232 20.566 62.0163C16.2096 48.7719 18.7304 38.8186 26.8066 37.3749C28.0074 37.1601 28.2059 37.6165 27.5457 39.0743C23.7526 47.4491 22.1658 54.758 22.9016 60.4647C23.1065 62.0549 23.1627 62.0069 23.2368 60.1784C23.5335 52.8343 26.9499 44.2812 32.3689 37.3166C37.7772 30.3658 42.3928 26.5925 48.7062 23.961C57.9046 20.1268 66.9658 24.6272 67.7301 33.4095C67.7804 33.9872 67.8331 34.6039 67.8473 34.7799C67.8985 35.4122 67.6158 38.2337 67.3758 39.4882C66.492 44.1056 64.4131 49.2721 60.885 55.619C59.3589 58.3642 59.3429 58.3985 59.4612 58.6339C59.556 58.822 59.844 58.9448 62.0776 59.7499C68.6326 62.1126 73.1948 65.516 74.2057 68.7968C76.2173 75.3264 72.5794 80.4898 64.2272 82.96C58.3512 84.6979 49.4219 84.644 44.0532 82.8384C42.3566 82.2678 42.4198 82.623 44.2286 83.8245C46.5277 85.3517 51.089 87.1544 54.2996 87.805C54.8063 87.9075 55.5942 88.0712 56.0505 88.1684C61.1927 89.2639 68.8856 89.0355 74.2981 87.6265C81.3254 85.7971 86.4216 81.8078 88.1683 76.7686C90.3764 70.3994 86.953 64.3605 78.3175 59.3916C77.5033 58.9228 76.7 58.4581 76.5324 58.3583C75.1675 57.5461 70.1218 55.6066 68.4722 55.2599C67.2536 55.0041 67.2518 54.516 68.4609 52.5021C80.469 32.5045 80.4191 18.4147 68.3178 12.099C63.2141 9.4353 55.4696 11.4498 43.6677 18.5113C42.4422 19.2446 42.4254 19.236 40.2365 16.7793C32.879 8.52179 24.064 3.5222 18.0142 4.17539ZM25.8826 16.628C29.3144 17.362 32.9693 19.745 35.8531 23.1287C37.1591 24.6611 37.184 24.8938 36.166 26.0412C35.1193 27.2206 33.9992 28.6094 33.0767 29.8711C31.6437 31.8316 31.6197 31.8406 30.3287 30.9268C23.2748 25.9324 16.7493 30.0493 15.1913 40.4766C14.1832 47.225 15.5799 53.6341 19.982 62.4596C21.3224 65.1466 21.3626 65.3456 20.3692 64.3752C19.2314 63.264 17.3273 60.5087 15.7339 57.6673C8.49447 44.7593 7.36094 31.1915 12.8191 22.7809C15.9955 17.8861 20.9208 15.5664 25.8826 16.628ZM47.1938 30.3686C44.9597 30.577 42.9863 31.3092 40.553 32.8333C33.5284 37.2327 26.7258 48.6767 25.1487 58.748C24.8027 60.9575 25.012 61.3029 25.5816 59.4621C28.7133 49.3404 41.3202 37.6376 47.3212 39.2814C54.0235 41.1177 54.3193 49.53 48.1277 62.2081C47.4808 63.5329 47.4893 63.5531 48.8395 63.8756C53.0446 64.8801 56.2687 68.178 56.2263 71.4316C56.179 75.0769 51.643 79.1266 45.8805 80.6688C45.3228 80.8182 44.7185 80.9799 44.5377 81.0283C43.4206 81.3277 45.9284 81.7331 47.8816 81.569C52.7399 81.1606 55.1816 80.5207 58.3114 78.8357C64.2458 75.6404 66.4499 71.3747 64.095 67.6422C62.0931 64.4697 59.0108 62.8856 53.5039 62.1991C51.1579 61.9069 51.0965 61.7337 52.5132 59.4035C58.109 50.2001 59.7868 39.9563 56.5312 34.8753C54.6436 31.9295 50.727 30.039 47.1938 30.3686Z" fill="#057A2C"/>
<path fill-rule="evenodd" clip-rule="evenodd" d="M17.6255 3.50333C1.29508 5.99029 -1.41534 36.5471 12.7883 58.0375C15.6984 62.4409 20.8011 67.8154 24.0177 69.8656C25.5146 70.8197 25.9196 70.651 25.5378 69.2336C23.5469 61.8427 28.926 50.6918 37.8409 43.7298C43.5276 39.2889 47.4326 38.7196 50.214 41.9259C53.1764 45.3409 52.3739 51.6008 47.6989 61.5475C46.861 63.3296 46.7677 63.6932 47.0668 64.0089C47.2514 64.2038 47.3951 64.252 48.9636 64.6465C53.3001 65.7374 56.3241 69.4945 55.3583 72.5917C54.0683 76.728 48.3135 80.1374 41.9812 80.5171C39.8921 80.6425 39.743 80.9319 41.0772 82.2693C42.3617 83.5566 45.3592 85.441 47.5754 86.3543C49.7746 87.2607 53.0583 88.3201 54.3005 88.5238C54.6152 88.5754 55.3625 88.7237 55.9606 88.8533C58.375 89.3762 63.583 89.7429 65.9286 89.5552C72.8937 88.9974 76.602 88.0825 80.5783 85.941C90.5671 80.5609 92.4019 70.3998 84.6967 63.133C81.1787 59.815 73.4689 55.6149 69.2464 54.7156C68.1579 54.4839 68.1364 54.3605 68.9494 53.0195C80.3697 34.1869 81.1318 20.0583 71.1104 12.9593C66.6089 9.77038 63.465 9.44168 56.7899 11.4623C54.4245 12.1783 52.8959 12.8248 48.4662 14.9829C47.5402 15.4341 45.0873 16.8267 43.7472 17.6621C42.5534 18.4062 42.6995 18.4569 41.1689 16.7689C33.4941 8.30377 25.8727 3.6342 19.5079 3.49811C18.6175 3.47893 17.7703 3.48135 17.6255 3.50333ZM22.1592 4.12633C28.2468 5.64955 33.6829 9.29879 40.1598 16.2099L42.3898 18.5897L42.7235 18.5435C42.9151 18.5168 43.4693 18.2445 44.0229 17.9048C52.6405 12.6193 61.1323 9.78744 65.5117 10.7388C70.3816 11.7968 75.2167 16.1759 76.7729 20.938C79.4245 29.0516 76.739 39.4338 68.4148 53.2507C67.65 54.5198 67.7215 54.6843 69.2083 55.0784C71.9636 55.8089 75.5215 57.35 78.5821 59.139C87.1502 64.1473 90.6141 70.1432 88.6093 76.496C86.6512 82.7009 80.0159 87.2721 70.9125 88.6873C65.9785 89.4545 59.8589 89.3735 55.9163 88.4889C55.3877 88.3701 54.6602 88.2225 54.2998 88.1608C53.0492 87.9464 49.8799 86.9321 47.8081 86.0836C44.1309 84.5771 40.0007 81.4353 41.3377 81.1614C42.682 80.886 43.5681 80.7215 44.5196 80.5712C50.0103 79.7034 55.2049 75.7714 55.8595 71.9879C56.3953 68.8901 53.052 65.2205 48.7982 64.2374C46.9379 63.8076 46.969 63.9581 48.1903 61.3026C52.9498 50.9542 53.5451 44.9727 50.1686 41.4258C47.2571 38.367 43.3076 38.9991 37.669 43.426C31.6443 48.1558 27.2427 54.5543 25.43 61.2172C24.8564 63.3252 24.6647 63.7356 24.5531 63.0957C24.0324 60.1131 25.8021 52.8957 28.3575 47.5788C34.5459 34.7034 43.6905 27.9525 51.3931 30.5729C58.2817 32.9164 60.3255 40.1659 56.989 50.4238C56.0499 53.3113 54.4124 56.9195 52.9077 59.4175C51.5772 61.6263 51.5628 61.5703 53.5276 61.8366C58.9852 62.5764 61.7007 63.8855 63.9674 66.8694C66.5136 70.2215 65.4114 74.3539 61.1374 77.4798C56.8984 80.58 52.4314 81.8965 46.1784 81.8889C43.3173 81.8855 43.1382 81.9212 43.9626 82.3314C47.1567 83.9207 55.125 84.3808 61.0821 83.3195C71.0807 81.5385 76.0063 76.096 73.9457 69.106C72.9253 65.6436 68.6174 62.4756 61.3782 59.8639C59.3832 59.1443 59.0802 58.9815 59.0406 58.6092C59.0101 58.3221 59.08 58.1802 60.667 55.3057C69.0196 40.1762 69.7252 30.1084 62.7739 25.2431C58.5785 22.3063 53.6377 22.1453 47.7452 24.7528C41.9649 27.3106 36.965 31.6544 31.8333 38.5767C27.0024 45.0933 23.7012 53.7201 23.6509 59.96C23.6322 62.2942 23.7481 63.2888 24.3293 65.7746C24.4946 66.4815 24.6665 67.49 24.7114 68.0152C24.7562 68.5407 24.8173 69.1106 24.8473 69.2819L24.902 69.593L24.6061 69.5329C22.9949 69.2058 18.5918 65.104 15.1072 60.684C4.45737 47.1749 0.767594 25.8311 6.82634 12.7815C9.19378 7.68232 12.635 4.80723 17.4915 3.87082C18.219 3.73045 21.2376 3.89584 22.1592 4.12633ZM22.0469 16.8087C12.7995 18.2919 7.79295 29.5373 10.4484 42.8607C11.5747 48.5122 14.33 55.1718 17.5413 60.0047C19.0224 62.2341 19.3238 62.2659 18.3778 60.0937C16.8461 56.5766 16.023 54.2163 15.4496 51.697C11.7838 35.5901 20.3882 23.3793 30.3611 30.5357C31.5377 31.3801 31.5704 31.3697 32.7401 29.7631C33.7171 28.4216 34.5995 27.3174 35.631 26.1458C36.8591 24.7513 36.8582 24.7455 35.0695 22.7981C31.0365 18.4069 26.1355 16.1529 22.0469 16.8087ZM25.4395 17.2604C28.8784 17.8848 32.6262 20.3069 35.4916 23.7565C36.3664 24.8094 36.3814 24.7341 34.968 26.3898C34.3323 27.1345 33.3916 28.3194 32.8774 29.0226C31.4116 31.0276 31.5669 30.9518 30.4763 30.1975C24.9711 26.3905 19.6354 27.8082 16.4848 33.9152C13.5865 39.533 13.5185 47.6491 16.3015 55.7807C17.3705 58.905 17.2977 59.0628 15.9149 56.6163C10.3004 46.6829 8.55164 34.9678 11.4843 26.9395C14.003 20.0448 19.5576 16.1921 25.4395 17.2604ZM58.0196 23.5273C60.2787 23.9521 62.59 25.2315 64.3005 27.0034C67.7562 30.5835 68.0456 36.9252 65.1205 44.9716C63.8592 48.4415 62.531 51.263 60.073 55.6951C58.0547 59.3344 57.9745 59.0156 61.1981 60.1721C68.7691 62.8888 72.8514 66.0043 73.763 69.7614C75.0823 75.1976 72.113 79.4605 65.3275 81.8716C60.4523 83.604 52.1832 84.0954 47.2554 82.9456C45.2537 82.4787 45.3141 82.3497 47.578 82.2579C59.1796 81.7877 68.0516 74.6132 65.1048 68.0846C63.4036 64.316 59.9071 62.3733 53.1013 61.4147C52.2366 61.2929 52.2345 61.1902 53.07 59.8083C59.6711 48.8916 60.7514 37.5036 55.6389 32.7297C50.5866 28.0124 43.5856 28.756 37.0017 34.7095C34.4594 37.0083 31.477 40.9687 29.394 44.8118C26.9221 49.3725 25.7743 52.524 24.4919 58.2721C24.1394 59.8531 24.0719 59.8616 24.1351 58.3174C24.3496 53.0725 27.4763 45.2441 31.7454 39.2624C39.72 28.0884 49.8895 21.9983 58.0196 23.5273ZM25.7875 37.9801C18.0375 40.3579 16.4281 52.542 22.2017 65.1272C23.6597 68.3055 24.3508 68.7458 23.5094 65.9603C21.282 58.5885 22.4238 49.6586 26.8548 39.7936C27.8276 37.6277 27.6913 37.396 25.7875 37.9801ZM27.0518 38.2613C27.0808 38.3423 27.0214 38.5994 26.9204 38.8325C26.8191 39.0655 26.4557 39.8935 26.113 40.6727C22.6609 48.5179 21.3944 56.2185 22.4421 62.9909C22.6906 64.5975 22.7014 64.8801 22.5066 64.7096C22.0192 64.2833 20.7529 60.7782 20.0797 57.9925C18.1109 49.8468 19.1763 42.9684 22.8828 39.8976C24.2947 38.7279 26.8584 37.7215 27.0518 38.2613Z" fill="#057A2C"/>
<path d="M7.3939 55.3003C7.76797 55.1566 8.19189 55.1565 8.57241 55.2999C8.95292 55.4433 9.25886 55.7185 9.42292 56.0649C9.83532 56.9358 9.12596 58.9579 9.12596 58.9579C9.12596 58.9579 7.01446 58.0191 6.60206 57.1482C6.438 56.8018 6.42926 56.4124 6.57776 56.0659C6.72625 55.7193 7.01983 55.4439 7.3939 55.3003Z" fill="#057A2C"/>
<path d="M2.95941 49.9857C3.30782 49.832 3.69832 49.8288 4.045 49.9768C4.39168 50.1249 4.66613 50.412 4.808 50.775C5.16459 51.6876 4.45709 53.8185 4.45709 53.8185C4.45709 53.8185 2.53718 52.8467 2.18059 51.9341C2.03873 51.5711 2.04109 51.1619 2.18714 50.7965C2.3332 50.4311 2.61099 50.1394 2.95941 49.9857Z" fill="#057A2C"/>
</svg>
