<svg width="30" height="31" viewBox="0 0 30 31" fill="none" xmlns="http://www.w3.org/2000/svg">
<path fill-rule="evenodd" clip-rule="evenodd" d="M11.7921 27.7652L13.3958 30.0517C14.2827 31.3161 15.7185 31.3161 16.6032 30.0517L18.2069 27.7652C16.4353 25.2396 13.5637 25.2396 11.7921 27.7652ZM5.37737 18.6196L8.58475 23.1924C12.121 18.1475 17.878 18.1475 21.4165 23.1924L24.6239 18.6196C19.3093 11.0392 10.692 11.0392 5.37737 18.6196ZM29.3351 11.8995L27.8313 14.0437C20.7451 3.94096 9.25617 3.94096 2.16774 14.0437L0.663883 11.8995C-0.297873 10.5284 -0.200362 8.25861 0.863468 7.04591C9.11099 -2.34864 20.8903 -2.34864 29.1378 7.04591C30.2016 8.25861 30.2969 10.5284 29.3351 11.8995Z" fill="white"/>
</svg>
