<svg width="19" height="31" viewBox="0 0 19 31" fill="none" xmlns="http://www.w3.org/2000/svg">
<path d="M15.5209 7.3562V0.819441C15.5209 0.366914 15.1476 0 14.687 0H13.353C12.8925 0 12.5187 0.366914 12.5187 0.819441V7.3562H6.48117V0.819441C6.48123 0.366914 6.10791 0 5.64695 0H4.3134C3.85244 0 3.47912 0.366914 3.47912 0.819441V7.3562H6.10352e-05V10.1391H19V7.3562H15.5209Z" fill="white"/>
<path d="M0 14.8526C0 18.2027 2.03196 21.0855 4.95075 22.3837V24.1819C4.95075 25.0454 5.66422 25.7457 6.54377 25.7457H12.4562C13.3362 25.7457 14.0492 25.0454 14.0492 24.1819V22.3837C16.9684 21.0856 18.9999 18.2027 18.9999 14.8526V11.4033H0V14.8526Z" fill="white"/>
<path d="M11.3064 26.905H7.6936V31H11.3064V26.905Z" fill="white"/>
</svg>
