<svg width="22" height="32" viewBox="0 0 22 32" fill="none" xmlns="http://www.w3.org/2000/svg">
<path fill-rule="evenodd" clip-rule="evenodd" d="M6.61287 21.5608H15.3872C15.7218 20.7762 16.1687 19.9906 16.5846 19.3226C17.2465 18.2598 17.9534 17.3033 18.3694 16.7872C19.4764 15.4109 20.1677 13.755 20.368 12.0107C20.5683 10.2664 20.2699 8.49999 19.505 6.91415C18.74 5.32799 17.5382 3.9845 16.0338 3.04198C14.529 2.09929 12.7846 1.59738 11.0015 1.5971C9.21846 1.59681 7.47378 2.09816 5.96882 3.04038C4.4641 3.98242 3.2618 5.3256 2.49628 6.91151C1.73091 8.49711 1.43195 10.2633 1.63168 12.0078C1.83133 13.7523 2.52229 15.4085 3.62897 16.7852C4.04422 17.301 4.75144 18.2576 5.41403 19.321C5.83046 19.9893 6.27792 20.7754 6.61287 21.5608ZM19.5857 17.7984C20.8813 16.1879 21.6935 14.2458 21.9288 12.1958C22.1642 10.1458 21.8131 8.07125 20.916 6.21127C20.019 4.35122 18.6124 2.78133 16.8584 1.68244C15.1043 0.583539 13.0741 0.000327543 11.0017 1.37928e-07C8.92932 -0.000327267 6.89903 0.58223 5.14461 1.68057C3.39027 2.77891 1.98313 4.34834 1.08553 6.20807C0.18785 8.06781 -0.163938 10.1422 0.0707782 12.1923C0.305471 14.2424 1.11704 16.1848 2.41205 17.7957C3.1683 18.7348 5.09165 21.4151 5.49999 23.1579H16.5C16.9083 21.4165 18.8295 18.7362 19.5857 17.7984Z" fill="white"/>
<path d="M7.03999 13.6421L11.792 6.3158V11.2H14.96L10.208 18.5263V13.6421H7.03999Z" fill="white"/>
<path d="M5.28 24.8421H16.28V26.1053H5.28V24.8421Z" fill="white"/>
<path fill-rule="evenodd" clip-rule="evenodd" d="M14.7086 29.4737H6.85143V30.3158H14.7086V29.4737ZM5.28 27.7895V30.3158C5.28 31.246 5.98353 32 6.85143 32H14.7086C15.5765 32 16.28 31.246 16.28 30.3158V27.7895H5.28Z" fill="white"/>
</svg>
