<svg width="44" height="46" viewBox="0 0 44 46" fill="none" xmlns="http://www.w3.org/2000/svg">
<path d="M40.1059 18.2746C43.8829 14.8058 44.514 10.8638 43.6693 7.5409C43.6443 7.27694 43.5819 7.0552 43.3544 6.88809L42.5943 6.25774C42.4625 6.1342 42.285 6.07239 42.1074 6.09071C41.9285 6.1076 41.7662 6.20158 41.6608 6.34758L37.2887 12.1004C37.1667 12.2703 36.9697 12.3672 36.763 12.3602L35.1762 12.4781C35.0403 12.4739 34.9085 12.4248 34.8017 12.3377L31.7363 9.70832C31.6114 9.6058 31.5296 9.45981 31.5087 9.29836L31.3187 7.84395C31.2965 7.68393 31.3367 7.52104 31.4311 7.3905L35.5243 1.76253C35.7102 1.50278 35.6741 1.14484 35.4439 0.927239L34.4507 0.142533C34.2564 -0.041379 34.0359 -0.0146951 33.7349 0.0428955C30.908 0.608649 26.081 3.37839 24.8562 7.20802C23.7771 10.5786 24.1529 12.9553 24.1529 12.9553C24.1529 14.8547 23.5357 16.6853 22.7769 17.4546L1.44943 38.1767C1.4078 38.216 1.36758 38.2538 1.32737 38.2946C-0.434242 40.0775 -0.43149 42.9722 1.27046 44.6933C2.97242 46.4158 5.87414 46.4621 7.63575 44.6778C7.7176 44.595 7.79669 44.5094 7.8702 44.421L28.4364 21.9204C30.9664 19.6419 35.9752 22.0705 40.1059 18.2746Z" fill="#1174CF"/>
</svg>
