<svg width="29" height="28" viewBox="0 0 29 28" fill="none" xmlns="http://www.w3.org/2000/svg">
<path d="M26.5905 0H2.41524C1.08486 0 0 1.04724 0 2.3315V25.663C0 26.9528 1.08486 28 2.41524 28H26.5847C27.9151 28 29 26.9528 29 25.6685V2.3315C29.0057 1.04724 27.9208 0 26.5905 0ZM1.61016 2.3315C1.61016 1.90157 1.96987 1.55433 2.41524 1.55433H26.5847C27.0301 1.55433 27.3898 1.90157 27.3898 2.3315V21.0496H1.61016V2.3315ZM27.3955 25.6685C27.3955 26.0984 27.0358 26.4457 26.5905 26.4457H2.41524C1.96987 26.4457 1.61016 26.0984 1.61016 25.6685V22.6039H27.3955V25.6685Z" fill="white"/>
<path d="M8.50187 3.18585C6.37783 3.18585 4.65347 4.85042 4.65347 6.90081C4.65347 8.95121 6.37783 10.6158 8.50187 10.6158C10.6259 10.6158 12.3503 8.95121 12.3503 6.90081C12.3503 4.85042 10.6259 3.18585 8.50187 3.18585ZM8.50187 9.06144C7.26855 9.06144 6.26363 8.09136 6.26363 6.90081C6.26363 5.71026 7.26855 4.74018 8.50187 4.74018C9.73518 4.74018 10.7401 5.71026 10.7401 6.90081C10.7401 8.09136 9.73518 9.06144 8.50187 9.06144Z" fill="white"/>
<path d="M20.5038 3.18585C18.3798 3.18585 16.6554 4.85042 16.6554 6.90081C16.6554 8.95121 18.3798 10.6158 20.5038 10.6158C22.6279 10.6158 24.3522 8.95121 24.3522 6.90081C24.3522 4.85042 22.6279 3.18585 20.5038 3.18585ZM20.5038 9.06144C19.2705 9.06144 18.2656 8.09136 18.2656 6.90081C18.2656 5.71026 19.2705 4.74018 20.5038 4.74018C21.7371 4.74018 22.7421 5.71026 22.7421 6.90081C22.7421 8.09136 21.7371 9.06144 20.5038 9.06144Z" fill="white"/>
<path d="M8.50187 12.1205C6.37783 12.1205 4.65347 13.785 4.65347 15.8354C4.65347 17.8858 6.37783 19.5504 8.50187 19.5504C10.6259 19.5504 12.3503 17.8858 12.3503 15.8354C12.3503 13.785 10.6259 12.1205 8.50187 12.1205ZM8.50187 17.9961C7.26855 17.9961 6.26363 17.026 6.26363 15.8354C6.26363 14.6449 7.26855 13.6748 8.50187 13.6748C9.73518 13.6748 10.7401 14.6449 10.7401 15.8354C10.7401 17.026 9.73518 17.9961 8.50187 17.9961Z" fill="white"/>
<path d="M20.5038 12.1205C18.3798 12.1205 16.6554 13.785 16.6554 15.8354C16.6554 17.8858 18.3798 19.5504 20.5038 19.5504C22.6279 19.5504 24.3522 17.8858 24.3522 15.8354C24.3522 13.785 22.6279 12.1205 20.5038 12.1205ZM20.5038 17.9961C19.2705 17.9961 18.2656 17.026 18.2656 15.8354C18.2656 14.6449 19.2705 13.6748 20.5038 13.6748C21.7371 13.6748 22.7421 14.6449 22.7421 15.8354C22.7421 17.026 21.7371 17.9961 20.5038 17.9961Z" fill="white"/>
<path d="M6.11518 23.822H5.08742C4.64206 23.822 4.28234 24.1693 4.28234 24.5992C4.28234 25.0291 4.64206 25.3764 5.08742 25.3764H6.11518C6.56054 25.3764 6.92026 25.0291 6.92026 24.5992C6.92026 24.1693 6.56054 23.822 6.11518 23.822Z" fill="white"/>
<path d="M12.0476 23.822H11.0199C10.5745 23.822 10.2148 24.1693 10.2148 24.5992C10.2148 25.0291 10.5745 25.3764 11.0199 25.3764H12.0476C12.493 25.3764 12.8527 25.0291 12.8527 24.5992C12.8527 24.1693 12.493 23.822 12.0476 23.822Z" fill="white"/>
<path d="M17.9858 23.822H16.958C16.5127 23.822 16.153 24.1693 16.153 24.5992C16.153 25.0291 16.5127 25.3764 16.958 25.3764H17.9858C18.4312 25.3764 18.7909 25.0291 18.7909 24.5992C18.7909 24.1693 18.4312 23.822 17.9858 23.822Z" fill="white"/>
<path d="M23.9183 23.822H22.8905C22.4452 23.822 22.0854 24.1693 22.0854 24.5992C22.0854 25.0291 22.4452 25.3764 22.8905 25.3764H23.9183C24.3636 25.3764 24.7234 25.0291 24.7234 24.5992C24.7234 24.1693 24.3636 23.822 23.9183 23.822Z" fill="white"/>
</svg>
