<svg width="35" height="33" viewBox="0 0 35 33" fill="none" xmlns="http://www.w3.org/2000/svg">
<path d="M20.8 14.7076H17.5V10.3L14.2 16.7424H17.5V21.15L20.8 14.7076Z" fill="white"/>
<path d="M17.5 4.1V1M17.5 28.9V32M8.28345 7.84203L5.95 5.65M26.9512 25.3784L29.2846 27.5704M4.3 16.5H1M30.7 16.5H34M26.952 7.84203L29.2855 5.65M8.28425 25.3784L5.95081 27.5704M17.5 24.25C12.9437 24.25 9.25 20.7802 9.25 16.5C9.25 12.2198 12.9437 8.75 17.5 8.75C22.0563 8.75 25.75 12.2198 25.75 16.5C25.75 20.7802 22.0563 24.25 17.5 24.25Z" stroke="white" stroke-width="2" stroke-linecap="round" stroke-linejoin="round"/>
</svg>
