<svg width="62" height="49" viewBox="0 0 62 49" fill="none" xmlns="http://www.w3.org/2000/svg">
<path d="M24.4232 33.0789L27.1881 30.6057L24.4232 27.8233L41.9342 10.2019L45.6207 8.9653L49 2.16404L46.8495 0L39.7837 3.09148L38.2477 6.80126L21.0439 24.4227L18.279 21.6404L15.8213 24.4227C15.8213 24.4227 18.279 26.2776 15.5141 29.0599C13.9781 30.6057 11.5204 28.7508 6.91223 33.388C5.37618 34.9338 0.460815 39.8801 0.460815 39.8801C0.460815 39.8801 -1.38245 42.9716 2.30408 46.6814C5.9906 50.3912 9.0627 48.5363 9.0627 48.5363C9.0627 48.5363 13.9781 43.5899 15.5141 42.0442C19.815 37.7161 18.279 34.9338 19.5078 33.6972C22.2727 30.9148 24.4232 33.0789 24.4232 33.0789ZM14.8997 31.8423L17.0502 34.0063L5.37618 45.7539L3.22571 43.5899L14.8997 31.8423Z" fill="#5791C7"/>
<path d="M37.5768 33.0789L34.8119 30.6057L37.5768 27.8233L20.0658 10.2019L16.3793 8.9653L13 2.16404L15.1505 0L22.2163 3.09148L23.7523 6.80126L40.9561 24.4227L43.721 21.6404L46.1787 24.4227C46.1787 24.4227 43.721 26.2776 46.4859 29.0599C48.0219 30.6057 50.4796 28.7508 55.0878 33.388C56.6238 34.9338 61.5392 39.8801 61.5392 39.8801C61.5392 39.8801 63.3824 42.9716 59.6959 46.6814C56.0094 50.3912 52.9373 48.5363 52.9373 48.5363C52.9373 48.5363 48.0219 43.5899 46.4859 42.0442C42.185 37.7161 43.721 34.9338 42.4922 33.6972C39.7273 30.9148 37.5768 33.0789 37.5768 33.0789ZM47.1003 31.8423L44.9498 34.0063L56.6238 45.7539L58.7743 43.5899L47.1003 31.8423Z" fill="#5791C7"/>
</svg>
