<svg width="29" height="25" viewBox="0 0 29 25" fill="none" xmlns="http://www.w3.org/2000/svg">
<path fill-rule="evenodd" clip-rule="evenodd" d="M0.00238528 23.6098C-0.0470997 24.3768 0.679951 25 1.57104 25H12.8653C13.7564 25.0001 14.4695 24.3754 14.5683 23.6119C14.7194 22.4446 15.0606 21.299 15.5841 20.2095C16.3139 18.6907 17.3835 17.3107 18.7319 16.1482C20.0804 14.9858 21.6812 14.0637 23.4429 13.4346C24.7067 12.9833 26.0357 12.6892 27.3898 12.5589C28.2754 12.4738 28.9999 11.859 28.9999 11.0908L29 1.35435C29 0.586167 28.277 -0.040597 27.3873 0.00205565C24.1247 0.158472 20.912 0.788665 17.8859 1.86922C14.3623 3.1274 11.1607 4.97162 8.4639 7.29648C5.76708 9.62134 3.62778 12.3813 2.1683 15.4189C0.914856 18.0277 0.183827 20.7972 0.00238528 23.6098ZM24.9764 6.66618C25.565 6.55386 26.1605 6.46227 26.7616 6.3921L26.7075 6.0475L26.5992 5.35837L26.545 5.01377C25.8995 5.08915 25.2598 5.18749 24.6276 5.30815L24.7148 5.64761L24.8892 6.32666L24.9764 6.66618ZM18.2818 9.00105C19.3126 8.45505 20.3945 7.98394 21.516 7.59274L21.3648 7.2704L21.0622 6.6257L20.9109 6.30336C19.7063 6.72349 18.5443 7.2295 17.4371 7.81599L17.6482 8.11225L18.0706 8.70479L18.2818 9.00105ZM14.0476 11.928C14.4699 11.5526 14.9088 11.1938 15.363 10.852L15.0978 10.59L14.5673 10.0661L14.3021 9.8041C13.8142 10.1711 13.3429 10.5566 12.8893 10.9598C12.4358 11.363 12.0034 11.7811 11.5929 12.2127L11.9048 12.4332L12.5286 12.8741L12.8406 13.0946C13.2228 12.6927 13.6254 12.3035 14.0476 11.928ZM9.25111 18.4968C9.67013 17.5184 10.183 16.5716 10.7843 15.6666L10.4343 15.4937L9.73426 15.148L9.3843 14.9752C8.73835 15.9473 8.18752 16.9642 7.73752 18.0151L8.11588 18.1355L8.87267 18.3764L9.25111 18.4968ZM8.02052 23.0537C8.08337 22.5336 8.17122 22.0176 8.28336 21.507L7.88701 21.4423L7.09431 21.3129L6.69805 21.2483C6.5776 21.7968 6.48329 22.3509 6.41577 22.9096L6.81696 22.9456L7.61933 23.0177L8.02052 23.0537Z" fill="white"/>
</svg>
