<svg width="35" height="42" viewBox="0 0 35 42" fill="none" xmlns="http://www.w3.org/2000/svg">
<path d="M19.651 0.419129C19.3214 0.155374 18.8037 0 18.2538 0H10.7462C10.1964 0 9.67865 0.155374 9.34898 0.419129C9.01919 0.682947 8.91588 1.02458 9.07016 1.34106L9.39134 2H19.6088L19.9299 1.34106C20.0841 1.02458 19.9807 0.682947 19.651 0.419129Z" fill="white"/>
<path d="M26.9762 40.4016L24.7821 30H4.21793L2.02377 40.4016C1.93992 40.7994 2.08026 41.2065 2.40777 41.5144C2.73528 41.8224 3.21664 42 3.72357 42H25.2764C25.7833 42 26.2647 41.8225 26.5922 41.5144C26.9197 41.2065 27.0601 40.7994 26.9762 40.4016Z" fill="white"/>
<path d="M20.17 4.87438L19.5148 4.38221C19.1869 4.13608 18.7635 4 18.3249 4H10.6751C10.2365 4 9.81308 4.13608 9.4852 4.38221L8.82998 4.87438L6 7H23L20.17 4.87438Z" fill="white"/>
<path d="M31.4814 9H27.2194H25.3864H1.98756H1.70647C1.04779 9 0.447844 9.31526 0.165199 9.81007C-0.11755 10.3048 -0.0325696 10.8907 0.383513 11.3153L3.12571 14.1141L5.5228 22.6204C5.70355 23.2619 6.39191 23.7157 7.18423 23.7157H7.27388V24.8782H7.18423C6.35082 24.8782 5.63912 25.3788 5.50122 26.0624L5.11004 28H24.324L23.933 26.0624C23.795 25.3788 23.0835 24.8782 22.2501 24.8782H22.1605V23.7157H22.2501C23.0516 23.7157 23.7451 23.2519 23.917 22.601L26.7589 11.838H31.4813C31.5395 11.838 31.587 11.8775 31.587 11.926V20.9614C31.587 21.7451 32.3511 22.3804 33.2934 22.3804C34.2359 22.3804 35 21.7451 35 20.9614V11.9259C35.0001 10.3126 33.4216 9 31.4814 9Z" fill="white"/>
</svg>
