<svg width="61" height="59" viewBox="0 0 61 59" fill="none" xmlns="http://www.w3.org/2000/svg">
<path d="M55.9316 0H5.08033C2.28194 0 0 2.20669 0 4.9128V54.0756C0 56.7933 2.28194 59 5.08033 59H55.9196C58.718 59 61 56.7933 61 54.0872V4.9128C61.012 2.20669 58.73 0 55.9316 0ZM3.38688 4.9128C3.38688 4.00689 4.14353 3.2752 5.08033 3.2752H55.9196C56.8564 3.2752 57.6131 4.00689 57.6131 4.9128V44.3545H3.38688V4.9128ZM57.6251 54.0872C57.6251 54.9931 56.8684 55.7248 55.9316 55.7248H5.08033C4.14353 55.7248 3.38688 54.9931 3.38688 54.0872V47.6297H57.6251V54.0872Z" fill="white"/>
<path d="M17.8832 6.71301C13.4154 6.71301 9.78833 10.2205 9.78833 14.541C9.78833 18.8614 13.4154 22.3689 17.8832 22.3689C22.351 22.3689 25.9781 18.8614 25.9781 14.541C25.9781 10.2205 22.351 6.71301 17.8832 6.71301ZM17.8832 19.0937C15.289 19.0937 13.1752 17.0496 13.1752 14.541C13.1752 12.0323 15.289 9.98821 17.8832 9.98821C20.4774 9.98821 22.5912 12.0323 22.5912 14.541C22.5912 17.0496 20.4774 19.0937 17.8832 19.0937Z" fill="white"/>
<path d="M43.1287 6.71301C38.6609 6.71301 35.0338 10.2205 35.0338 14.541C35.0338 18.8614 38.6609 22.3689 43.1287 22.3689C47.5965 22.3689 51.2236 18.8614 51.2236 14.541C51.2236 10.2205 47.5965 6.71301 43.1287 6.71301ZM43.1287 19.0937C40.5345 19.0937 38.4207 17.0496 38.4207 14.541C38.4207 12.0323 40.5345 9.98821 43.1287 9.98821C45.7229 9.98821 47.8367 12.0323 47.8367 14.541C47.8367 17.0496 45.7229 19.0937 43.1287 19.0937Z" fill="white"/>
<path d="M17.8832 25.5396C13.4154 25.5396 9.78833 29.047 9.78833 33.3675C9.78833 37.688 13.4154 41.1955 17.8832 41.1955C22.351 41.1955 25.9781 37.688 25.9781 33.3675C25.9781 29.047 22.351 25.5396 17.8832 25.5396ZM17.8832 37.9203C15.289 37.9203 13.1752 35.8762 13.1752 33.3675C13.1752 30.8588 15.289 28.8147 17.8832 28.8147C20.4774 28.8147 22.5912 30.8588 22.5912 33.3675C22.5912 35.8762 20.4774 37.9203 17.8832 37.9203Z" fill="white"/>
<path d="M43.1287 25.5396C38.6609 25.5396 35.0338 29.047 35.0338 33.3675C35.0338 37.688 38.6609 41.1955 43.1287 41.1955C47.5965 41.1955 51.2236 37.688 51.2236 33.3675C51.2236 29.047 47.5965 25.5396 43.1287 25.5396ZM43.1287 37.9203C40.5345 37.9203 38.4207 35.8762 38.4207 33.3675C38.4207 30.8588 40.5345 28.8147 43.1287 28.8147C45.7229 28.8147 47.8367 30.8588 47.8367 33.3675C47.8367 35.8762 45.7229 37.9203 43.1287 37.9203Z" fill="white"/>
<path d="M12.863 50.1964H10.7011C9.76433 50.1964 9.00769 50.9281 9.00769 51.834C9.00769 52.7399 9.76433 53.4716 10.7011 53.4716H12.863C13.7998 53.4716 14.5564 52.7399 14.5564 51.834C14.5564 50.9281 13.7998 50.1964 12.863 50.1964Z" fill="white"/>
<path d="M25.3416 50.1964H23.1798C22.243 50.1964 21.4863 50.9281 21.4863 51.834C21.4863 52.7399 22.243 53.4716 23.1798 53.4716H25.3416C26.2784 53.4716 27.0351 52.7399 27.0351 51.834C27.0351 50.9281 26.2784 50.1964 25.3416 50.1964Z" fill="white"/>
<path d="M37.8322 50.1964H35.6704C34.7336 50.1964 33.9769 50.9281 33.9769 51.834C33.9769 52.7399 34.7336 53.4716 35.6704 53.4716H37.8322C38.769 53.4716 39.5257 52.7399 39.5257 51.834C39.5257 50.9281 38.769 50.1964 37.8322 50.1964Z" fill="white"/>
<path d="M50.3109 50.1964H48.149C47.2122 50.1964 46.4556 50.9281 46.4556 51.834C46.4556 52.7399 47.2122 53.4716 48.149 53.4716H50.3109C51.2476 53.4716 52.0043 52.7399 52.0043 51.834C52.0043 50.9281 51.2476 50.1964 50.3109 50.1964Z" fill="white"/>
</svg>
