<svg width="86" height="79" viewBox="0 0 86 79" fill="none" xmlns="http://www.w3.org/2000/svg">
<path fill-rule="evenodd" clip-rule="evenodd" d="M13.9891 0.0527247C1.17641 1.31534 -3.94117 20.013 3.33141 38.9921C6.23532 46.5709 11.7431 54.1223 17.6352 58.6038C19.1768 59.7763 19.4017 59.7764 18.6136 58.6042C18.0515 57.7683 17.725 57.1291 17.4782 56.3813C17.3702 56.0535 16.9784 54.9418 16.6077 53.9111C12.1734 41.5771 14.7318 32.3102 22.9415 30.9691C24.1621 30.7696 24.364 31.1946 23.6935 32.5518C19.841 40.3483 18.231 47.1532 18.9813 52.4672C19.1903 53.948 19.2475 53.9032 19.322 52.2007C19.6206 45.3626 23.09 37.3998 28.596 30.917C34.0912 24.447 38.7818 20.9354 45.1989 18.4876C54.5483 14.921 63.7618 19.1149 64.5425 27.2927C64.5939 27.8306 64.6477 28.4049 64.6622 28.5688C64.7146 29.1575 64.4284 31.7846 64.1849 32.9526C63.2884 37.2517 61.1771 42.0615 57.5932 47.9699C56.0429 50.5255 56.0266 50.5574 56.147 50.7767C56.2435 50.9518 56.5363 51.0663 58.8074 51.8168C65.4721 54.0194 70.1115 57.1901 71.1406 60.2454C73.1882 66.326 69.4922 71.1324 61.0024 73.4292C55.0296 75.0451 45.9521 74.9915 40.4935 73.3082C38.7685 72.7762 38.8329 73.107 40.6722 74.2264C43.0101 75.6493 47.6479 77.3296 50.9121 77.9366C51.4272 78.0323 52.2283 78.185 52.6922 78.2757C57.9202 79.2978 65.7407 79.0881 71.2424 77.7782C78.3856 76.0775 83.5647 72.365 85.3382 67.6735C87.5802 61.7439 84.0975 56.1195 75.3166 51.4895C74.4887 51.0526 73.6719 50.6196 73.5014 50.5267C72.1136 49.7698 66.9833 47.962 65.3061 47.6385C64.0673 47.3998 64.0652 46.9454 65.2935 45.0707C77.4925 26.455 77.4358 13.3356 65.131 7.4501C59.9414 4.9679 52.0693 6.84069 40.0744 13.4112C38.829 14.0936 38.8119 14.0856 36.5855 11.7972C29.1025 4.10555 20.139 -0.553126 13.9891 0.0527247ZM21.9934 11.6508C25.4825 12.3355 29.199 14.5558 32.1321 17.7076C33.4604 19.135 33.4858 19.3517 32.4515 20.4196C31.3879 21.5174 30.2497 22.8101 29.3125 23.9846C27.8565 25.8095 27.8321 25.8179 26.5193 24.9665C19.3462 20.3134 12.7141 24.1442 11.1347 33.8527C10.1127 40.136 11.5353 46.1042 16.0142 54.3236C17.3779 56.826 17.4189 57.0113 16.4086 56.1073C15.2515 55.0723 13.3146 52.506 11.6935 49.8597C4.32852 37.8379 3.17045 25.2041 8.71564 17.3748C11.9428 12.8184 16.9488 10.6603 21.9934 11.6508ZM43.664 24.4533C41.3929 24.6464 39.3872 25.3274 36.9141 26.7456C29.7747 30.8394 22.8641 41.4926 21.2651 50.8695C20.9143 52.9268 21.1272 53.2484 21.7054 51.5347C24.8849 42.1113 37.696 31.2193 43.7974 32.7523C50.6117 34.4647 50.916 42.2978 44.6269 54.1003C43.9698 55.3336 43.9785 55.3524 45.3512 55.6532C49.6266 56.5902 52.9055 59.6622 52.8639 62.6917C52.8173 66.0859 48.2077 69.8549 42.3502 71.2887C41.7833 71.4276 41.1691 71.5779 40.9853 71.6229C39.8497 71.9013 42.3993 72.2797 44.3849 72.1276C49.3236 71.7493 51.8056 71.1544 54.9866 69.5867C61.0182 66.6137 63.2571 62.6427 60.8615 59.1664C58.8251 56.2116 55.691 54.7353 50.0924 54.094C47.7073 53.821 47.6448 53.6597 49.084 51.4905C54.7688 42.9232 56.4701 33.3856 53.1584 28.6532C51.2382 25.9095 47.2558 24.1477 43.664 24.4533Z" fill="white"/>
</svg>
