<svg width="67" height="62" viewBox="0 0 67 62" fill="none" xmlns="http://www.w3.org/2000/svg">
<path d="M65.8834 0H1.11662C0.5025 0 0 0.503808 0 1.11953V50.0305C0 50.6462 0.5025 51.15 1.11662 51.15H65.8834C66.4975 51.15 67 50.6462 67 50.0305V1.11953C67 0.503808 66.4975 0 65.8834 0ZM7.3984 43.7325V7.41791H59.6016V43.7326H7.79503L7.3984 43.7325Z" fill="white"/>
<path d="M21.3407 55.8003H15.3075L15.2579 55.8V55.8003H15.2273C15.2273 56.9184 15.2273 60.7771 15.2273 61.9565V61.9691C15.2273 61.9784 15.2273 61.991 15.2273 62H21.3409H45.6594H51.7728C51.7728 60.8693 51.7728 56.9309 51.7728 55.8002H45.6594H21.3407V55.8003Z" fill="white"/>
<path d="M19.8249 18.5999H19.7955V22.6087H23.6241V32.5499H28.1486V22.6087H31.9399H31.9478H31.9773V18.5999H19.8499H19.8249Z" fill="white"/>
<path d="M50.236 18.646L50.25 18.6133H45.152L43.6563 22.3894L42.613 24.9652L40.0967 18.6133H36.5252L35.051 18.5999L35.0565 18.6133H35.0227L40.9343 32.5499H44.313L48.5106 22.6958L50.25 18.646H50.236Z" fill="white"/>
</svg>
