<svg width="19" height="21" viewBox="0 0 19 21" fill="none" xmlns="http://www.w3.org/2000/svg">
<path d="M15.0881 1.73014H12.7016V1.3166C12.7016 0.59078 12.1226 0 11.4112 0H5.52153C4.81015 0 4.23111 0.59078 4.23111 1.3166V1.72592H1.84878C0.827196 1.72592 0 2.57411 0 3.6122V18.8501C0 19.8924 0.831332 20.7364 1.84878 20.7364H9.08261C7.66811 19.4746 6.77474 17.6221 6.77474 15.5544H3.38737C2.92 15.5544 2.53949 15.1662 2.53949 14.6893C2.53949 14.2125 2.92 13.8243 3.38737 13.8243H6.77474C6.84918 13.8243 6.91536 13.8496 6.98567 13.8665C7.14284 13.2377 7.37859 12.6427 7.68879 12.0941H4.23111C3.76374 12.0941 3.38323 11.7059 3.38323 11.229C3.38323 10.7522 3.76374 10.364 4.23111 10.364H8.46635C8.63593 10.364 8.78482 10.4273 8.91717 10.5159C10.129 9.35543 11.7545 8.63383 13.5495 8.63383C14.7861 8.63383 15.9401 8.97986 16.9368 9.57064V3.61642C16.9368 2.57411 16.1055 1.73014 15.0881 1.73014ZM5.92686 7.7772H4.23111C3.76374 7.7772 3.38323 7.38897 3.38323 6.91213C3.38323 6.43529 3.76374 6.04706 4.23111 6.04706H5.92686C6.39423 6.04706 6.77474 6.43529 6.77474 6.91213C6.77474 7.38897 6.39423 7.7772 5.92686 7.7772ZM5.92686 3.45606V1.72592H11.01V3.45606H5.92686ZM12.7016 7.7772H9.31423C8.84686 7.7772 8.46635 7.38897 8.46635 6.91213C8.46635 6.43529 8.84686 6.04706 9.31423 6.04706H12.7016C13.169 6.04706 13.5495 6.43529 13.5495 6.91213C13.5495 7.38897 13.169 7.7772 12.7016 7.7772Z" fill="#1174CF"/>
<path d="M13.5495 10.6276C10.7453 10.6276 8.46633 12.9527 8.46633 15.8138C8.46633 18.6748 10.7453 21 13.5495 21C16.3536 21 18.6326 18.6748 18.6326 15.8138C18.6326 12.9527 16.3536 10.6276 13.5495 10.6276ZM15.8408 15.5606L14.145 17.2907C13.9796 17.4595 13.7645 17.5439 13.5453 17.5439C13.3302 17.5439 13.111 17.4595 12.9456 17.2907L12.0977 16.4256C11.7668 16.0881 11.7668 15.5395 12.0977 15.2019C12.4286 14.8643 12.9663 14.8643 13.2972 15.2019L13.5453 15.4551L14.6414 14.3368C14.9722 13.9992 15.5099 13.9992 15.8408 14.3368C16.1717 14.6786 16.1717 15.223 15.8408 15.5606Z" fill="#1174CF"/>
</svg>
