<svg width="69" height="65" viewBox="0 0 69 65" fill="none" xmlns="http://www.w3.org/2000/svg">
<path fill-rule="evenodd" clip-rule="evenodd" d="M33.0279 15.6001C28.5612 15.6001 24.9324 19.1996 24.9324 23.6315V34.0701L19.8148 39.3456C18.9543 40.0599 18.841 41.3253 19.5487 42.1746C19.9563 42.6526 20.5224 42.9001 21.1055 42.9001C21.5641 42.9001 22.0113 42.7482 22.3962 42.4333L41.1064 25.9149V23.6315C41.1064 22.7372 40.9309 21.8767 40.6478 21.0668C39.5722 17.8948 36.5831 15.6001 33.0279 15.6001Z" fill="white"/>
<path fill-rule="evenodd" clip-rule="evenodd" d="M5.75287 64.9999C2.57888 64.9999 0 61.4729 0 58.0001C0 54.5273 2.57888 51.7057 5.75287 51.7057H15.1714L49.6714 23.3999H63.2471C66.4211 23.3999 69 26.2168 69 29.6896C69 33.1623 66.4211 36.8673 63.2471 36.8673H53.8286L19.2762 64.9999H5.75287Z" fill="white"/>
<path d="M32.2979 10.4C35.5411 10.4 38.1702 8.07188 38.1702 5.2C38.1702 2.32812 35.5411 0 32.2979 0C29.0547 0 26.4255 2.32812 26.4255 5.2C26.4255 8.07188 29.0547 10.4 32.2979 10.4Z" fill="white"/>
</svg>
