<svg width="9" height="6" viewBox="0 0 9 6" fill="none" xmlns="http://www.w3.org/2000/svg">
<path d="M7.89228 1.58512C7.10755 0.534777 5.96741 0 4.5 0C3.03259 0 1.89245 0.531574 1.10772 1.58512C0.523572 2.36647 0.150562 3.43282 0.00276541 4.74574C-0.0253863 4.98271 0.164638 5.19726 0.425041 5.21968C0.685444 5.24529 0.921215 5.07237 0.945847 4.83541C1.24496 2.19995 2.44141 0.864609 4.5 0.864609C6.55859 0.864609 7.75504 2.19995 8.05415 4.83541C8.07878 5.05636 8.2864 5.22288 8.52569 5.22288C8.54329 5.22288 8.55736 5.22288 8.57496 5.21968C8.83536 5.19406 9.02538 4.98271 8.99723 4.74574C8.84944 3.42962 8.47643 2.36647 7.89228 1.58512Z" fill="#1174CF" />
</svg>
