<svg width="24" height="26" viewBox="0 0 24 26" fill="none" xmlns="http://www.w3.org/2000/svg">
<path d="M22.5 23.4H13.5V11.7H18.9195C19.1571 11.6998 19.3912 11.6508 19.6026 11.5569C19.814 11.463 19.9966 11.3269 20.1355 11.1599C20.2743 10.9928 20.3654 10.7996 20.4012 10.596C20.437 10.3925 20.4166 10.1845 20.3415 9.9892L16.842 0.8892C16.7425 0.630232 16.5514 0.404984 16.2959 0.245385C16.0404 0.085786 15.7334 -6.56898e-05 15.4185 3.77122e-08H8.5815C8.26655 -6.56898e-05 7.95957 0.085786 7.70407 0.245385C7.44858 0.404984 7.25752 0.630232 7.158 0.8892L3.6585 9.9892C3.58343 10.1845 3.56297 10.3925 3.59879 10.596C3.63461 10.7996 3.7257 10.9928 3.86455 11.1599C4.0034 11.3269 4.18604 11.463 4.39744 11.5569C4.60884 11.6508 4.84295 11.6998 5.0805 11.7H10.5V23.4H1.5C1.10218 23.4 0.720645 23.537 0.43934 23.7808C0.158036 24.0246 0 24.3552 0 24.7C0 25.0448 0.158036 25.3754 0.43934 25.6192C0.720645 25.863 1.10218 26 1.5 26H22.5C22.8978 26 23.2794 25.863 23.5607 25.6192C23.842 25.3754 24 25.0448 24 24.7C24 24.3552 23.842 24.0246 23.5607 23.7808C23.2794 23.537 22.8978 23.4 22.5 23.4Z" fill="white"/>
</svg>
