<svg width="34" height="37" viewBox="0 0 34 37" fill="none" xmlns="http://www.w3.org/2000/svg">
<path d="M34 18.5C34 8.3065 26.367 0 17 0C7.633 0 0 8.3065 0 18.5C0 23.865 2.125 28.6935 5.491 32.079C5.491 32.0975 5.491 32.0975 5.474 32.116C5.644 32.301 5.848 32.449 6.018 32.6155C6.12 32.708 6.205 32.8005 6.307 32.8745C6.613 33.152 6.953 33.411 7.276 33.67C7.395 33.7625 7.497 33.8365 7.616 33.929C7.939 34.1695 8.279 34.3915 8.636 34.595C8.755 34.669 8.891 34.7615 9.01 34.8355C9.35 35.039 9.707 35.224 10.081 35.3905C10.217 35.4645 10.353 35.5385 10.489 35.594C10.863 35.7605 11.237 35.9085 11.611 36.038C11.747 36.0935 11.883 36.149 12.019 36.186C12.427 36.3155 12.835 36.4265 13.243 36.5375C13.362 36.5745 13.481 36.6115 13.617 36.63C14.093 36.741 14.569 36.815 15.062 36.8705C15.13 36.8705 15.198 36.889 15.266 36.9075C15.844 36.963 16.422 37 17 37C17.578 37 18.156 36.963 18.717 36.9075C18.785 36.9075 18.853 36.889 18.921 36.8705C19.414 36.815 19.89 36.741 20.366 36.63C20.485 36.6115 20.604 36.556 20.74 36.5375C21.148 36.4265 21.573 36.334 21.964 36.186C22.1 36.1305 22.236 36.075 22.372 36.038C22.746 35.89 23.137 35.7605 23.494 35.594C23.63 35.5385 23.766 35.4645 23.902 35.3905C24.259 35.224 24.616 35.039 24.973 34.8355C25.109 34.7615 25.228 34.669 25.347 34.595C25.687 34.373 26.027 34.1695 26.367 33.929C26.486 33.855 26.588 33.7625 26.707 33.67C27.047 33.411 27.37 33.152 27.676 32.8745C27.778 32.782 27.863 32.6895 27.965 32.6155C28.152 32.449 28.339 32.2825 28.509 32.116C28.509 32.0975 28.509 32.0975 28.492 32.079C31.875 28.6935 34 23.865 34 18.5ZM25.398 27.6945C20.791 24.3275 13.243 24.3275 8.602 27.6945C7.854 28.231 7.242 28.86 6.732 29.5445C4.148 26.6955 2.55 22.792 2.55 18.5C2.55 9.8235 9.027 2.775 17 2.775C24.973 2.775 31.45 9.8235 31.45 18.5C31.45 22.792 29.852 26.6955 27.268 29.5445C26.775 28.86 26.146 28.231 25.398 27.6945Z" fill="#1174CF"/>
</svg>
