<svg width="45" height="43" viewBox="0 0 45 43" fill="none" xmlns="http://www.w3.org/2000/svg">
<path d="M37.55 16.0625V41H7.44995V16.0625" stroke="white" stroke-width="3.24" stroke-miterlimit="10"/>
<path d="M44 19.625L22.5 3L1 19.625" stroke="white" stroke-width="3.24" stroke-miterlimit="10"/>
<path d="M27.5329 19.9636H26.0286V19.4727C26.0286 18.6606 25.3538 18 24.5243 18H20.5129C19.6834 18 19.0086 18.6606 19.0086 19.4727V19.9636H17.5043C16.6748 19.9636 16 20.6243 16 21.4364V22.4182C16 22.6894 16.2246 22.9091 16.5014 22.9091H28.5358C28.8126 22.9091 29.0372 22.6894 29.0372 22.4182V21.4364C29.0372 20.6243 28.3624 19.9636 27.5329 19.9636ZM25.0257 19.9636H20.0114V19.4727C20.0114 19.202 20.2364 18.9818 20.5129 18.9818H24.5243C24.8008 18.9818 25.0258 19.202 25.0258 19.4727V19.9636H25.0257Z" fill="white"/>
<path d="M16.0513 24.0475V34.0791C16.0513 35.1383 16.8486 36 17.8287 36H27.3085C28.2886 36 29.086 35.1383 29.086 34.0791V24.0475H16.0513ZM20.9548 33.5422L20.3218 33.5864C18.9071 33.6857 17.9587 32.0354 18.6681 30.7089L18.8338 30.3988C18.5924 30.3763 18.3792 30.1958 18.3129 29.9283C18.2283 29.5867 18.4157 29.2357 18.7317 29.1442L19.8761 28.8127C20.1924 28.7201 20.5355 28.9273 20.6101 29.2977L20.9088 30.5025C20.9933 30.8442 20.8058 31.1952 20.4895 31.2866C20.2478 31.3573 20.0003 31.2539 19.8582 31.042L19.6942 31.3491C19.4571 31.7929 19.7729 32.3425 20.2454 32.3082L20.8783 32.264C21.2008 32.2463 21.4866 32.5085 21.5079 32.8618C21.5287 33.2147 21.2815 33.5192 20.9548 33.5422ZM22.0706 27.0272L21.7894 27.6417C21.644 27.9585 21.2883 28.0877 20.9956 27.9318C20.7024 27.7749 20.5821 27.391 20.7271 27.0739L21.0083 26.4595C21.6363 25.0874 23.4325 25.0237 24.1409 26.3507L24.307 26.6615C24.4462 26.4471 24.6982 26.3371 24.9444 26.4084C25.2603 26.4999 25.4478 26.8511 25.3633 27.1928L25.0562 28.4298C24.9728 28.7653 24.6443 28.9878 24.3068 28.8755L23.1858 28.5509C22.8699 28.4594 22.6824 28.1084 22.7669 27.7668C22.8324 27.5029 23.0413 27.3239 23.2786 27.2973L23.1148 26.9908C22.8804 26.5526 22.2825 26.564 22.0706 27.0272ZM24.8969 33.6522H24.5616C24.6646 33.8895 24.6305 34.1787 24.449 34.3747C24.2176 34.6248 23.8427 34.6248 23.6112 34.3747L22.7734 33.4692C22.5447 33.222 22.5312 32.7961 22.798 32.5372L23.6112 31.6581C23.8426 31.408 24.2175 31.408 24.449 31.6581C24.628 31.8514 24.6649 32.136 24.567 32.3716H24.8968C25.3721 32.3716 25.6519 31.8007 25.3898 31.3761L25.038 30.8058C24.8563 30.5115 24.93 30.114 25.2023 29.9179C25.4743 29.722 25.8419 29.8009 26.024 30.0955L26.3758 30.6657C27.1626 31.9403 26.315 33.6522 24.8969 33.6522Z" fill="white"/>
</svg>
