<svg width="24" height="26" viewBox="0 0 24 26" fill="none" xmlns="http://www.w3.org/2000/svg">
<path d="M19.2039 14.1635C18.6843 14.1646 18.3524 14.0677 18.1888 13.985C18.0214 13.8951 18.0115 13.8644 17.9677 13.8042C17.9408 13.7581 17.8993 13.6777 17.8526 13.5016C17.7908 13.2688 17.7309 12.8611 17.7319 12.2773C17.7319 10.1111 17.7319 11.313 17.7319 10.5142C18.2911 10.3451 18.2935 9.87948 18.2935 9.11017C18.2935 8.37751 17.3472 7.55262 16.3231 7.18153V5.97264C17.8612 5.97264 20.6595 5.97264 21.552 5.97264C22.8052 5.97264 22.3846 3.8384 21.552 3.45903C20.567 3.01117 18.8149 2.16384 17.1628 1.71474C16.902 0.722083 16.1647 0 15.2848 0C14.4051 0 13.6681 0.722083 13.4073 1.71474C11.7553 2.16378 10.0032 3.01111 9.01819 3.45903C8.18555 3.8384 7.76545 5.97264 9.01819 5.97264C9.91078 5.97264 12.7086 5.97264 14.2466 5.97264V7.18153C13.2225 7.55386 12.2767 8.37751 12.2767 9.11017C12.2767 9.84764 12.2767 10.3074 12.7689 10.4929C12.7689 11.6002 12.7689 10.7918 12.7689 12.2773C12.7699 12.8611 12.7095 13.2688 12.6482 13.5016C12.6015 13.6777 12.5596 13.7581 12.5327 13.8042C12.4889 13.8644 12.479 13.8951 12.312 13.985C12.1485 14.0677 11.8165 14.1646 11.2969 14.1635C9.59672 14.1635 8.2567 14.1635 6.65644 14.1635C5.72475 14.1646 4.83741 14.3064 3.99441 14.6574C3.36352 14.9198 2.76 15.3074 2.22862 15.8262C1.42711 16.6002 0.825984 17.6674 0.480328 18.7912C0.129187 19.921 0.0009375 21.0945 0 22.2786C0 25.4635 0 26 0 26H4.96247C4.96247 26 4.96247 25.4635 4.96247 22.2786C4.96205 21.7398 5.01858 21.3592 5.07891 21.1359C5.12512 20.9657 5.16661 20.883 5.20008 20.8298C5.25291 20.7542 5.28633 20.6974 5.49005 20.5911C5.68997 20.4906 6.06998 20.3819 6.65653 20.3831C7.82447 20.3831 8.49961 20.3831 9.58547 20.3831C11.2965 20.3831 11.1225 23.6566 15.185 23.6566C19.2474 23.6566 19.4755 20.3831 21.1861 20.3831C22.0461 20.3831 23.7709 20.3831 24 20.3831V14.1635C23.1758 14.1635 19.9423 14.1635 19.2039 14.1635Z" fill="white"/>
</svg>
