<svg width="63" height="52" viewBox="0 0 63 52" fill="none" xmlns="http://www.w3.org/2000/svg">
<path d="M31.5 52L10.5 39.0688V28.6138L0 22.0106L13.125 9.07937L31.5 0L50.4 9.07937L63 22.0106L52.5 28.3386V38.7937L31.5 52ZM34.125 26.4127V45.1217L47.25 36.8677V31.3651L41.7375 34.6667L34.125 26.4127ZM15.75 36.8677L28.875 45.1217V26.4127L20.7375 34.6667L15.75 31.3651V36.8677ZM35.175 21.7355L42.7875 29.164L56.4375 20.6349L48.5625 12.9312L35.175 21.7355ZM6.825 20.6349L20.2125 29.164L27.825 21.7355L14.4375 12.9312L6.825 20.6349ZM18.6375 10.7302L31.5 18.9841L44.3625 10.7302L31.5 4.12698L18.6375 10.7302Z" fill="#188BF4"/>
</svg>
