<svg width="110" height="107" viewBox="0 0 110 107" fill="none" xmlns="http://www.w3.org/2000/svg">
<ellipse cx="55" cy="53.5" rx="55" ry="53.5" fill="#1174CF"/>
<path d="M35 64.4V46.35C35 43.6898 35 42.3596 35.4965 41.3435C35.9333 40.4498 36.6302 39.7231 37.4874 39.2677C38.4619 38.75 39.7375 38.75 42.2889 38.75H44.6911C44.9712 38.75 45.1112 38.75 45.2403 38.7346C45.9143 38.6541 46.5188 38.2645 46.8893 37.672C46.9603 37.5584 47.0229 37.4278 47.1481 37.1667C47.3986 36.6444 47.5238 36.3832 47.6659 36.1561C48.4068 34.9709 49.6158 34.1919 50.9638 34.0309C51.2221 34 51.502 34 52.0621 34H58.9378C59.498 34 59.7779 34 60.0362 34.0309C61.3842 34.1919 62.5932 34.9709 63.3342 36.1561C63.4761 36.3832 63.6014 36.6444 63.8519 37.1667C63.977 37.4278 64.0396 37.5584 64.1107 37.672C64.4813 38.2645 65.0856 38.6541 65.7596 38.7346C65.8889 38.75 66.0288 38.75 66.309 38.75H68.7111C71.2624 38.75 72.5382 38.75 73.5127 39.2677C74.3698 39.7231 75.0668 40.4498 75.5034 41.3435C76 42.3596 76 43.6898 76 46.35V64.4C76 67.0602 76 68.3905 75.5034 69.4065C75.0668 70.3002 74.3698 71.027 73.5127 71.4822C72.5382 72 71.2624 72 68.7111 72H42.2889C39.7375 72 38.4619 72 37.4874 71.4822C36.6302 71.027 35.9333 70.3002 35.4965 69.4065C35 68.3905 35 67.0602 35 64.4Z" stroke="white" stroke-width="2.472" stroke-linecap="round" stroke-linejoin="round"/>
<path d="M86 32.2857H81.5V27.1429C81.5 26.5118 81.0522 26 80.5 26H79.5C78.9478 26 78.5 26.5118 78.5 27.1429V32.2857H74C73.4478 32.2857 73 32.7975 73 33.4286V34.5714C73 35.2025 73.4478 35.7143 74 35.7143H78.5V40.8571C78.5 41.4882 78.9478 42 79.5 42H80.5C81.0522 42 81.5 41.4882 81.5 40.8571V35.7143H86C86.5522 35.7143 87 35.2025 87 34.5714V33.4286C87 32.7975 86.5522 32.2857 86 32.2857Z" fill="white"/>
<path d="M55.5 62.5C59.274 62.5 62.3333 59.3101 62.3333 55.375C62.3333 51.4399 59.274 48.25 55.5 48.25C51.7259 48.25 48.6666 51.4399 48.6666 55.375C48.6666 59.3101 51.7259 62.5 55.5 62.5Z" stroke="white" stroke-width="2.472" stroke-linecap="round" stroke-linejoin="round"/>
</svg>
