<svg width="49" height="49" viewBox="0 0 49 49" fill="none" xmlns="http://www.w3.org/2000/svg">
<path d="M24.5768 33.0789L21.8119 30.6057L24.5768 27.8233L7.06583 10.2019L3.37931 8.9653L0 2.16404L2.15047 0L9.2163 3.09148L10.7523 6.80126L27.9561 24.4227L30.721 21.6404L33.1787 24.4227C33.1787 24.4227 30.721 26.2776 33.4859 29.0599C35.0219 30.6057 37.4796 28.7508 42.0878 33.388C43.6238 34.9338 48.5392 39.8801 48.5392 39.8801C48.5392 39.8801 50.3824 42.9716 46.6959 46.6814C43.0094 50.3912 39.9373 48.5363 39.9373 48.5363C39.9373 48.5363 35.0219 43.5899 33.4859 42.0442C29.185 37.7161 30.721 34.9338 29.4922 33.6972C26.7273 30.9148 24.5768 33.0789 24.5768 33.0789ZM34.1003 31.8423L31.9498 34.0063L43.6238 45.7539L45.7743 43.5899L34.1003 31.8423Z" fill="#5791C7"/>
</svg>
