<svg width="45" height="43" viewBox="0 0 45 43" fill="none" xmlns="http://www.w3.org/2000/svg">
<path d="M37.55 16.0625V41H7.44995V16.0625" stroke="white" stroke-width="3.24" stroke-miterlimit="10"/>
<path d="M44 19.625L22.5 3L1 19.625" stroke="white" stroke-width="3.24" stroke-miterlimit="10"/>
<path d="M28 23.35V28.6V34.9C28 35.457 27.7103 35.9911 27.1945 36.3849C26.6788 36.7787 25.9793 37 25.25 37H19.75C19.0207 37 18.3212 36.7787 17.8055 36.3849C17.2897 35.9911 17 35.457 17 34.9V28.6V23.35C17 21.397 18.7462 19.7485 21.125 19.2865V18.1H18.375V16H26.625V18.1H23.875V19.2865C26.2538 19.7485 28 21.397 28 23.35Z" fill="white"/>
</svg>
