<svg width="45" height="43" viewBox="0 0 45 43" fill="none" xmlns="http://www.w3.org/2000/svg">
<path d="M37.55 16.0625V41H7.44995V16.0625" stroke="white" stroke-width="3.24" stroke-miterlimit="10"/>
<path d="M15 21.8298V34.7515C15 35.3145 15.4758 36 16.0615 36H28.8377C29.4219 36 30 35.3145 30 34.7515V21.8298H15ZM22.4846 32.0844C20.2308 32.0844 18.4035 30.325 18.4035 28.1539C18.4035 25.9828 20.2308 24.2234 22.4846 24.2234C24.7385 24.2234 26.5658 25.9828 26.5658 28.1539C26.5658 30.3254 24.7385 32.0844 22.4846 32.0844ZM28.8377 18H16.0615C15.4758 18 15 18.3956 15 18.9594V21.0638H30V18.9594C30 18.3956 29.4219 18 28.8377 18ZM20 20.2979H15.7692V18.766H20V20.2979ZM27.3638 20.1906C26.8835 20.1906 26.4954 19.8157 26.4954 19.3527C26.4954 18.8904 26.8835 18.5155 27.3638 18.5155C27.8442 18.5155 28.2335 18.8904 28.2335 19.3527C28.2331 19.8153 27.8442 20.1906 27.3638 20.1906Z" fill="white"/>
<path d="M44 19.625L22.5 3L1 19.625" stroke="white" stroke-width="3.24" stroke-miterlimit="10"/>
</svg>
