<?xml version="1.0" encoding="utf-8"?>

<!-- Uploaded to: SVG Repo, www.svgrepo.com, Generator: SVG Repo Mixer Tools -->
<svg version="1.1" id="Icons" xmlns="http://www.w3.org/2000/svg" xmlns:xlink="http://www.w3.org/1999/xlink" 
	 viewBox="0 0 32 32" xml:space="preserve">
<style type="text/css">
	.st0{fill:none;stroke:#000000;stroke-width:2;stroke-linecap:round;stroke-linejoin:round;stroke-miterlimit:10;}
</style>
<path d="M26,0H6C4.3,0,3,1.3,3,3v26c0,1.7,1.3,3,3,3h20c1.7,0,3-1.3,3-3V3C29,1.3,27.7,0,26,0z M15.3,4.3c0.4-0.4,1-0.4,1.4,0
	C17,4.6,20,7.5,20,10c0,2.1-1.8,3.9-4,3.9s-4-1.7-4-3.9C12,7.5,15,4.6,15.3,4.3z M12,28c-2.8,0-5-2.7-5-6s2.2-6,5-6s5,2.7,5,6
	S14.8,28,12,28z M16.7,27.9c1.4-1.5,2.3-3.6,2.3-5.9s-0.9-4.4-2.3-5.9C19.1,16.6,21,19,21,22S19.1,27.4,16.7,27.9z M20.7,27.9
	c1.4-1.5,2.3-3.6,2.3-5.9s-0.9-4.4-2.3-5.9C23.1,16.6,25,19,25,22S23.1,27.4,20.7,27.9z"/>
</svg>