<svg width="82" height="103" viewBox="0 0 82 103" fill="none" xmlns="http://www.w3.org/2000/svg">
<path d="M39.5901 93.5996L39.02 103H43.3936L42.8235 93.5996H39.5901Z" fill="#1174CF"/>
<path d="M56.0818 89.3745L61.1352 97.3176L64.6727 94.7404L58.6969 87.4698L56.0818 89.3745Z" fill="#1174CF"/>
<path d="M66.7806 76.282L75.5278 79.7313L76.8797 75.562L67.7805 73.2014L66.7806 76.282Z" fill="#1174CF"/>
<path d="M5.5354 75.562L6.88753 79.7313L15.6336 76.282L14.6348 73.2014L5.5354 75.562Z" fill="#1174CF"/>
<path d="M17.7416 94.7387L21.2801 97.3159L26.3327 89.3746L23.7176 87.4681L17.7416 94.7387Z" fill="#1174CF"/>
<path d="M50.9087 14.1969H44.1702V0H37.4326V14.1969H30.694C30.694 41.958 0 34.4551 0 63.7171H81.6047C81.6045 34.4551 50.9087 41.958 50.9087 14.1969Z" fill="#1174CF"/>
<path d="M52.525 69.7791C51.0265 74.8589 46.3477 78.5614 40.8018 78.5614C35.2556 78.5614 30.5762 74.8588 29.0778 69.7791H52.525Z" stroke="#1174CF" stroke-width="2.472"/>
</svg>
