<svg width="60" height="57" viewBox="0 0 60 57" fill="none" xmlns="http://www.w3.org/2000/svg">
<path d="M43.6363 41.4544H16.3637V46.6362H43.6363V41.4544Z" fill="white"/>
<path d="M43.6363 31.0909H16.3637V36.2727H43.6363V31.0909Z" fill="white"/>
<path d="M58.6379 15.3325L31.3653 0.348094C30.5207 -0.116031 29.4793 -0.116031 28.6344 0.348094L1.36183 15.3325C0.519256 15.7955 0 16.6504 0 17.5753V54.4089C0 55.8397 1.22132 56.9997 2.72729 56.9997H10.9091V54.4088V51.8179V49.227V38.8633V28.4999C10.9091 27.069 12.1304 25.9089 13.6363 25.9089H46.3635C47.8698 25.9089 49.0908 27.069 49.0908 28.4999V38.8635V49.2271V51.818V54.4089V56.9997H57.2726C58.7789 56.9997 59.9997 55.8397 59.9997 54.4089V17.5753C59.9997 16.6504 59.4807 15.7955 58.6379 15.3325Z" fill="white"/>
<path d="M16.3637 51.8181V54.4091V56.9999H43.6363V54.4091V51.8181H16.3637Z" fill="white"/>
</svg>
