<svg width="45" height="43" viewBox="0 0 45 43" fill="none" xmlns="http://www.w3.org/2000/svg">
<path d="M37.55 16.0625V41H7.44995V16.0625" stroke="white" stroke-width="3.24" stroke-miterlimit="10"/>
<path fill-rule="evenodd" clip-rule="evenodd" d="M9.00239 39.6098C8.9529 40.3768 9.67995 41 10.571 41H21.8653C22.7564 41.0001 23.4695 40.3754 23.5683 39.6119C23.7194 38.4446 24.0606 37.299 24.5841 36.2095C25.3139 34.6907 26.3835 33.3107 27.7319 32.1482C29.0804 30.9858 30.6812 30.0637 32.4429 29.4346C33.7067 28.9833 35.0357 28.6892 36.3898 28.5589C37.2754 28.4738 37.9999 27.859 37.9999 27.0908L38 17.3544C38 16.5862 37.277 15.9594 36.3873 16.0021C33.1247 16.1585 29.912 16.7887 26.8859 17.8692C23.3623 19.1274 20.1607 20.9716 17.4639 23.2965C14.7671 25.6213 12.6278 28.3813 11.1683 31.4189C9.91486 34.0277 9.18383 36.7972 9.00239 39.6098ZM33.9764 22.6662C34.565 22.5539 35.1605 22.4623 35.7616 22.3921L35.7075 22.0475L35.5992 21.3584L35.545 21.0138C34.8995 21.0892 34.2598 21.1875 33.6276 21.3082L33.7148 21.6476L33.8892 22.3267L33.9764 22.6662ZM27.2818 25.0011C28.3126 24.455 29.3945 23.9839 30.516 23.5927L30.3648 23.2704L30.0622 22.6257L29.9109 22.3034C28.7063 22.7235 27.5443 23.2295 26.4371 23.816L26.6482 24.1123L27.0706 24.7048L27.2818 25.0011ZM23.0476 27.928C23.4699 27.5526 23.9088 27.1938 24.363 26.852L24.0978 26.59L23.5673 26.0661L23.3021 25.8041C22.8142 26.1711 22.3429 26.5566 21.8893 26.9598C21.4358 27.363 21.0034 27.7811 20.5929 28.2127L20.9048 28.4332L21.5286 28.8741L21.8406 29.0946C22.2228 28.6927 22.6254 28.3035 23.0476 27.928ZM18.2511 34.4968C18.6701 33.5184 19.183 32.5716 19.7843 31.6666L19.4343 31.4937L18.7343 31.148L18.3843 30.9752C17.7384 31.9473 17.1875 32.9642 16.7375 34.0151L17.1159 34.1355L17.8727 34.3764L18.2511 34.4968ZM17.0205 39.0537C17.0834 38.5336 17.1712 38.0176 17.2834 37.507L16.887 37.4423L16.0943 37.3129L15.698 37.2483C15.5776 37.7968 15.4833 38.3509 15.4158 38.9096L15.817 38.9456L16.6193 39.0177L17.0205 39.0537Z" fill="white"/>
<path d="M44 19.625L22.5 3L1 19.625" stroke="white" stroke-width="3.24" stroke-miterlimit="10"/>
</svg>
