<svg width="66" height="55" viewBox="0 0 66 55" fill="none" xmlns="http://www.w3.org/2000/svg">
<path d="M3.97768 0.0381679C2.65179 0.295802 0 1.41221 0 5.53435V55H9.42857V5.53435C9.42857 0.0381678 4.71429 0.0381679 4.71429 0.0381679C4.71429 0.0381679 4.41964 -0.0477099 3.97768 0.0381679ZM60.5491 0.0381679C59.2232 0.295802 56.5714 1.41221 56.5714 5.53435V55H66V5.53435C66 0.0381678 61.2857 0.0381679 61.2857 0.0381679C61.2857 0.0381679 60.9911 -0.0477099 60.5491 0.0381679ZM14.1429 11.0305V49.5038H51.8571V11.0305H14.1429ZM22.3929 16.5267H43.6071C43.6071 16.5267 47.1429 16.5267 47.1429 19.2748C47.1429 22.0229 43.6071 22.0229 43.6071 22.0229H22.3929C22.3929 22.0229 18.8571 22.0229 18.8571 19.2748C18.8571 16.5267 22.3929 16.5267 22.3929 16.5267ZM22.3929 27.5191H43.6071C43.6071 27.5191 47.1429 27.5191 47.1429 30.2672C47.1429 33.0153 43.6071 33.0153 43.6071 33.0153H22.3929C22.3929 33.0153 18.8571 33.0153 18.8571 30.2672C18.8571 27.5191 22.3929 27.5191 22.3929 27.5191ZM22.3929 38.5114H43.6071C43.6071 38.5114 47.1429 38.5114 47.1429 41.2595C47.1429 44.0076 43.6071 44.0076 43.6071 44.0076H22.3929C22.3929 44.0076 18.8571 44.0076 18.8571 41.2595C18.8571 38.5114 22.3929 38.5114 22.3929 38.5114Z" fill="white"/>
</svg>
