<svg width="17" height="19" viewBox="0 0 17 19" fill="none" xmlns="http://www.w3.org/2000/svg">
<path d="M6.84509 0.0730553C6.50659 0.215923 6.46898 0.365004 6.46898 1.80611V3.16025H6.3035C6.0327 3.16025 5.40085 3.43357 5.13758 3.6634C4.74643 4.00504 4.58846 4.36532 4.58846 4.91194C4.58846 5.39024 4.58846 5.39645 4.38537 5.42751C3.61812 5.56417 1.76769 5.96793 1.39158 6.07974C0.83495 6.25366 0.233184 6.73196 0.0902649 7.11087C0.0225662 7.30343 0 8.76318 0 13.1859V19H8.49994H16.9999V13.161C16.9999 8.28488 16.9848 7.2848 16.8946 7.11087C16.7517 6.82514 16.2778 6.40274 15.9543 6.2723C15.661 6.14806 14.0061 5.76915 13.0959 5.61386C12.795 5.56417 12.5167 5.50205 12.4791 5.48342C12.4415 5.46478 12.4114 5.22253 12.4114 4.943C12.4114 4.02989 11.9225 3.47705 10.892 3.19752C10.7791 3.17268 10.7566 3.08571 10.7566 2.69438V2.2285H13.7504C16.5636 2.2285 16.7592 2.22229 16.872 2.11669C16.9472 2.05458 16.9999 1.89928 16.9999 1.77505C16.9999 1.35266 17.0751 1.35887 13.3517 1.35887C10.6061 1.35887 10.0044 1.37129 9.884 1.44583C9.75613 1.52658 9.73356 1.6384 9.70347 2.3341L9.66586 3.1292L8.63534 3.14783L7.59729 3.16646V1.81232C7.59729 1.06692 7.57473 0.396063 7.55216 0.31531C7.52207 0.24077 7.40924 0.135172 7.28889 0.0854778C7.04066 -0.0263309 7.07827 -0.0263309 6.84509 0.0730553ZM8.67295 8.12337C8.94375 8.21034 10.042 9.84401 10.388 10.6826C10.749 11.5771 10.3504 12.4405 9.3725 12.8691C8.93622 13.0616 8.06366 13.0616 7.62738 12.8691C6.92031 12.5585 6.46898 11.9684 6.46898 11.3472C6.46898 10.9435 6.64951 10.5024 7.14597 9.6825C7.80039 8.59546 8.15393 8.16686 8.47738 8.07368C8.4849 8.06747 8.56764 8.09232 8.67295 8.12337Z" fill="white"/>
</svg>
