<svg width="69" height="76" viewBox="0 0 69 76" fill="none" xmlns="http://www.w3.org/2000/svg">
<path d="M1.24015 29.8312H67.0339M15.861 1.24028V9.40911M52.4131 1.24028V9.40911M12.9368 74.7598H55.3373C59.4315 74.7598 61.4787 74.7598 63.0424 73.8693C64.4179 73.0864 65.5364 71.8365 66.2371 70.2996C67.0339 68.5523 67.0339 66.2646 67.0339 61.6896V22.4792C67.0339 17.9042 67.0339 15.6168 66.2371 13.8694C65.5364 12.3323 64.4179 11.0826 63.0424 10.2995C61.4787 9.40911 59.4315 9.40911 55.3373 9.40911H12.9368C8.84262 9.40911 6.79549 9.40911 5.23171 10.2995C3.85615 11.0826 2.7378 12.3323 2.03695 13.8694C1.24015 15.6168 1.24015 17.9042 1.24015 22.4792V61.6896C1.24015 66.2646 1.24015 68.5523 2.03695 70.2996C2.7378 71.8365 3.85615 73.0864 5.23171 73.8693C6.79549 74.7598 8.84259 74.7598 12.9368 74.7598Z" stroke="white" stroke-width="2.472" stroke-linecap="round" stroke-linejoin="round"/>
</svg>
