<svg width="10" height="14" viewBox="0 0 10 14" fill="none" xmlns="http://www.w3.org/2000/svg">
<path d="M9.21193 5.79519C8.9413 5.28165 8.40145 4.96273 7.8032 4.96273H6.622L7.34504 1.56058C7.47119 0.966264 7.14446 0.356786 6.56806 0.111259C5.97585 -0.140863 5.29731 0.0506665 4.93104 0.532703L0.305956 6.61909C-0.0472518 7.08376 -0.0984964 7.69138 0.17231 8.20476C0.442999 8.71819 0.982796 9.03716 1.58104 9.03716H2.76225L2.0392 12.4393C1.91305 13.0336 2.23978 13.6431 2.81618 13.8887C3.4084 14.1408 4.08694 13.9493 4.4532 13.4672L9.07829 7.38081C9.43149 6.91619 9.48274 6.30857 9.21193 5.79519ZM4.48741 10.2537L4.90486 8.28925C4.96337 8.01407 4.89022 7.72813 4.70574 7.5105C4.5212 7.29282 4.24483 7.16662 3.95294 7.16662H2.29759L4.8969 3.74598L4.47944 5.71042C4.42093 5.98565 4.49408 6.27154 4.67856 6.48916C4.8631 6.70685 5.13953 6.83305 5.43136 6.83305H7.08671L4.48741 10.2537Z" fill="#F4940A"/>
</svg>
