<svg width="17" height="29" viewBox="0 0 17 29" fill="none" xmlns="http://www.w3.org/2000/svg">
<path d="M6.84509 0.0730553C6.50659 0.215923 6.46898 0.365004 6.46898 1.80611V3.16025H6.3035C6.0327 3.16025 5.40085 3.43357 5.13758 3.6634C4.74643 4.00504 4.58846 4.36532 4.58846 4.91194C4.58846 5.39024 4.58846 5.39645 4.38537 5.42751C3.61812 5.56417 1.76769 5.96793 1.39158 6.07974C0.83495 6.25366 0.233184 6.73196 0.0902649 7.11087C0.0225662 7.30343 0 8.76318 0 13.1859V19H8.49994H16.9999V13.161C16.9999 8.28488 16.9848 7.2848 16.8946 7.11087C16.7517 6.82514 16.2778 6.40274 15.9543 6.2723C15.661 6.14806 14.0061 5.76915 13.0959 5.61386C12.795 5.56417 12.5167 5.50205 12.4791 5.48342C12.4415 5.46478 12.4114 5.22253 12.4114 4.943C12.4114 4.02989 11.9225 3.47705 10.892 3.19752C10.7791 3.17268 10.7566 3.08571 10.7566 2.69438V2.2285H13.7504C16.5636 2.2285 16.7592 2.22229 16.872 2.11669C16.9472 2.05458 16.9999 1.89928 16.9999 1.77505C16.9999 1.35266 17.0751 1.35887 13.3517 1.35887C10.6061 1.35887 10.0044 1.37129 9.884 1.44583C9.75613 1.52658 9.73356 1.6384 9.70347 2.3341L9.66586 3.1292L8.63534 3.14783L7.59729 3.16646V1.81232C7.59729 1.06692 7.57473 0.396063 7.55216 0.31531C7.52207 0.24077 7.40924 0.135172 7.28889 0.0854778C7.04066 -0.0263309 7.07827 -0.0263309 6.84509 0.0730553ZM8.67295 8.12337C8.94375 8.21034 10.042 9.84401 10.388 10.6826C10.749 11.5771 10.3504 12.4405 9.3725 12.8691C8.93622 13.0616 8.06366 13.0616 7.62738 12.8691C6.92031 12.5585 6.46898 11.9684 6.46898 11.3472C6.46898 10.9435 6.64951 10.5024 7.14597 9.6825C7.80039 8.59546 8.15393 8.16686 8.47738 8.07368C8.4849 8.06747 8.56764 8.09232 8.67295 8.12337Z" fill="white"/>
<path d="M0 22.7472C0 25.3612 0.00748899 25.5154 0.157269 25.8167C0.344493 26.2022 0.756388 26.6156 1.16079 26.8189L1.46035 26.973L8.3652 26.9941C15.1877 27.0081 15.27 27.0081 15.6819 26.8679C15.974 26.7628 16.1912 26.6226 16.4308 26.3704C16.9925 25.7887 17 25.7396 17 22.6841V20H8.5H0V22.7472ZM9.1141 21.3596C10.6119 22.0814 10.6419 23.9806 9.17401 24.7164C8.74714 24.9267 7.87841 24.9267 7.44405 24.7164C6.2533 24.1208 6.00617 22.572 6.97974 21.703C7.39163 21.3315 7.82599 21.1844 8.38767 21.2124C8.65727 21.2264 8.98678 21.2895 9.1141 21.3596ZM4.74802 22.6701C4.99515 22.8523 5.01762 23.2097 4.78546 23.4059C4.65815 23.5111 4.51586 23.5391 4.0815 23.5391C3.44493 23.5391 3.22026 23.4129 3.22026 23.0555C3.22026 22.6561 3.43744 22.5299 4.08899 22.5229C4.44097 22.5229 4.59075 22.558 4.74802 22.6701ZM13.1731 22.628C13.5551 22.8102 13.5326 23.3288 13.1282 23.497C12.9035 23.5952 12.2819 23.5952 12.0273 23.504C11.6154 23.3569 11.5855 22.8032 11.9824 22.614C12.237 22.4949 12.9185 22.5019 13.1731 22.628Z" fill="white"/>
<path d="M3.00021 28.404C3.00021 29.0203 2.9486 28.9999 4.47752 28.9999C5.67099 28.9999 5.7097 28.9958 5.85162 28.9061C5.9871 28.8244 6 28.7754 6 28.4163V28.0204L4.50333 28.0082L3.00021 28V28.404Z" fill="white"/>
<path d="M11.0216 28.0612C11.0024 28.0939 10.996 28.2775 11.0024 28.4694C11.0216 28.7632 11.0471 28.8285 11.175 28.9061C11.3156 28.9958 11.3539 28.9999 12.5362 28.9999C14.0509 28.9999 13.9998 29.0203 13.9998 28.404V28H12.5299C11.2836 28 11.0471 28.0082 11.0216 28.0612Z" fill="white"/>
</svg>
