<svg width="620" height="578" viewBox="0 0 620 578" fill="none" xmlns="http://www.w3.org/2000/svg">
<path d="M218.045 209.271L292.795 264.717C294.653 266.093 296.821 266.791 298.999 266.791C301.178 266.791 303.345 266.093 305.204 264.717L379.954 209.271C382.762 207.197 384.428 203.837 384.428 200.256C384.428 196.663 382.762 193.314 379.954 191.229L305.204 135.783C301.487 133.034 296.512 133.034 292.795 135.783L218.045 191.229C215.236 193.314 213.571 196.663 213.571 200.256C213.571 203.837 215.236 207.197 218.045 209.271Z" fill="black"/>
<path d="M320.357 277.875C320.357 281.456 322.022 284.816 324.831 286.89L399.581 342.336C401.439 343.711 403.607 344.41 405.785 344.41C407.964 344.41 410.131 343.711 411.99 342.336L486.74 286.89C489.548 284.816 491.214 281.456 491.214 277.875C491.214 274.293 489.548 270.933 486.74 268.859L411.99 213.413C408.273 210.651 403.298 210.651 399.581 213.413L324.831 268.859C322.022 270.933 320.357 274.293 320.357 277.875Z" fill="black"/>
<path d="M111.259 286.896L186.009 342.342C187.867 343.717 190.035 344.416 192.213 344.416C194.392 344.416 196.559 343.717 198.418 342.342L273.167 286.896C275.976 284.822 277.642 281.462 277.642 277.881C277.642 274.288 275.976 270.939 273.167 268.854L198.418 213.408C194.701 210.659 189.726 210.659 186.009 213.408L111.259 268.854C108.45 270.939 106.785 274.288 106.785 277.881C106.786 281.462 108.452 284.822 111.259 286.896Z" fill="black"/>
<path d="M305.205 291.032C301.488 288.282 296.513 288.282 292.796 291.032L218.046 346.478C215.238 348.552 213.572 351.912 213.572 355.493C213.572 359.086 215.238 362.435 218.046 364.52L292.796 419.966C294.655 421.341 296.822 422.029 299.001 422.029C301.179 422.029 303.347 421.341 305.205 419.966L379.955 364.52C382.764 362.435 384.429 359.086 384.429 355.493C384.429 351.912 382.764 348.552 379.955 346.478L305.205 291.032Z" fill="black"/>
<path d="M379.955 501.729L305.205 446.283C301.488 443.533 296.513 443.533 292.796 446.283L218.046 501.729C215.238 503.803 213.572 507.163 213.572 510.744C213.572 514.337 215.238 517.686 218.046 519.771L292.796 575.216C294.655 576.592 296.822 577.28 299.001 577.28C301.179 577.28 303.347 576.592 305.205 575.216L379.955 519.771C382.764 517.686 384.429 514.337 384.429 510.744C384.429 507.163 382.762 503.802 379.955 501.729Z" fill="black"/>
<path d="M593.526 346.479L518.776 291.033C515.059 288.284 510.084 288.284 506.367 291.033L431.617 346.479C428.808 348.553 427.143 351.913 427.143 355.495C427.143 359.087 428.808 362.436 431.617 364.521L506.367 419.967C508.225 421.342 510.393 422.03 512.571 422.03C514.75 422.03 516.917 421.342 518.776 419.967L593.526 364.521C596.335 362.436 598 359.087 598 355.495C598 351.913 596.335 348.552 593.526 346.479Z" fill="black"/>
<path d="M486.74 424.104L411.99 368.658C408.273 365.908 403.298 365.908 399.581 368.658L324.831 424.104C322.022 426.178 320.357 429.538 320.357 433.119C320.357 436.712 322.022 440.061 324.831 442.146L399.581 497.592C401.439 498.967 403.607 499.655 405.785 499.655C407.964 499.655 410.131 498.967 411.99 497.592L486.74 442.146C489.548 440.061 491.214 436.712 491.214 433.119C491.214 429.538 489.548 426.177 486.74 424.104Z" fill="black"/>
<path d="M170.857 355.499C170.857 351.918 169.192 348.558 166.383 346.484L91.6328 291.038C87.9163 288.276 82.9408 288.276 79.2243 291.038L4.47448 346.484C1.66552 348.558 0 351.918 0 355.499C0 359.081 1.66552 362.441 4.47448 364.515L79.2243 419.961C81.0826 421.336 83.2503 422.035 85.4286 422.035C87.6068 422.035 89.7746 421.336 91.6328 419.961L166.383 364.515C169.19 362.442 170.857 359.082 170.857 355.499Z" fill="black"/>
<path d="M277.642 433.124C277.642 429.543 275.976 426.183 273.167 424.109L198.418 368.663C194.701 365.901 189.726 365.901 186.009 368.663L111.259 424.109C108.45 426.183 106.785 429.543 106.785 433.124C106.785 436.706 108.45 440.066 111.259 442.14L186.009 497.586C187.867 498.961 190.035 499.66 192.213 499.66C194.392 499.66 196.559 498.961 198.418 497.586L273.167 442.14C275.976 440.067 277.642 436.707 277.642 433.124Z" fill="black"/>
<path d="M511.926 50.6479C513.236 50.6479 513.892 49.9183 514.22 48.772C517.606 31.3682 517.388 30.9516 536.394 27.5123C537.705 27.3042 538.47 26.5745 538.47 25.3237C538.47 24.0734 537.705 23.3438 536.394 23.1352C517.497 19.4883 518.043 19.0712 514.22 1.87595C513.892 0.729659 513.236 0 511.926 0C510.615 0 509.959 0.729659 509.632 1.87595C505.809 19.0712 506.464 19.4883 487.457 23.1352C486.255 23.3438 485.382 24.0734 485.382 25.3237C485.382 26.5745 486.255 27.3042 487.457 27.5123C506.464 31.1601 506.245 31.3682 509.632 48.772C509.959 49.9183 510.615 50.6479 511.926 50.6479ZM459.056 122.347C461.131 122.347 462.552 121.096 462.77 119.22C466.702 91.395 467.685 91.395 497.835 85.8721C499.801 85.5591 501.221 84.3087 501.221 82.3287C501.221 80.4528 499.801 79.098 497.835 78.7854C467.685 74.8254 466.593 73.8872 462.77 45.5412C462.552 43.6657 461.131 42.3109 459.056 42.3109C457.09 42.3109 455.669 43.6657 455.451 45.6457C451.846 73.5746 450.317 73.4706 420.386 78.7854C418.42 79.2025 417 80.4528 417 82.3287C417 84.4128 418.42 85.5591 420.823 85.8721C450.535 90.4573 451.846 91.1869 455.451 119.012C455.669 121.096 457.09 122.347 459.056 122.347ZM533.117 237.711C535.958 237.711 538.033 235.731 538.579 232.917C546.335 175.808 554.746 167.158 613.952 160.905C617.01 160.593 619.086 158.404 619.086 155.695C619.086 152.985 617.01 150.901 613.952 150.484C554.746 144.231 546.335 135.581 538.579 78.4728C538.033 75.6591 535.958 73.7831 533.117 73.7831C530.277 73.7831 528.202 75.6591 527.765 78.4728C520.009 135.581 511.489 144.231 452.392 150.484C449.225 150.901 447.149 152.985 447.149 155.695C447.149 158.404 449.225 160.593 452.392 160.905C511.379 168.304 519.572 175.912 527.765 232.917C528.202 235.731 530.277 237.711 533.117 237.711Z" fill="black"/>
</svg>
