<svg width="45" height="43" viewBox="0 0 45 43" fill="none" xmlns="http://www.w3.org/2000/svg">
<path d="M2.37619 24.9498L2.21037 25.3783L2.6071 25.531L2.78364 25.1295L2.37619 24.9498ZM2.37619 24.9498C2.21037 25.3783 2.2103 25.3783 2.21023 25.3782L2.21007 25.3782L2.20966 25.378L2.20851 25.3776L2.20487 25.3761L2.19247 25.3713C2.182 25.3671 2.16718 25.3612 2.14858 25.3535C2.11142 25.3383 2.05895 25.3163 1.9957 25.2884C1.86984 25.2328 1.69823 25.1525 1.5182 25.0542C1.34005 24.957 1.14296 24.8364 0.971602 24.6985C0.810516 24.569 0.623138 24.386 0.529575 24.1505C0.395204 23.8123 0.431552 23.4373 0.596849 23.1155L0.992021 23.321L0.596849 23.1155C0.760739 22.7965 1.04036 22.5467 1.36543 22.4057C1.6905 22.2646 2.05715 22.2339 2.38908 22.3378L2.2494 22.7754L2.38908 22.3378C2.72387 22.4427 3.00363 22.6804 3.138 23.0186C3.23156 23.2541 3.22331 23.522 3.19741 23.7327C3.16987 23.9569 3.11246 24.1879 3.05261 24.3884C2.99213 24.591 2.92544 24.7748 2.87426 24.9072C2.84853 24.9737 2.82641 25.0281 2.81049 25.0663C2.80252 25.0855 2.79609 25.1006 2.79151 25.1113L2.78607 25.1239L2.78446 25.1276L2.78395 25.1288L2.78377 25.1292L2.7837 25.1294C2.78367 25.1295 2.78364 25.1295 2.37619 24.9498Z" stroke="#1174CF" stroke-width="0.9"/>
<path d="M4.74974 27.7353L4.54507 28.1176L5.01293 28.3623L5.18737 27.9079L4.74974 27.7353ZM4.74974 27.7353C4.54507 28.1176 4.545 28.1176 4.54493 28.1176L4.54477 28.1175L4.54436 28.1173L4.5432 28.1167L4.53953 28.1147L4.52698 28.108C4.51638 28.1024 4.50138 28.0943 4.48252 28.084C4.44485 28.0634 4.39164 28.0338 4.32742 27.9966C4.19954 27.9226 4.02526 27.8173 3.84185 27.6926C3.65995 27.5689 3.46003 27.4201 3.28554 27.2585C3.11871 27.1041 2.93744 26.9039 2.84112 26.6745C2.70254 26.3443 2.7066 25.9839 2.85094 25.6728L3.27802 25.8703L2.85094 25.6728C2.9952 25.3618 3.26767 25.1254 3.60765 25.0144C3.94762 24.9034 4.32893 24.9264 4.66801 25.0795L4.49184 25.4701L4.66801 25.0795C5.00729 25.2328 5.27648 25.504 5.41506 25.8341C5.51138 26.0636 5.52157 26.3196 5.509 26.5326C5.49586 26.7554 5.45399 26.9832 5.40725 27.1815C5.36013 27.3815 5.30565 27.5615 5.2632 27.6911C5.24189 27.7562 5.22338 27.8092 5.21 27.8465C5.20331 27.8651 5.19789 27.8799 5.19402 27.8903L5.18943 27.9025L5.18807 27.9061L5.18764 27.9072L5.18748 27.9076L5.18742 27.9078C5.1874 27.9079 5.18737 27.9079 4.74974 27.7353Z" stroke="#1174CF" stroke-width="0.9"/>
<path fill-rule="evenodd" clip-rule="evenodd" d="M9.1277 0.340018C2.79978 1.01187 0.268902 10.9292 3.85697 20.9937C5.28968 25.0127 8.00831 29.0167 10.9174 31.3925C11.6785 32.0141 11.7895 32.0141 11.4006 31.3925C11.1231 30.9493 10.962 30.6104 10.8402 30.2138C10.787 30.04 10.5937 29.4505 10.4108 28.9039C8.22319 22.3632 9.48842 17.448 13.5431 16.7353C14.1459 16.6292 14.2456 16.8546 13.9142 17.5746C12.0101 21.7102 11.2137 25.3195 11.5833 28.1377C11.6862 28.923 11.7145 28.8993 11.7516 27.9963C11.9003 24.3696 13.6153 20.1459 16.3356 16.7067C19.0507 13.2743 21.3679 11.4111 24.5375 10.1117C29.1555 8.21854 33.7048 10.4413 34.0888 14.7783C34.1141 15.0636 34.1406 15.3681 34.1477 15.4551C34.1735 15.7673 34.0316 17.1606 33.9112 17.7801C33.4676 20.0604 32.424 22.6117 30.653 25.7458C29.8869 27.1015 29.8788 27.1184 29.9382 27.2347C29.9858 27.3276 30.1305 27.3882 31.2519 27.7859C34.5429 28.9529 36.8335 30.6337 37.3412 32.2539C38.3513 35.4785 36.5251 38.0282 32.3318 39.2478C29.3818 40.1059 24.8988 40.079 22.2034 39.1872C21.3516 38.9053 21.3833 39.0808 22.2915 39.6742C23.4458 40.4284 25.7359 41.3188 27.3478 41.6401C27.6022 41.6908 27.9978 41.7716 28.2269 41.8197C30.8086 42.3608 34.6709 42.2483 37.3882 41.5526C40.9162 40.6494 43.4746 38.6795 44.3514 36.1911C45.4598 33.0458 43.7408 30.0635 39.4052 27.6094C38.9964 27.3779 38.5931 27.1484 38.5089 27.0991C37.8237 26.6979 35.2903 25.74 34.4621 25.5688C33.8504 25.4424 33.8494 25.2014 34.4564 24.2069C40.4845 14.3318 40.4589 7.37377 34.3832 4.25447C31.8208 2.9389 27.9327 3.93351 22.0076 7.42032C21.3924 7.78243 21.384 7.77818 20.2849 6.5649C16.5908 2.48687 12.165 0.0176389 9.1277 0.340018ZM13.0785 6.48978C14.8015 6.85234 16.6365 8.02926 18.0844 9.70031C18.7402 10.4571 18.7527 10.5721 18.2417 11.1386C17.7162 11.721 17.1539 12.4068 16.6908 13.0299C15.9714 13.998 15.9593 14.0024 15.3112 13.5511C11.7695 11.0845 8.49349 13.1174 7.71168 18.2667C7.20576 21.5992 7.90721 24.7643 10.1176 29.1227C10.7906 30.4497 10.8108 30.548 10.3121 30.0687C9.74079 29.52 8.78475 28.1592 7.98465 26.756C4.34962 20.3814 3.78007 13.6811 6.52008 9.52787C8.11468 7.11075 10.5874 5.96534 13.0785 6.48978ZM23.7783 13.276C22.6567 13.3788 21.666 13.7403 20.4444 14.4929C16.9178 16.6653 13.5029 22.3165 12.7115 27.29C12.5378 28.3811 12.6429 28.5517 12.9288 27.6426C14.5008 22.6443 20.8297 16.8654 23.8426 17.6774C27.2076 18.5844 27.3564 22.7387 24.2483 28.9994C23.9236 29.6536 23.9278 29.6636 24.6057 29.8229C26.717 30.3191 28.3357 31.9478 28.3146 33.5545C28.2909 35.3546 26.0138 37.3544 23.1207 38.1158C22.8407 38.1896 22.5373 38.2694 22.4466 38.2933C21.8857 38.4412 23.1448 38.6414 24.1254 38.5604C26.5645 38.3589 27.7904 38.043 29.3616 37.211C32.3409 35.6332 33.4474 33.5267 32.265 31.6834C31.2598 30.1167 29.7123 29.3343 26.9475 28.9951C25.7697 28.8507 25.7388 28.7652 26.45 27.6145C29.2591 23.0697 30.1011 18.0111 28.4664 15.5018C27.5187 14.047 25.5522 13.1133 23.7783 13.276Z" fill="#1174CF"/>
<mask id="path-4-inside-1_349_1094" fill="white">
<path fill-rule="evenodd" clip-rule="evenodd" d="M8.93303 0.0090857C0.734319 1.23673 -0.625601 16.3265 6.50614 26.9396C7.96735 29.1143 10.5293 31.7685 12.1443 32.7811C12.8959 33.2523 13.0994 33.169 12.9077 32.469C11.9078 28.8191 14.6081 23.3126 19.0837 19.8748C21.9386 17.682 23.8991 17.4009 25.2956 18.9844C26.783 20.6709 26.3803 23.7622 24.0335 28.6741C23.6129 29.5541 23.5661 29.7337 23.7163 29.8896C23.809 29.9858 23.8811 30.0097 24.6686 30.2045C26.8458 30.7434 28.3641 32.5988 27.8794 34.1283C27.2318 36.1709 24.3427 37.8544 21.1636 38.0417C20.1147 38.1036 20.0399 38.2465 20.7098 38.907C21.3547 39.5427 22.8597 40.4734 23.9724 40.9245C25.0765 41.3722 26.7252 41.8954 27.3489 41.9961C27.5068 42.0215 27.882 42.0948 28.1823 42.1588C29.3945 42.4171 32.0092 42.5984 33.1869 42.5057C36.6837 42.2305 38.5452 41.7788 40.5414 40.7214C45.5562 38.0648 46.4771 33.0469 42.6084 29.4581C40.842 27.8195 36.9713 25.7451 34.8514 25.3009C34.3049 25.1865 34.2941 25.1255 34.7022 24.4633C40.4353 15.1635 40.8174 8.18639 35.7858 4.68035C33.5257 3.10544 31.9473 2.94302 28.5961 3.94066C27.4085 4.29417 26.6411 4.61339 24.4172 5.67901C23.9523 5.9018 22.7209 6.58944 22.0481 7.00194C21.4487 7.36936 21.5221 7.39439 20.7536 6.56074C16.9001 2.38017 13.0734 0.0739022 9.87794 0.00650378C9.43088 -0.00299512 9.0057 -0.00176267 8.93303 0.0090857ZM11.2091 0.316822C14.2654 1.06922 16.9948 2.8715 20.2467 6.28463L21.3664 7.45994L21.534 7.4371C21.6302 7.42393 21.9084 7.28948 22.1863 7.12174C26.5127 4.51183 30.7759 3.11364 32.9746 3.58361C35.4197 4.10622 37.8473 6.26889 38.6288 8.62064C39.9603 12.6275 38.6123 17.7545 34.4336 24.5775C34.0497 25.2042 34.0856 25.2854 34.8321 25.48C36.2154 25.8409 38.0017 26.602 39.5384 27.4856C43.8402 29.9591 45.5794 32.9202 44.5732 36.0573C43.5903 39.1215 40.2591 41.3787 35.6888 42.0773C33.2117 42.456 30.1393 42.4158 28.1598 41.9788C27.8944 41.9202 27.5292 41.8473 27.3483 41.8168C26.7204 41.7109 25.1292 41.2099 24.089 40.7908C22.2428 40.0467 20.1691 38.4951 20.8403 38.3598C21.5152 38.2239 21.9601 38.1427 22.4378 38.0685C25.1944 37.6401 27.8022 35.6985 28.1308 33.8301C28.3996 32.3003 26.721 30.4881 24.5853 30.0024C23.6514 29.7901 23.667 29.8645 24.2801 28.5531C26.6692 23.4429 26.9679 20.4891 25.2726 18.7374C23.8108 17.2267 21.8279 17.5388 18.9972 19.7247C15.9726 22.0603 13.763 25.22 12.8531 28.5102C12.5652 29.5512 12.4689 29.7539 12.4129 29.4379C12.1514 27.965 13.0396 24.4008 14.3224 21.7753C17.4289 15.4172 22.0198 12.0836 25.887 13.3779C29.3456 14.5354 30.3719 18.1155 28.6971 23.1811C28.2257 24.607 27.4038 26.3888 26.6484 27.6224C25.9804 28.7131 25.9732 28.6855 26.9597 28.817C29.6997 29.1825 31.0631 29.829 32.2012 31.3027C33.4796 32.9581 32.9265 34.9988 30.7807 36.5424C28.6527 38.0732 26.41 38.7232 23.2707 38.7193C21.8342 38.7175 21.7443 38.7351 22.1582 38.9377C23.7619 39.7227 27.7624 39.9501 30.7532 39.4262C35.773 38.547 38.2457 35.8595 37.211 32.4075C36.6985 30.6976 34.5357 29.133 30.901 27.8431C29.8994 27.4876 29.7473 27.4072 29.7274 27.2234C29.7121 27.0816 29.7472 27.0115 30.5438 25.5921C34.7368 18.1208 35.0907 13.1491 31.6006 10.7462C29.4942 9.2958 27.0136 9.21612 24.0553 10.5036C21.1534 11.7666 18.6433 13.9115 16.0671 17.3298C13.642 20.5478 11.9849 24.8079 11.9598 27.8894C11.9505 29.0421 12.0088 29.5333 12.3007 30.7608C12.3836 31.1099 12.47 31.6079 12.4925 31.8673C12.5151 32.1268 12.5458 32.4083 12.5608 32.4928L12.5883 32.6465L12.4397 32.6168C11.6308 32.4552 9.42005 30.4295 7.67043 28.2466C2.32318 21.5751 0.469993 11.0347 3.51138 4.59057C4.6998 2.07249 6.42738 0.652781 8.86559 0.190499C9.23081 0.121204 10.7463 0.202968 11.2091 0.316822ZM11.1531 6.57979C6.51043 7.31197 3.99724 12.8652 5.33085 19.4448C5.89653 22.2357 7.28008 25.5245 8.89247 27.9113C9.63617 29.0123 9.78749 29.028 9.31244 27.9552C8.54335 26.2183 8.13002 25.0527 7.84206 23.8086C6.00105 15.8543 10.3206 9.82454 15.3277 13.3589C15.9185 13.7759 15.9349 13.7708 16.5221 12.9774C17.0126 12.315 17.4555 11.7697 17.9734 11.1912C18.5899 10.5025 18.5895 10.4997 17.6914 9.53793C15.6664 7.3693 13.2058 6.25606 11.1531 6.57979ZM12.8564 6.80294C14.5829 7.1114 16.4648 8.30767 17.9035 10.0113C18.3427 10.5313 18.3503 10.4941 17.6407 11.3117C17.3216 11.6795 16.8493 12.2645 16.5912 12.6118C15.8554 13.6019 15.9333 13.5644 15.3858 13.1919C12.6217 11.3118 9.94293 12.0117 8.36134 15.0274C6.90644 17.8016 6.87257 21.8096 8.27004 25.8253C8.80685 27.3682 8.77033 27.4461 8.076 26.238C5.25685 21.3323 4.37833 15.5469 5.85044 11.5824C7.11473 8.17764 9.90332 6.27522 12.8564 6.80294ZM29.2136 9.89876C30.3478 10.1086 31.5085 10.7405 32.3673 11.6156C34.1024 13.3837 34.2479 16.5154 32.7796 20.4889C32.1465 22.2024 31.4798 23.5957 30.2459 25.7844C29.2327 27.5815 29.1924 27.4241 30.8108 27.9953C34.612 29.3371 36.6617 30.8757 37.1195 32.7312C37.7821 35.4158 36.2914 37.5208 32.8848 38.7113C30.4373 39.5667 26.2857 39.8091 23.8116 39.2412C22.8066 39.0105 22.8369 38.9468 23.9735 38.9015C29.7982 38.6697 34.252 35.1269 32.7723 31.9028C31.9181 30.0417 30.1628 29.0823 26.7458 28.6087C26.3117 28.5485 26.3107 28.4978 26.7301 27.8154C30.0439 22.4246 30.5858 16.8008 28.0189 14.4432C25.4822 12.1135 21.9671 12.4804 18.6619 15.4202C17.3856 16.5554 15.8884 18.5111 14.8427 20.4088C13.6018 22.661 13.0258 24.2173 12.3822 27.0559C12.2053 27.8366 12.1714 27.8408 12.2031 27.0783C12.3106 24.4881 13.8799 20.6223 16.023 17.6684C20.0264 12.1506 25.1318 9.14343 29.2136 9.89876ZM13.0318 17.035C9.14095 18.209 8.33335 24.2259 11.2325 30.4411C11.9646 32.0107 12.3116 32.2281 11.889 30.8525C10.7705 27.212 11.3434 22.8022 13.5677 17.9306C14.0561 16.8611 13.9876 16.7466 13.0318 17.035ZM13.6666 17.1739C13.6811 17.2139 13.6515 17.3409 13.6008 17.456C13.5499 17.5711 13.3675 17.98 13.1955 18.3648C11.4626 22.2389 10.827 26.0417 11.3532 29.3861C11.478 30.1795 11.4833 30.319 11.3855 30.2348C11.1408 30.0243 10.5049 28.2933 10.1668 26.9176C9.1781 22.895 9.71276 19.4982 11.5735 17.9819C12.2823 17.4043 13.5695 16.9074 13.6666 17.1739Z"/>
</mask>
<path fill-rule="evenodd" clip-rule="evenodd" d="M8.93303 0.0090857C0.734319 1.23673 -0.625601 16.3265 6.50614 26.9396C7.96735 29.1143 10.5293 31.7685 12.1443 32.7811C12.8959 33.2523 13.0994 33.169 12.9077 32.469C11.9078 28.8191 14.6081 23.3126 19.0837 19.8748C21.9386 17.682 23.8991 17.4009 25.2956 18.9844C26.783 20.6709 26.3803 23.7622 24.0335 28.6741C23.6129 29.5541 23.5661 29.7337 23.7163 29.8896C23.809 29.9858 23.8811 30.0097 24.6686 30.2045C26.8458 30.7434 28.3641 32.5988 27.8794 34.1283C27.2318 36.1709 24.3427 37.8544 21.1636 38.0417C20.1147 38.1036 20.0399 38.2465 20.7098 38.907C21.3547 39.5427 22.8597 40.4734 23.9724 40.9245C25.0765 41.3722 26.7252 41.8954 27.3489 41.9961C27.5068 42.0215 27.882 42.0948 28.1823 42.1588C29.3945 42.4171 32.0092 42.5984 33.1869 42.5057C36.6837 42.2305 38.5452 41.7788 40.5414 40.7214C45.5562 38.0648 46.4771 33.0469 42.6084 29.4581C40.842 27.8195 36.9713 25.7451 34.8514 25.3009C34.3049 25.1865 34.2941 25.1255 34.7022 24.4633C40.4353 15.1635 40.8174 8.18639 35.7858 4.68035C33.5257 3.10544 31.9473 2.94302 28.5961 3.94066C27.4085 4.29417 26.6411 4.61339 24.4172 5.67901C23.9523 5.9018 22.7209 6.58944 22.0481 7.00194C21.4487 7.36936 21.5221 7.39439 20.7536 6.56074C16.9001 2.38017 13.0734 0.0739022 9.87794 0.00650378C9.43088 -0.00299512 9.0057 -0.00176267 8.93303 0.0090857ZM11.2091 0.316822C14.2654 1.06922 16.9948 2.8715 20.2467 6.28463L21.3664 7.45994L21.534 7.4371C21.6302 7.42393 21.9084 7.28948 22.1863 7.12174C26.5127 4.51183 30.7759 3.11364 32.9746 3.58361C35.4197 4.10622 37.8473 6.26889 38.6288 8.62064C39.9603 12.6275 38.6123 17.7545 34.4336 24.5775C34.0497 25.2042 34.0856 25.2854 34.8321 25.48C36.2154 25.8409 38.0017 26.602 39.5384 27.4856C43.8402 29.9591 45.5794 32.9202 44.5732 36.0573C43.5903 39.1215 40.2591 41.3787 35.6888 42.0773C33.2117 42.456 30.1393 42.4158 28.1598 41.9788C27.8944 41.9202 27.5292 41.8473 27.3483 41.8168C26.7204 41.7109 25.1292 41.2099 24.089 40.7908C22.2428 40.0467 20.1691 38.4951 20.8403 38.3598C21.5152 38.2239 21.9601 38.1427 22.4378 38.0685C25.1944 37.6401 27.8022 35.6985 28.1308 33.8301C28.3996 32.3003 26.721 30.4881 24.5853 30.0024C23.6514 29.7901 23.667 29.8645 24.2801 28.5531C26.6692 23.4429 26.9679 20.4891 25.2726 18.7374C23.8108 17.2267 21.8279 17.5388 18.9972 19.7247C15.9726 22.0603 13.763 25.22 12.8531 28.5102C12.5652 29.5512 12.4689 29.7539 12.4129 29.4379C12.1514 27.965 13.0396 24.4008 14.3224 21.7753C17.4289 15.4172 22.0198 12.0836 25.887 13.3779C29.3456 14.5354 30.3719 18.1155 28.6971 23.1811C28.2257 24.607 27.4038 26.3888 26.6484 27.6224C25.9804 28.7131 25.9732 28.6855 26.9597 28.817C29.6997 29.1825 31.0631 29.829 32.2012 31.3027C33.4796 32.9581 32.9265 34.9988 30.7807 36.5424C28.6527 38.0732 26.41 38.7232 23.2707 38.7193C21.8342 38.7175 21.7443 38.7351 22.1582 38.9377C23.7619 39.7227 27.7624 39.9501 30.7532 39.4262C35.773 38.547 38.2457 35.8595 37.211 32.4075C36.6985 30.6976 34.5357 29.133 30.901 27.8431C29.8994 27.4876 29.7473 27.4072 29.7274 27.2234C29.7121 27.0816 29.7472 27.0115 30.5438 25.5921C34.7368 18.1208 35.0907 13.1491 31.6006 10.7462C29.4942 9.2958 27.0136 9.21612 24.0553 10.5036C21.1534 11.7666 18.6433 13.9115 16.0671 17.3298C13.642 20.5478 11.9849 24.8079 11.9598 27.8894C11.9505 29.0421 12.0088 29.5333 12.3007 30.7608C12.3836 31.1099 12.47 31.6079 12.4925 31.8673C12.5151 32.1268 12.5458 32.4083 12.5608 32.4928L12.5883 32.6465L12.4397 32.6168C11.6308 32.4552 9.42005 30.4295 7.67043 28.2466C2.32318 21.5751 0.469993 11.0347 3.51138 4.59057C4.6998 2.07249 6.42738 0.652781 8.86559 0.190499C9.23081 0.121204 10.7463 0.202968 11.2091 0.316822ZM11.1531 6.57979C6.51043 7.31197 3.99724 12.8652 5.33085 19.4448C5.89653 22.2357 7.28008 25.5245 8.89247 27.9113C9.63617 29.0123 9.78749 29.028 9.31244 27.9552C8.54335 26.2183 8.13002 25.0527 7.84206 23.8086C6.00105 15.8543 10.3206 9.82454 15.3277 13.3589C15.9185 13.7759 15.9349 13.7708 16.5221 12.9774C17.0126 12.315 17.4555 11.7697 17.9734 11.1912C18.5899 10.5025 18.5895 10.4997 17.6914 9.53793C15.6664 7.3693 13.2058 6.25606 11.1531 6.57979ZM12.8564 6.80294C14.5829 7.1114 16.4648 8.30767 17.9035 10.0113C18.3427 10.5313 18.3503 10.4941 17.6407 11.3117C17.3216 11.6795 16.8493 12.2645 16.5912 12.6118C15.8554 13.6019 15.9333 13.5644 15.3858 13.1919C12.6217 11.3118 9.94293 12.0117 8.36134 15.0274C6.90644 17.8016 6.87257 21.8096 8.27004 25.8253C8.80685 27.3682 8.77033 27.4461 8.076 26.238C5.25685 21.3323 4.37833 15.5469 5.85044 11.5824C7.11473 8.17764 9.90332 6.27522 12.8564 6.80294ZM29.2136 9.89876C30.3478 10.1086 31.5085 10.7405 32.3673 11.6156C34.1024 13.3837 34.2479 16.5154 32.7796 20.4889C32.1465 22.2024 31.4798 23.5957 30.2459 25.7844C29.2327 27.5815 29.1924 27.4241 30.8108 27.9953C34.612 29.3371 36.6617 30.8757 37.1195 32.7312C37.7821 35.4158 36.2914 37.5208 32.8848 38.7113C30.4373 39.5667 26.2857 39.8091 23.8116 39.2412C22.8066 39.0105 22.8369 38.9468 23.9735 38.9015C29.7982 38.6697 34.252 35.1269 32.7723 31.9028C31.9181 30.0417 30.1628 29.0823 26.7458 28.6087C26.3117 28.5485 26.3107 28.4978 26.7301 27.8154C30.0439 22.4246 30.5858 16.8008 28.0189 14.4432C25.4822 12.1135 21.9671 12.4804 18.6619 15.4202C17.3856 16.5554 15.8884 18.5111 14.8427 20.4088C13.6018 22.661 13.0258 24.2173 12.3822 27.0559C12.2053 27.8366 12.1714 27.8408 12.2031 27.0783C12.3106 24.4881 13.8799 20.6223 16.023 17.6684C20.0264 12.1506 25.1318 9.14343 29.2136 9.89876ZM13.0318 17.035C9.14095 18.209 8.33335 24.2259 11.2325 30.4411C11.9646 32.0107 12.3116 32.2281 11.889 30.8525C10.7705 27.212 11.3434 22.8022 13.5677 17.9306C14.0561 16.8611 13.9876 16.7466 13.0318 17.035ZM13.6666 17.1739C13.6811 17.2139 13.6515 17.3409 13.6008 17.456C13.5499 17.5711 13.3675 17.98 13.1955 18.3648C11.4626 22.2389 10.827 26.0417 11.3532 29.3861C11.478 30.1795 11.4833 30.319 11.3855 30.2348C11.1408 30.0243 10.5049 28.2933 10.1668 26.9176C9.1781 22.895 9.71276 19.4982 11.5735 17.9819C12.2823 17.4043 13.5695 16.9074 13.6666 17.1739Z" fill="#1174CF" stroke="#1174CF" stroke-width="2" mask="url(#path-4-inside-1_349_1094)"/>
<path d="M3.79733 25.5865C3.98513 25.5156 4.19796 25.5155 4.38901 25.5864C4.58005 25.6572 4.73366 25.7931 4.81604 25.9642C5.02311 26.3943 4.66704 27.3928 4.66704 27.3928C4.66704 27.3928 3.60692 26.9292 3.39984 26.4991C3.31746 26.328 3.31306 26.1357 3.38761 25.9646C3.46215 25.7935 3.60953 25.6575 3.79733 25.5865Z" fill="#1174CF"/>
<path d="M1.57023 22.9625C1.74515 22.8866 1.9412 22.8851 2.11526 22.9582C2.28932 23.0313 2.42712 23.1731 2.49835 23.3524C2.67741 23.803 2.32228 24.8553 2.32228 24.8553C2.32228 24.8553 1.35834 24.3754 1.17929 23.9247C1.10805 23.7454 1.10922 23.5433 1.18254 23.3629C1.25585 23.1824 1.39531 23.0384 1.57023 22.9625Z" fill="#1174CF"/>
</svg>
