<svg width="19" height="21" viewBox="0 0 19 21" fill="none" xmlns="http://www.w3.org/2000/svg">
<path d="M15.0881 1.73014H12.7016V1.3166C12.7016 0.59078 12.1226 0 11.4112 0H5.52153C4.81015 0 4.23111 0.59078 4.23111 1.3166V1.72592H1.84878C0.827196 1.72592 0 2.57411 0 3.6122V18.8501C0 19.8924 0.831332 20.7364 1.84878 20.7364H9.08261C7.66811 19.4746 6.77474 17.6221 6.77474 15.5544H3.38737C2.92 15.5544 2.53949 15.1662 2.53949 14.6893C2.53949 14.2125 2.92 13.8243 3.38737 13.8243H6.77474C6.84918 13.8243 6.91536 13.8496 6.98567 13.8665C7.14284 13.2377 7.37859 12.6427 7.68879 12.0941H4.23111C3.76374 12.0941 3.38323 11.7059 3.38323 11.229C3.38323 10.7522 3.76374 10.364 4.23111 10.364H8.46635C8.63593 10.364 8.78482 10.4273 8.91717 10.5159C10.129 9.35543 11.7545 8.63383 13.5495 8.63383C14.7861 8.63383 15.9401 8.97986 16.9368 9.57064V3.61642C16.9368 2.57411 16.1055 1.73014 15.0881 1.73014ZM5.92686 7.7772H4.23111C3.76374 7.7772 3.38323 7.38897 3.38323 6.91213C3.38323 6.43529 3.76374 6.04706 4.23111 6.04706H5.92686C6.39423 6.04706 6.77474 6.43529 6.77474 6.91213C6.77474 7.38897 6.39423 7.7772 5.92686 7.7772ZM5.92686 3.45606V1.72592H11.01V3.45606H5.92686ZM12.7016 7.7772H9.31423C8.84686 7.7772 8.46635 7.38897 8.46635 6.91213C8.46635 6.43529 8.84686 6.04706 9.31423 6.04706H12.7016C13.169 6.04706 13.5495 6.43529 13.5495 6.91213C13.5495 7.38897 13.169 7.7772 12.7016 7.7772Z" fill="#188BF4"/>
<path d="M13.5496 10.6276C10.7454 10.6276 8.46645 12.9527 8.46645 15.8138C8.46645 18.6748 10.7454 21 13.5496 21C16.3538 21 18.6327 18.6748 18.6327 15.8138C18.6327 12.9527 16.3538 10.6276 13.5496 10.6276ZM15.8409 15.5606L14.1452 17.2907C13.9797 17.4595 13.7646 17.5439 13.5454 17.5439C13.3304 17.5439 13.1112 17.4595 12.9457 17.2907L12.0978 16.4256C11.767 16.0881 11.767 15.5395 12.0978 15.2019C12.4287 14.8643 12.9664 14.8643 13.2973 15.2019L13.5454 15.4551L14.6415 14.3368C14.9724 13.9992 15.51 13.9992 15.8409 14.3368C16.1718 14.6786 16.1718 15.223 15.8409 15.5606Z" fill="#188BF4"/>
</svg>
