<svg width="64" height="60" viewBox="0 0 64 60" fill="none" xmlns="http://www.w3.org/2000/svg">
<path d="M0.799958 30.7282C0.799958 29.4864 1.87449 28.4798 3.19996 28.4798C20.4313 28.4798 34.4 41.5662 34.4 57.7092C34.4 58.951 33.3254 59.9576 32 59.9576C30.6745 59.9576 29.6 58.951 29.6 57.7092C29.6 44.0499 17.7803 32.9766 3.19996 32.9766C1.87449 32.9766 0.799958 31.9699 0.799958 30.7282Z" fill="white"/>
<path d="M0.799958 39.722C0.799958 38.4803 1.87449 37.4736 3.19996 37.4736C15.1293 37.4736 24.8 46.5335 24.8 57.7094C24.8 58.9511 23.7254 59.9578 22.4 59.9578C21.0745 59.9578 20 58.9511 20 57.7094C20 49.017 12.4784 41.9704 3.19996 41.9704C1.87449 41.9704 0.799958 40.9637 0.799958 39.722Z" fill="white"/>
<path d="M3.19996 46.4672C1.87449 46.4672 0.799958 47.4739 0.799958 48.7156C0.799958 49.9573 1.87449 50.964 3.19996 50.964C7.17641 50.964 10.4 53.9841 10.4 57.7093C10.4 58.951 11.4745 59.9577 12.8 59.9577C14.1254 59.9577 15.2 58.951 15.2 57.7093C15.2 51.5003 9.82738 46.4672 3.19996 46.4672Z" fill="white"/>
<path d="M0.0782734 24.6484C1.02263 24.2221 2.08154 23.9832 3.2 23.9832C23.0822 23.9832 39.2 39.0829 39.2 57.7095C39.2 58.4967 39.056 59.2522 38.7917 59.9546C47.6915 59.9255 52.4723 59.644 55.8432 56.9246C59.6032 53.8913 60.383 48.8138 61.943 38.6584L62.8349 32.8506C64.0493 24.9449 64.6563 20.9921 62.9267 17.6125C61.1974 14.2328 57.5161 12.1785 50.1539 8.06979L45.7222 5.59668C39.0368 1.86556 35.6938 0 32 0C28.3062 0 24.9633 1.86556 18.2776 5.59668L13.8461 8.06976C6.48381 12.1785 2.80266 14.2328 1.07319 17.6125C0.0792653 19.5547 -0.142943 21.6862 0.0782734 24.6484Z" fill="white"/>
</svg>
