<svg width="27" height="29" viewBox="0 0 27 29" fill="none" xmlns="http://www.w3.org/2000/svg">
<path d="M11.9736 12.2934C12.1488 12.2934 12.2656 12.1673 12.2656 11.9782C12.2656 11.2847 11.7399 10.7173 11.0975 10.7173C10.455 10.7173 9.9293 11.2847 9.9293 11.9782C9.9293 12.1673 10.0461 12.2934 10.2213 12.2934C10.3966 12.2934 10.5134 12.1673 10.5134 11.9782C10.5134 11.6314 10.7762 11.3478 11.0975 11.3478C11.4187 11.3478 11.6815 11.6314 11.6815 11.9782C11.6815 12.1673 11.7983 12.2934 11.9736 12.2934Z" fill="#FF0000"/>
<path d="M15.1568 14.6261C15.2152 14.4685 15.1568 14.2794 15.04 14.2163C14.894 14.1533 14.7188 14.2163 14.6604 14.3424C14.4267 14.8467 13.9595 15.1304 13.4338 15.1304C12.9081 15.1304 12.4409 14.8467 12.2364 14.3739C12.178 14.2163 12.0028 14.1533 11.8568 14.2478C11.7108 14.3109 11.6523 14.5 11.74 14.6576C12.0612 15.3511 12.7329 15.7924 13.463 15.7924C14.1931 15.7924 14.8356 15.3196 15.1568 14.6261Z" fill="#FF0000"/>
<path d="M14.8941 12.2934C15.0693 12.2934 15.1861 12.1673 15.1861 11.9782C15.1861 11.6314 15.4489 11.3478 15.7702 11.3478C16.0914 11.3478 16.3543 11.6314 16.3543 11.9782C16.3543 12.1673 16.4711 12.2934 16.6463 12.2934C16.8215 12.2934 16.9383 12.1673 16.9383 11.9782C16.9383 11.2847 16.4127 10.7173 15.7702 10.7173C15.1277 10.7173 14.602 11.2847 14.602 11.9782C14.602 12.1673 14.7188 12.2934 14.8941 12.2934Z" fill="#FF0000"/>
<path d="M26.5756 26.8565C26.3419 24.9652 25.0862 23.3891 23.3631 22.9163L21.6109 22.3804C21.5817 22.3804 21.5817 22.3804 21.5525 22.3804L21.5233 22.2858C21.4941 22.1913 21.4357 22.0967 21.3481 22.0652L17.5224 20.7098C17.5516 20.6152 17.5224 20.5521 17.4932 20.4576L16.617 18.8185C16.5294 18.6608 16.3542 18.6293 16.2082 18.6924L15.7701 18.9761V17.6522C17.3471 16.738 18.3985 14.9728 18.3985 12.9239H18.6905C19.5082 12.9239 20.1507 12.2304 20.1507 11.3478C20.1507 10.938 20.0047 10.5598 19.7711 10.2761C20.1507 10.0869 20.4427 9.64564 20.4427 9.14129C20.4427 8.54238 20.0631 8.06955 19.5666 7.91195V6.9663C19.5666 5.29565 18.9241 3.71956 17.8144 2.58478V1.57608C17.8144 1.04022 17.4347 0.630434 16.9383 0.630434C16.5002 0.630434 16.1498 0.945651 16.0914 1.38695C15.6241 1.1663 15.1276 1.04022 14.602 0.977173V0.945651C14.602 0.409782 14.2223 0 13.7258 0H13.1418C12.6453 0 12.2656 0.409782 12.2656 0.945651V0.977173C11.74 1.04022 11.2727 1.1663 10.7762 1.38695C10.7178 0.945651 10.3674 0.630434 9.92933 0.630434C9.43287 0.630434 9.05322 1.04022 9.05322 1.57608V2.58478C7.94347 3.71956 7.30098 5.29565 7.30098 6.9663V7.91195C6.80451 8.03803 6.42486 8.54238 6.42486 9.14129C6.42486 9.64564 6.7169 10.0869 7.09655 10.2761C6.86292 10.5598 6.7169 10.938 6.7169 11.3478C6.7169 12.2304 7.35939 12.9239 8.1771 12.9239H8.46914C8.46914 14.9728 9.54968 16.738 11.0975 17.6522V18.9761L10.6594 18.6924C10.5134 18.5978 10.3382 18.6608 10.2506 18.8185L9.37446 20.4576C9.34526 20.5206 9.34526 20.6152 9.34526 20.6782L5.43193 22.0967C5.34432 22.1282 5.25671 22.2228 5.25671 22.3174V22.3804C5.2275 22.3804 5.2275 22.3804 5.1983 22.3804L3.44606 22.8848C1.72303 23.3891 0.467263 24.9337 0.233631 26.825L0 28.6532C0 28.7478 -5.65724e-08 28.8424 0.0584078 28.9054C0.116816 28.9684 0.204427 29 0.292039 29H6.42486H12.5577H14.2515H14.3099H20.3843H20.4135H20.4427H26.5172C26.6048 29 26.6924 28.9684 26.7508 28.9054C26.8092 28.8424 26.8384 28.7478 26.8092 28.6532L26.5756 26.8565ZM14.0471 28.3695H12.7621L10.4842 21.4978L12.4117 22.6956C12.4701 22.7271 12.4993 22.7271 12.5577 22.7271C12.5869 22.7271 12.6161 22.7271 12.6453 22.7271C12.7329 22.6956 12.7913 22.6641 12.8205 22.5695L13.4338 21.4348L14.0471 22.6011C14.0763 22.6641 14.1639 22.7271 14.2223 22.7587C14.2515 22.7587 14.2807 22.7587 14.3099 22.7587C14.3683 22.7587 14.3975 22.7587 14.4559 22.7271L16.2958 21.5924L14.0471 28.3695ZM16.2374 19.4174L16.8215 20.4891C16.7338 20.4891 16.6754 20.5521 16.617 20.6467L14.4267 22.0337L13.8427 20.9304L15.5657 19.8587C15.5949 19.8587 15.6241 19.8271 15.6533 19.7956L16.2374 19.4174ZM18.6905 12.2935H18.3985V10.4022H18.6905C19.187 10.4022 19.5666 10.8119 19.5666 11.3478C19.5666 11.8837 19.187 12.2935 18.6905 12.2935ZM18.9826 6.9663V7.88042H17.2303V5.98912H17.5224C17.6976 5.98912 17.8144 5.86304 17.8144 5.67391V3.53043C18.5737 4.47608 18.9826 5.70543 18.9826 6.9663ZM16.6462 1.57608C16.6462 1.38695 16.7631 1.26087 16.9383 1.26087C17.1135 1.26087 17.2303 1.38695 17.2303 1.57608V5.35869H16.6462V1.57608ZM13.4338 4.09782C14.0763 4.09782 14.602 4.66521 14.602 5.35869C14.602 6.05217 14.0763 6.61956 13.4338 6.61956C12.7913 6.61956 12.2656 6.05217 12.2656 5.35869C12.2656 4.66521 12.7913 4.09782 13.4338 4.09782ZM13.1418 0.630434H13.7258C13.9011 0.630434 14.0179 0.756521 14.0179 0.945651V3.59347C13.8427 3.53043 13.6382 3.46739 13.4338 3.46739C13.2294 3.46739 13.025 3.49891 12.8497 3.59347V0.945651C12.8497 0.756521 12.9665 0.630434 13.1418 0.630434ZM12.2656 3.94021C11.9152 4.28695 11.6816 4.7913 11.6816 5.35869C11.6816 6.3989 12.4701 7.24999 13.4338 7.24999C14.3975 7.24999 15.186 6.3989 15.186 5.35869C15.186 4.7913 14.9524 4.28695 14.602 3.94021V1.60761C15.0984 1.67065 15.5949 1.82826 16.0622 2.04891V5.67391C16.0622 5.86304 16.179 5.98912 16.3542 5.98912H16.6462V7.88042H10.2214V5.98912H10.5134C10.6886 5.98912 10.8055 5.86304 10.8055 5.67391V2.08043C11.2727 1.85978 11.7692 1.70217 12.2656 1.63913V3.94021ZM9.6373 1.57608C9.6373 1.38695 9.75411 1.26087 9.92933 1.26087C10.1046 1.26087 10.2214 1.38695 10.2214 1.57608V5.35869H9.6373V1.57608ZM7.88506 6.9663C7.88506 5.70543 8.29392 4.47608 9.05322 3.49891V5.67391C9.05322 5.86304 9.17003 5.98912 9.34526 5.98912H9.6373V7.88042H7.88506V6.9663ZM7.59302 8.51086H19.2746C19.5958 8.51086 19.8587 8.79455 19.8587 9.14129C19.8587 9.48803 19.5958 9.77173 19.2746 9.77173H18.6905H18.1064H8.76118H8.1771H7.59302C7.27178 9.77173 7.00894 9.48803 7.00894 9.14129C7.00894 8.79455 7.27178 8.51086 7.59302 8.51086ZM8.1771 12.2935C7.68063 12.2935 7.30098 11.8837 7.30098 11.3478C7.30098 10.8119 7.68063 10.4022 8.1771 10.4022H8.46914V12.2935H8.1771ZM9.05322 12.9239V12.6087V10.4022H17.8144V12.6087V12.9239C17.8144 15.5402 15.8577 17.6522 13.4338 17.6522C11.0099 17.6522 9.05322 15.5402 9.05322 12.9239ZM11.6816 17.9358C12.2364 18.1565 12.8205 18.2826 13.4338 18.2826C14.0471 18.2826 14.6312 18.1565 15.186 17.9358V19.3543L13.4338 20.4576L11.6816 19.3543V17.9358ZM10.6302 19.4174L11.1851 19.7641C11.2143 19.7956 11.2727 19.8271 11.3019 19.8271L13.0249 20.8989L12.4409 22.0021L10.0462 20.4891L10.6302 19.4174ZM0.788506 26.9195C0.992933 25.2804 2.07348 23.925 3.59208 23.4837L5.08148 23.0739L4.38059 25.7532C4.35138 25.9108 4.439 26.1 4.58502 26.1315L7.12576 26.9511L6.24964 28.338H0.613282L0.788506 26.9195ZM6.97974 28.3695L7.85586 26.9826C7.91426 26.888 7.91426 26.7934 7.88506 26.6989C7.85586 26.6043 7.79745 26.5413 7.68063 26.5097L5.02308 25.6587L5.78238 22.6641L9.75411 21.2456L12.1488 28.3695H6.97974ZM14.6604 28.3695L17.0551 21.2141L21.0268 22.6326L21.7861 25.6271L19.1286 26.4782C19.041 26.5097 18.9826 26.5728 18.9241 26.6674C18.8949 26.7619 18.8949 26.8565 18.9533 26.9511L19.8295 28.338H14.6604V28.3695ZM20.5304 28.3695L19.6542 26.9826L22.195 26.163C22.341 26.1 22.4286 25.9424 22.3994 25.7848L21.7277 23.1054L23.2171 23.5152C24.7065 23.9565 25.8163 25.2804 26.0207 26.9511L26.1959 28.401H20.5304V28.3695Z" fill="#FF0000"/>
</svg>
