<svg width="22" height="20" viewBox="0 0 22 20" fill="none" xmlns="http://www.w3.org/2000/svg">
<g clip-path="url(#clip0_135_205)">
<path d="M7.31056 8.69556H5.12427V10.6833H7.31056V8.69556Z" fill="#1174CF" />
<path d="M16.8757 8.69556H14.6895V10.6833H16.8757V8.69556Z" fill="#1174CF" />
<path d="M13.6874 8.69556H11.5011V10.6833H13.6874V8.69556Z" fill="#1174CF" />
<path d="M7.31056 11.8013H5.12427V13.789H7.31056V11.8013Z" fill="#1174CF" />
<path d="M13.6874 11.8013H11.5011V13.789H13.6874V11.8013Z" fill="#1174CF" />
<path d="M10.499 11.8013H8.31274V13.789H10.499V11.8013Z" fill="#1174CF" />
<path d="M16.8757 14.9067H14.6895V16.8944H16.8757V14.9067Z" fill="#1174CF" />
<path d="M13.6874 14.9067H11.5011V16.8944H13.6874V14.9067Z" fill="#1174CF" />
<path d="M10.499 14.9067H8.31274V16.8944H10.499V14.9067Z" fill="#1174CF" />
<path d="M18.8752 2.15027H17.0973V3.69988C17.0973 4.27808 16.5733 4.74832 15.9293 4.74832H13.6079C12.9639 4.74832 12.4399 4.27808 12.4399 3.69988V2.15027H9.55695V3.68531C9.55695 4.27156 9.02719 4.74832 8.376 4.74832H6.08043C5.42924 4.74832 4.89948 4.27156 4.89948 3.68531V2.15027H3.12161C1.96549 2.15027 1.0249 2.99761 1.0249 4.0391V18.1112C1.0249 19.1527 1.96549 20 3.12161 20H18.8752C20.033 20 20.975 19.1527 20.975 18.1112V4.0391C20.975 2.99765 20.033 2.15027 18.8752 2.15027ZM19.472 18.0745C19.472 18.4089 19.2249 18.6335 18.8571 18.6335H3.14287C2.77506 18.6335 2.52795 18.4089 2.52795 18.0745V6.95664H19.472V18.0745Z" fill="#1174CF" />
<path d="M6.08107 4.00418H8.37526C8.56952 4.00418 8.72756 3.86148 8.72756 3.68605V0.800508C8.72756 0.359102 8.32924 0 7.83956 0H6.61672C6.12709 0 5.72864 0.359063 5.72864 0.800508V3.68605C5.72868 3.86148 5.88672 4.00418 6.08107 4.00418Z" fill="#1174CF" />
<path d="M13.6078 4.00418H15.9292C16.1161 4.00418 16.268 3.86695 16.268 3.69848V0.788203C16.268 0.353633 15.8758 0 15.3935 0H14.1435C13.6614 0 13.2692 0.353633 13.2692 0.788203V3.69848C13.2691 3.86695 13.4211 4.00418 13.6078 4.00418Z" fill="#1174CF" />
</g>
<defs>
<clipPath id="clip0_135_205">
<rect width="22" height="20" fill="white"/>
</clipPath>
</defs>
</svg>
