<svg width="45" height="42" viewBox="0 0 45 42" fill="none" xmlns="http://www.w3.org/2000/svg">
<path d="M37.556 15.1164V40.0639H7.44391V15.1164" stroke="white" stroke-width="3.24" stroke-miterlimit="10"/>
<path d="M44.0086 18.6804L22.5 2.04867L0.991365 18.6804" stroke="white" stroke-width="3.24" stroke-miterlimit="10"/>
<path d="M32.3373 26.1287H30.9581L27.1352 22.0567H21.7091L17.3526 26.1287L13.7618 26.9634C13.3217 27.0301 12.9962 27.4744 12.9962 27.9981V31.2068H15.3681L15.3877 31.2069V31.2068H15.3971C15.3971 29.585 16.5016 28.2711 17.8647 28.2711C19.2281 28.2711 20.3325 29.585 20.3325 31.2068H26.2763L26.3255 31.2069V31.2068H26.3349C26.3349 29.585 27.4394 28.2711 28.8025 28.2711C30.1657 28.2711 31.2701 29.585 31.2701 31.2068H33.0042V26.9222C33.0042 26.4842 32.7055 26.1287 32.3373 26.1287ZM19.2025 26.1202L22.0799 23.431H25.5227L25.5346 23.431V26.1288H21.9535L19.2025 26.1202ZM26.6016 23.431H26.7271L28.4691 25.2876V26.1287H26.6016V23.431Z" fill="white"/>
<path d="M28.8024 29.5407C28.0288 29.5407 27.4019 30.2897 27.4019 31.2069C27.4019 32.1274 28.0288 32.8732 28.8024 32.8732C29.5734 32.8732 30.203 32.1274 30.203 31.2069C30.203 30.2897 29.5735 29.5407 28.8024 29.5407Z" fill="white"/>
<path d="M17.8649 29.5407C17.0913 29.5407 16.4644 30.2897 16.4644 31.2069C16.4644 32.1274 17.0913 32.8732 17.8649 32.8732C18.6359 32.8732 19.2655 32.1274 19.2655 31.2069C19.2655 30.2897 18.6359 29.5407 17.8649 29.5407Z" fill="white"/>
</svg>
