<svg width="65" height="65" viewBox="0 0 65 65" fill="none" xmlns="http://www.w3.org/2000/svg">
<path d="M3.58913 38.1382L3.29394 38.8583L3.95972 39.1308L4.25617 38.4141L3.58913 38.1382ZM3.58913 38.1382C2.92209 37.8623 2.92205 37.8624 2.92202 37.8625L2.92295 37.8602L2.92801 37.8477C2.93017 37.8424 2.93287 37.8356 2.93608 37.8276L3.40773 34.8147L3.66068 34.0789C4.16273 34.246 4.57354 34.6217 4.76963 35.1469C4.90707 35.515 4.89452 35.9327 4.85675 36.2589C4.81655 36.6061 4.73298 36.9631 4.64626 37.2718C4.55859 37.584 4.46198 37.8669 4.38786 38.0707C4.35061 38.1731 4.31854 38.2568 4.29542 38.3159C4.28385 38.3455 4.27449 38.3689 4.2678 38.3855L4.25982 38.4052L4.25743 38.411L4.25666 38.4129L4.25638 38.4136L4.25627 38.4138C4.25622 38.414 4.25617 38.4141 3.58913 38.1382Z" stroke="#1174CF" stroke-width="1.5"/>
<path d="M6.99924 42.3954L6.6376 43.0354L7.42423 43.4728L7.71777 42.6601L6.99924 42.3954ZM6.99924 42.3954C6.6376 43.0354 6.6375 43.0353 6.63739 43.0353L6.63714 43.0351L6.63651 43.0348L6.63476 43.0338L6.62933 43.0308L6.61099 43.0204C6.59554 43.0116 6.57374 42.9991 6.54641 42.9832C6.4918 42.9515 6.4148 42.9059 6.32194 42.8488C6.13708 42.7351 5.8851 42.5731 5.6198 42.3813C5.35679 42.1911 5.06693 41.9618 4.81354 41.7123C4.57144 41.4738 4.30665 41.1633 4.16574 40.8061C3.96432 40.2955 3.96762 39.732 4.18317 39.238C4.39923 38.7429 4.81173 38.358 5.33493 38.1763C5.85813 37.9945 6.43824 38.0345 6.94574 38.2782C7.45205 38.5214 7.84556 38.9471 8.04698 39.4577C8.1879 39.8149 8.20239 40.2124 8.18407 40.5412C8.16489 40.8855 8.10404 41.2367 8.03638 41.5417C7.96813 41.8494 7.88928 42.1263 7.82786 42.3256C7.79701 42.4257 7.7702 42.5073 7.7508 42.5648C7.74109 42.5936 7.7332 42.6164 7.72757 42.6325L7.72084 42.6515L7.71883 42.6572L7.71818 42.659L7.71795 42.6596L7.71785 42.6599C7.71781 42.66 7.71777 42.6601 6.99924 42.3954Z" stroke="#1174CF" stroke-width="1.5"/>
<path fill-rule="evenodd" clip-rule="evenodd" d="M13.3009 0.52063C4.20622 1.54969 0.565158 16.7093 5.71817 32.0918C7.77574 38.2344 11.6815 44.3536 15.8614 47.9841C16.9551 48.9339 17.1147 48.9339 16.5559 47.9839C16.1573 47.3066 15.9258 46.7885 15.7511 46.1824C15.6745 45.9168 15.397 45.0157 15.1344 44.1803C11.9928 34.1836 13.813 26.6702 19.6406 25.5795C20.5071 25.4172 20.6502 25.7616 20.1737 26.8622C17.4356 33.1841 16.2897 38.7013 16.8198 43.0088C16.9674 44.2091 17.008 44.1728 17.0617 42.7926C17.2768 37.2491 19.7431 30.7925 23.6541 25.5348C27.5574 20.2875 30.8884 17.4387 35.4442 15.4516C42.0818 12.5563 48.6193 15.9522 49.1696 22.5812C49.2059 23.0173 49.2438 23.4828 49.254 23.6157C49.2909 24.0929 49.0865 26.2227 48.9132 27.1697C48.2748 30.6552 46.7741 34.5552 44.2275 39.3464C43.126 41.4188 43.1144 41.4447 43.1997 41.6224C43.2681 41.7643 43.4759 41.857 45.0875 42.4645C49.8169 44.2471 53.1084 46.8154 53.8373 49.2918C55.2879 54.2203 52.6623 58.1182 46.6354 59.9838C42.3953 61.2963 35.9523 61.2567 32.0788 59.8945C30.8546 59.464 30.9002 59.7321 32.2052 60.6388C33.8639 61.7913 37.1549 63.1514 39.4714 63.6421C39.837 63.7195 40.4055 63.8429 40.7348 63.9162C44.4449 64.7425 49.9958 64.5692 53.9014 63.5049C58.9723 62.1232 62.65 59.1114 63.911 55.3074C65.5051 50.4995 63.0358 45.9416 56.8055 42.192C56.2181 41.8382 55.6385 41.4875 55.5176 41.4122C54.5329 40.7993 50.8923 39.3359 49.7021 39.0745C48.8229 38.8815 48.8216 38.5131 49.6943 36.9928C58.3616 21.8966 58.3274 11.2612 49.5966 6.49541C45.9144 4.48542 40.326 6.00699 31.8093 11.3386C30.925 11.8923 30.9129 11.8858 29.3338 10.0317C24.0261 3.7996 17.6663 0.026849 13.3009 0.52063ZM18.9767 9.91927C21.4529 10.4729 24.0897 12.2712 26.1701 14.8249C27.1122 15.9815 27.1301 16.1572 26.3955 17.0233C25.6401 17.9137 24.8316 18.9621 24.1658 19.9146C23.1316 21.3947 23.1143 21.4015 22.1829 20.7118C17.0938 16.9428 12.3847 20.0511 11.2592 27.9222C10.5308 33.0162 11.5377 37.8537 14.7129 44.515C15.6797 46.543 15.7087 46.6932 14.992 45.9608C14.1712 45.1222 12.7977 43.0427 11.6483 40.8981C6.42643 31.1557 5.61037 20.9144 9.54986 14.5652C11.8425 10.8701 15.3967 9.1185 18.9767 9.91927ZM34.352 20.2885C32.7399 20.446 31.316 20.9989 29.56 22.1496C24.4907 25.4713 19.5808 34.1104 18.4414 41.7126C18.1915 43.3805 18.3424 43.6412 18.7537 42.2517C21.0148 34.6111 30.1129 25.776 34.4427 27.0161C39.2786 28.4013 39.4909 34.7511 35.0216 44.3217C34.5546 45.3217 34.5607 45.337 35.5349 45.5802C38.569 46.338 40.8949 48.8269 40.8639 51.2828C40.8292 54.0344 37.5557 57.0917 33.3976 58.2566C32.9951 58.3694 32.5591 58.4915 32.4286 58.5281C31.6225 58.7543 33.432 59.0599 34.8414 58.9358C38.3469 58.627 40.1088 58.1436 42.3673 56.8714C46.6498 54.4588 48.2407 51.2386 46.5421 48.4215C45.098 46.0271 42.8742 44.8317 38.9008 44.3142C37.2081 44.0939 37.1638 43.9632 38.1863 42.2041C42.2252 35.2565 43.4372 27.524 41.0888 23.6891C39.7273 21.4657 36.9015 20.0392 34.352 20.2885Z" fill="#1174CF"/>
<mask id="path-4-inside-1_104_324" fill="white">
<path fill-rule="evenodd" clip-rule="evenodd" d="M13.0209 0.0138588C1.23726 1.89309 -0.722847 24.9585 9.5229 41.1783C11.6221 44.5017 15.3032 48.5579 17.6239 50.1051C18.7039 50.8251 18.9964 50.6978 18.7211 49.6279C17.2855 44.0493 21.1684 35.6316 27.6019 30.3754C31.7058 27.0226 34.5236 26.5924 36.53 29.0123C38.6671 31.5896 38.0872 36.3149 34.7126 43.8235C34.1078 45.1688 34.0404 45.4432 34.2562 45.6815C34.3894 45.8286 34.493 45.865 35.6247 46.1625C38.7536 46.9855 40.935 49.821 40.2378 52.159C39.3064 55.2814 35.1535 57.8556 30.5844 58.143C29.077 58.2378 28.9693 58.4564 29.9318 59.4657C30.8585 60.4372 33.0211 61.8593 34.6201 62.5484C36.2069 63.2322 38.5761 64.0315 39.4724 64.1851C39.6994 64.224 40.2386 64.3359 40.6701 64.4337C42.4122 64.8281 46.17 65.1042 47.8626 64.9622C52.8883 64.5404 55.5638 63.8493 58.4332 62.2323C65.6414 58.1701 66.9667 50.4999 61.408 45.0157C58.87 42.5116 53.3078 39.3422 50.2613 38.6639C49.4758 38.4892 49.4603 38.3961 50.0472 37.3837C58.2901 23.167 58.842 12.5022 51.6119 7.14489C48.3643 4.73839 46.0958 4.49067 41.2791 6.01669C39.5722 6.55743 38.4692 7.04562 35.2726 8.67518C34.6043 9.01588 32.8342 10.0673 31.8672 10.6981C31.0057 11.2599 31.1111 11.2981 30.0069 10.0242C24.4703 3.63541 18.9714 0.111539 14.3789 0.00959447C13.7364 -0.00477432 13.1253 -0.00274749 13.0209 0.0138588ZM16.2919 0.48347C20.6842 1.63249 24.6061 4.38638 29.2786 9.60228L30.8873 11.3984L31.1282 11.3634C31.2664 11.3432 31.6663 11.1376 32.0658 10.8812C38.2846 6.89044 44.4123 4.75186 47.5721 5.46946C51.0859 6.26746 54.574 9.5723 55.6963 13.1667C57.6084 19.2908 55.6693 27.1278 49.661 37.5583C49.109 38.5163 49.1606 38.6404 50.2334 38.9377C52.2214 39.4888 54.7883 40.6517 56.9965 42.0016C63.1781 45.781 65.6767 50.3065 64.2293 55.102C62.8156 59.7858 58.0272 63.2371 51.4584 64.3065C47.8982 64.8862 43.4826 64.8258 40.6379 64.1585C40.2565 64.0689 39.7317 63.9576 39.4716 63.9111C38.5693 63.7494 36.2825 62.9842 34.7877 62.3439C32.1347 61.2073 29.1549 58.8363 30.1197 58.6293C31.0897 58.4213 31.7291 58.297 32.4157 58.1834C36.3776 57.5278 40.1263 54.5592 40.5992 51.7031C40.9862 49.3648 38.5744 46.5953 35.5051 45.8537C34.1629 45.5295 34.1853 45.6432 35.0669 43.6385C38.5025 35.8267 38.9329 31.3116 36.4971 28.6347C34.3967 26.3262 31.5468 26.8038 27.4777 30.146C23.1299 33.717 19.953 38.5473 18.6441 43.5768C18.23 45.1681 18.0916 45.4779 18.0112 44.9949C17.6358 42.7436 18.9138 37.2955 20.7584 33.2818C25.2253 23.5624 31.8246 18.4655 37.382 20.4425C42.3523 22.2106 43.826 27.6825 41.4171 35.4259C40.7391 37.6055 39.5571 40.3293 38.471 42.215C37.5107 43.8825 37.5003 43.8402 38.918 44.041C42.8558 44.5987 44.8151 45.5865 46.4502 47.8386C48.2869 50.3685 47.4911 53.4879 44.4067 55.8479C41.3477 58.1886 38.1243 59.1829 33.6124 59.1779C31.548 59.1757 31.4188 59.2027 32.0135 59.5122C34.3181 60.7114 40.0675 61.0577 44.366 60.2559C51.5808 58.9103 55.1356 54.8016 53.6498 49.5256C52.9139 46.9122 49.806 44.5215 44.5828 42.551C43.1435 42.008 42.9249 41.8852 42.8964 41.6041C42.8744 41.3874 42.9248 41.2803 44.0703 39.1104C50.0992 27.6892 50.6097 20.0897 45.5947 16.418C42.5679 14.2018 39.0028 14.0808 34.7507 16.0497C30.5795 17.9812 26.9713 21.2606 23.2675 26.4864C19.7809 31.4059 17.3978 37.9181 17.3606 42.6281C17.3468 44.39 17.4303 45.1408 17.8493 47.017C17.9685 47.5506 18.0924 48.3118 18.1247 48.7083C18.157 49.1049 18.201 49.5351 18.2226 49.6644L18.262 49.8992L18.0486 49.8538C16.886 49.6071 13.7095 46.5116 11.1957 43.1756C3.51318 32.9799 0.85371 16.8695 5.22719 7.01852C6.93612 3.16922 9.41952 0.998595 12.9239 0.291174C13.4488 0.185132 15.6269 0.3096 16.2919 0.48347ZM16.2091 10.0565C9.53639 11.1772 5.92238 19.6661 7.83658 29.7227C8.64854 33.9884 10.6357 39.0149 12.9522 42.6626C14.0206 44.3452 14.2381 44.3692 13.5557 42.7296C12.4511 40.075 11.8575 38.2935 11.4441 36.3919C8.80113 24.2344 15.0114 15.0164 22.2063 20.417C23.0552 21.0542 23.0788 21.0464 23.9231 19.8335C24.6282 18.8208 25.265 17.9872 26.0095 17.1027C26.8958 16.0499 26.8952 16.0456 25.6048 14.5758C22.6953 11.2617 19.1593 9.56098 16.2091 10.0565ZM18.6569 10.397C21.1382 10.8679 23.8424 12.6958 25.9095 15.2993C26.5405 16.094 26.5514 16.0372 25.5313 17.287C25.0725 17.8493 24.3936 18.7437 24.0225 19.2746C22.9646 20.7882 23.0766 20.731 22.2898 20.1618C18.318 17.2888 14.4678 18.3596 12.1936 22.9697C10.1016 27.2106 10.0514 33.3368 12.0584 39.4744C12.8293 41.8326 12.7768 41.9517 11.7794 40.1052C7.72952 32.6079 6.46908 23.7651 8.58627 17.7048C10.4046 12.5002 14.413 9.59137 18.6569 10.397ZM42.1644 15.1235C43.7944 15.4439 45.4623 16.4094 46.6963 17.7466C49.1893 20.4486 49.3972 25.2355 47.2855 31.3094C46.3749 33.9288 45.4162 36.0586 43.642 39.4044C42.1852 42.1517 42.1274 41.9111 44.4532 42.7836C49.9157 44.8333 52.8609 47.1845 53.5182 50.0204C54.4694 54.1236 52.3263 57.3417 47.4298 59.1625C43.9119 60.4708 37.9452 60.8427 34.3897 59.9754C32.9454 59.6233 32.989 59.5259 34.6225 59.4563C42.9938 59.0999 49.3961 53.6833 47.2707 48.7557C46.0437 45.9113 43.5213 44.4454 38.6107 43.7226C37.9868 43.6308 37.9853 43.5533 38.5884 42.51C43.353 34.269 44.1339 25.6729 40.4457 22.0701C36.8008 18.51 31.7488 19.072 26.9974 23.5667C25.1627 25.3022 23.0102 28.292 21.5066 31.1931C19.7224 34.636 18.894 37.015 17.9679 41.354C17.7134 42.5474 17.6646 42.5538 17.7105 41.3882C17.8659 37.4292 20.1228 31.5197 23.204 27.004C28.9597 18.5686 36.2983 13.9703 42.1644 15.1235ZM18.9052 26.0368C13.3129 27.8326 12.15 37.0297 16.3142 46.5286C17.3658 48.9275 17.8645 49.2598 17.2577 47.1573C15.6515 41.5931 16.4766 34.8525 19.6751 27.4055C20.3774 25.7705 20.279 25.5957 18.9052 26.0368ZM19.8175 26.2489C19.8384 26.31 19.7957 26.5042 19.7228 26.6801C19.6497 26.856 19.3874 27.4811 19.14 28.0693C16.648 33.9915 15.7332 39.8043 16.4882 44.9161C16.6673 46.1288 16.6748 46.342 16.5343 46.2133C16.1827 45.8917 15.2694 43.2461 14.784 41.1434C13.3645 34.9951 14.1342 29.8029 16.8091 27.4845C17.828 26.6014 19.678 25.8415 19.8175 26.2489Z"/>
</mask>
<path fill-rule="evenodd" clip-rule="evenodd" d="M13.0209 0.0138588C1.23726 1.89309 -0.722847 24.9585 9.5229 41.1783C11.6221 44.5017 15.3032 48.5579 17.6239 50.1051C18.7039 50.8251 18.9964 50.6978 18.7211 49.6279C17.2855 44.0493 21.1684 35.6316 27.6019 30.3754C31.7058 27.0226 34.5236 26.5924 36.53 29.0123C38.6671 31.5896 38.0872 36.3149 34.7126 43.8235C34.1078 45.1688 34.0404 45.4432 34.2562 45.6815C34.3894 45.8286 34.493 45.865 35.6247 46.1625C38.7536 46.9855 40.935 49.821 40.2378 52.159C39.3064 55.2814 35.1535 57.8556 30.5844 58.143C29.077 58.2378 28.9693 58.4564 29.9318 59.4657C30.8585 60.4372 33.0211 61.8593 34.6201 62.5484C36.2069 63.2322 38.5761 64.0315 39.4724 64.1851C39.6994 64.224 40.2386 64.3359 40.6701 64.4337C42.4122 64.8281 46.17 65.1042 47.8626 64.9622C52.8883 64.5404 55.5638 63.8493 58.4332 62.2323C65.6414 58.1701 66.9667 50.4999 61.408 45.0157C58.87 42.5116 53.3078 39.3422 50.2613 38.6639C49.4758 38.4892 49.4603 38.3961 50.0472 37.3837C58.2901 23.167 58.842 12.5022 51.6119 7.14489C48.3643 4.73839 46.0958 4.49067 41.2791 6.01669C39.5722 6.55743 38.4692 7.04562 35.2726 8.67518C34.6043 9.01588 32.8342 10.0673 31.8672 10.6981C31.0057 11.2599 31.1111 11.2981 30.0069 10.0242C24.4703 3.63541 18.9714 0.111539 14.3789 0.00959447C13.7364 -0.00477432 13.1253 -0.00274749 13.0209 0.0138588ZM16.2919 0.48347C20.6842 1.63249 24.6061 4.38638 29.2786 9.60228L30.8873 11.3984L31.1282 11.3634C31.2664 11.3432 31.6663 11.1376 32.0658 10.8812C38.2846 6.89044 44.4123 4.75186 47.5721 5.46946C51.0859 6.26746 54.574 9.5723 55.6963 13.1667C57.6084 19.2908 55.6693 27.1278 49.661 37.5583C49.109 38.5163 49.1606 38.6404 50.2334 38.9377C52.2214 39.4888 54.7883 40.6517 56.9965 42.0016C63.1781 45.781 65.6767 50.3065 64.2293 55.102C62.8156 59.7858 58.0272 63.2371 51.4584 64.3065C47.8982 64.8862 43.4826 64.8258 40.6379 64.1585C40.2565 64.0689 39.7317 63.9576 39.4716 63.9111C38.5693 63.7494 36.2825 62.9842 34.7877 62.3439C32.1347 61.2073 29.1549 58.8363 30.1197 58.6293C31.0897 58.4213 31.7291 58.297 32.4157 58.1834C36.3776 57.5278 40.1263 54.5592 40.5992 51.7031C40.9862 49.3648 38.5744 46.5953 35.5051 45.8537C34.1629 45.5295 34.1853 45.6432 35.0669 43.6385C38.5025 35.8267 38.9329 31.3116 36.4971 28.6347C34.3967 26.3262 31.5468 26.8038 27.4777 30.146C23.1299 33.717 19.953 38.5473 18.6441 43.5768C18.23 45.1681 18.0916 45.4779 18.0112 44.9949C17.6358 42.7436 18.9138 37.2955 20.7584 33.2818C25.2253 23.5624 31.8246 18.4655 37.382 20.4425C42.3523 22.2106 43.826 27.6825 41.4171 35.4259C40.7391 37.6055 39.5571 40.3293 38.471 42.215C37.5107 43.8825 37.5003 43.8402 38.918 44.041C42.8558 44.5987 44.8151 45.5865 46.4502 47.8386C48.2869 50.3685 47.4911 53.4879 44.4067 55.8479C41.3477 58.1886 38.1243 59.1829 33.6124 59.1779C31.548 59.1757 31.4188 59.2027 32.0135 59.5122C34.3181 60.7114 40.0675 61.0577 44.366 60.2559C51.5808 58.9103 55.1356 54.8016 53.6498 49.5256C52.9139 46.9122 49.806 44.5215 44.5828 42.551C43.1435 42.008 42.9249 41.8852 42.8964 41.6041C42.8744 41.3874 42.9248 41.2803 44.0703 39.1104C50.0992 27.6892 50.6097 20.0897 45.5947 16.418C42.5679 14.2018 39.0028 14.0808 34.7507 16.0497C30.5795 17.9812 26.9713 21.2606 23.2675 26.4864C19.7809 31.4059 17.3978 37.9181 17.3606 42.6281C17.3468 44.39 17.4303 45.1408 17.8493 47.017C17.9685 47.5506 18.0924 48.3118 18.1247 48.7083C18.157 49.1049 18.201 49.5351 18.2226 49.6644L18.262 49.8992L18.0486 49.8538C16.886 49.6071 13.7095 46.5116 11.1957 43.1756C3.51318 32.9799 0.85371 16.8695 5.22719 7.01852C6.93612 3.16922 9.41952 0.998595 12.9239 0.291174C13.4488 0.185132 15.6269 0.3096 16.2919 0.48347ZM16.2091 10.0565C9.53639 11.1772 5.92238 19.6661 7.83658 29.7227C8.64854 33.9884 10.6357 39.0149 12.9522 42.6626C14.0206 44.3452 14.2381 44.3692 13.5557 42.7296C12.4511 40.075 11.8575 38.2935 11.4441 36.3919C8.80113 24.2344 15.0114 15.0164 22.2063 20.417C23.0552 21.0542 23.0788 21.0464 23.9231 19.8335C24.6282 18.8208 25.265 17.9872 26.0095 17.1027C26.8958 16.0499 26.8952 16.0456 25.6048 14.5758C22.6953 11.2617 19.1593 9.56098 16.2091 10.0565ZM18.6569 10.397C21.1382 10.8679 23.8424 12.6958 25.9095 15.2993C26.5405 16.094 26.5514 16.0372 25.5313 17.287C25.0725 17.8493 24.3936 18.7437 24.0225 19.2746C22.9646 20.7882 23.0766 20.731 22.2898 20.1618C18.318 17.2888 14.4678 18.3596 12.1936 22.9697C10.1016 27.2106 10.0514 33.3368 12.0584 39.4744C12.8293 41.8326 12.7768 41.9517 11.7794 40.1052C7.72952 32.6079 6.46908 23.7651 8.58627 17.7048C10.4046 12.5002 14.413 9.59137 18.6569 10.397ZM42.1644 15.1235C43.7944 15.4439 45.4623 16.4094 46.6963 17.7466C49.1893 20.4486 49.3972 25.2355 47.2855 31.3094C46.3749 33.9288 45.4162 36.0586 43.642 39.4044C42.1852 42.1517 42.1274 41.9111 44.4532 42.7836C49.9157 44.8333 52.8609 47.1845 53.5182 50.0204C54.4694 54.1236 52.3263 57.3417 47.4298 59.1625C43.9119 60.4708 37.9452 60.8427 34.3897 59.9754C32.9454 59.6233 32.989 59.5259 34.6225 59.4563C42.9938 59.0999 49.3961 53.6833 47.2707 48.7557C46.0437 45.9113 43.5213 44.4454 38.6107 43.7226C37.9868 43.6308 37.9853 43.5533 38.5884 42.51C43.353 34.269 44.1339 25.6729 40.4457 22.0701C36.8008 18.51 31.7488 19.072 26.9974 23.5667C25.1627 25.3022 23.0102 28.292 21.5066 31.1931C19.7224 34.636 18.894 37.015 17.9679 41.354C17.7134 42.5474 17.6646 42.5538 17.7105 41.3882C17.8659 37.4292 20.1228 31.5197 23.204 27.004C28.9597 18.5686 36.2983 13.9703 42.1644 15.1235ZM18.9052 26.0368C13.3129 27.8326 12.15 37.0297 16.3142 46.5286C17.3658 48.9275 17.8645 49.2598 17.2577 47.1573C15.6515 41.5931 16.4766 34.8525 19.6751 27.4055C20.3774 25.7705 20.279 25.5957 18.9052 26.0368ZM19.8175 26.2489C19.8384 26.31 19.7957 26.5042 19.7228 26.6801C19.6497 26.856 19.3874 27.4811 19.14 28.0693C16.648 33.9915 15.7332 39.8043 16.4882 44.9161C16.6673 46.1288 16.6748 46.342 16.5343 46.2133C16.1827 45.8917 15.2694 43.2461 14.784 41.1434C13.3645 34.9951 14.1342 29.8029 16.8091 27.4845C17.828 26.6014 19.678 25.8415 19.8175 26.2489Z" fill="#1174CF" stroke="#1174CF" stroke-width="2" mask="url(#path-4-inside-1_104_324)"/>
<path d="M5.63094 39.1128C5.90087 39.0044 6.20675 39.0042 6.4813 39.1124C6.75584 39.2206 6.97656 39.4283 7.09489 39.6898C7.39233 40.3471 6.88022 41.8735 6.88022 41.8735C6.88022 41.8735 5.35678 41.1651 5.05934 40.5078C4.941 40.2463 4.93475 39.9525 5.04195 39.6909C5.14914 39.4292 5.36101 39.2213 5.63094 39.1128Z" fill="#1174CF"/>
<path d="M2.43143 35.1024C2.68285 34.9863 2.96462 34.9839 3.21475 35.0955C3.46487 35.2072 3.66287 35.4239 3.76518 35.6979C4.02235 36.3867 3.51157 37.9953 3.51157 37.9953C3.51157 37.9953 2.12638 37.262 1.86921 36.5732C1.7669 36.2992 1.76865 35.9903 1.87409 35.7144C1.97953 35.4386 2.18001 35.2184 2.43143 35.1024Z" fill="#1174CF"/>
</svg>
