<svg width="20" height="20" viewBox="0 0 20 20" fill="none" xmlns="http://www.w3.org/2000/svg">
<path d="M6.28566 8.69556H4.09937V10.6833H6.28566V8.69556Z" fill="#188BF4" />
<path d="M15.8508 8.69556H13.6646V10.6833H15.8508V8.69556Z" fill="#188BF4" />
<path d="M12.6625 8.69556H10.4762V10.6833H12.6625V8.69556Z" fill="#188BF4" />
<path d="M6.28566 11.8011H4.09937V13.7888H6.28566V11.8011Z" fill="#188BF4" />
<path d="M12.6625 11.8011H10.4762V13.7888H12.6625V11.8011Z" fill="#188BF4" />
<path d="M9.47413 11.8011H7.28784V13.7888H9.47413V11.8011Z" fill="#188BF4" />
<path d="M15.8508 14.9067H13.6646V16.8944H15.8508V14.9067Z" fill="#188BF4" />
<path d="M12.6625 14.9067H10.4762V16.8944H12.6625V14.9067Z" fill="#188BF4" />
<path d="M9.47413 14.9067H7.28784V16.8944H9.47413V14.9067Z" fill="#188BF4" />
<path d="M17.8503 2.15027H16.0724V3.69988C16.0724 4.27808 15.5484 4.74832 14.9044 4.74832H12.583C11.939 4.74832 11.415 4.27808 11.415 3.69988V2.15027H8.53205V3.68531C8.53205 4.27156 8.00229 4.74832 7.35109 4.74832H5.05553C4.40434 4.74832 3.87458 4.27156 3.87458 3.68531V2.15027H2.0967C0.940586 2.15027 0 2.99761 0 4.0391V18.1112C0 19.1527 0.940586 20 2.0967 20H17.8503C19.0081 20 19.9501 19.1527 19.9501 18.1112V4.0391C19.9501 2.99765 19.0081 2.15027 17.8503 2.15027ZM18.4471 18.0745C18.4471 18.4089 18.2 18.6335 17.8322 18.6335H2.11797C1.75016 18.6335 1.50305 18.4089 1.50305 18.0745V6.95664H18.4471V18.0745Z" fill="#188BF4" />
<path d="M5.05616 4.00418H7.35035C7.54461 4.00418 7.70265 3.86148 7.70265 3.68605V0.800508C7.70265 0.359102 7.30433 0 6.81466 0H5.59181C5.10218 0 4.70374 0.359063 4.70374 0.800508V3.68605C4.70378 3.86148 4.86182 4.00418 5.05616 4.00418Z" fill="#188BF4" />
<path d="M12.5829 4.00418H14.9043C15.0912 4.00418 15.2431 3.86695 15.2431 3.69848V0.788203C15.2431 0.353633 14.8509 0 14.3686 0H13.1186C12.6365 0 12.2443 0.353633 12.2443 0.788203V3.69848C12.2442 3.86695 12.3962 4.00418 12.5829 4.00418Z" fill="#188BF4" />
</svg>
