<svg width="50" height="52" viewBox="0 0 50 52" fill="none" xmlns="http://www.w3.org/2000/svg">
<path fill-rule="evenodd" clip-rule="evenodd" d="M5.55456 26.0066C5.55363 22.7778 6.29615 19.5956 7.72 16.7264C9.14386 13.8571 11.2076 11.3841 13.7387 9.5143C16.2699 7.64447 19.1947 6.43216 22.2686 5.97876C25.3425 5.52536 28.4761 5.84406 31.4073 6.9082C32.1031 7.16027 32.8668 7.11455 33.5302 6.78109C34.1936 6.44763 34.7024 5.85375 34.9448 5.13009C35.1872 4.40643 35.1432 3.61228 34.8226 2.92233C34.502 2.23238 33.9309 1.70316 33.2351 1.45109C28.1166 -0.406056 22.5564 -0.482583 17.3924 1.23304C12.2285 2.94867 7.74065 6.36347 4.60537 10.9628C1.47009 15.5621 -0.14276 21.0966 0.00992275 26.7323C0.162606 32.3679 2.07254 37.7993 5.45187 42.2077C8.83119 46.6161 13.4968 49.7626 18.7454 51.1732C23.9941 52.5837 29.5413 52.1816 34.5511 50.0277C39.561 47.8738 43.7618 44.0846 46.5206 39.2314C49.2794 34.3782 50.4465 28.7238 49.8462 23.1206C49.8061 22.7435 49.6949 22.3784 49.5191 22.0459C49.3433 21.7135 49.1062 21.4204 48.8214 21.1832C48.5367 20.9461 48.2098 20.7696 47.8594 20.6638C47.5091 20.5581 47.1421 20.5251 46.7795 20.5669C46.4169 20.6086 46.0658 20.7242 45.7462 20.9071C45.4265 21.0899 45.1446 21.3365 44.9166 21.6326C44.6886 21.9288 44.5189 22.2687 44.4172 22.6331C44.3155 22.9975 44.2839 23.3791 44.324 23.7562C44.6166 26.4888 44.3703 29.2547 43.6001 31.8849C42.83 34.5152 41.5522 36.9545 39.8449 39.0537C38.1376 41.1529 36.0366 42.868 33.6703 44.0942C31.304 45.3203 28.7222 46.0317 26.0826 46.185C23.443 46.3382 20.801 45.93 18.3182 44.9853C15.8355 44.0407 13.564 42.5794 11.6427 40.6908C9.72131 38.8021 8.19047 36.5259 7.1437 34.0011C6.09692 31.4764 5.55619 28.7561 5.55456 26.0066ZM46.5267 10.5858C47.0145 10.0111 47.2627 9.25853 47.2168 8.49355C47.171 7.72857 46.8348 7.01385 46.2823 6.50664C45.7298 5.99943 45.0061 5.74127 44.2706 5.78894C43.535 5.83662 42.8478 6.18623 42.3601 6.76087L24.4851 27.792L15.6434 20.3011C15.3607 20.0613 15.0354 19.8818 14.686 19.7728C14.3366 19.6638 13.9699 19.6275 13.607 19.6658C12.8741 19.7433 12.2007 20.1204 11.7351 20.7142C11.5046 21.0082 11.332 21.3466 11.2272 21.71C11.1224 22.0733 11.0874 22.4546 11.1243 22.8321C11.1988 23.5944 11.5614 24.2946 12.1323 24.7789L23.0462 34.0233C23.6022 34.4938 24.3116 34.7225 25.026 34.6617C25.7404 34.6008 26.4045 34.2551 26.8795 33.6969L46.5267 10.5858Z" fill="#0EAE44"/>
</svg>
