<svg width="72" height="72" viewBox="0 0 72 72" fill="none" xmlns="http://www.w3.org/2000/svg">
<path d="M48 46.8838C43.9282 46.8838 40.6154 49.5128 40.6154 52.7443C40.6154 55.9757 43.9282 58.6047 48 58.6047C52.0719 58.6047 55.3846 55.9757 55.3846 52.7443C55.3846 49.5128 52.0719 46.8838 48 46.8838Z" fill="white"/>
<path d="M48 23.4419C45.9641 23.4419 44.3077 24.5686 44.3077 25.9535C44.3077 27.3384 45.9641 28.4652 48 28.4652C50.0359 28.4652 51.6923 27.3384 51.6923 25.9535C51.6923 24.5686 50.0359 23.4419 48 23.4419Z" fill="white"/>
<path d="M24 11.7209V72H72V11.7209H24ZM47.9999 19.0275C53.4136 19.0275 57.8181 22.715 57.8181 27.2474C57.8181 31.7798 53.4136 35.4673 47.9999 35.4673C42.5862 35.4673 38.1817 31.7798 38.1817 27.2474C38.1817 22.715 42.5862 19.0275 47.9999 19.0275ZM47.9999 64.6934C40.18 64.6934 33.8182 59.3671 33.8182 52.8203C33.8182 46.2736 40.1802 40.9472 47.9999 40.9472C55.8196 40.9472 62.1817 46.2736 62.1817 52.8203C62.1817 59.3671 55.8198 64.6934 47.9999 64.6934Z" fill="white"/>
<path d="M11.4286 0V20.7488C10.7027 20.6423 9.93787 20.5854 9.1429 20.5854C3.93047 20.5854 0 22.9989 0 26.1997C0 29.4003 3.93047 31.814 9.1429 31.814C14.3553 31.814 18.2858 29.4005 18.2858 26.1997V5.61427H24V0H11.4286Z" fill="white"/>
</svg>
