<svg width="67" height="64" viewBox="0 0 67 64" fill="none" xmlns="http://www.w3.org/2000/svg">
<path d="M63.1905 27.7055C62.2405 21.6917 59.2594 16.0427 54.7325 11.7185C53.1827 10.2381 51.4695 8.93208 49.635 7.81615V2.14255C49.635 0.961106 48.6288 0 47.392 0H19.608C18.3712 0 17.365 0.961106 17.365 2.14255V7.81615C15.5308 8.93194 13.8179 10.2378 12.2684 11.7178C7.74103 16.0422 4.7596 21.6914 3.80945 27.7055C1.65112 28.0479 0 29.8428 0 32C0 34.1572 1.65112 35.9521 3.80945 36.2945C4.75946 42.3084 7.74074 47.9574 12.2678 52.2818C13.4214 53.3837 14.6656 54.3889 15.9826 55.2916H13.8197C12.5828 55.2916 11.5767 56.2527 11.5767 57.4341V61.8574C11.5767 63.0389 12.5828 64 13.8197 64H53.1803C54.4172 64 55.4233 63.0389 55.4233 61.8574V57.4341C55.4233 56.2527 54.4172 55.2916 53.1803 55.2916H51.0172C52.3342 54.3889 53.5786 53.3836 54.7322 52.2818C59.2593 47.9574 62.2405 42.3084 63.1905 36.2945C65.3489 35.9521 67 34.1572 67 32C67 29.8428 65.3489 28.0479 63.1905 27.7055ZM53.1976 13.1847C57.305 17.1082 60.0414 22.2061 60.9842 27.6458H56.131C55.3103 23.7201 53.4044 20.1286 50.57 17.1606L51.458 16.3123C51.8819 15.9074 51.8819 15.2509 51.458 14.8462C51.0342 14.4413 50.347 14.4413 49.9232 14.8462L49.0352 15.6945C45.9279 12.9869 42.168 11.1663 38.0583 10.3824V5.74645C43.7532 6.64701 49.0902 9.26106 53.1976 13.1847ZM23.8167 24.2163C22.9214 25.2311 22.1973 26.3878 21.6873 27.6458H13.0912C13.871 24.2817 15.5366 21.2011 17.9686 18.6301L23.8167 24.2163ZM19.5034 17.1639C22.1949 14.841 25.4199 13.2498 28.9417 12.5049V20.7161C27.6247 21.2032 26.4138 21.8949 25.3515 22.7501L19.5034 17.1639ZM23.8167 39.7837L17.9686 45.3699C15.5366 42.7989 13.871 39.7183 13.0912 36.3542H21.6873C22.1973 37.6122 22.9214 38.7689 23.8167 39.7837ZM25.3515 41.2497C26.4138 42.1049 27.6247 42.7966 28.9417 43.2838V51.495C25.4199 50.7501 22.1949 49.159 19.5034 46.836L25.3515 41.2497ZM23.0086 32C23.0086 26.474 27.715 21.9784 33.5 21.9784C39.285 21.9784 43.9914 26.474 43.9914 32C43.9914 37.526 39.285 42.0216 33.5 42.0216C27.715 42.0216 23.0086 37.526 23.0086 32ZM38.0583 20.7162V12.505C41.5801 13.2499 44.8051 14.841 47.4966 17.164L41.6484 22.7504C40.5862 21.8951 39.3753 21.2034 38.0583 20.7162ZM38.0583 43.2838C39.3753 42.7966 40.5862 42.1049 41.6485 41.2497L47.4968 46.8361C44.8052 49.159 41.5802 50.7502 38.0585 51.4951V43.2838H38.0583ZM43.1833 39.7837C44.0786 38.7689 44.8027 37.6122 45.3127 36.3542H53.9088C53.129 39.7183 51.4634 42.7989 49.0314 45.3699L43.1833 39.7837ZM43.1833 24.2163L49.0316 18.6299C51.4635 21.201 53.1291 24.2816 53.909 27.6456H45.3128C44.8027 26.3878 44.0786 25.2311 43.1833 24.2163ZM47.392 2.07343C47.4319 2.07343 47.4644 2.1044 47.4644 2.14255V6.61343C44.511 5.13009 41.3064 4.11618 37.9958 3.63888C37.8974 3.07297 37.685 2.54369 37.3809 2.07343H47.392ZM31.1123 4.35421C31.1123 3.0966 32.1834 2.07343 33.5 2.07343C34.8166 2.07343 35.8877 3.0966 35.8877 4.35421V20.1216C35.1141 19.98 34.3162 19.905 33.5 19.905C32.6838 19.905 31.8859 19.98 31.1123 20.1216V4.35421ZM19.5356 2.14255C19.5356 2.1044 19.5681 2.07343 19.608 2.07343H29.6191C29.315 2.54369 29.1026 3.07297 29.0042 3.63888C25.6936 4.11618 22.4888 5.13009 19.5356 6.61343V2.14255ZM13.8032 13.184C17.9104 9.26079 23.2473 6.64701 28.9417 5.74645V10.3824C24.832 11.1663 21.0722 12.9869 17.965 15.6944L17.0769 14.8461C16.653 14.4412 15.9658 14.4412 15.5421 14.8461C15.1183 15.2509 15.1183 15.9074 15.5421 16.3121L16.4302 17.1604C13.5958 20.1286 11.6898 23.7201 10.8692 27.6458H6.01582C6.95859 22.2058 9.69547 17.1076 13.8032 13.184ZM2.17063 32C2.17063 30.7424 3.24176 29.7192 4.55832 29.7192H21.0648C20.9166 30.4582 20.838 31.2204 20.838 32C20.838 32.7796 20.9166 33.5418 21.0648 34.2808H4.55832C3.24176 34.2808 2.17063 33.2576 2.17063 32ZM13.8027 50.8156C9.69518 46.8921 6.95859 41.7941 6.01582 36.3542H10.8691C11.6897 40.2799 13.5956 43.8714 16.43 46.8394L15.542 47.6877C15.1181 48.0926 15.1181 48.7491 15.542 49.1538C15.7538 49.3562 16.0317 49.4575 16.3094 49.4575C16.5871 49.4575 16.8649 49.3563 17.0768 49.1538L17.9648 48.3055C21.0722 51.0131 24.832 52.8336 28.9417 53.6176V58.2535C23.247 57.353 17.9101 54.7391 13.8027 50.8156ZM13.8197 61.9266C13.7797 61.9266 13.7473 61.8956 13.7473 61.8574V57.4341C13.7473 57.396 13.7797 57.365 13.8197 57.365H19.4927C22.4577 58.8601 25.6775 59.8816 29.0042 60.3611C29.1026 60.927 29.315 61.4563 29.6191 61.9266H13.8197ZM35.8877 59.6458C35.8877 60.9034 34.8166 61.9266 33.5 61.9266C32.1834 61.9266 31.1123 60.9034 31.1123 59.6458V43.8784C31.8859 44.02 32.6838 44.095 33.5 44.095C34.3162 44.095 35.1141 44.02 35.8877 43.8784V59.6458ZM53.1803 57.365C53.2203 57.365 53.2527 57.396 53.2527 57.4341V61.8574C53.2527 61.8956 53.2203 61.9266 53.1803 61.9266H37.3809C37.685 61.4563 37.8974 60.927 37.9958 60.3611C41.3226 59.8816 44.5423 58.8601 47.5073 57.365H53.1803ZM53.1973 50.8156C49.0899 54.7391 43.753 57.353 38.0583 58.2535V53.6176C42.168 52.8337 45.9278 51.0131 49.035 48.3056L49.9231 49.1539C50.135 49.3563 50.4128 49.4576 50.6905 49.4576C50.9682 49.4576 51.246 49.3564 51.4579 49.1539C51.8817 48.7491 51.8817 48.0926 51.4579 47.6879L50.5698 46.8396C53.4044 43.8714 55.3102 40.2799 56.131 36.3542H60.9842C60.0414 41.7941 57.3048 46.8921 53.1973 50.8156ZM62.4417 34.2808H45.9352C46.0834 33.5418 46.162 32.7796 46.162 32C46.162 31.2204 46.0834 30.4582 45.9352 29.7192H62.4417C63.7582 29.7192 64.8294 30.7424 64.8294 32C64.8294 33.2576 63.7582 34.2808 62.4417 34.2808Z" fill="white"/>
<path d="M33.4999 24.3284C29.0714 24.3284 25.4686 27.7699 25.4686 32.0001C25.4686 36.2303 29.0714 39.6718 33.4999 39.6718C37.9285 39.6718 41.5313 36.2303 41.5313 32.0001C41.5313 27.7699 37.9285 24.3284 33.4999 24.3284ZM33.4999 37.5983C30.2683 37.5983 27.6393 35.087 27.6393 32.0001C27.6393 28.9131 30.2683 26.4018 33.4999 26.4018C36.7316 26.4018 39.3606 28.9131 39.3606 32.0001C39.3606 35.087 36.7316 37.5983 33.4999 37.5983Z" fill="white"/>
<path d="M33.5 27.646C30.9866 27.646 28.9417 29.5993 28.9417 32.0002C28.9417 34.4011 30.9866 36.3544 33.5 36.3544C36.0135 36.3544 38.0583 34.4011 38.0583 32.0002C38.0583 29.5993 36.0135 27.646 33.5 27.646ZM33.5 34.281C32.1835 34.281 31.1123 33.2578 31.1123 32.0002C31.1123 30.7426 32.1835 29.7194 33.5 29.7194C34.8166 29.7194 35.8877 30.7426 35.8877 32.0002C35.8877 33.2578 34.8166 34.281 33.5 34.281Z" fill="white"/>
</svg>
