<svg width="53" height="45" viewBox="0 0 53 45" fill="none" xmlns="http://www.w3.org/2000/svg">
<path d="M22.58 37.757C21.3523 41.8768 12.1257 46.3472 9.39022 41.1567C6.54402 35.7566 14.0765 31.7287 18.5484 30.9574" stroke="#1174CF" stroke-width="3" stroke-linecap="round" stroke-linejoin="round"/>
<path d="M18.3492 31.2407C15.9881 31.4734 13.6508 29.7381 11.6796 28.6908C5.02752 25.1568 0.697796 18.2771 1.62556 10.7949C2.60606 2.88801 12.7749 7.23794 16.3583 10.1338C19.4609 12.6412 21.8048 16.0479 23.5255 19.5304C24.9249 22.3622 26.0965 24.7619 27.0096 27.7937" stroke="#1174CF" stroke-width="3" stroke-linecap="round" stroke-linejoin="round"/>
<path d="M28.0549 25.8577C28.8081 23.0472 29.5454 20.1269 30.6929 17.4055C31.9571 14.4072 33.4191 11.328 35.5208 8.76452C37.4034 6.46821 44.54 -0.915141 48.2626 2.29551C49.4105 3.2855 49.8865 5.28546 50.2037 6.63972C52.2421 15.3412 43.498 27.9153 33.8285 28.8326" stroke="#1174CF" stroke-width="3" stroke-linecap="round" stroke-linejoin="round"/>
<path d="M34.3263 28.6436C40.0159 26.7502 46.5267 34.0149 43.783 39.2207C40.598 45.2641 34.2266 43.8954 28.7019 35.7738" stroke="#1174CF" stroke-width="3" stroke-linecap="round" stroke-linejoin="round"/>
<path d="M27.0097 17.8779C28.3233 24.9502 26.6332 33.4287 26.064 40.4485" stroke="#1174CF" stroke-width="3" stroke-linecap="round" stroke-linejoin="round"/>
</svg>
