<svg width="26" height="25" viewBox="0 0 26 25" fill="none" xmlns="http://www.w3.org/2000/svg">
<path d="M24.7384 23.7176L22.1967 21.2864M22.1967 21.2864C22.8605 20.6515 23.2711 19.7743 23.2711 18.8053C23.2711 16.8675 21.6287 15.2966 19.6028 15.2966C17.5769 15.2966 15.9346 16.8675 15.9346 18.8053C15.9346 20.7431 17.5769 22.3141 19.6028 22.3141C20.6158 22.3141 21.5329 21.9214 22.1967 21.2864ZM18.2823 9.68258H22.3907C23.2125 9.68258 23.6234 9.68258 23.9372 9.52961C24.2134 9.39504 24.4377 9.18033 24.5784 8.91625C24.7384 8.61603 24.7384 8.22301 24.7384 7.43698V3.50718C24.7384 2.72115 24.7384 2.32813 24.5784 2.0279C24.4377 1.76382 24.2134 1.54911 23.9372 1.41455C23.6234 1.26158 23.2125 1.26158 22.3907 1.26158H18.2823C17.4604 1.26158 17.0496 1.26158 16.7357 1.41455C16.4596 1.54911 16.2352 1.76382 16.0945 2.0279C15.9346 2.32813 15.9346 2.72115 15.9346 3.50718V7.43698C15.9346 8.22301 15.9346 8.61603 16.0945 8.91625C16.2352 9.18033 16.4596 9.39504 16.7357 9.52961C17.0496 9.68258 17.4604 9.68258 18.2823 9.68258ZM3.60931 9.68258H7.71774C8.5395 9.68258 8.95038 9.68258 9.26425 9.52961C9.54034 9.39504 9.76481 9.18033 9.90549 8.91625C10.0654 8.61603 10.0654 8.22301 10.0654 7.43698V3.50718C10.0654 2.72115 10.0654 2.32813 9.90549 2.0279C9.76481 1.76382 9.54034 1.54911 9.26425 1.41455C8.95038 1.26158 8.5395 1.26158 7.71774 1.26158H3.60931C2.78755 1.26158 2.37667 1.26158 2.0628 1.41455C1.78671 1.54911 1.56225 1.76382 1.42156 2.0279C1.26164 2.32813 1.26164 2.72115 1.26164 3.50718V7.43698C1.26164 8.22301 1.26164 8.61603 1.42156 8.91625C1.56225 9.18033 1.78671 9.39504 2.0628 9.52961C2.37667 9.68258 2.78755 9.68258 3.60931 9.68258ZM3.60931 23.7176H7.71774C8.5395 23.7176 8.95038 23.7176 9.26425 23.5646C9.54034 23.43 9.76481 23.2154 9.90549 22.9513C10.0654 22.6511 10.0654 22.2581 10.0654 21.472V17.5422C10.0654 16.7561 10.0654 16.3631 9.90549 16.0629C9.76481 15.7987 9.54034 15.5842 9.26425 15.4496C8.95038 15.2966 8.5395 15.2966 7.71774 15.2966H3.60931C2.78755 15.2966 2.37667 15.2966 2.0628 15.4496C1.78671 15.5842 1.56225 15.7987 1.42156 16.0629C1.26164 16.3631 1.26164 16.7561 1.26164 17.5422V21.472C1.26164 22.2581 1.26164 22.6511 1.42156 22.9513C1.56225 23.2154 1.78671 23.43 2.0628 23.5646C2.37667 23.7176 2.78755 23.7176 3.60931 23.7176Z" stroke="white" stroke-width="2.472" stroke-linecap="round" stroke-linejoin="round"/>
</svg>
