<svg width="45" height="43" viewBox="0 0 45 43" fill="none" xmlns="http://www.w3.org/2000/svg">
<path d="M37.55 16.0625V41H7.44995V16.0625" stroke="white" stroke-width="3.24" stroke-miterlimit="10"/>
<path d="M44 19.625L22.5 3L1 19.625" stroke="white" stroke-width="3.24" stroke-miterlimit="10"/>
<path d="M30.5617 25.0982L19.5414 18.7495C19.3536 18.6854 19.1657 18.6212 18.9779 18.6854C18.7901 18.7495 18.6648 18.8778 18.6022 19.0701L18.4144 19.5832L16.1602 18.1082C15.9098 17.9158 15.5341 17.98 15.3462 18.3006C15.1584 18.5571 15.221 18.9419 15.5341 19.1343L18.0387 20.8016L16.4733 25.2265L14.0939 29.2024C13.9687 29.3948 13.9687 29.7154 14.0939 29.9078C14.2192 30.1002 14.407 30.1643 14.5948 30.1643C14.6575 30.1643 14.7201 30.1643 14.7827 30.1643L20.7311 28.5611L24.0497 30.6132L24.175 31.1263C23.7366 31.3186 23.361 31.7034 23.1105 32.0882C22.4217 33.3066 22.7974 34.9098 23.9871 35.6152C24.3628 35.8717 24.8011 36 25.302 36C25.4899 36 25.6777 36 25.9282 35.9359C26.5543 35.7435 27.1179 35.3587 27.4936 34.7816C28.1823 33.5631 27.8066 31.9599 26.6169 31.2545C26.2413 30.998 25.8656 30.9339 25.4273 30.8697L25.3646 30.485L30.7495 26.2525C30.9374 26.1242 31 25.9319 31 25.6754C30.8748 25.4188 30.7495 25.2265 30.5617 25.0982ZM15.9724 28.497L17.2247 26.3808L19.2284 27.5992L15.9724 28.497ZM25.8656 32.2806C26.4291 32.6653 26.6796 33.4349 26.3039 34.0762C26.116 34.3968 25.8656 34.5892 25.5525 34.6533C25.2394 34.7174 24.9263 34.6533 24.6133 34.525C24.0497 34.1403 23.7993 33.3707 24.175 32.7295C24.2376 32.6012 24.3002 32.5371 24.4254 32.4729L24.6759 33.5631C24.7385 33.8838 24.9889 34.0762 25.302 34.0762C25.3646 34.0762 25.3646 34.0762 25.4273 34.0762C25.7403 34.012 25.9908 33.6914 25.9282 33.3066L25.6777 32.2164C25.7403 32.2164 25.8029 32.2164 25.8656 32.2806Z" fill="white"/>
</svg>
