<svg width="20" height="21" viewBox="0 0 20 21" fill="none" xmlns="http://www.w3.org/2000/svg">
<path d="M9.90479 9.28254C11.1353 9.28254 12.1344 8.37015 12.1344 7.25358C12.1344 6.13702 11.1353 5.22144 9.90479 5.22144C8.67429 5.22144 7.67517 6.13383 7.67517 7.25039C7.67517 8.36696 8.67429 9.28254 9.90479 9.28254ZM9.90479 6.08279C10.6129 6.08279 11.1879 6.60598 11.1879 7.25039C11.1879 7.89481 10.6129 8.418 9.90479 8.418C9.19664 8.418 8.62171 7.89481 8.62171 7.25039C8.62171 6.60598 9.19664 6.08279 9.90479 6.08279Z" fill="#1174CF" />
<path d="M13.2843 11.6617C12.5025 10.6153 11.3667 10.0825 9.90479 10.0825C8.44291 10.0825 7.30707 10.6121 6.5253 11.6617C5.94335 12.4401 5.57175 13.5024 5.42451 14.8104C5.39646 15.0464 5.58577 15.2602 5.84519 15.2825C6.10461 15.308 6.33949 15.1358 6.36403 14.8997C6.66202 12.2742 7.85396 10.9439 9.90479 10.9439C11.9556 10.9439 13.1476 12.2742 13.4455 14.8997C13.4701 15.1198 13.6769 15.2857 13.9153 15.2857C13.9328 15.2857 13.9469 15.2857 13.9644 15.2825C14.2238 15.257 14.4131 15.0464 14.3851 14.8104C14.2378 13.4992 13.8662 12.4401 13.2843 11.6617Z" fill="#1174CF" />
<path d="M18.5 10.5C18.5 15.5404 14.6263 19.5 10 19.5C5.3737 19.5 1.5 15.5404 1.5 10.5C1.5 5.45963 5.3737 1.5 10 1.5C14.6263 1.5 18.5 5.45963 18.5 10.5Z" stroke="#1174CF" stroke-opacity="0.509" stroke-width="3"/>
</svg>
