<?xml version="1.0" encoding="iso-8859-1"?>
<!-- Uploaded to: SVG Repo, www.svgrepo.com, Generator: SVG Repo Mixer Tools -->
<svg version="1.1" id="Layer_1" xmlns="http://www.w3.org/2000/svg" xmlns:xlink="http://www.w3.org/1999/xlink" 
	 viewBox="0 0 512 512" xml:space="preserve">
<rect x="54.857" y="164.571" style="fill:#4B92B9;" width="402.286" height="339.592"/>
<rect x="96.653" y="206.367" style="fill:#FF503D;" width="41.796" height="41.796"/>
<g>
	<rect x="165.878" y="206.367" style="fill:#79CAE8;" width="41.796" height="41.796"/>
	<rect x="235.102" y="206.367" style="fill:#79CAE8;" width="41.796" height="41.796"/>
	<rect x="304.327" y="206.367" style="fill:#79CAE8;" width="41.796" height="41.796"/>
</g>
<rect x="373.551" y="206.367" style="fill:#8EC766;" width="41.796" height="41.796"/>
<rect x="96.653" y="277.765" style="fill:#CAF9F4;" width="41.796" height="41.796"/>
<g>
	<rect x="165.878" y="277.765" style="fill:#79CAE8;" width="41.796" height="41.796"/>
	<rect x="235.102" y="277.765" style="fill:#79CAE8;" width="41.796" height="41.796"/>
	<rect x="304.327" y="277.765" style="fill:#79CAE8;" width="41.796" height="41.796"/>
</g>
<rect x="96.653" y="349.174" style="fill:#CAF9F4;" width="41.796" height="41.796"/>
<g>
	<rect x="165.878" y="349.174" style="fill:#79CAE8;" width="41.796" height="41.796"/>
	<rect x="235.102" y="349.174" style="fill:#79CAE8;" width="41.796" height="41.796"/>
	<rect x="304.327" y="349.174" style="fill:#79CAE8;" width="41.796" height="41.796"/>
</g>
<rect x="96.653" y="420.571" style="fill:#CAF9F4;" width="41.796" height="41.796"/>
<g>
	<rect x="165.878" y="420.571" style="fill:#79CAE8;" width="41.796" height="41.796"/>
	<rect x="235.102" y="420.571" style="fill:#79CAE8;" width="41.796" height="41.796"/>
	<rect x="304.327" y="420.571" style="fill:#79CAE8;" width="41.796" height="41.796"/>
</g>
<g>
	<rect x="373.551" y="277.765" style="fill:#CAF9F4;" width="41.796" height="41.796"/>
	<rect x="373.551" y="349.174" style="fill:#CAF9F4;" width="41.796" height="113.194"/>
</g>
<rect x="54.857" y="7.837" style="fill:#79CAE8;" width="402.286" height="156.735"/>
<rect x="96.653" y="49.633" style="fill:#CAF9F4;" width="318.694" height="73.143"/>
<path d="M146.286,198.531H88.816V256h57.469V198.531z M130.612,240.327H104.49v-26.122h26.122V240.327z"/>
<path d="M215.51,198.531h-57.469V256h57.469V198.531z M199.837,240.327h-26.122v-26.122h26.122V240.327z"/>
<path d="M284.735,198.531h-57.469V256h57.469V198.531z M269.061,240.327h-26.122v-26.122h26.122V240.327z"/>
<path d="M353.959,198.531H296.49V256h57.469V198.531z M338.286,240.327h-26.122v-26.122h26.122V240.327z"/>
<path d="M423.184,198.531h-57.469V256h57.469V198.531z M407.51,240.327h-26.122v-26.122h26.122V240.327z"/>
<path d="M146.286,269.932H88.816v57.469h57.469V269.932z M130.612,311.728H104.49v-26.122h26.122V311.728z"/>
<path d="M215.51,269.932h-57.469v57.469h57.469V269.932z M199.837,311.728h-26.122v-26.122h26.122V311.728z"/>
<path d="M284.735,269.932h-57.469v57.469h57.469V269.932z M269.061,311.728h-26.122v-26.122h26.122V311.728z"/>
<path d="M353.959,269.932H296.49v57.469h57.469V269.932z M338.286,311.728h-26.122v-26.122h26.122V311.728z"/>
<path d="M423.184,269.932h-57.469v57.469h57.469V269.932z M407.51,311.728h-26.122v-26.122h26.122V311.728z"/>
<path d="M146.286,341.334H88.816v57.469h57.469V341.334z M130.612,383.13H104.49v-26.122h26.122V383.13z"/>
<path d="M215.51,341.334h-57.469v57.469h57.469V341.334z M199.837,383.13h-26.122v-26.122h26.122V383.13z"/>
<path d="M284.735,341.334h-57.469v57.469h57.469V341.334z M269.061,383.13h-26.122v-26.122h26.122V383.13z"/>
<path d="M353.959,341.334H296.49v57.469h57.469V341.334z M338.286,383.13h-26.122v-26.122h26.122V383.13z"/>
<path d="M146.286,470.204v-57.469H88.816v57.469H146.286z M104.49,428.408h26.122v26.122H104.49V428.408z"/>
<path d="M215.51,412.735h-57.469v57.469h57.469V412.735z M199.837,454.531h-26.122v-26.122h26.122V454.531z"/>
<path d="M284.735,412.735h-57.469v57.469h57.469V412.735z M269.061,454.531h-26.122v-26.122h26.122V454.531z"/>
<path d="M353.959,412.735H296.49v57.469h57.469V412.735z M338.286,454.531h-26.122v-26.122h26.122V454.531z"/>
<path d="M423.184,341.334h-57.469v128.87h57.469V341.334z M407.51,454.531h-26.122v-97.523h26.122V454.531z"/>
<path d="M47.02,0v512H464.98V0H47.02z M449.306,145.651l-26.122-26.122v-66.65l26.122-26.122V145.651z M412.1,41.796H99.9
	L73.777,15.673h364.445L412.1,41.796z M407.51,57.469v57.469H104.49V57.469H407.51z M88.816,52.879v66.649L62.694,145.65V26.757
	L88.816,52.879z M99.9,130.612h312.2l26.122,26.122H73.777L99.9,130.612z M449.306,496.327H62.694V172.408h386.612V496.327z"/>
</svg>